<svg id="Ebene_1" data-name="Ebene 1" xmlns="http://www.w3.org/2000/svg" viewBox="0 0 335.46 429.92"><defs><style>.cls-1{fill:#9fb6c1;}.cls-2{fill:#fff;}</style></defs><title>wassertrofen_verschmutzt</title><path class="cls-1" d="M574.1,281.14s-170.46,161.6-167.7,274.41c1.54,62.71,51.83,155.5,167.7,155.5s166.16-92.8,167.7-155.5C744.57,442.74,574.1,281.14,574.1,281.14Z" transform="translate(-406.37 -281.14)"/><path class="cls-2" d="M426.3,541.55s1,3.49,3,9.44c1,3,2.26,6.54,3.73,10.58s3.19,8.56,5.22,13.39,4.28,10,6.83,15.35c1.28,2.67,2.61,5.4,4.08,8.12s3,5.49,4.51,8.29c3.19,5.53,6.61,11.15,10.46,16.56,3.69,5.54,8,10.71,12.25,15.9a177.06,177.06,0,0,0,14,14.28c2.43,2.24,4.86,4.46,7.45,6.42L501.6,663l3.88,2.8,3.83,2.78,3.9,2.51,3.83,2.48c1.28.79,2.59,1.5,3.86,2.24,5,3.06,10.12,5.43,14.75,7.86,4.8,2,9.1,4.29,13.14,5.73s7.46,3.2,10.44,4.09,5.27,1.92,6.86,2.49l2.44.95h0a.36.36,0,0,1-.13.69l-2.61,0c-1.69,0-4.21,0-7.4-.13s-7-.53-11.5-1l-3.44-.42-3.6-.71-7.79-1.61A147.44,147.44,0,0,1,515,688.15c-1.49-.59-3-1.14-4.55-1.78l-4.52-2.16L501.26,682c-1.52-.82-3-1.72-4.55-2.6l-4.62-2.69-4.5-3c-3.05-2-6-4.28-8.87-6.61a140.26,140.26,0,0,1-29.9-33.55c-2.06-3.09-3.82-6.31-5.62-9.46s-3.27-6.41-4.76-9.58a162,162,0,0,1-7.09-18.85,155.61,155.61,0,0,1-4.21-17.42,149.35,149.35,0,0,1-1.94-14.94c-.32-4.47-.39-8.37-.33-11.58a69.16,69.16,0,0,1,.72-10.06.36.36,0,0,1,.41-.3A.37.37,0,0,1,426.3,541.55Z" transform="translate(-406.37 -281.14)"/></svg>