<?xml version="1.0" encoding="utf-8"?>
<!-- Generator: Adobe Illustrator 21.0.2, SVG Export Plug-In . SVG Version: 6.00 Build 0)  -->
<svg version="1.1" id="Ebene_1" xmlns="http://www.w3.org/2000/svg" xmlns:xlink="http://www.w3.org/1999/xlink" x="0px" y="0px"
	 viewBox="0 0 4771.6 3939.2" style="enable-background:new 0 0 4771.6 3939.2;" xml:space="preserve">
<style type="text/css">
	.st0{fill:#87D4A2;}
	.st1{opacity:0.68;fill:#272828;stroke:#272828;stroke-miterlimit:10;enable-background:new    ;}
	.st2{fill:#525252;}
	.st3{fill:#52956E;}
	.st4{fill:#9D7766;}
	.st5{fill:#AE8775;}
	.st6{fill:#A47A69;}
	.st7{fill:#A67C6B;}
	.st8{fill:#AE8673;}
	.st9{fill:#6FBF88;}
	.st10{fill:#A07A69;}
	.st11{fill:#A67D6C;}
	.st12{fill:#A37968;}
	.st13{fill:#B78D78;}
	.st14{fill:#A9806F;}
	.st15{fill:#AB8270;}
	.st16{fill:#9F7665;}
	.st17{fill:#B58C77;}
	.st18{fill:#BC927D;}
	.st19{fill:#BD947E;}
	.st20{fill:#B18773;}
	.st21{fill:#C09781;}
	.st22{fill:#C29982;}
	.st23{fill:#A27867;}
	.st24{fill:#AC8472;}
	.st25{fill:#B98F7A;}
	.st26{fill:#C49C84;}
	.st27{fill:#C19881;}
	.st28{fill:#BB917C;}
	.st29{fill:#5E5E5E;}
	.st30{fill:#91A6B5;stroke:#91A6B5;stroke-width:4;stroke-miterlimit:10;}
	.st31{fill:#DDAF7B;}
	.st32{opacity:0.64;fill:#272828;stroke:#272828;stroke-miterlimit:10;enable-background:new    ;}
	.st33{fill:#272828;stroke:#272828;stroke-miterlimit:10;}
	.st34{opacity:0.64;fill:#272828;enable-background:new    ;}
	.st35{fill:#4B8146;}
	.st36{fill:#76522A;}
	.st37{fill:#9F7242;}
	.st38{fill:#B38258;}
	.st39{fill:#916F46;}
	.st40{fill:#375C3E;}
	.st41{fill:#599F5C;}
	.st42{fill:#385D2E;}
	.st43{fill:#4F8E4F;}
	.st44{fill:#5CA561;}
	.st45{fill:#5FAC67;}
	.st46{fill:#4C854A;}
	.st47{fill:#3E6636;}
	.st48{fill:#345A2D;}
	.st49{fill:#272828;}
	.st50{fill:#CC85DD;}
	.st51{fill:#80BEE5;}
	.st52{fill:#282727;}
	.st53{fill:#A2C9DD;}
	.st54{fill:url(#SVGID_1_);}
	.st55{opacity:0.24;fill:#80BEE5;enable-background:new    ;}
	.st56{fill:#BA9E2B;}
	.st57{fill:#80BEE5;stroke:#91A6B5;stroke-width:4;stroke-miterlimit:10;}
	.st58{fill:none;stroke:#FFFFFF;stroke-width:7;stroke-miterlimit:10;}
	.st59{fill:#B7AC92;}
	.st60{fill:#D1C3A1;}
	.st61{fill:#C14216;stroke:#C14216;stroke-width:3;stroke-miterlimit:10;}
	.st62{fill:#C14216;}
	.st63{fill:#2C2D2D;}
	.st64{fill:#767777;}
	.st65{fill:#2731AF;}
	.st66{fill:#CF7FE2;}
	.st67{fill:#AA61BC;}
	.st68{fill:url(#SVGID_2_);}
	.st69{fill:#141616;}
	.st70{fill:none;stroke:#847E7E;stroke-width:4;stroke-miterlimit:10;}
	.st71{fill:none;stroke:#9F7242;stroke-width:7;stroke-miterlimit:10;}
	.st72{fill:#2C2D2D;stroke:#B38258;stroke-width:2;stroke-miterlimit:10;}
	.st73{display:none;fill:#80BEE5;}
	.st74{display:none;opacity:0.5;fill:#DEDEDE;enable-background:new    ;}
	.st75{opacity:0.88;fill:#EAEAEA;enable-background:new    ;}
</style>
<path class="st0" d="M4119.7,2035.9l299,117l-199,67l104,48l-292,77c-63.7,44-127.4,88-191,132c-66.3-20.7-132.6-41.3-199-62l-91,31
	h-124l-60,31l-240,35l-270,7l-386-100l-112,19l-243-122l-143-115l63-104l312-8l67-39l297-32l130-61l312-11l98,45l88-15l92,6l88,13
	L4119.7,2035.9z"/>
<ellipse transform="matrix(0.995 -9.999751e-02 9.999751e-02 0.995 -186.6369 408.5807)" class="st1" cx="3982.4" cy="2066" rx="28.6" ry="17.4"/>
<title>zwei_inseln_intro</title>
<path class="st2" d="M4694.2,3050.6"/>
<polygon class="st3" points="4418.7,2152.9 4386.7,2179.9 4241.6,2230 4219.7,2219.9 "/>
<polygon class="st3" points="4319.7,2267.9 4304.7,2285.9 4035.7,2357.9 4011.8,2357.9 4031.7,2344.9 "/>
<polygon class="st4" points="4372.8,2184.7 4339.7,2223.9 4270.7,2243.4 4241.7,2229.9 "/>
<polygon class="st5" points="4290.7,2304.9 4020.7,2376.9 3957.7,2410.9 3832.7,2495.9 3840.7,2476.9 4011.7,2357.9 4307.7,2285.9 
	"/>
<polygon class="st6" points="4004.7,2383.5 3975.7,2501.9 3865.7,2541.9 3912.7,2493.9 3935.2,2424.2 "/>
<polygon class="st7" points="3934.7,2425.9 3832.7,2495.9 3774.7,2485.9 3694.7,2634.9 3912.7,2495.9 "/>
<polygon class="st8" points="3912.7,2493.9 3694.7,2632.9 3669.7,2692.9 3975.7,2501.9 3865.7,2541.9 "/>
<polygon class="st5" points="3832.7,2495.9 3641.7,2462.9 3641.7,2433.9 3840.7,2476.9 "/>
<polygon class="st3" points="3840.7,2476.9 3686.1,2443.5 3641.7,2433.9 "/>
<polygon class="st8" points="3669.7,2692.9 3577.7,2772.9 3466.7,2849.9 3290.7,2903.9 3185.7,2972.9 3085.7,2892.9 3067.7,2931.9 
	2924.7,2810.9 2828.7,2754.9 2761.7,2725.9 2611.7,2634.9 2479.7,2543.9 2435.7,2464.9 2497.7,2454.9 2850.7,2535.9 3029.7,2529.9 
	3139.7,2541.9 3359.7,2495.9 3431.7,2483.9 3551.7,2481.9 3627.7,2454.9 3641.7,2462.9 3774.7,2485.9 "/>
<polygon class="st9" points="3641.7,2433.9 3557.7,2462.9 3431.7,2462.9 3359.7,2495.9 3157.7,2518.9 3082.7,2518.9 3362.7,2476.9 
	3426.7,2445.9 3550.7,2445.9 3641.7,2414.9 3840.7,2476.9 3641.7,2414.9 "/>
<polygon class="st6" points="3669.7,2440 3840.7,2476.9 3641.7,2414.9 3641.7,2433.9 3557.7,2462.9 3431.7,2462.9 3359.7,2495.9 
	3551.7,2484.9 3641.7,2462.9 "/>
<polygon class="st10" points="3099,2516.5 3066.7,2513.5 2856.7,2518.9 2484.7,2433.9 2373.7,2454.9 2389.7,2466.9 2480.2,2456.7 
	2850.7,2535.9 3029.7,2529.9 "/>
<polygon class="st9" points="2358.7,2437.9 2373.7,2454.9 2484.7,2433.9 2856.7,2518.9 2470.7,2414.9 "/>
<polygon class="st6" points="3359.7,2495.9 3139.7,2541.9 3029.7,2529.9 3098.7,2518.9 "/>
<polygon class="st6" points="3105.2,2535.9 2989.7,2531.2 3066.7,2513.9 3098.7,2518.9 "/>
<polyline class="st0" points="3066.7,2513.9 3098.7,2518.9 3126.7,2511.9 3082.7,2484.9 "/>
<polygon class="st7" points="3676.1,2660.6 3605.6,2748.2 3478.4,2804 3600.7,2659 3679,2634.8 "/>
<polygon class="st7" points="2479.7,2455.9 2531.7,2513.9 2479.7,2495.9 2435.7,2464.9 "/>
<polygon class="st7" points="2435.7,2464.9 2417.7,2455.9 2483.7,2455.9 "/>
<polygon class="st7" points="3511.7,2524.9 3409.7,2535.9 3348.7,2668.9 3240.7,2827.9 3356.7,2773.9 3482.7,2685.9 3475.7,2608.9 
	"/>
<polygon class="st9" points="3641.7,2433.9 3669.7,2437.9 3840.7,2476.9 3641.7,2414.9 "/>
<polygon class="st11" points="3774.7,2484.9 3685.6,2470.2 3648.7,2569.9 3694.7,2632.9 "/>
<polygon class="st12" points="3694.7,2632.9 3669.7,2692.9 3648.7,2569.9 "/>
<polygon class="st13" points="3685.7,2469.9 3641.7,2462.9 3634.7,2551.9 3648.7,2569.9 "/>
<polygon class="st12" points="3774.7,2484.9 3821.1,2493.9 3694.7,2632.9 "/>
<polygon class="st14" points="3290.7,2903.9 3461.7,2849.9 3669.7,2692.9 3648.7,2569.9 3585.7,2703.9 "/>
<polygon class="st15" points="3543.7,2602.9 3585.7,2703.9 3648.7,2569.9 3634.7,2551.9 "/>
<polygon class="st11" points="3634.7,2551.9 3543.7,2602.9 3525.7,2576.9 3532.9,2484.9 3627.7,2454.9 3641.7,2462.9 "/>
<polygon class="st16" points="3525,2614.5 3454.9,2641.9 3418.7,2604.6 3516.6,2484.9 3532.7,2484.9 "/>
<polygon class="st17" points="3583.7,2703.9 3532.7,2676.9 3498.7,2703.9 3532.7,2739.8 "/>
<polygon class="st18" points="3583.7,2703.9 3543.7,2602.9 3532.7,2676.9 "/>
<polygon class="st19" points="3290.7,2627.9 3201.9,2528.9 3139.7,2541.9 3047.4,2530.4 3082.7,2569.9 3274.7,2729.9 "/>
<polygon class="st20" points="3341,2501.9 3290.7,2627.9 3201.7,2528.9 "/>
<polygon class="st18" points="3038.7,2541.9 2963.7,2627.9 3246.7,2803.9 "/>
<polygon class="st21" points="2963.7,2627.9 3146.7,2813.9 3246.7,2803.9 "/>
<polygon class="st22" points="3146.7,2813.9 3098.7,2803.9 2948.7,2692.9 2963.7,2627.9 "/>
<polygon class="st23" points="3355.7,2772.9 3246.7,2803.9 3271.7,2729.9 "/>
<polygon class="st24" points="3355.7,2848.9 3355.7,2772.9 3246.7,2803.9 3246.7,2884.9 3185.7,2972.9 3290.7,2903.9 "/>
<polygon class="st25" points="2922.1,2535.9 2963.7,2627.9 2948.7,2692.9 2942.7,2652.9 2816.7,2619.9 2776.6,2518.9 2850.7,2535.9 
	"/>
<polygon class="st7" points="2948.7,2692.9 2869.7,2676.9 2784.7,2658.9 2755.7,2630.9 2755.7,2605.9 2784.7,2605.9 2816.7,2619.9 
	2860.6,2631.4 2942.7,2652.9 "/>
<polygon class="st26" points="2607.7,2634.9 2755.7,2631.9 2755.7,2605.9 2784.7,2605.9 2806.2,2615.3 2776.7,2518.9 2736.3,2513.9 
	2497.7,2454.9 2435.7,2464.9 2483.7,2543.9 "/>
<polygon class="st19" points="2784.7,2657.8 2761.7,2725.9 2607.7,2634.8 2755.7,2631.9 "/>
<polygon class="st8" points="3246.7,2872.9 3205.5,2944.3 3162.7,2933.9 3140.7,2908.9 3073.7,2852.9 2923.7,2756.9 2834.7,2703.9 
	2948.7,2692.9 3132.7,2834.9 "/>
<polygon class="st27" points="3201.7,2943.9 3185.7,2972.9 3082.7,2892.9 2921.7,2790.9 2921.7,2756.9 3140.7,2903.9 "/>
<polygon class="st28" points="3082.7,2892.9 3066.7,2931.9 2878.7,2772.9 2761.7,2725.9 2921.7,2790.9 "/>
<ellipse class="st2" cx="2738.4" cy="2570.8" rx="35.5" ry="48"/>
<ellipse class="st2" cx="2731.4" cy="2570.8" rx="35.5" ry="48"/>
<ellipse class="st2" cx="2724.4" cy="2570.8" rx="35.5" ry="48"/>
<ellipse class="st2" cx="2709.4" cy="2570.8" rx="35.5" ry="48"/>
<ellipse class="st2" cx="2702.4" cy="2570.8" rx="35.5" ry="48"/>
<ellipse class="st2" cx="2695.4" cy="2570.8" rx="35.5" ry="48"/>
<ellipse class="st2" cx="2680.4" cy="2570.8" rx="35.5" ry="48"/>
<ellipse class="st2" cx="2673.4" cy="2570.8" rx="35.5" ry="48"/>
<ellipse class="st2" cx="2666.4" cy="2570.8" rx="35.5" ry="48"/>
<ellipse class="st2" cx="2666.4" cy="2570.8" rx="35.5" ry="48"/>
<ellipse class="st2" cx="2659.4" cy="2570.8" rx="35.5" ry="48"/>
<ellipse class="st2" cx="2652.4" cy="2570.8" rx="35.5" ry="48"/>
<ellipse class="st29" cx="2643.9" cy="2571.3" rx="35.5" ry="48"/>
<path class="st30" d="M2808.1,2025.5"/>
<path class="st31" d="M2895.9,2031.7"/>
<path class="st32" d="M4144.4,2159.6c-2.3-2.7-16.1,6.2-30.5,13.3c-28.6,14.1-53.8,16.6-79,19c-71.8,6.9-126.9-16-131.8-18.2
	c0,0-13.6-6.1-24.2-10.1l0,0c0,0,12.6,6.6,32,14.8c16.1,6.8,41.9,17.7,73,24.4l0,0c94.2,20.9,129.4-5,141-16
	C4132.2,2179.9,4147,2162.8,4144.4,2159.6z"/>
<path class="st33" d="M2289.2,2144.9"/>
<path class="st34" d="M2472,2123.7l7,1.6v11.1c-2,2.7-4.6,5-7.4,6.9c-4,2.5-8.5,4-13.1,4.5c-6.3,0.4-12.7,0.2-18.9-0.6
	c-7-0.9-13.9-2.6-20.5-5.1c-1.4-5.5-1.4-11.3,0.1-16.8l7.2-1.8c1.2,2.4,3,4.3,5.3,5.7c0.5,0.3,11.1,1.7,12.4,1.4
	c5.5,0.4,11-0.2,16.4-1.7C2464.5,2127.6,2468.4,2125.9,2472,2123.7z"/>
<path class="st34" d="M2534.6,2045.8l6.2,1.6v11.1c-1.8,2.7-4.1,5-6.7,6.9c-3.5,2.5-7.5,4-11.8,4.5c-12.1,0.9-24.2-1.1-35.3-5.7
	c-1.3-5.5-1.2-11.3,0.1-16.8l6.4-1.8c1,2.3,2.7,4.3,4.8,5.7c0.5,0.3,10,1.7,11.1,1.4c4.9,0.4,9.9-0.2,14.7-1.7
	C2527.9,2049.7,2531.4,2048,2534.6,2045.8z"/>
<polygon class="st35" points="2514.2,1879.5 2547,1916 2493.3,1879.5 "/>
<path class="st36" d="M2507.5,1941.3c-4.9-0.8-9.6-2.8-13.5-5.9c-2.2-1.6-4-3.6-5.4-5.9h-8.1c2.1,3.8,4.8,7.2,8.1,9.9
	c4.4,3.9,9.6,6.9,15.1,8.8C2504.8,1946.1,2506.1,1943.6,2507.5,1941.3z"/>
<path class="st31" d="M2497.9,1956c-0.8,4.8-1.9,11.7-2.6,20c-0.5,5.5-1.2,14-1.6,33.4c-0.1,9.8-0.3,22.5,0,37.4
	c0.7,1.9,2.1,3.5,3.8,4.4c1.4,0.8,2.9,1.2,4.5,1.2c4.5-13.3,7.3-27.1,8.4-41.2c0.6-8.2,0.6-16.5,0-24.7c-3-4.4-5.6-9-7.7-14
	C2500.4,1967.4,2498.8,1961.8,2497.9,1956z"/>
<path class="st37" d="M2513.3,1912.5l-7,3.7c-0.2,7.4-1.2,14.8-3.1,22c-1.7,6.3-4,12.3-7,18.1c0.3,6.1,1.4,12.2,3.1,18.1
	c1.8,5.9,4.4,11.6,7.7,16.9c3.5-12,5.9-24.4,7-36.9C2515.3,1940.4,2515.1,1926.4,2513.3,1912.5z"/>
<path class="st38" d="M2513.3,1917.2c1.5,22,1.2,44-1.1,65.9c-2.5,23.5-7.1,46.8-13.8,69.5c6.7,1.6,13.7,1.8,20.4,0.5
	c5.6-1,10.9-3,15.8-5.9c-4.1-8.7-7.3-17.8-9.8-27.1c-5.4-20.3-4.6-33.6-6.6-59.5C2517.4,1950.2,2515.9,1935.3,2513.3,1917.2z"/>
<path class="st36" d="M2540.9,1923c-2.8,5.5-6.4,10.5-10.6,15.1c-4.8,5.2-10.4,9.7-16.6,13.1v-5.3l21.2-22.9L2540.9,1923z"/>
<path class="st39" d="M2540.3,1923h4.5c-3,5.8-6.7,11.2-10.9,16.2c-5.7,6.8-12.3,12.6-19.7,17.4v-6.9c4.9-5,9.7-9.9,14.6-14.9
	C2532.6,1930.9,2536.5,1927,2540.3,1923z"/>
<polygon class="st40" points="2464.5,1895.4 2464.5,1903 2487.2,1908.9 2474.1,1898.3 "/>
<polygon class="st41" points="2502.4,1913.4 2465.5,1903 2453.8,1918.5 2465.5,1924.8 2490.1,1924.8 "/>
<polygon class="st42" points="2501.6,1911.7 2489.3,1923.3 2480.6,1923.3 2464.5,1923.3 2475,1930.3 2489.3,1930.3 2509.7,1916.8 
	"/>
<polygon class="st43" points="2509.7,1916 2487.2,1908.9 2509.7,1886 "/>
<polygon class="st44" points="2509.7,1886 2474.1,1880.1 2464.5,1886 2464.5,1895.4 2474.1,1898.3 2487.2,1908.9 "/>
<polygon class="st45" points="2540.9,1880.1 2540.9,1871.8 2509.7,1861.8 2488.3,1866.5 2474.1,1880.1 2505.8,1886 "/>
<polygon class="st35" points="2530.1,1903 2530.1,1908.9 2509.6,1915.7 2509.7,1886 "/>
<polygon class="st46" points="2540.9,1880.1 2517.7,1884.2 2530.1,1903 2540.9,1891.2 "/>
<polygon class="st47" points="2550.3,1908.7 2560.4,1908.7 2567.7,1916 2567.7,1921.6 2559,1929.5 2550.3,1935.2 2533.2,1937.3 
	2550.3,1922.7 "/>
<polygon class="st48" points="2547.2,1908.7 2552.4,1908.7 2552.4,1916.6 2552.4,1927.6 2543.6,1931.3 2533.2,1937.3 2522,1937.3 
	2522,1931.3 2531.5,1926.5 2542.9,1916.3 "/>
<polygon class="st47" points="2540.9,1880.1 2554.4,1880.1 2554.4,1895.4 2544.7,1912.5 2521.7,1917.2 2505.8,1917.2 2530.1,1907.7 
	2540.2,1890.7 "/>
<polygon class="st37" points="2513,1917.2 2507.5,1986.7 2507.5,2021.4 2517.7,1954.8 "/>
<polygon class="st35" points="2450.6,1921.6 2490,1965.4 2425.7,1921.6 "/>
<path class="st36" d="M2442.5,1995.8c-5.9-1-11.5-3.4-16.3-7.1c-2.5-2-4.7-4.4-6.5-7.1h-9.7c2.6,4.5,5.9,8.5,9.7,12
	c5.3,4.7,11.5,8.3,18.2,10.6C2439.5,2001.3,2441.1,1998.6,2442.5,1995.8z"/>
<path class="st31" d="M2431.1,2013.4c-0.9,5.8-2.1,14.1-3.1,24c-0.7,6.6-1.5,16.7-1.9,40.1c-0.3,11.7-0.3,26.9,0,44.9
	c0.9,2.3,2.5,4.2,4.6,5.4c1.7,0.9,3.5,1.5,5.4,1.5c8.5-25.5,11.9-52.4,9.9-79.2c-3.6-5.3-6.7-10.9-9.3-16.7
	C2434.1,2027,2432.2,2020.3,2431.1,2013.4z"/>
<path class="st37" d="M2449.6,1961.1l-8.4,4.6c-0.2,8.9-1.5,17.7-3.8,26.2c-2.1,7.5-4.9,14.8-8.4,21.8c0.4,7.4,1.6,14.7,3.8,21.8
	c2.2,7.1,5.3,14,9.2,20.3c4.2-14.5,7-29.3,8.4-44.3C2451.9,1994.8,2451.7,1977.9,2449.6,1961.1z"/>
<path class="st38" d="M2449.6,1966.8c1.8,26.3,1.4,52.8-1.3,79c-3,28.2-8.5,56.1-16.6,83.3c8,1.9,16.3,2.1,24.4,0.7
	c6.7-1.2,13.1-3.6,18.9-7.1c-4.9-10.4-8.8-21.3-11.8-32.5c-6.5-24.3-5.6-40.2-7.9-71.3C2454.5,2006.4,2452.7,1988.6,2449.6,1966.8z"
	/>
<path class="st36" d="M2482.6,1973.9c-3.5,6.5-7.7,12.6-12.7,18.1c-5.8,6.2-12.5,11.5-19.9,15.7v-6.4l25.3-27.5L2482.6,1973.9z"/>
<path class="st39" d="M2481.9,1973.9h5.3c-3.6,6.9-7.9,13.4-13,19.3c-6.8,8-14.8,15.1-23.6,20.9v-8.2l17.5-17.8
	C2472.8,1983.3,2477.4,1978.6,2481.9,1973.9z"/>
<polygon class="st40" points="2391.1,1940.7 2391.1,1949.8 2418.2,1957 2402.7,1944.3 "/>
<polygon class="st41" points="2436.4,1962.1 2392.3,1949.8 2378.3,1968.3 2392.3,1976.1 2421.7,1976.1 "/>
<polygon class="st42" points="2435.7,1960.2 2420.8,1974.1 2410.5,1974.1 2391.1,1974.1 2403.7,1982.6 2420.8,1982.6 2445.3,1966.4 
	"/>
<polygon class="st43" points="2445.3,1965.4 2418.2,1957 2445.3,1929.4 "/>
<polygon class="st44" points="2445.3,1929.4 2402.7,1922.3 2391.1,1929.4 2391.1,1940.7 2402.7,1944.3 2418.2,1957 "/>
<polygon class="st45" points="2482.6,1922.3 2482.6,1912.5 2445.3,1900.5 2419.6,1906.2 2402.7,1922.3 2440.6,1929.4 "/>
<polygon class="st35" points="2847.2,1834.6 2881.5,1868.4 2825.4,1834.6 "/>
<polygon class="st35" points="2469.7,1949.8 2469.7,1957 2445.1,1965 2445.3,1929.4 "/>
<path class="st36" d="M2840.1,1891.8c-5.1-0.7-9.9-2.6-14.2-5.5c-2.2-1.5-4.1-3.4-5.7-5.5h-8.5c2.3,3.5,5.2,6.7,8.5,9.2
	c4.7,3.7,10.1,6.4,15.8,8.2C2837.4,1896.2,2838.8,1894,2840.1,1891.8z"/>
<path class="st31" d="M2830.1,1905.5c-0.8,4.5-1.9,10.8-2.8,18.5c-0.6,5.1-1.3,13-1.7,30.9c-0.2,9-0.3,20.8,0,34.7
	c0.9,1.8,2.3,3.2,4.1,4.1c1.5,0.8,3.1,1.2,4.7,1.2c4.7-12.3,7.6-25.1,8.8-38.2c0.6-7.6,0.6-15.3,0-22.9c-3.1-4-5.9-8.3-8.1-12.9
	C2832.8,1916,2831.1,1910.8,2830.1,1905.5z"/>
<path class="st37" d="M2846.3,1865.1l-7.3,3.5c-0.2,6.9-1.3,13.7-3.3,20.3c-1.8,5.8-4.3,11.5-7.3,16.8c0.3,5.7,1.4,11.4,3.3,16.8
	c1.9,5.6,4.6,10.8,8,15.7c3.6-11.1,6.1-22.6,7.3-34.2C2848.3,1891,2848.1,1878,2846.3,1865.1z"/>
<path class="st38" d="M2846.3,1869.5c1.6,20.4,1.2,40.8-1.2,61.1c-2.6,21.9-7.4,43.5-14.5,64.4c7,1.5,14.3,1.7,21.3,0.5
	c5.8-0.9,11.3-2.7,16.5-5.5c-4.3-8-7.7-16.4-10.3-25.1c-5.6-18.7-4.9-31.1-6.9-55.1C2850.5,1900.2,2849.1,1886.3,2846.3,1869.5z"/>
<path class="st36" d="M2875,1875c-3,5.2-6.7,9.9-11.1,14c-5.1,4.9-11,9-17.3,12.2v-4.9l22.1-21.3L2875,1875z"/>
<path class="st39" d="M2874.5,1875h4.7c-3.2,5.4-7,10.4-11.3,15c-6.1,6.3-13,11.7-20.6,16.1v-6.4c5.1-4.6,10.1-9.2,15.3-13.8
	C2866.6,1882.2,2870.5,1878.6,2874.5,1875z"/>
<polygon class="st40" points="2795.2,1849.3 2795.2,1856.4 2818.9,1861.9 2805.3,1852 "/>
<polygon class="st41" points="2834.9,1865.9 2796.3,1856.4 2784,1870.7 2796.3,1876.6 2822,1876.6 "/>
<polygon class="st42" points="2834.1,1864.4 2821.2,1875.2 2812.1,1875.2 2795.2,1875.2 2806.3,1881.7 2821.2,1881.7 2842.5,1869.1 
	"/>
<polygon class="st43" points="2842.5,1868.4 2818.9,1861.9 2842.5,1840.6 "/>
<polygon class="st44" points="2842.5,1840.6 2805.3,1835.1 2795.2,1840.6 2795.2,1849.3 2805.3,1852 2818.9,1861.9 "/>
<polygon class="st46" points="2482.6,1922.3 2454.7,1927.3 2469.7,1949.8 2482.6,1935.7 "/>
<polygon class="st35" points="2863.8,1856.4 2863.8,1861.9 2842.3,1868.2 2842.5,1840.6 "/>
<polygon class="st46" points="2875,1835.1 2850.8,1839 2863.8,1856.4 2875,1845.5 "/>
<polygon class="st47" points="2892.4,1849.3 2902.5,1849.3 2909.9,1855.8 2909.9,1860.8 2901.2,1867.9 2892.4,1872.9 2875,1875 
	2892.4,1861.9 "/>
<polygon class="st48" points="2889.2,1849.3 2894.5,1849.3 2894.5,1856.4 2894.5,1866.2 2885.7,1869.5 2875,1875 2863.8,1875 
	2863.8,1869.5 2873.4,1865.2 2884.8,1856.2 "/>
<polygon class="st47" points="2875,1835.1 2889.2,1835.1 2889.2,1849.3 2879.1,1865.1 2855,1869.5 2838.4,1869.5 2863.8,1860.8 
	2874.4,1844.9 "/>
<polygon class="st37" points="2846.1,1869.5 2840.1,1933.9 2840.1,1966 2850.8,1904.4 "/>
<polygon class="st47" points="2863.8,1861.9 2863.8,1856.4 2875,1845.5 "/>
<polygon class="st35" points="2774.9,1860.3 2813.4,1898.3 2750.5,1860.3 "/>
<polygon class="st47" points="2502.4,1940.7 2514,1940.7 2522.4,1949.1 2522.4,1955.6 2512.5,1964.7 2502.4,1971.2 2482.6,1973.9 
	2502.4,1957 "/>
<polygon class="st48" points="2498.7,1940.7 2504.8,1940.7 2504.8,1949.8 2504.8,1962.5 2494.8,1966.8 2482.6,1973.9 2469.7,1973.9 
	2469.7,1966.8 2480.7,1961.3 2493.8,1949.5 "/>
<path class="st37" d="M2774,1894.6l-8.2,3.9c-0.2,7.7-1.5,15.4-3.8,22.8c-2,6.6-4.8,12.9-8.2,18.9c0.4,6.4,1.6,12.8,3.8,18.9
	c2.2,6.2,5.2,12.2,9,17.6C2775.2,1950.2,2777.8,1922.2,2774,1894.6L2774,1894.6z"/>
<path class="st36" d="M2806.2,1905.6c-3.4,5.8-7.6,11.1-12.4,15.7c-5.8,5.5-12.3,10.1-19.4,13.7v-5.5l24.8-23.9L2806.2,1905.6z"/>
<path class="st39" d="M2805.5,1905.6h5.2c-3.6,6.1-7.8,11.7-12.7,16.7c-6.8,7.1-14.6,13.2-23.1,18.1v-7.1l17.2-15.5
	C2796.6,1913.7,2801.1,1909.7,2805.5,1905.6z"/>
<polygon class="st47" points="2482.6,1922.3 2498.7,1922.3 2498.7,1940.7 2487.2,1961.2 2459.5,1966.8 2440.6,1966.8 2469.7,1955.5 
	2481.9,1935 "/>
<polygon class="st37" points="2449.3,1966.8 2442.5,2050.1 2442.5,2091.8 2454.7,2012 "/>
<polygon class="st47" points="2469.7,1957 2469.7,1949.8 2482.6,1935.7 "/>
<path class="st31" d="M3559.7,2069.9"/>
<polygon class="st45" points="2772.8,1880.5 2772.8,1870.9 2734.9,1859.2 2708.7,1864.7 2691.5,1880.5 2730.1,1887.4 "/>
<polygon class="st45" points="2816.7,1891.2 2816.7,1882.6 2780.3,1872.2 2755,1877.1 2738.5,1891.2 2775.6,1897.3 "/>
<polygon class="st35" points="2793.6,1884.8 2793.6,1890.9 2769.4,1897.9 2769.7,1867.1 "/>
<polygon class="st46" points="2806.2,1860.9 2779,1865.2 2793.6,1884.8 2806.2,1872.6 "/>
<polygon class="st47" points="2825.7,1876.8 2836.9,1876.8 2845.2,1884.1 2845.2,1889.8 2835.4,1897.7 2825.7,1903.3 2806.2,1905.6 
	2825.7,1890.9 "/>
<polygon class="st48" points="2822,1876.8 2828,1876.8 2828,1884.8 2828,1895.8 2818,1899.5 2806.2,1905.6 2793.6,1905.6 
	2793.6,1899.5 2804.4,1894.7 2817.2,1884.5 "/>
<polygon class="st47" points="2806.2,1860.9 2822,1860.9 2822,1876.8 2810.7,1894.6 2783.6,1899.5 2765.1,1899.5 2793.6,1889.7 
	2805.5,1871.9 "/>
<polygon class="st37" points="2773.6,1899.5 2767,1971.6 2767,2007.7 2779,1938.6 "/>
<polygon class="st47" points="2793.6,1890.9 2793.6,1884.8 2806.2,1872.6 "/>
<path class="st38" d="M2773.9,1899.5c1.8,22.8,1.4,45.8-1.3,68.5c-2.9,24.6-8.4,48.7-16.2,72.2c7.9,1.7,16,1.9,23.9,0.6
	c6.5-1,12.7-3.1,18.5-6.1c-4.8-9-8.6-18.4-11.5-28.1c-6.3-21.1-5.5-34.9-7.7-61.8C2778.7,1933.9,2777,1918.3,2773.9,1899.5z"/>
<path class="st36" d="M2768.8,1903.1c-7-1-13.7-3.6-19.6-7.5c-3-2.1-5.7-4.6-7.9-7.5h-11.8c3.2,4.9,7.1,9.3,11.8,12.9
	c6.6,5.1,14,8.9,21.9,11.3C2765.1,1909.1,2767,1906.1,2768.8,1903.1z"/>
<path class="st31" d="M2755,1921.9c-1.1,6.2-2.7,15-3.8,25.7c-0.8,7.1-1.8,18-2.3,42.8c-0.3,12.5-0.3,28.8,0,47.9
	c1.2,2.5,3.1,4.5,5.6,5.7c2,1,4.3,1.6,6.5,1.7c10.3-26.9,14.5-55.8,12.1-84.5c-4.4-5.5-8.1-11.5-11.2-17.9
	C2758.7,1936.4,2756.4,1929.3,2755,1921.9z"/>
<polygon class="st40" points="2717.6,1878 2717.6,1886 2744.1,1892.1 2728.9,1881.1 "/>
<polygon class="st41" points="2762,1896.6 2718.7,1886 2705,1901.9 2718.7,1908.6 2747.6,1908.6 "/>
<polygon class="st42" points="2761.2,1894.9 2746.7,1907 2736.5,1907 2717.6,1907 2730,1914.3 2746.7,1914.3 2770.6,1900.3 "/>
<path class="st49" d="M2806.7,2037.2"/>
<polygon class="st43" points="2770.6,1899.4 2744.1,1892.1 2770.6,1868.3 "/>
<polygon class="st44" points="2770.6,1868.3 2728.9,1862.1 2717.6,1868.3 2717.6,1878 2728.9,1881.1 2744.1,1892.1 "/>
<polygon class="st50" points="3202.6,2155.1 3202.6,2139 3215.6,2157.7 "/>
<rect x="3153.4" y="2053.5" transform="matrix(0.3171 -0.9484 0.9484 0.3171 58.4011 4529.5894)" class="st51" width="42.1" height="341.5"/>
<path class="st52" d="M2581.9,2791.9"/>
<rect x="2378.3" y="2204.2" transform="matrix(0.9755 -0.22 0.22 0.9755 -424.8958 632.2161)" class="st51" width="495.5" height="39.2"/>
<rect x="2862.4" y="2151.9" class="st51" width="166.3" height="38.5"/>
<rect x="3315.6" y="2259.3" class="st51" width="333.1" height="36.5"/>
<rect x="3661.1" y="2250.1" transform="matrix(0.5746 -0.8185 0.8185 0.5746 -319.8907 3991.3188)" class="st51" width="36.5" height="106.5"/>
<path class="st51" d="M4043,2560c-6.6-121.2-34.4-216-64.3-214.9l-14.5,0.5l-5.9,0.2l-110.2,4c30-1.1,58,94.6,64.4,216.7h0.1
	l13.9,385.5c15.4-1.5,14-45.6,29.8-46.2c16-0.6,17.6,44.5,33.5,43.9s14.3-45.6,30.3-46.2c16-0.6,17.6,44.5,33.5,43.9
	c1.2-0.1,2.4-0.4,3.4-0.9l-13.9-386.6L4043,2560z"/>
<path class="st53" d="M4036.3,2497.5c-1.1,0.5-2.2,0.8-3.4,0.8c-16,0.8-17.8-35-33.8-34.2s-14.1,36.7-30.1,37.5s-17.8-35-33.8-34.2
	c-15.8,0.8-14.1,35.9-29.6,37.4l14.9,284.7l130.7-6.8L4036.3,2497.5z"/>
<path class="st51" d="M3925.5,2766c15.7-0.4,15.1-24.7,30.8-25.1c15.7-0.4,16.4,23.8,32.2,23.3c15.7-0.5,15.1-24.7,30.8-25.1
	c15.6-0.4,16.4,23.3,31.7,23.3l3.9,137.4l0.4,14.3l3.7,130.9c0.4,15.7-4.9,28.7-11.9,28.9l-2.5,0.1c-7,0.2-13-12.5-13.5-28.2
	l-3.3-118.1c-0.2-7.1-2.9-12.7-6-12.6h-0.3c-3.1,0.1-5.5,5.9-5.3,12.9l5.1,178.9c0.7,25.5-7.9,46.6-19.2,47l-4.1,0.1
	c-11.3,0.3-21.1-20.3-21.9-45.8l-5.1-178.9c-0.2-7.1-2.9-12.7-6-12.6c-3.1,0.1-5.5,5.9-5.3,12.9l2.9,102.1
	c0.5,18.6-5.8,33.9-14,34.2l-3,0.1c-8.2,0.2-15.4-14.8-15.9-33.3l-3.2-114.9l-1.6-56.7l-2.7-95.4
	C3923.2,2765.9,3924.4,2766,3925.5,2766z"/>
<rect x="3924.8" y="2903.9" class="st51" width="134.2" height="1031.2"/>
<path class="st1" d="M2924.5,2451.6c33.4-3.2,61.9,7.4,63.7,23.5c1.7,16.2-24,31.8-57.4,35s-61.9-7.4-63.7-23.5
	S2891.1,2454.7,2924.5,2451.6z"/>
<linearGradient id="SVGID_1_" gradientUnits="userSpaceOnUse" x1="2695.29" y1="4840.8599" x2="2695.29" y2="5060.7656" gradientTransform="matrix(1 0 0 -1 -56.99 7638.6602)">
	<stop  offset="0" style="stop-color:#FFFFFF"/>
	<stop  offset="1" style="stop-color:#000000"/>
</linearGradient>
<path class="st54" d="M2598.4,2655.5c2.5-43.9,14.5-78.1,27.6-77.6l6.3,0.2l2.6,0.1l48.4,1.7c-13.2-0.5-25.2,34.1-27.6,78.3h-0.1
	l-5,139.6c-6.8-0.6-6.3-16.5-13.2-16.8s-7.6,16.1-14.6,15.8s-6.4-16.6-13.4-16.8c-7-0.3-7.6,16.1-14.6,15.8c-0.5,0-1-0.1-1.5-0.3
	L2598.4,2655.5L2598.4,2655.5z"/>
<path class="st55" d="M2594.1,2659.2c2.7-45.8,15.8-81.4,30.2-80.9l7,0.2l2.9,0.1l53.2,1.9c-14.5-0.5-27.6,35.5-30.2,81.6h-0.1
	l-5.2,145.5c-7.5-0.6-6.9-17.3-14.6-17.5s-8.3,16.7-16,16.5s-7.1-17.3-14.8-17.6s-8.3,16.7-16,16.5c-0.6,0-1.1-0.1-1.7-0.4
	L2594.1,2659.2L2594.1,2659.2z"/>
<path class="st1" d="M3293.9,2430.9c31.4-2.1,58.2,4.9,59.8,15.7s-22.5,21.2-53.9,23.3s-58.2-4.9-59.8-15.7
	S3262.5,2433,3293.9,2430.9z"/>
<ellipse transform="matrix(0.995 -9.999751e-02 9.999751e-02 0.995 -191.324 317.6685)" class="st1" cx="3073.1" cy="2067.3" rx="28.6" ry="17.4"/>
<polygon class="st35" points="3069.3,1882.1 3106.3,1921.6 3045.7,1882.1 "/>
<path class="st36" d="M3061.7,1949c-5.5-0.9-10.8-3.1-15.3-6.4c-2.4-1.8-4.5-3.9-6.1-6.4h-9.2c2.4,4.1,5.5,7.7,9.2,10.8
	c5,4.2,10.8,7.5,17,9.6C3058.7,1954.1,3060.2,1951.5,3061.7,1949z"/>
<path class="st31" d="M3050.9,1965c-0.9,5.3-2,12.7-3,21.7c-0.6,6-1.4,15.2-1.8,36.2c-0.2,10.6-0.3,24.3,0,40.5
	c0.9,2,2.4,3.7,4.3,4.8c1.6,0.8,3.3,1.3,5.1,1.4c5-14.4,8.2-29.4,9.4-44.6c0.7-8.9,0.7-17.9,0-26.8c-3.4-4.7-6.3-9.8-8.7-15.1
	C3053.7,1977.3,3051.9,1971.2,3050.9,1965z"/>
<path class="st37" d="M3068.3,1917.7l-7.9,4.1c-0.2,8-1.4,16-3.6,23.7c-1.9,6.8-4.6,13.4-7.9,19.7c0.3,6.7,1.6,13.3,3.6,19.7
	c2.1,6.4,5,12.6,8.6,18.3c3.9-13,6.6-26.4,7.9-40C3070.5,1948.1,3070.2,1932.8,3068.3,1917.7z"/>
<path class="st38" d="M3068.3,1922.8c3.7,49.5-2,99.2-16.8,146.6c7.6,1.7,15.4,1.9,23,0.6c6.3-1,12.3-3.2,17.8-6.4
	c-4.6-9.4-8.3-19.2-11.1-29.3c-6.1-21.9-5.3-36.3-7.4-64.4C3072.9,1958.7,3071.3,1942.5,3068.3,1922.8z"/>
<path class="st36" d="M3099.3,1929.2c-3.2,6-7.2,11.5-11.9,16.4c-5.4,5.7-11.8,10.5-18.7,14.2v-5.7l23.9-24.9H3099.3z"/>
<path class="st39" d="M3098.7,1929.2h5c-3.4,6.3-7.5,12.1-12.2,17.5c-6.5,7.3-13.9,13.6-22.2,18.8v-7.4c5.5-5.3,11-10.7,16.5-16.2
	C3090.2,1937.7,3094.5,1933.5,3098.7,1929.2z"/>
<polygon class="st40" points="3013.2,1899.3 3013.2,1907.6 3038.7,1914 3024.1,1902.5 "/>
<polygon class="st41" points="3055.9,1918.7 3014.3,1907.6 3001.1,1924.3 3014.3,1931.2 3042.1,1931.2 "/>
<polygon class="st42" points="3055.1,1916.9 3041.2,1929.5 3031.4,1929.5 3013.2,1929.5 3025.1,1937.2 3041.2,1937.2 3064.2,1922.5 
	"/>
<polygon class="st43" points="3064.2,1921.6 3038.7,1914 3064.2,1889.1 "/>
<polygon class="st44" points="3064.2,1889.1 3024.1,1882.8 3013.2,1889.1 3013.2,1899.3 3024.1,1902.5 3038.7,1914 "/>
<polygon class="st45" points="3099.3,1882.8 3099.3,1873.8 3064.2,1863 3040,1868.1 3024.1,1882.8 3059.8,1889.1 "/>
<polygon class="st35" points="3087.2,1907.6 3087.2,1914 3064,1921.3 3064.2,1889.1 "/>
<polygon class="st46" points="3099.3,1882.8 3073.1,1887.2 3087.2,1907.6 3099.3,1894.9 "/>
<polygon class="st47" points="3118.1,1899.3 3128.9,1899.3 3136.9,1907 3136.9,1912.8 3127.5,1921.1 3118.1,1926.9 3099.3,1929.3 
	3118.1,1914 "/>
<polygon class="st48" points="3114.6,1899.3 3120.3,1899.3 3120.3,1907.6 3120.3,1919.1 3110.8,1922.9 3099.3,1929.3 3087.2,1929.3 
	3087.2,1922.9 3097.6,1917.9 3109.9,1907.3 "/>
<polygon class="st47" points="3099.3,1882.8 3114.6,1882.8 3114.6,1899.3 3103.8,1917.8 3077.6,1922.9 3059.8,1922.9 3087.2,1912.7 
	3098.7,1894.2 "/>
<polygon class="st37" points="3068,1922.9 3061.7,1998.2 3061.7,2035.8 3073.1,1963.7 "/>
<polygon class="st47" points="3087.2,1914 3087.2,1907.6 3099.3,1894.9 "/>
<path class="st30" d="M3030,2064.8"/>
<polygon class="st35" points="3976,1880.9 4013,1920.4 3952.4,1880.9 "/>
<path class="st36" d="M3968.4,1947.9c-5.5-0.9-10.8-3.1-15.3-6.4c-2.4-1.8-4.5-3.9-6.1-6.4h-9.2c2.4,4.1,5.5,7.7,9.2,10.8
	c5,4.2,10.8,7.5,17,9.6C3965.4,1953,3966.9,1950.4,3968.4,1947.9z"/>
<path class="st31" d="M3957.6,1963.8c-0.9,5.3-2,12.7-3,21.7c-0.6,6-1.4,15.2-1.8,36.2c-0.2,10.6-0.3,24.3,0,40.5
	c0.9,2,2.4,3.7,4.3,4.8c1.6,0.8,3.3,1.3,5.1,1.4c5-14.4,8.2-29.4,9.4-44.6c0.7-8.9,0.7-17.9,0-26.8c-3.4-4.7-6.3-9.8-8.7-15.1
	C3960.4,1976.1,3958.6,1970,3957.6,1963.8z"/>
<path class="st37" d="M3975,1916.6l-7.9,4.1c-0.2,8-1.4,16-3.6,23.7c-1.9,6.8-4.6,13.4-7.9,19.7c0.3,6.7,1.6,13.3,3.6,19.7
	c2.1,6.4,5,12.6,8.6,18.3c3.9-13,6.6-26.4,7.9-40C3977.2,1947,3976.9,1931.7,3975,1916.6z"/>
<path class="st38" d="M3975,1921.7c3.7,49.5-2,99.2-16.8,146.6c7.6,1.7,15.4,1.9,23,0.6c6.3-1,12.3-3.2,17.8-6.4
	c-4.6-9.4-8.3-19.2-11.1-29.3c-6.1-21.9-5.3-36.3-7.4-64.4C3979.6,1957.6,3978,1941.4,3975,1921.7z"/>
<path class="st36" d="M4006,1928.1c-3.2,6-7.2,11.5-11.9,16.4c-5.4,5.7-11.8,10.5-18.7,14.2v-5.7l23.9-24.9H4006z"/>
<path class="st39" d="M4005.4,1928.1h5c-3.4,6.3-7.5,12.1-12.2,17.5c-6.5,7.3-13.9,13.6-22.2,18.8v-7.4c5.5-5.3,11-10.7,16.5-16.2
	C3996.9,1936.6,4001.2,1932.4,4005.4,1928.1z"/>
<polygon class="st40" points="3919.9,1898.1 3919.9,1906.4 3945.4,1912.8 3930.8,1901.3 "/>
<polygon class="st41" points="3962.6,1917.5 3921,1906.4 3907.8,1923.1 3921,1930 3948.8,1930 "/>
<polygon class="st42" points="3961.8,1915.7 3947.9,1928.3 3938.1,1928.3 3919.9,1928.3 3931.8,1936 3947.9,1936 3970.9,1921.3 "/>
<polygon class="st43" points="3970.9,1920.4 3945.4,1912.8 3970.9,1887.9 "/>
<polygon class="st44" points="3970.9,1887.9 3930.8,1881.6 3919.9,1887.9 3919.9,1898.1 3930.8,1901.3 3945.4,1912.8 "/>
<polygon class="st45" points="4006,1881.6 4006,1872.6 3970.9,1861.8 3946.7,1866.9 3930.8,1881.6 3966.5,1887.9 "/>
<polygon class="st35" points="3993.9,1906.4 3993.9,1912.8 3970.7,1920.1 3970.9,1887.9 "/>
<polygon class="st46" points="4006,1881.6 3979.8,1886 3993.9,1906.4 4006,1893.7 "/>
<polygon class="st47" points="4024.8,1898.1 4035.6,1898.1 4043.6,1905.8 4043.6,1911.6 4034.2,1919.9 4024.8,1925.7 4006,1928.1 
	4024.8,1912.8 "/>
<polygon class="st48" points="4021.3,1898.1 4027,1898.1 4027,1906.4 4027,1917.9 4017.5,1921.7 4006,1928.1 3993.9,1928.1 
	3993.9,1921.7 4004.3,1916.7 4016.6,1906.1 "/>
<polygon class="st47" points="4006,1881.6 4021.3,1881.6 4021.3,1898.1 4010.5,1916.6 3984.3,1921.7 3966.5,1921.7 3993.9,1911.5 
	4005.4,1893 "/>
<polygon class="st37" points="3974.7,1921.7 3968.4,1997 3968.4,2034.6 3979.8,1962.5 "/>
<polygon class="st47" points="3993.9,1912.8 3993.9,1906.4 4006,1893.7 "/>
<path class="st30" d="M3936.7,2063.7"/>
<ellipse transform="matrix(0.995 -9.999751e-02 9.999751e-02 0.995 -200.7437 367.7443)" class="st1" cx="3567.9" cy="2186.3" rx="28.6" ry="17.4"/>
<polygon class="st35" points="3561.1,2001.1 3598.1,2040.6 3537.5,2001.1 "/>
<path class="st36" d="M3553.5,2068.1c-5.5-0.9-10.8-3.1-15.3-6.4c-2.4-1.8-4.5-3.9-6.1-6.4h-9.2c2.4,4.1,5.5,7.7,9.2,10.8
	c5,4.2,10.8,7.5,17,9.6C3550.5,2073.2,3552,2070.6,3553.5,2068.1z"/>
<path class="st31" d="M3542.7,2084c-0.9,5.3-2,12.7-3,21.7c-0.6,6-1.4,15.2-1.8,36.2c-0.2,10.6-0.3,24.3,0,40.5
	c0.9,2,2.4,3.7,4.3,4.8c1.6,0.8,3.3,1.3,5.1,1.4c5-14.4,8.2-29.4,9.4-44.6c0.7-8.9,0.7-17.9,0-26.8c-3.4-4.7-6.3-9.8-8.7-15.1
	C3545.5,2096.3,3543.7,2090.2,3542.7,2084z"/>
<path class="st37" d="M3560.1,2036.8l-7.9,4.1c-0.2,8-1.4,16-3.6,23.7c-1.9,6.8-4.6,13.4-7.9,19.7c0.3,6.7,1.6,13.3,3.6,19.7
	c2.1,6.4,5,12.6,8.6,18.3c3.9-13,6.6-26.4,7.9-40C3562.3,2067.1,3562.1,2051.9,3560.1,2036.8z"/>
<path class="st38" d="M3560.1,2041.9c3.7,49.5-2,99.2-16.8,146.6c7.6,1.7,15.4,1.9,23,0.6c6.3-1,12.3-3.2,17.8-6.4
	c-4.6-9.4-8.3-19.2-11.1-29.3c-6.1-21.9-5.3-36.3-7.4-64.4C3564.7,2077.8,3563.1,2061.6,3560.1,2041.9z"/>
<path class="st36" d="M3591.1,2048.3c-3.2,6-7.2,11.5-11.9,16.4c-5.4,5.7-11.8,10.5-18.7,14.2v-5.7l23.9-24.9H3591.1z"/>
<path class="st39" d="M3590.5,2048.3h5c-3.4,6.3-7.5,12.1-12.2,17.5c-6.5,7.3-13.9,13.6-22.2,18.8v-7.4c5.5-5.3,11-10.7,16.5-16.2
	C3582,2056.8,3586.3,2052.6,3590.5,2048.3z"/>
<polygon class="st40" points="3505,2018.3 3505,2026.6 3530.5,2033 3515.9,2021.5 "/>
<polygon class="st41" points="3547.7,2037.7 3506.1,2026.6 3492.9,2043.3 3506.1,2050.2 3533.9,2050.2 "/>
<polygon class="st42" points="3546.9,2035.9 3533,2048.5 3523.2,2048.5 3505,2048.5 3516.9,2056.2 3533,2056.2 3556,2041.5 "/>
<polygon class="st43" points="3556,2040.6 3530.5,2033 3556,2008.1 "/>
<polygon class="st44" points="3556,2008.1 3515.9,2001.8 3505,2008.1 3505,2018.3 3515.9,2021.5 3530.5,2033 "/>
<polygon class="st45" points="3591.1,2001.8 3591.1,1992.8 3556,1982 3531.8,1987.1 3515.9,2001.8 3551.6,2008.1 "/>
<polygon class="st35" points="3579,2026.6 3579,2033 3555.8,2040.3 3556,2008.1 "/>
<polygon class="st46" points="3591.1,2001.8 3564.9,2006.2 3579,2026.6 3591.1,2013.9 "/>
<polygon class="st47" points="3609.9,2018.3 3620.7,2018.3 3628.7,2026 3628.7,2031.8 3619.3,2040.1 3609.9,2045.9 3591.1,2048.3 
	3609.9,2033 "/>
<polygon class="st48" points="3606.4,2018.3 3612.1,2018.3 3612.1,2026.6 3612.1,2038.1 3602.6,2041.9 3591.1,2048.3 3579,2048.3 
	3579,2041.9 3589.4,2036.9 3601.7,2026.3 "/>
<polygon class="st47" points="3591.1,2001.8 3606.4,2001.8 3606.4,2018.3 3595.6,2036.8 3569.4,2041.9 3551.6,2041.9 3579,2031.7 
	3590.5,2013.2 "/>
<polygon class="st37" points="3559.8,2041.9 3553.5,2117.2 3553.5,2154.8 3564.9,2082.7 "/>
<polygon class="st47" points="3579,2033 3579,2026.6 3591.1,2013.9 "/>
<path class="st30" d="M3521.9,2183.8"/>
<path class="st34" d="M2861.4,1988.8l4.6,1v7.4c-1.4,1.8-3,3.3-4.9,4.5c-2.6,1.6-5.6,2.7-8.7,3c-4.2,0.3-8.4,0.1-12.5-0.4
	c-4.6-0.6-9.2-1.7-13.5-3.4c-0.9-3.6-0.9-7.5,0.1-11.1l4.7-1.2c0.8,1.6,2,2.9,3.5,3.7c0.3,0.2,7.4,1.2,8.2,0.9
	c3.6,0.3,7.3-0.1,10.8-1.1C2856.4,1991.4,2859,1990.3,2861.4,1988.8z"/>
<polygon class="st56" points="3282.9,2199 3282.9,2208.6 3278.7,2203.5 3276.6,2208.1 3273.9,2203.1 "/>
<polygon class="st1" points="3315.6,2147 3352.2,2180.9 3370.2,2194.2 3398.7,2194.2 3464.8,2196.7 3457.3,2180.9 3370.7,2179.2 "/>
<path class="st1" d="M3073.6,2390.4c23.4-1.7,43.6,5.2,45,15.5c1.4,10.2-16.4,19.9-39.8,21.6s-43.6-5.2-45-15.5
	S3050.2,2392,3073.6,2390.4z"/>
<polygon class="st35" points="3067.9,2121.1 3126.3,2181.5 3030.8,2121.1 "/>
<path class="st36" d="M3055.9,2223.4c-8.6-1.3-16.9-4.6-24.1-9.7c-3.7-2.7-6.9-6-9.6-9.7h-14.5c3.9,6.4,8.8,12,14.5,16.6
	c8,6.5,17.1,11.5,26.8,14.6L3055.9,2223.4z"/>
<path class="st31" d="M3038.9,2247.8c-1.4,8-3.2,19.4-4.7,33.1c-1,9.2-2.2,23.2-2.8,55.4c-0.3,16.2-0.5,37.2,0,61.9
	c1.4,3.2,3.8,5.7,6.8,7.3c2.5,1.3,5.2,2,8,2.1c8-21.9,13-44.9,14.9-68.3c1.1-13.6,1.1-27.3,0-40.9c-5.4-7.1-9.9-14.9-13.7-23.1
	C3043.4,2266.6,3040.5,2257.3,3038.9,2247.8z"/>
<path class="st37" d="M3066.4,2175.6l-12.5,6.2c-0.4,12.3-2.3,24.5-5.6,36.3c-3.1,10.5-7.2,20.5-12.5,30c0.5,10.2,2.4,20.3,5.6,30
	c3.3,9.9,7.9,19.3,13.6,28c6.2-19.8,10.4-40.3,12.5-61.1C3069.8,2222,3069.4,2198.6,3066.4,2175.6z"/>
<path class="st38" d="M3066.4,2183.4c2.8,36.4,2.1,72.9-1.9,109.2c-4.4,39.1-12.6,77.6-24.5,115c11.9,2.7,24.3,3,36.3,1
	c9.8-1.6,19.3-4.9,28-9.7c-7.1-14.3-13-29.4-17.6-44.8c-9.6-33.5-8.3-55.5-11.7-98.5C3073.5,2238.2,3071.1,2213.4,3066.4,2183.4z"/>
<path class="st36" d="M3115.2,2193.2c-5.1,9.2-11.5,17.6-18.8,25c-8.7,8.8-18.7,16.1-29.5,21.7v-8.6l37.7-38L3115.2,2193.2z"/>
<path class="st39" d="M3114.3,2193.2h7.9c-5.4,9.6-11.8,18.6-19.2,26.7c-10.3,11.3-22.1,21.1-35.1,28.9v-11.3l26-24.6
	C3100.8,2206.2,3107.6,2199.7,3114.3,2193.2z"/>
<polygon class="st40" points="2979.5,2147.4 2979.5,2160.1 3019.7,2169.8 2996.6,2152.2 "/>
<polygon class="st41" points="3046.9,2177 2981.2,2160.1 2960.4,2185.5 2981.2,2196.1 3025,2196.1 "/>
<polygon class="st42" points="3045.7,2174.3 3023.6,2193.5 3008.2,2193.5 2979.5,2193.5 2998.2,2205.3 3023.6,2205.3 3059.9,2182.8 
	"/>
<polygon class="st43" points="3059.9,2181.5 3019.7,2169.8 3059.9,2131.8 "/>
<polygon class="st44" points="3059.9,2131.8 2996.6,2122 2979.5,2131.8 2979.5,2147.4 2996.6,2152.2 3019.7,2169.8 "/>
<polygon class="st45" points="3115.2,2122 3115.2,2108.4 3059.9,2091.8 3021.7,2099.6 2996.6,2122 3052.9,2131.8 "/>
<polygon class="st35" points="3096.1,2160.1 3096.1,2169.8 3059.6,2181 3059.9,2131.8 "/>
<polygon class="st46" points="3115.2,2122 3074,2128.9 3096.1,2160.1 3115.2,2140.6 "/>
<polygon class="st47" points="3144.9,2147.4 3162,2147.4 3174.5,2159.1 3174.5,2168 3159.6,2180.6 3144.9,2189.6 3115.2,2193.2 
	3144.9,2169.8 "/>
<polygon class="st48" points="3139.3,2147.4 3148.4,2147.4 3148.4,2160.1 3148.4,2177.6 3133.3,2183.4 3115.2,2193.2 3096.1,2193.2 
	3096.1,2183.4 3112.6,2175.7 3132,2159.6 "/>
<polygon class="st47" points="3115.2,2122 3139.3,2122 3139.3,2147.4 3122.2,2175.6 3081,2183.4 3052.9,2183.4 3096.1,2167.8 
	3114.2,2139.6 "/>
<polygon class="st37" points="3066,2183.4 3055.9,2298.4 3055.9,2356 3074,2245.8 "/>
<polygon class="st47" points="3096.1,2169.8 3096.1,2160.1 3115.2,2140.6 "/>
<polygon class="st1" points="3643.3,2110.2 3718,2168.9 3731.9,2173.6 3806.1,2166.6 3800.1,2149.8 3729.8,2155.8 "/>
<path class="st0" d="M2268.7,223.1l299,117l-199,67l104,48l-292,77c-63.7,44-127.4,88-191,132c-66.3-20.7-132.6-41.3-199-62l-91,31
	h-124l-60,31l-240,35l-270,7l-386-100l-112,19l-243-122l-143-115l63-104l312-8l67-39l297-32l130-61l312-11l98,45l88-15l92,6l88,13
	L2268.7,223.1z"/>
<polygon class="st3" points="2567.6,340.1 2535.6,367.1 2390.5,417.2 2368.6,407.1 "/>
<polygon class="st3" points="2468.6,455.1 2453.6,473.1 2184.6,545.1 2160.7,545.1 2180.6,532.1 "/>
<polygon class="st4" points="2521.7,371.9 2488.6,411.1 2419.6,430.6 2390.6,417.1 "/>
<polygon class="st5" points="2439.6,492.1 2169.6,564.1 2106.6,598.1 1981.6,683.1 1989.6,664.1 2160.6,545.1 2456.6,473.1 "/>
<polygon class="st6" points="2153.6,570.7 2124.6,689.1 2014.6,729.1 2061.6,681.1 2084.1,611.4 "/>
<polygon class="st7" points="2083.6,613.1 1981.6,683.1 1923.6,673.1 1843.6,822.1 2061.6,683.1 "/>
<polygon class="st8" points="2061.6,681.1 1843.6,820.1 1818.6,880.1 2124.6,689.1 2014.6,729.1 "/>
<polygon class="st5" points="1981.6,683.1 1790.6,650.1 1790.6,621.1 1989.6,664.1 "/>
<polygon class="st3" points="1989.6,664.1 1835,630.7 1790.6,621.1 "/>
<polygon class="st8" points="1818.6,880.1 1726.6,960.1 1615.6,1037.1 1439.6,1091.1 1334.6,1160.1 1234.6,1080.1 1216.6,1119.1 
	1073.6,998.1 977.6,942.1 910.6,913.1 760.6,822.1 628.6,731.1 584.6,652.1 646.6,642.1 999.6,723.1 1178.6,717.1 1288.6,729.1 
	1508.6,683.1 1580.6,671.1 1700.6,669.1 1776.6,642.1 1790.6,650.1 1923.6,673.1 "/>
<polygon class="st9" points="1790.6,621.1 1706.6,650.1 1580.6,650.1 1508.6,683.1 1306.6,706.1 1231.6,706.1 1511.6,664.1 
	1575.6,633.1 1699.6,633.1 1790.6,602.1 1989.6,664.1 1790.6,602.1 "/>
<polygon class="st6" points="1818.6,627.2 1989.6,664.1 1790.6,602.1 1790.6,621.1 1706.6,650.1 1580.6,650.1 1508.6,683.1 
	1700.6,672.1 1790.6,650.1 "/>
<polygon class="st10" points="1247.9,703.7 1215.6,700.7 1005.6,706.1 633.6,621.1 522.6,642.1 538.6,654.1 629.1,643.9 
	999.6,723.1 1178.6,717.1 "/>
<polygon class="st9" points="507.6,625.1 522.6,642.1 633.6,621.1 1005.6,706.1 619.6,602.1 "/>
<polygon class="st6" points="1508.6,683.1 1288.6,729.1 1178.6,717.1 1247.6,706.1 "/>
<polygon class="st6" points="1254.1,723.1 1138.6,718.4 1215.6,701.1 1247.6,706.1 "/>
<polyline class="st0" points="1215.6,701.1 1247.6,706.1 1275.6,699.1 1231.6,672.1 "/>
<polygon class="st7" points="1825,847.8 1754.5,935.4 1627.3,991.2 1749.6,846.2 1827.9,822 "/>
<polygon class="st7" points="628.6,643.1 680.6,701.1 628.6,683.1 584.6,652.1 "/>
<polygon class="st7" points="584.6,652.1 566.6,643.1 632.6,643.1 "/>
<polygon class="st7" points="1660.6,712.1 1558.6,723.1 1497.6,856.1 1389.6,1015.1 1505.6,961.1 1631.6,873.1 1624.6,796.1 "/>
<polygon class="st9" points="1790.6,621.1 1818.6,625.1 1989.6,664.1 1790.6,602.1 "/>
<polygon class="st11" points="1923.6,672.1 1834.5,657.4 1797.6,757.1 1843.6,820.1 "/>
<polygon class="st12" points="1843.6,820.1 1818.6,880.1 1797.6,757.1 "/>
<polygon class="st13" points="1834.6,657.1 1790.6,650.1 1783.6,739.1 1797.6,757.1 "/>
<polygon class="st12" points="1923.6,672.1 1970,681.1 1843.6,820.1 "/>
<polygon class="st14" points="1439.6,1091.1 1610.6,1037.1 1818.6,880.1 1797.6,757.1 1734.6,891.1 "/>
<polygon class="st15" points="1692.6,790.1 1734.6,891.1 1797.6,757.1 1783.6,739.1 "/>
<polygon class="st11" points="1783.6,739.1 1692.6,790.1 1674.6,764.1 1681.8,672.1 1776.6,642.1 1790.6,650.1 "/>
<polygon class="st16" points="1673.9,801.7 1603.8,829.1 1567.6,791.8 1665.5,672.1 1681.6,672.1 "/>
<polygon class="st17" points="1732.6,891.1 1681.6,864.1 1647.6,891.1 1681.6,927 "/>
<polygon class="st18" points="1732.6,891.1 1692.6,790.1 1681.6,864.1 "/>
<polygon class="st19" points="1439.6,815.1 1350.8,716.1 1288.6,729.1 1196.3,717.6 1231.6,757.1 1423.6,917.1 "/>
<polygon class="st20" points="1489.9,689.1 1439.6,815.1 1350.6,716.1 "/>
<polygon class="st18" points="1187.6,729.1 1112.6,815.1 1395.6,991.1 "/>
<polygon class="st21" points="1112.6,815.1 1295.6,1001.1 1395.6,991.1 "/>
<polygon class="st22" points="1295.6,1001.1 1247.6,991.1 1097.6,880.1 1112.6,815.1 "/>
<polygon class="st23" points="1504.6,960.1 1395.6,991.1 1420.6,917.1 "/>
<polygon class="st24" points="1504.6,1036.1 1504.6,960.1 1395.6,991.1 1395.6,1072.1 1334.6,1160.1 1439.6,1091.1 "/>
<polygon class="st25" points="1071,723.1 1112.6,815.1 1097.6,880.1 1091.6,840.1 965.6,807.1 925.5,706.1 999.6,723.1 "/>
<polygon class="st7" points="1097.6,880.1 1018.6,864.1 933.6,846.1 904.6,818.1 904.6,793.1 933.6,793.1 965.6,807.1 1009.5,818.6 
	1091.6,840.1 "/>
<polygon class="st26" points="756.6,822.1 904.6,819.1 904.6,793.1 933.6,793.1 955.1,802.5 925.6,706.1 885.2,701.1 646.6,642.1 
	584.6,652.1 632.6,731.1 "/>
<polygon class="st19" points="933.6,845 910.6,913.1 756.6,822 904.6,819.1 "/>
<polygon class="st8" points="1395.6,1060.1 1354.4,1131.5 1311.6,1121.1 1289.6,1096.1 1222.6,1040.1 1072.6,944.1 983.6,891.1 
	1097.6,880.1 1281.6,1022.1 "/>
<polygon class="st27" points="1350.6,1131.1 1334.6,1160.1 1231.6,1080.1 1070.6,978.1 1070.6,944.1 1289.6,1091.1 "/>
<polygon class="st28" points="1231.6,1080.1 1215.6,1119.1 1027.6,960.1 910.6,913.1 1070.6,978.1 "/>
<ellipse class="st2" cx="887.4" cy="758" rx="35.5" ry="48"/>
<ellipse class="st2" cx="880.4" cy="758" rx="35.5" ry="48"/>
<ellipse class="st2" cx="873.4" cy="758" rx="35.5" ry="48"/>
<ellipse class="st2" cx="858.4" cy="758" rx="35.5" ry="48"/>
<ellipse class="st2" cx="851.4" cy="758" rx="35.5" ry="48"/>
<ellipse class="st2" cx="844.4" cy="758" rx="35.5" ry="48"/>
<ellipse class="st2" cx="829.4" cy="758" rx="35.5" ry="48"/>
<ellipse class="st2" cx="822.4" cy="758" rx="35.5" ry="48"/>
<ellipse class="st2" cx="815.4" cy="758" rx="35.5" ry="48"/>
<ellipse class="st2" cx="815.4" cy="758" rx="35.5" ry="48"/>
<ellipse class="st2" cx="808.4" cy="758" rx="35.5" ry="48"/>
<ellipse class="st2" cx="801.4" cy="758" rx="35.5" ry="48"/>
<ellipse class="st29" cx="792.9" cy="758.5" rx="35.5" ry="48"/>
<path class="st57" d="M2019.2,321.3c-0.5,15.7,70,34.7,133.7,34.8c64.6,0.1,135.7-19.1,135.2-34.8c-0.5-16.1-76.1-28.5-134.5-28.5
	S2019.7,305.2,2019.2,321.3z"/>
<line class="st58" x1="2153.3" y1="321.7" x2="2052.5" y2="302.4"/>
<path class="st30" d="M2019.2,349.5c-0.9,3.2,58.1,34.6,133.7,34.8c76.4,0.2,136.1-31.6,135.2-34.8s-55,20.3-136,20
	C2072.9,369.2,2020,346.5,2019.2,349.5z"/>
<path class="st30" d="M2288.5,321.3v28.2l-125.2,28.9l-144.5-28.9l0.4-25c13.2,8.1,27.3,14.7,41.9,19.8c37.2,13,68.1,12.6,97.1,11.9
	c27.8-0.7,57.3-1.7,92.6-15.6C2263.9,335.4,2276.6,328.9,2288.5,321.3z"/>
<path class="st30" d="M957,212.7"/>
<path class="st31" d="M1044.8,218.9"/>
<path class="st32" d="M2293.3,346.8c-2.3-2.7-16.1,6.2-30.5,13.3c-28.6,14.1-53.8,16.6-79,19c-71.8,6.9-126.9-16-131.8-18.2
	c0,0-13.6-6.1-24.2-10.1l0,0c0,0,12.6,6.6,32,14.8c16.1,6.8,41.9,17.7,73,24.4l0,0c94.2,20.9,129.4-5,141-16
	C2281.1,367.1,2295.9,350,2293.3,346.8z"/>
<path class="st33" d="M438.1,332.1"/>
<g id="Meer_1_">
	<polygon class="st51" points="427.7,280.1 481.9,387.3 543.3,429 579.4,484.5 591.1,528.4 490.1,543.1 270.7,449.8 141.6,356.5 
		198.5,284 	"/>
</g>
<path class="st34" d="M621,311l7,1.6v11.1c-2,2.7-4.6,5-7.4,6.9c-4,2.5-8.5,4-13.1,4.5c-6.3,0.4-12.7,0.2-18.9-0.6
	c-7-0.9-13.9-2.6-20.5-5.1c-1.4-5.5-1.4-11.3,0.1-16.8l7.2-1.8c1.2,2.4,3,4.3,5.3,5.7c0.5,0.3,11.1,1.7,12.4,1.4
	c5.5,0.4,11-0.2,16.4-1.7C613.5,314.9,617.4,313.2,621,311z"/>
<path class="st34" d="M683.6,233.1l6.2,1.6v11.1c-1.8,2.7-4.1,5-6.7,6.9c-3.5,2.5-7.5,4-11.8,4.5c-12.1,0.9-24.2-1.1-35.3-5.7
	c-1.3-5.5-1.2-11.3,0.1-16.8l6.4-1.8c1,2.3,2.7,4.3,4.8,5.7c0.5,0.3,10,1.7,11.1,1.4c4.9,0.4,9.9-0.2,14.7-1.7
	C676.9,237,680.4,235.3,683.6,233.1z"/>
<polygon class="st35" points="663.2,66.7 695.9,103.2 642.2,66.7 "/>
<path class="st36" d="M656.4,128.5c-4.9-0.8-9.6-2.8-13.5-5.9c-2.2-1.6-4-3.6-5.4-5.9h-8.1c2.1,3.8,4.8,7.2,8.1,9.9
	c4.4,3.9,9.6,6.9,15.1,8.8C653.8,133.3,655.1,130.8,656.4,128.5z"/>
<path class="st31" d="M646.9,143.3c-0.8,4.8-1.9,11.7-2.6,20c-0.5,5.5-1.2,14-1.6,33.4c-0.1,9.8-0.3,22.5,0,37.4
	c0.7,1.9,2.1,3.5,3.8,4.4c1.4,0.8,2.9,1.2,4.5,1.2c4.5-13.3,7.3-27.1,8.4-41.2c0.6-8.2,0.6-16.5,0-24.7c-3-4.4-5.6-9-7.7-14
	C649.4,154.6,647.8,149,646.9,143.3z"/>
<path class="st37" d="M662.3,99.8l-7,3.7c-0.2,7.4-1.2,14.8-3.1,22c-1.7,6.3-4,12.3-7,18.1c0.3,6.1,1.4,12.2,3.1,18.1
	c1.8,5.9,4.4,11.6,7.7,16.9c3.5-12,5.9-24.4,7-36.9C664.3,127.7,664,113.6,662.3,99.8z"/>
<path class="st38" d="M662.3,104.5c1.5,22,1.2,44-1.1,65.9c-2.5,23.5-7.1,46.8-13.8,69.5c6.7,1.6,13.7,1.8,20.4,0.5
	c5.6-1,10.9-3,15.8-5.9c-4.1-8.7-7.3-17.8-9.8-27.1c-5.4-20.3-4.6-33.6-6.6-59.5C666.4,137.5,664.9,122.6,662.3,104.5z"/>
<path class="st36" d="M689.8,110.3c-2.8,5.5-6.4,10.5-10.6,15.1c-4.8,5.2-10.4,9.7-16.6,13.1v-5.3l21.2-22.9L689.8,110.3z"/>
<path class="st39" d="M689.3,110.3h4.5c-3,5.8-6.7,11.2-10.9,16.2c-5.7,6.8-12.3,12.6-19.7,17.4V137c4.9-5,9.7-9.9,14.6-14.9
	C681.6,118.1,685.5,114.3,689.3,110.3z"/>
<polygon class="st40" points="613.5,82.6 613.5,90.2 636.2,96.2 623,85.5 "/>
<polygon class="st41" points="651.4,100.6 614.4,90.2 602.8,105.7 614.4,112.1 639.1,112.1 "/>
<polygon class="st42" points="650.6,98.9 638.3,110.5 629.5,110.5 613.5,110.5 624,117.6 638.3,117.6 658.7,104 "/>
<polygon class="st43" points="658.7,103.2 636.2,96.2 658.7,73.2 "/>
<polygon class="st44" points="658.7,73.2 623,67.3 613.5,73.2 613.5,82.6 623,85.5 636.2,96.2 "/>
<polygon class="st45" points="689.8,67.3 689.8,59 658.7,49.1 637.2,53.8 623,67.3 654.7,73.2 "/>
<polygon class="st35" points="679.1,90.2 679.1,96.2 658.5,102.9 658.7,73.2 "/>
<polygon class="st46" points="689.8,67.3 666.6,71.4 679.1,90.2 689.8,78.5 "/>
<polygon class="st47" points="699.3,95.9 709.3,95.9 716.6,103.2 716.6,108.8 707.9,116.7 699.3,122.4 682.1,124.6 699.3,110 "/>
<polygon class="st48" points="696.1,95.9 701.4,95.9 701.4,103.8 701.4,114.8 692.6,118.6 682.1,124.6 671,124.6 671,118.6 
	680.5,113.7 691.9,103.5 "/>
<polygon class="st47" points="689.8,67.3 703.3,67.3 703.3,82.6 693.7,99.8 670.6,104.5 654.7,104.5 679.1,94.9 689.2,77.9 "/>
<polygon class="st37" points="662,104.5 656.4,174 656.4,208.6 666.6,142 "/>
<polygon class="st35" points="599.6,108.9 638.9,152.7 574.7,108.9 "/>
<path class="st36" d="M591.5,183.1c-5.9-1-11.5-3.4-16.3-7.1c-2.5-2-4.7-4.4-6.5-7.1H559c2.6,4.5,5.9,8.5,9.7,12
	c5.3,4.7,11.5,8.3,18.2,10.6C588.4,188.6,590,185.8,591.5,183.1z"/>
<path class="st31" d="M580.1,200.6c-0.9,5.8-2.1,14.1-3.1,24c-0.7,6.6-1.5,16.7-1.9,40.1c-0.3,11.7-0.3,26.9,0,44.9
	c0.9,2.3,2.5,4.2,4.6,5.4c1.7,0.9,3.5,1.5,5.4,1.5c8.5-25.5,11.9-52.4,9.9-79.2c-3.6-5.3-6.7-10.9-9.3-16.7
	C583.1,214.2,581.2,207.5,580.1,200.6z"/>
<path class="st37" d="M598.5,148.4l-8.4,4.6c-0.2,8.9-1.5,17.7-3.8,26.2c-2.1,7.5-4.9,14.8-8.4,21.8c0.4,7.4,1.6,14.7,3.8,21.8
	s5.3,14,9.2,20.3c4.2-14.5,7-29.3,8.4-44.3C600.9,182,600.6,165.1,598.5,148.4z"/>
<path class="st38" d="M598.5,154.1c1.8,26.3,1.4,52.8-1.3,79c-3,28.2-8.5,56.1-16.6,83.3c8,1.9,16.3,2.1,24.4,0.7
	c6.7-1.2,13.1-3.6,18.9-7.1c-4.9-10.4-8.8-21.3-11.8-32.5c-6.5-24.3-5.6-40.2-7.9-71.3C603.4,193.7,601.7,175.9,598.5,154.1z"/>
<path class="st36" d="M631.5,161.1c-3.5,6.5-7.7,12.6-12.7,18.1c-5.8,6.2-12.5,11.5-19.9,15.7v-6.4l25.3-27.5L631.5,161.1z"/>
<path class="st39" d="M630.8,161.1h5.3c-3.6,6.9-7.9,13.4-13,19.3c-6.8,8-14.8,15.1-23.6,20.9v-8.2l17.5-17.8
	C621.7,170.5,626.3,165.8,630.8,161.1z"/>
<polygon class="st40" points="540.1,127.9 540.1,137.1 567.1,144.2 551.6,131.5 "/>
<polygon class="st41" points="585.4,149.4 541.3,137.1 527.2,155.6 541.3,163.3 570.7,163.3 "/>
<polygon class="st42" points="584.6,147.4 569.8,161.4 559.4,161.4 540.1,161.4 552.7,169.8 569.8,169.8 594.3,153.6 "/>
<polygon class="st43" points="594.3,152.7 567.1,144.2 594.3,116.6 "/>
<polygon class="st44" points="594.3,116.6 551.6,109.6 540.1,116.6 540.1,127.9 551.6,131.5 567.1,144.2 "/>
<polygon class="st45" points="631.5,109.6 631.5,99.8 594.3,87.7 568.6,93.4 551.6,109.6 589.5,116.6 "/>
<polygon class="st35" points="996.2,21.8 1030.5,55.7 974.4,21.8 "/>
<polygon class="st35" points="618.7,137.1 618.7,144.2 594,152.3 594.3,116.6 "/>
<path class="st36" d="M989.1,79.1c-5.1-0.7-9.9-2.6-14.2-5.5c-2.2-1.5-4.1-3.4-5.7-5.5h-8.5c2.3,3.5,5.2,6.7,8.5,9.2
	c4.7,3.7,10.1,6.4,15.8,8.2C986.4,83.4,987.8,81.2,989.1,79.1z"/>
<path class="st31" d="M979.1,92.7c-0.8,4.5-1.9,10.8-2.8,18.5c-0.6,5.1-1.3,13-1.7,30.9c-0.2,9-0.3,20.8,0,34.7
	c0.9,1.8,2.3,3.2,4.1,4.1c1.5,0.8,3.1,1.2,4.7,1.2c4.7-12.3,7.6-25.1,8.8-38.2c0.6-7.6,0.6-15.3,0-22.9c-3.1-4-5.9-8.3-8.1-12.9
	C981.8,103.2,980.1,98.1,979.1,92.7z"/>
<path class="st37" d="M995.3,52.4l-7.3,3.5c-0.2,6.9-1.3,13.7-3.3,20.3c-1.8,5.8-4.3,11.5-7.3,16.8c0.3,5.7,1.4,11.4,3.3,16.8
	c1.9,5.6,4.6,10.8,8,15.7c3.6-11.1,6.1-22.6,7.3-34.2C997.3,78.3,997.1,65.2,995.3,52.4z"/>
<path class="st38" d="M995.3,56.7c1.6,20.4,1.2,40.8-1.2,61.1c-2.6,21.9-7.4,43.5-14.5,64.4c7,1.5,14.3,1.7,21.3,0.5
	c5.8-0.9,11.3-2.7,16.5-5.5c-4.3-8-7.7-16.4-10.3-25.1c-5.6-18.7-4.9-31.1-6.9-55.1C999.5,87.4,998.1,73.6,995.3,56.7z"/>
<path class="st36" d="M1024,62.2c-3,5.2-6.7,9.9-11.1,14c-5.1,4.9-11,9-17.3,12.2v-4.9l22.1-21.3L1024,62.2z"/>
<path class="st39" d="M1023.4,62.2h4.7c-3.2,5.4-7,10.4-11.3,15c-6.1,6.3-13,11.7-20.6,16.1v-6.4c5.1-4.6,10.1-9.2,15.3-13.8
	C1015.5,69.4,1019.5,65.8,1023.4,62.2z"/>
<polygon class="st40" points="944.2,36.5 944.2,43.7 967.8,49.1 954.3,39.3 "/>
<polygon class="st41" points="983.8,53.2 945.2,43.7 933,57.9 945.2,63.8 970.9,63.8 "/>
<polygon class="st42" points="983.1,51.6 970.1,62.4 961.1,62.4 944.2,62.4 955.2,68.9 970.1,68.9 991.5,56.4 "/>
<polygon class="st43" points="991.5,55.7 967.8,49.1 991.5,27.8 "/>
<polygon class="st44" points="991.5,27.8 954.3,22.3 944.2,27.8 944.2,36.5 954.3,39.3 967.8,49.1 "/>
<polygon class="st46" points="631.5,109.6 603.7,114.5 618.7,137.1 631.5,123 "/>
<polygon class="st35" points="1012.7,43.7 1012.7,49.1 991.3,55.4 991.5,27.8 "/>
<polygon class="st46" points="1024,22.3 999.7,26.2 1012.7,43.7 1024,32.7 "/>
<polygon class="st47" points="1041.4,36.5 1051.5,36.5 1058.8,43.1 1058.8,48.1 1050.1,55.1 1041.4,60.1 1024,62.2 1041.4,49.1 "/>
<polygon class="st48" points="1038.2,36.5 1043.5,36.5 1043.5,43.7 1043.5,53.5 1034.6,56.7 1024,62.2 1012.7,62.2 1012.7,56.7 
	1022.4,52.4 1033.8,43.4 "/>
<polygon class="st47" points="1024,22.3 1038.2,22.3 1038.2,36.5 1028.1,52.4 1003.9,56.7 987.4,56.7 1012.7,48 1023.4,32.2 "/>
<polygon class="st37" points="995,56.7 989.1,121.1 989.1,153.3 999.7,91.7 "/>
<polygon class="st47" points="1012.7,49.1 1012.7,43.7 1024,32.7 "/>
<polygon class="st35" points="923.9,47.6 962.4,85.5 899.4,47.6 "/>
<polygon class="st47" points="651.4,127.9 662.9,127.9 671.4,136.4 671.4,142.9 661.5,152 651.4,158.5 631.5,161.1 651.4,144.2 "/>
<polygon class="st48" points="647.7,127.9 653.8,127.9 653.8,137.1 653.8,149.8 643.7,154.1 631.5,161.1 618.7,161.1 618.7,154.1 
	629.7,148.5 642.8,136.8 "/>
<path class="st37" d="M922.9,81.8l-8.2,3.9c-0.2,7.7-1.5,15.4-3.8,22.8c-2,6.6-4.8,12.9-8.2,18.9c0.4,6.4,1.6,12.8,3.8,18.9
	c2.2,6.2,5.2,12.2,9,17.6C924.2,137.5,926.7,109.4,922.9,81.8L922.9,81.8z"/>
<path class="st36" d="M955.1,92.8c-3.4,5.8-7.6,11.1-12.4,15.7c-5.8,5.5-12.3,10.1-19.4,13.7v-5.5l24.8-23.9L955.1,92.8z"/>
<path class="st39" d="M954.5,92.8h5.2c-3.6,6.1-7.8,11.7-12.7,16.7c-6.8,7.1-14.6,13.2-23.1,18.1v-7.1l17.2-15.5
	C945.6,101,950,96.9,954.5,92.8z"/>
<polygon class="st47" points="631.5,109.6 647.7,109.6 647.7,127.9 636.2,148.4 608.5,154.1 589.5,154.1 618.7,142.7 630.8,122.3 
	"/>
<polygon class="st37" points="598.3,154.1 591.5,237.4 591.5,279.1 603.7,199.2 "/>
<polygon class="st47" points="618.7,144.2 618.7,137.1 631.5,123 "/>
<path class="st31" d="M1708.7,257.1"/>
<polygon class="st45" points="921.8,67.8 921.8,58.1 883.9,46.5 857.7,52 840.5,67.8 879.1,74.7 "/>
<polygon class="st45" points="965.6,78.4 965.6,69.9 929.2,59.5 904,64.3 887.4,78.4 924.6,84.6 "/>
<polygon class="st35" points="942.5,72 942.5,78.1 918.4,85.2 918.7,54.3 "/>
<polygon class="st46" points="955.1,48.1 927.9,52.4 942.5,72 955.1,59.8 "/>
<polygon class="st47" points="974.6,64.1 985.9,64.1 994.2,71.4 994.2,77 984.4,84.9 974.6,90.6 955.1,92.8 974.6,78.2 "/>
<polygon class="st48" points="970.9,64.1 976.9,64.1 976.9,72 976.9,83.1 967,86.7 955.1,92.8 942.5,92.8 942.5,86.7 953.4,81.9 
	966.2,71.7 "/>
<polygon class="st47" points="955.1,48.1 970.9,48.1 970.9,64.1 959.7,81.8 932.6,86.7 914,86.7 942.5,76.9 954.4,59.2 "/>
<polygon class="st37" points="922.6,86.7 916,158.9 916,195 927.9,125.9 "/>
<polygon class="st47" points="942.5,78.1 942.5,72 955.1,59.8 "/>
<path class="st38" d="M922.8,86.7c1.8,22.8,1.4,45.8-1.3,68.5c-2.9,24.6-8.4,48.7-16.2,72.2c7.9,1.7,16,1.9,23.9,0.6
	c6.5-1,12.7-3.1,18.5-6.1c-4.8-9-8.6-18.4-11.5-28.1c-6.3-21.1-5.5-34.9-7.7-61.8C927.6,121.1,926,105.5,922.8,86.7z"/>
<path class="st36" d="M917.7,90.3c-7-1-13.7-3.6-19.6-7.5c-3-2.1-5.7-4.6-7.9-7.5h-11.8c3.2,4.9,7.1,9.3,11.8,12.9
	c6.6,5,14,8.9,21.9,11.3C914.1,96.3,915.9,93.3,917.7,90.3z"/>
<path class="st31" d="M903.9,109.1c-1.1,6.2-2.7,15-3.8,25.7c-0.8,7.1-1.8,18-2.3,42.8c-0.3,12.5-0.3,28.8,0,47.9
	c1.2,2.5,3.1,4.5,5.6,5.7c2,1,4.3,1.6,6.5,1.7c10.3-26.9,14.5-55.8,12.1-84.5c-4.4-5.5-8.1-11.5-11.2-17.9
	C907.7,123.7,905.3,116.5,903.9,109.1z"/>
<polygon class="st40" points="866.6,65.2 866.6,73.2 893,79.3 877.8,68.3 "/>
<polygon class="st41" points="911,83.9 867.7,73.2 854,89.2 867.7,95.9 896.5,95.9 "/>
<polygon class="st42" points="910.1,82.1 895.6,94.2 885.5,94.2 866.6,94.2 878.9,101.6 895.6,101.6 919.6,87.5 "/>
<path class="st49" d="M955.7,224.5"/>
<polygon class="st43" points="919.6,86.7 893,79.3 919.6,55.5 "/>
<polygon class="st44" points="919.6,55.5 877.8,49.3 866.6,55.5 866.6,65.2 877.8,68.3 893,79.3 "/>
<rect x="1514.9" y="268.5" class="st59" width="91.3" height="99.6"/>
<polygon class="st59" points="1564.5,185.2 1613.7,270.6 1515.3,270.6 "/>
<polygon class="st60" points="1514.9,270.6 1464.6,247 1464.6,334.3 1514.9,368.1 "/>
<polygon class="st61" points="1564.7,184.8 1614.1,270.1 1627.3,273.2 1614.1,257.8 "/>
<polygon class="st62" points="1565.2,185.2 1514.9,270.6 1505.5,279.8 1453.2,252.1 1502.5,178.1 "/>
<polygon class="st50" points="1351.6,342.4 1351.6,326.2 1364.5,344.9 "/>
<rect x="1302.3" y="240.9" transform="matrix(0.3171 -0.9484 0.9484 0.3171 513.3228 1536.2268)" class="st51" width="42.1" height="341.5"/>
<path class="st52" d="M730.9,979.1"/>
<polygon class="st63" points="1792.3,134.2 1859.9,125.2 1949,163.4 1868.5,172.4 "/>
<polygon points="1949,337.1 1868.5,343.1 1868.5,172.4 1949,163.4 "/>
<polygon class="st64" points="1878.8,177.7 1792.3,134.2 1792.3,297.4 1867.6,343.1 1878.8,343.1 "/>
<rect x="527.3" y="391.3" transform="matrix(0.9755 -0.22 0.22 0.9755 -71.4087 180.5774)" class="st51" width="495.5" height="39.2"/>
<polygon class="st56" points="1386.7,393.7 1380,400.6 1380.6,393.9 1375.9,395.7 1377.5,390.3 "/>
<path class="st65" d="M1381.9,345.1h-7.9c-5.2,0-9.5-4.2-9.5-9.5v-35.9c0-5.2,4.2-9.5,9.5-9.5h7.9c5.2,0,9.5,4.2,9.5,9.5v35.9
	C1391.4,340.9,1387.1,345.1,1381.9,345.1z"/>
<ellipse class="st66" cx="1399.7" cy="366.4" rx="44.5" ry="28.4"/>
<polygon class="st50" points="1366.2,341.7 1379.6,332.7 1371.2,353.8 "/>
<circle class="st67" cx="1361.1" cy="355.3" r="17.2"/>
<ellipse class="st50" cx="1358.3" cy="359.4" rx="6.7" ry="4.1"/>
<circle class="st37" cx="1378.3" cy="279.3" r="13.3"/>
<path class="st1" d="M1073.5,638.8c33.4-3.2,61.9,7.4,63.7,23.5s-24,31.8-57.4,35s-61.9-7.4-63.7-23.5
	C1014.3,657.6,1040,642,1073.5,638.8z"/>
<linearGradient id="SVGID_2_" gradientUnits="userSpaceOnUse" x1="844.19" y1="6653.6602" x2="844.19" y2="6873.5654" gradientTransform="matrix(1 0 0 -1 -56.99 7638.6602)">
	<stop  offset="0" style="stop-color:#FFFFFF"/>
	<stop  offset="1" style="stop-color:#000000"/>
</linearGradient>
<path class="st68" d="M747.4,842.7c2.5-43.9,14.5-78.1,27.6-77.6l6.3,0.2l2.6,0.1l48.3,1.7c-13.2-0.5-25.2,34.1-27.6,78.3h-0.1
	l-5,139.6c-6.8-0.6-6.3-16.5-13.2-16.8s-7.6,16.1-14.6,15.8s-6.4-16.6-13.4-16.8s-7.6,16.1-14.6,15.8c-0.5,0-1-0.1-1.5-0.3l5-139.9
	L747.4,842.7z"/>
<polygon class="st63" points="796.6,193.6 917.2,175.3 1076,253.2 932.5,271.5 "/>
<polygon class="st64" points="950.8,282.3 796.6,193.6 796.6,526.4 931,619.5 950.8,619.5 "/>
<polygon points="1076,607.3 932.5,619.5 932.5,271.5 1076,253.2 "/>
<path class="st2" d="M1122.4,660.5c-16.4,7.5-34.2,11.5-52.2,11.6c-18.7,0.1-37.2-3.9-54.2-11.6c4-91.7,5.9-187.2,5.8-286.3
	c-0.2-90.1-2.3-177.2-5.8-261.2c15.1,4,30.7,5.9,46.4,5.8c15-0.1,30-2.1,44.6-5.8c-1.1,84.9-0.4,172.6,2,263.2
	C1111.4,474.3,1116.1,569.2,1122.4,660.5z"/>
<path class="st49" d="M1106.5,117.9c-3.5,0-11.1,42.3-30.7,247.3c-6.3,74.8-12.6,149.6-18.9,224.4v83.8c12,2.5,24.4,2.5,36.5,0.2
	c10.2-2,20.1-5.6,29.2-10.7c-4.7-62.9-10.8-158.1-13.1-274.8C1106.2,227.5,1110,117.9,1106.5,117.9z"/>
<ellipse class="st69" cx="1062.7" cy="117.2" rx="45.5" ry="11.6"/>
<path class="st55" d="M743,846.4c2.7-45.8,15.8-81.4,30.2-80.9l7,0.2l2.9,0.1l53.2,1.9c-14.5-0.5-27.6,35.5-30.2,81.6H806
	l-5.2,145.5c-7.5-0.6-6.9-17.3-14.6-17.5s-8.3,16.7-16,16.5s-7.1-17.3-14.8-17.6s-8.3,16.7-16,16.5c-0.6,0-1.1-0.1-1.7-0.4
	L743,846.4L743,846.4z"/>
<path class="st1" d="M1442.9,618.1c31.4-2.1,58.2,4.9,59.8,15.7c1.6,10.7-22.5,21.2-53.9,23.3s-58.2-4.9-59.8-15.7
	C1387.3,630.6,1411.5,620.2,1442.9,618.1z"/>
<ellipse transform="matrix(0.995 -9.999751e-02 9.999751e-02 0.995 -19.3142 123.4834)" class="st1" cx="1222.1" cy="254.4" rx="28.6" ry="17.4"/>
<polygon class="st35" points="1218.2,69.3 1255.2,108.8 1194.6,69.3 "/>
<path class="st36" d="M1210.6,136.3c-5.5-0.9-10.8-3.1-15.3-6.4c-2.4-1.8-4.5-3.9-6.1-6.4h-9.2c2.4,4.1,5.5,7.7,9.2,10.8
	c5,4.2,10.8,7.5,17,9.6C1207.6,141.4,1209.1,138.8,1210.6,136.3z"/>
<path class="st31" d="M1199.8,152.2c-0.9,5.3-2,12.7-3,21.7c-0.6,6-1.4,15.2-1.8,36.2c-0.2,10.6-0.3,24.3,0,40.5
	c0.9,2,2.4,3.7,4.3,4.8c1.6,0.8,3.3,1.3,5.1,1.4c5-14.4,8.2-29.4,9.4-44.6c0.7-8.9,0.7-17.9,0-26.8c-3.4-4.7-6.3-9.8-8.7-15.1
	C1202.7,164.5,1200.9,158.5,1199.8,152.2z"/>
<path class="st37" d="M1217.2,105l-7.9,4.1c-0.2,8-1.4,16-3.6,23.7c-1.9,6.8-4.6,13.4-7.9,19.7c0.3,6.7,1.6,13.3,3.6,19.7
	c2.1,6.4,5,12.6,8.6,18.3c3.9-13,6.6-26.4,7.9-40C1219.4,135.3,1219.2,120.1,1217.2,105z"/>
<path class="st38" d="M1217.2,110.1c3.7,49.5-2,99.2-16.8,146.6c7.6,1.7,15.4,1.9,23,0.6c6.3-1,12.3-3.2,17.8-6.4
	c-4.6-9.4-8.3-19.2-11.1-29.3c-6.1-21.9-5.3-36.3-7.4-64.4C1221.8,146,1220.2,129.8,1217.2,110.1z"/>
<path class="st36" d="M1248.2,116.5c-3.2,6-7.2,11.5-11.9,16.4c-5.4,5.7-11.8,10.5-18.7,14.2v-5.7l23.9-24.9
	C1241.5,116.5,1248.2,116.5,1248.2,116.5z"/>
<path class="st39" d="M1247.6,116.5h5c-3.4,6.3-7.5,12.1-12.2,17.5c-6.5,7.3-13.9,13.6-22.2,18.8v-7.4c5.5-5.3,11-10.7,16.5-16.2
	C1239.1,125,1243.4,120.8,1247.6,116.5z"/>
<polygon class="st40" points="1162.1,86.5 1162.1,94.8 1187.6,101.2 1173,89.7 "/>
<polygon class="st41" points="1204.8,105.9 1163.2,94.8 1150,111.5 1163.2,118.4 1191,118.4 "/>
<polygon class="st42" points="1204,104.1 1190.1,116.7 1180.3,116.7 1162.1,116.7 1174,124.4 1190.1,124.4 1213.1,109.7 "/>
<polygon class="st43" points="1213.1,108.8 1187.6,101.2 1213.1,76.3 "/>
<polygon class="st44" points="1213.1,76.3 1173,70 1162.1,76.3 1162.1,86.5 1173,89.7 1187.6,101.2 "/>
<polygon class="st45" points="1248.2,70 1248.2,61 1213.1,50.2 1188.9,55.3 1173,70 1208.7,76.3 "/>
<polygon class="st35" points="1236.1,94.8 1236.1,101.2 1212.9,108.5 1213.1,76.3 "/>
<polygon class="st46" points="1248.2,70 1222,74.4 1236.1,94.8 1248.2,82.1 "/>
<polygon class="st47" points="1267,86.5 1277.8,86.5 1285.8,94.2 1285.8,100 1276.4,108.3 1267,114.1 1248.2,116.5 1267,101.2 "/>
<polygon class="st48" points="1263.5,86.5 1269.2,86.5 1269.2,94.8 1269.2,106.3 1259.7,110.1 1248.2,116.5 1236.1,116.5 
	1236.1,110.1 1246.5,105.1 1258.8,94.5 "/>
<polygon class="st47" points="1248.2,70 1263.5,70 1263.5,86.5 1252.7,105 1226.5,110.1 1208.7,110.1 1236.1,99.9 1247.6,81.4 "/>
<polygon class="st37" points="1216.9,110.1 1210.6,185.4 1210.6,223 1222,150.9 "/>
<polygon class="st47" points="1236.1,101.2 1236.1,94.8 1248.2,82.1 "/>
<polyline class="st70" points="1449.6,739.7 1462.4,784.8 1456,796.8 1437.1,842.7 "/>
<ellipse transform="matrix(0.995 -9.999751e-02 9.999751e-02 0.995 -14.6271 214.3957)" class="st1" cx="2131.3" cy="253.1" rx="28.6" ry="17.4"/>
<polygon class="st35" points="2124.9,68.2 2161.9,107.7 2101.3,68.2 "/>
<path class="st36" d="M2117.3,135.1c-5.5-0.9-10.8-3.1-15.3-6.4c-2.4-1.8-4.5-3.9-6.1-6.4h-9.2c2.4,4.1,5.5,7.7,9.2,10.8
	c5,4.2,10.8,7.5,17,9.6C2114.3,140.3,2115.8,137.7,2117.3,135.1z"/>
<path class="st31" d="M2106.5,151.1c-0.9,5.3-2,12.7-3,21.7c-0.6,6-1.4,15.2-1.8,36.2c-0.2,10.6-0.3,24.3,0,40.5
	c0.9,2,2.4,3.7,4.3,4.8c1.6,0.8,3.3,1.3,5.1,1.4c5-14.4,8.2-29.4,9.4-44.6c0.7-8.9,0.7-17.9,0-26.8c-3.4-4.7-6.3-9.8-8.7-15.1
	C2109.4,163.4,2107.6,157.3,2106.5,151.1z"/>
<path class="st37" d="M2123.9,103.9l-7.9,4.1c-0.2,8-1.4,16-3.6,23.7c-1.9,6.8-4.6,13.4-7.9,19.7c0.3,6.7,1.6,13.3,3.6,19.7
	c2.1,6.4,5,12.6,8.6,18.3c3.9-13,6.6-26.4,7.9-40C2126.1,134.2,2125.9,119,2123.9,103.9z"/>
<path class="st38" d="M2123.9,109c3.7,49.5-2,99.2-16.8,146.6c7.6,1.7,15.4,1.9,23,0.6c6.3-1,12.3-3.2,17.8-6.4
	c-4.6-9.4-8.3-19.2-11.1-29.3c-6.1-21.9-5.3-36.3-7.4-64.4C2128.5,144.9,2126.9,128.7,2123.9,109z"/>
<path class="st36" d="M2154.9,115.4c-3.2,6-7.2,11.5-11.9,16.4c-5.4,5.7-11.8,10.5-18.7,14.2v-5.7l23.9-24.9H2154.9z"/>
<path class="st39" d="M2154.3,115.4h5c-3.4,6.3-7.5,12.1-12.2,17.5c-6.5,7.3-13.9,13.6-22.2,18.8v-7.4c5.5-5.3,11-10.7,16.5-16.2
	C2145.8,123.9,2150.1,119.7,2154.3,115.4z"/>
<polygon class="st40" points="2068.8,85.4 2068.8,93.7 2094.3,100.1 2079.7,88.6 "/>
<polygon class="st41" points="2111.5,104.8 2069.9,93.7 2056.7,110.4 2069.9,117.3 2097.7,117.3 "/>
<polygon class="st42" points="2110.7,103 2096.8,115.6 2087,115.6 2068.8,115.6 2080.7,123.3 2096.8,123.3 2119.8,108.6 "/>
<polygon class="st43" points="2119.8,107.7 2094.3,100.1 2119.8,75.2 "/>
<polygon class="st44" points="2119.8,75.2 2079.7,68.9 2068.8,75.2 2068.8,85.4 2079.7,88.6 2094.3,100.1 "/>
<polygon class="st45" points="2154.9,68.9 2154.9,59.9 2119.8,49.1 2095.6,54.2 2079.7,68.9 2115.4,75.2 "/>
<polygon class="st35" points="2142.8,93.7 2142.8,100.1 2119.6,107.4 2119.8,75.2 "/>
<polygon class="st46" points="2154.9,68.9 2128.7,73.3 2142.8,93.7 2154.9,81 "/>
<polygon class="st47" points="2173.7,85.4 2184.5,85.4 2192.5,93.1 2192.5,98.9 2183.1,107.2 2173.7,113 2154.9,115.4 2173.7,100.1 
	"/>
<polygon class="st48" points="2170.2,85.4 2175.9,85.4 2175.9,93.7 2175.9,105.2 2166.4,109 2154.9,115.4 2142.8,115.4 2142.8,109 
	2153.2,104 2165.5,93.4 "/>
<polygon class="st47" points="2154.9,68.9 2170.2,68.9 2170.2,85.4 2159.4,103.9 2133.2,109 2115.4,109 2142.8,98.8 2154.3,80.3 "/>
<polygon class="st37" points="2123.6,109 2117.3,184.3 2117.3,221.9 2128.7,149.8 "/>
<polygon class="st47" points="2142.8,100.1 2142.8,93.7 2154.9,81 "/>
<path class="st30" d="M2085.7,250.9"/>
<ellipse transform="matrix(0.995 -9.999751e-02 9.999751e-02 0.995 -28.7445 173.5497)" class="st1" cx="1716.8" cy="373.5" rx="28.6" ry="17.4"/>
<polygon class="st35" points="1710.1,188.3 1747.1,227.8 1686.5,188.3 "/>
<path class="st36" d="M1702.5,255.3c-5.5-0.9-10.8-3.1-15.3-6.4c-2.4-1.8-4.5-3.9-6.1-6.4h-9.2c2.4,4.1,5.5,7.7,9.2,10.8
	c5,4.2,10.8,7.5,17,9.6C1699.5,260.4,1701,257.8,1702.5,255.3z"/>
<path class="st31" d="M1691.7,271.2c-0.9,5.3-2,12.7-3,21.7c-0.6,6-1.4,15.2-1.8,36.2c-0.2,10.6-0.3,24.3,0,40.5
	c0.9,2,2.4,3.7,4.3,4.8c1.6,0.8,3.3,1.3,5.1,1.4c5-14.4,8.2-29.4,9.4-44.6c0.7-8.9,0.7-17.9,0-26.8c-3.4-4.7-6.3-9.8-8.7-15.1
	C1694.5,283.5,1692.7,277.4,1691.7,271.2z"/>
<path class="st37" d="M1709.1,224l-7.9,4.1c-0.2,8-1.4,16-3.6,23.7c-1.9,6.8-4.6,13.4-7.9,19.7c0.3,6.7,1.6,13.3,3.6,19.7
	c2.1,6.4,5,12.6,8.6,18.3c3.9-13,6.6-26.4,7.9-40C1711.3,254.4,1711,239.1,1709.1,224z"/>
<path class="st38" d="M1709.1,229.1c3.7,49.5-2,99.2-16.8,146.6c7.6,1.7,15.4,1.9,23,0.6c6.3-1,12.3-3.2,17.8-6.4
	c-4.6-9.4-8.3-19.2-11.1-29.3c-6.1-21.9-5.3-36.3-7.4-64.4C1713.7,265,1712.1,248.8,1709.1,229.1z"/>
<path class="st36" d="M1740.1,235.5c-3.2,6-7.2,11.5-11.9,16.4c-5.4,5.7-11.8,10.5-18.7,14.2v-5.7l23.9-24.9H1740.1z"/>
<path class="st39" d="M1739.5,235.5h5c-3.4,6.3-7.5,12.1-12.2,17.5c-6.5,7.3-13.9,13.6-22.2,18.8v-7.4c5.5-5.3,11-10.7,16.5-16.2
	C1731,244,1735.3,239.8,1739.5,235.5z"/>
<polygon class="st40" points="1654,205.5 1654,213.8 1679.5,220.2 1664.9,208.7 "/>
<polygon class="st41" points="1696.7,224.9 1655.1,213.8 1641.9,230.5 1655.1,237.4 1682.9,237.4 "/>
<polygon class="st42" points="1695.9,223.1 1682,235.7 1672.2,235.7 1654,235.7 1665.9,243.4 1682,243.4 1705,228.7 "/>
<polygon class="st43" points="1705,227.8 1679.5,220.2 1705,195.3 "/>
<polygon class="st44" points="1705,195.3 1664.9,189 1654,195.3 1654,205.5 1664.9,208.7 1679.5,220.2 "/>
<polygon class="st45" points="1740.1,189 1740.1,180 1705,169.2 1680.8,174.3 1664.9,189 1700.6,195.3 "/>
<polygon class="st35" points="1728,213.8 1728,220.2 1704.8,227.5 1705,195.3 "/>
<polygon class="st46" points="1740.1,189 1713.9,193.4 1728,213.8 1740.1,201.1 "/>
<polygon class="st47" points="1758.9,205.5 1769.7,205.5 1777.7,213.2 1777.7,219 1768.3,227.3 1758.9,233.1 1740.1,235.5 
	1758.9,220.2 "/>
<polygon class="st48" points="1755.4,205.5 1761.1,205.5 1761.1,213.8 1761.1,225.3 1751.6,229.1 1740.1,235.5 1728,235.5 
	1728,229.1 1738.4,224.1 1750.7,213.5 "/>
<polygon class="st47" points="1740.1,189 1755.4,189 1755.4,205.5 1744.6,224 1718.4,229.1 1700.6,229.1 1728,218.9 1739.5,200.4 
	"/>
<polygon class="st37" points="1708.8,229.1 1702.5,304.4 1702.5,342 1713.9,269.9 "/>
<polygon class="st47" points="1728,220.2 1728,213.8 1740.1,201.1 "/>
<path class="st30" d="M1670.8,371"/>
<path class="st34" d="M1010.3,176.1l4.6,1v7.4c-1.4,1.8-3,3.3-4.9,4.5c-2.6,1.6-5.6,2.7-8.7,3c-4.2,0.3-8.4,0.1-12.5-0.4
	c-4.6-0.6-9.2-1.7-13.5-3.4c-0.9-3.6-0.9-7.5,0.1-11.1l4.7-1.2c0.8,1.6,2,2.9,3.5,3.7c0.3,0.2,7.4,1.2,8.2,0.9
	c3.6,0.3,7.3-0.1,10.8-1.1C1005.4,178.7,1008,177.5,1010.3,176.1z"/>
<polygon class="st56" points="1431.8,386.3 1431.9,395.8 1427.6,390.7 1425.5,395.3 1422.9,390.3 "/>
<polygon class="st1" points="1464.6,334.3 1501.1,368.1 1519.1,381.5 1547.6,381.5 1613.7,384 1606.3,368.1 1519.6,366.4 "/>
<path class="st1" d="M1222.6,577.6c23.4-1.7,43.6,5.2,45,15.5c1.4,10.2-16.4,19.9-39.8,21.6s-43.6-5.2-45-15.5
	C1181.3,588.9,1199.1,579.3,1222.6,577.6z"/>
<polygon class="st35" points="1216.8,308.3 1275.2,368.7 1179.7,308.3 "/>
<path class="st36" d="M1204.9,410.6c-8.6-1.3-16.9-4.6-24.1-9.7c-3.7-2.7-6.9-6-9.6-9.7h-14.5c3.9,6.4,8.8,12,14.5,16.6
	c8,6.5,17.1,11.5,26.8,14.6L1204.9,410.6z"/>
<path class="st31" d="M1187.8,435c-1.4,8-3.2,19.4-4.7,33.1c-1,9.2-2.2,23.2-2.8,55.4c-0.3,16.2-0.5,37.2,0,61.9
	c1.4,3.2,3.8,5.7,6.8,7.3c2.5,1.3,5.2,2,8,2.1c8-21.9,13-44.9,14.9-68.3c1.1-13.6,1.1-27.3,0-40.9c-5.4-7.1-9.9-14.9-13.7-23.1
	C1192.4,453.9,1189.5,444.6,1187.8,435z"/>
<path class="st37" d="M1215.3,362.9l-12.5,6.2c-0.4,12.3-2.3,24.5-5.6,36.3c-3.1,10.5-7.2,20.5-12.5,30c0.5,10.2,2.4,20.3,5.6,30
	c3.3,9.9,7.9,19.3,13.6,28c6.2-19.8,10.4-40.3,12.5-61.1C1218.8,409.2,1218.4,385.9,1215.3,362.9z"/>
<path class="st38" d="M1215.3,370.7c2.8,36.4,2.1,72.9-1.9,109.2c-4.4,39.1-12.6,77.6-24.5,115c11.9,2.7,24.3,3,36.3,1
	c9.8-1.6,19.3-4.9,28-9.7c-7.1-14.3-13-29.4-17.6-44.8c-9.6-33.5-8.3-55.5-11.7-98.5C1222.4,425.4,1220,400.7,1215.3,370.7z"/>
<path class="st36" d="M1264.2,380.4c-5.1,9.2-11.5,17.6-18.8,25c-8.7,8.8-18.7,16.1-29.5,21.7v-8.6l37.7-38L1264.2,380.4z"/>
<path class="st39" d="M1263.3,380.4h7.9c-5.4,9.6-11.8,18.6-19.2,26.7c-10.3,11.3-22.1,21.1-35.1,28.9v-11.3l26-24.6
	C1249.8,393.5,1256.5,387,1263.3,380.4z"/>
<polygon class="st40" points="1128.5,334.6 1128.5,347.3 1168.7,357 1145.6,339.5 "/>
<polygon class="st41" points="1195.8,364.2 1130.2,347.3 1109.4,372.7 1130.2,383.3 1173.9,383.3 "/>
<polygon class="st42" points="1194.6,361.5 1172.5,380.7 1157.1,380.7 1128.5,380.7 1147.2,392.5 1172.5,392.5 1208.9,370.1 "/>
<polygon class="st43" points="1208.9,368.7 1168.7,357 1208.9,319 "/>
<polygon class="st44" points="1208.9,319 1145.6,309.3 1128.5,319 1128.5,334.6 1145.6,339.5 1168.7,357 "/>
<polygon class="st45" points="1264.2,309.3 1264.2,295.6 1208.9,279.1 1170.7,286.9 1145.6,309.3 1201.8,319 "/>
<polygon class="st35" points="1245.1,347.3 1245.1,357 1208.6,368.2 1208.9,319 "/>
<polygon class="st46" points="1264.2,309.3 1223,316.1 1245.1,347.3 1264.2,327.8 "/>
<polygon class="st47" points="1293.8,334.6 1310.9,334.6 1323.5,346.3 1323.5,355.3 1308.6,367.8 1293.8,376.8 1264.2,380.4 
	1293.8,357 "/>
<polygon class="st48" points="1288.3,334.6 1297.3,334.6 1297.3,347.3 1297.3,364.8 1282.3,370.7 1264.2,380.4 1245.1,380.4 
	1245.1,370.7 1261.6,363 1280.9,346.8 "/>
<polygon class="st47" points="1264.2,309.3 1288.3,309.3 1288.3,334.6 1271.2,362.9 1230,370.7 1201.8,370.7 1245.1,355.1 
	1263.2,326.8 "/>
<polygon class="st37" points="1214.9,370.7 1204.9,485.7 1204.9,543.3 1223,433 "/>
<polygon class="st47" points="1245.1,357 1245.1,347.3 1264.2,327.8 "/>
<polygon class="st1" points="1792.3,297.4 1866.9,356.2 1880.8,360.8 1955.1,353.8 1949,337.1 1878.8,343.1 "/>
<path class="st30" d="M1179,252"/>
<path class="st38" d="M1394,523.4v57.2c26.9,14.5,59.2,14.5,86.1,0v-57.2C1453.6,539.2,1420.6,539.2,1394,523.4z"/>
<line class="st71" x1="1480.2" y1="453.4" x2="1394.1" y2="453.4"/>
<ellipse class="st72" cx="1437.1" cy="520.1" rx="43.1" ry="18.4"/>
<line class="st71" x1="1436.8" y1="526.5" x2="1437.1" y2="455"/>
<path class="st52" d="M1394,580.9V638c26.9,14.5,59.2,14.5,86.1,0v-57.2C1453.6,596.7,1420.6,596.7,1394,580.9L1394,580.9z"/>
<path class="st52" d="M1394,784.8V842c26.9,14.5,59.2,14.5,86.1,0v-57.2C1453.6,800.6,1420.6,800.6,1394,784.8z"/>
<path class="st52" d="M1394,840.8V898c26.9,14.5,59.2,14.5,86.1,0v-57.2C1453.6,856.6,1420.6,856.6,1394,840.8z"/>
<path class="st51" d="M1399,840.8v50.6c23.8,12.8,52.4,12.8,76.2,0v-50.6C1451.7,854.8,1422.5,854.8,1399,840.8z"/>
<ellipse class="st51" cx="1437.1" cy="842.7" rx="38.1" ry="17.2"/>
<polyline class="st70" points="1436.8,592.7 1427.9,629.3 1436.5,648.9 "/>
<path class="st52" d="M1394,728.8V786c26.9,14.5,59.2,14.5,86.1,0v-57.2C1453.6,744.6,1420.6,744.6,1394,728.8z"/>
<rect x="1464.6" y="446.6" class="st51" width="333.1" height="36.5"/>
<rect x="1809.9" y="437.4" transform="matrix(0.5746 -0.8185 0.8185 0.5746 376.1444 1705.0009)" class="st51" width="36.5" height="106.5"/>
<path class="st53" d="M2185.3,684.7c-1.1,0.5-2.2,0.8-3.4,0.8c-16,0.8-17.8-35-33.8-34.2S2134,688,2118,688.8s-17.8-35-33.8-34.2
	c-15.8,0.8-14.1,35.9-29.6,37.4l14.9,284.7l130.7-6.8L2185.3,684.7z"/>
<path class="st51" d="M2192,747.2c-6.6-121.2-34.4-216-64.3-214.9l-14.5,0.5l-5.9,0.2l-110.2,4c30-1.1,58,94.6,64.4,216.7h0.1
	l13.9,385.5c15.4-1.5,14-45.6,29.8-46.2c16-0.6,17.6,44.5,33.5,43.9s14.3-45.6,30.3-46.2s17.6,44.5,33.5,43.9
	c1.2-0.1,2.4-0.4,3.4-0.9l-13.9-386.5L2192,747.2z"/>
<g id="Meer-2_1_">
	<polygon class="st51" points="2003.3,655.7 1913.5,608.2 1850.6,609.5 1798.5,588.8 1769,564.2 1832.1,504.6 2030.1,461.8 
		2165.1,463 2160.8,540.9 	"/>
</g>
<path class="st51" d="M2074.5,953.2c15.7-0.4,15.1-24.7,30.8-25.1s16.4,23.8,32.2,23.3s15.1-24.7,30.8-25.1
	c15.6-0.4,16.4,23.3,31.7,23.3l3.9,137.4l0.4,14.3l3.7,130.9c0.4,15.7-4.9,28.7-11.9,28.9l-2.5,0.1c-7,0.2-13-12.5-13.5-28.2
	l-3.3-118.2c-0.2-7.1-2.9-12.7-6-12.6h-0.3c-3.1,0.1-5.5,5.9-5.3,12.9l5.1,178.9c0.7,25.5-7.9,46.6-19.2,47l-4.1,0.1
	c-11.3,0.3-21.1-20.3-21.9-45.8l-5.1-178.9c-0.2-7.1-2.9-12.7-6-12.6s-5.5,5.9-5.3,12.9l2.9,102.1c0.5,18.6-5.8,33.9-14,34.2l-3,0.1
	c-8.2,0.2-15.4-14.8-15.9-33.3l-3.2-114.9l-1.6-56.7l-2.7-95.4C2072.2,953.2,2073.3,953.3,2074.5,953.2z"/>
<rect x="2073.8" y="1091.1" class="st51" width="134.2" height="1031.2"/>
<path class="st52" d="M3245.1,2597.6v57.2c26.9,14.5,59.2,14.5,86.1,0v-57.2C3304.7,2613.4,3271.6,2613.4,3245.1,2597.6z"/>
<path class="st52" d="M3245.1,2653.6v57.2c26.9,14.5,59.2,14.5,86.1,0v-57.2C3304.7,2669.4,3271.6,2669.4,3245.1,2653.6z"/>
<path class="st51" d="M3250,2653.6v50.6c23.8,12.8,52.4,12.8,76.2,0v-50.6C3302.8,2667.6,3273.5,2667.6,3250,2653.6z"/>
<ellipse class="st51" cx="3288.2" cy="2655.4" rx="38.1" ry="17.2"/>
<polyline class="st70" points="3287.9,2405.5 3278.9,2442.1 3287.5,2461.6 "/>
<path class="st52" d="M3245.1,2541.6v57.2c26.9,14.5,59.2,14.5,86.1,0v-57.2C3304.7,2557.4,3271.6,2557.4,3245.1,2541.6z"/>
<polyline class="st70" points="3300.7,2552.5 3313.4,2597.6 3307.1,2609.6 3288.2,2655.4 "/>
<g id="Meer-2">
	<polygon class="st51" points="3854.3,2468.5 3764.6,2421 3701.6,2422.2 3649.6,2401.6 3620.1,2377 3683.2,2317.4 3881.1,2274.5 
		4016.2,2275.8 4011.8,2353.7 	"/>
</g>
<rect x="1011.4" y="339.1" class="st73" width="166.3" height="38.5"/>
<g id="Meer">
	<polygon class="st51" points="2278.8,2092.9 2333,2200.1 2394.3,2241.8 2430.4,2297.3 2442.2,2341.2 2341.1,2355.9 2121.7,2262.5 
		1992.6,2169.2 2049.5,2096.7 	"/>
</g>
<path class="st38" d="M3245.1,2336.2v57.2c26.9,14.5,59.2,14.5,86.1,0v-57.2C3304.7,2352,3271.6,2352,3245.1,2336.2z"/>
<line class="st71" x1="3331.2" y1="2266.2" x2="3245.1" y2="2266.2"/>
<ellipse class="st72" cx="3288.2" cy="2332.9" rx="43.1" ry="18.4"/>
<line class="st71" x1="3287.9" y1="2339.3" x2="3288.2" y2="2267.8"/>
<path class="st52" d="M3245.1,2393.6v57.2c26.9,14.5,59.2,14.5,86.1,0v-57.2C3304.7,2409.4,3271.6,2409.4,3245.1,2393.6
	L3245.1,2393.6z"/>
<path class="st65" d="M3232.9,2157.9h-7.9c-5.2,0-9.5-4.2-9.5-9.5v-35.9c0-5.2,4.2-9.5,9.5-9.5h7.9c5.2,0,9.5,4.2,9.5,9.5v35.9
	C3242.4,2153.6,3238.2,2157.9,3232.9,2157.9z"/>
<polygon class="st56" points="3237.8,2206.5 3231,2213.3 3231.7,2206.7 3226.9,2208.4 3228.6,2203 "/>
<ellipse class="st66" cx="3250.8" cy="2179.2" rx="44.5" ry="28.4"/>
<polygon class="st50" points="3217.2,2154.4 3230.7,2145.5 3222.3,2166.6 "/>
<circle class="st67" cx="3212.1" cy="2168" r="17.2"/>
<ellipse class="st50" cx="3209.3" cy="2172.1" rx="6.7" ry="4.1"/>
<circle class="st37" cx="3229.4" cy="2092.1" r="13.3"/>
<rect x="3366" y="2081.3" class="st59" width="91.3" height="99.6"/>
<polygon class="st59" points="3415.6,1998 3464.8,2083.4 3366.3,2083.4 "/>
<polygon class="st60" points="3366,2083.4 3315.6,2059.7 3315.6,2147 3366,2180.9 "/>
<polygon class="st61" points="3415.7,1997.5 3465.1,2082.9 3478.4,2086 3465.1,2070.6 "/>
<polygon class="st62" points="3416.2,1998 3366,2083.4 3356.6,2092.6 3304.3,2064.9 3353.5,1990.9 "/>
<polygon class="st63" points="2647.7,2006.4 2768.3,1988.1 2927,2065.9 2783.5,2084.3 "/>
<polygon class="st64" points="2801.8,2095.1 2647.7,2006.4 2647.7,2339.2 2782,2432.3 2801.8,2432.3 "/>
<polygon points="2927,2420.1 2783.5,2432.3 2783.5,2084.3 2927,2065.9 "/>
<path class="st2" d="M2973.4,2473.2c-16.4,7.5-34.2,11.5-52.2,11.6c-18.7,0.1-37.2-3.9-54.2-11.6c4-91.7,5.9-187.2,5.8-286.4
	c-0.1-90.1-2.3-177.2-5.8-261.2c15.1,4,30.7,5.9,46.4,5.8c15-0.1,30-2.1,44.6-5.8c-1.1,84.9-0.4,172.6,2,263.2
	C2962.4,2287,2967.2,2382,2973.4,2473.2z"/>
<path class="st49" d="M2957.5,1930.6c-3.5,0-11.1,42.3-30.7,247.3c-6.3,74.8-12.6,149.6-18.9,224.4v83.8c12,2.5,24.4,2.5,36.5,0.1
	c10.2-2,20.1-5.6,29.1-10.7c-4.7-62.9-10.8-158.1-13.1-274.8C2957.2,2040.2,2961.1,1930.6,2957.5,1930.6z"/>
<ellipse class="st69" cx="2913.7" cy="1929.9" rx="45.5" ry="11.6"/>
<rect x="-0.4" y="6.3" class="st74" width="4772.1" height="3935"/>
<path class="st75" d="M1972.9,2203.3l118,97.8l299,176.4c27.7,33.4,66.9,74.3,119.7,113.6c54,40.3,105.5,66.5,146.1,83.6
	c35.4,23.3,70.8,46.5,106.2,69.8c0,0,99.8,40.7,117,48.4c17.2,7.8,211.7,179.2,188,163.9l16-40.2l103,82.5l105-71.1l171-55.7
	l208-161.8l233.8-152.6L3925,3991h134.2c20.1-290.6,27.6-608.1,14.4-948.4c-7.2-186-20-364-37-533.5c-5.2-41.5-10.5-82.9-15.7-124.4
	l270-74.2l29-38.1l-49-25.3l69-20.1l79-73.2l-299-120.6l-131.8-2.8l-181.7-15.5l-6.1-43.4l-89.1-39.3l-67.7,9.2v50.3l-36.8,6.2
	l-50.5-20.3l-63.1,0.5l-153.2-6.8l-88,15.5l-98-46.4l-104.8,19.9l-29.2-9.5l-56-4.9l-4.5-22c-6.8-4.1-24-13.2-47.5-12.7
	c-21.2,0.5-36.6,8.6-43.5,12.7c-0.7,23.1-1.5,46.2-2.2,69.4l-117.1-7l-101.2,16.5l-113.1,42.1l-186.9,43l-298.2,8
	c-8.3,1.7-34.8,8.3-55.3,32.9C1968.3,2160.2,1972.1,2196.9,1972.9,2203.3z"/>
<polygon class="st75" points="2346.9,2095.9 2432,2042.5 2377.5,1975.3 2401.9,1908 2449.2,1893 2493.2,1859.3 2511.8,1852.7 
	2566.9,1879.2 2566.9,1928.6 2529.3,1983.1 2540,2054.4 "/>
<polygon class="st75" points="2748.1,1998.4 2737.7,1939.1 2690.7,1916.9 2672.6,1881.9 2730.6,1848.5 2769.9,1848.5 2824.6,1827.9 
	2888.4,1827.9 2926.2,1857.3 2880.7,1912 2867.4,1937.9 2865.2,1997.8 "/>
<polygon class="st75" points="2963.9,1955.2 2988.5,1941.1 3013.4,1869.1 3076.4,1853.3 3118.9,1869.1 3137.1,1916.7 3153.9,1949.9 
	3049.1,1969.2 "/>
<polygon class="st75" points="3805.4,2028.2 3952,2031.7 3937,1971.1 3907,1933.1 3902.7,1902 3951.6,1859.3 4015.4,1869.2 
	4056.2,1904.9 4026.2,1955.9 3998.2,1973.8 3993.1,2023.4 4118.9,2045.9 "/>
<path class="st75" d="M122.8,391.1l118,97.8l299,176.4c27.7,33.4,66.9,74.3,119.7,113.6c54,40.3,105.5,66.5,146.1,83.6
	c35.4,23.3,70.8,46.5,106.2,69.8c0,0,99.8,40.7,117,48.4c17.2,7.8,211.7,179.2,188,163.9l16-40.2l103,82.5l105-71.1l171-55.7
	l208-161.8l233.8-152.6l21.3,1433.1h134.2c20.1-290.6,27.6-608.1,14.4-948.4c-7.2-186-20-364-37-533.5
	c-5.2-41.5-10.5-82.9-15.7-124.4l270-74.2l29-38.1l-49-25.3l69-20.1l79-73.2l-299-120.6l-131.8-2.8l-181.7-15.5l-6.1-43.4
	l-89.1-39.3l-67.7,9.2v50.3l-36.8,6.2l-50.5-20.3l-63.1,0.5l-153.2-6.8l-88,15.5l-98-46.4L1199,148.1l-29.2-9.5l-56-4.9l-4.5-22
	c-6.8-4.1-24-13.2-47.5-12.7c-21.2,0.5-36.6,8.6-43.5,12.7c-0.7,23.1-1.5,46.2-2.2,69.4l-117.1-7l-101.2,16.5l-113.1,42.1l-186.9,43
	l-298.2,8c-8.3,1.7-34.8,8.3-55.3,32.9C118.2,348,122,384.6,122.8,391.1z"/>
<polygon class="st75" points="495.8,278.7 580.9,225.3 526.4,158.1 550.8,90.8 598.1,75.8 642.1,42.1 660.7,35.5 715.8,62 
	715.8,111.4 678.2,165.9 688.9,237.2 "/>
<polygon class="st75" points="904,181.2 893.6,121.9 846.6,99.7 828.5,64.7 886.5,31.3 925.8,31.3 980.5,10.7 1044.3,10.7 
	1082.1,40.1 1036.6,94.8 1023.3,120.7 1021.1,180.6 "/>
<polygon class="st75" points="1119.8,138 1144.4,123.9 1169.3,51.9 1232.3,36.1 1274.8,51.9 1293,99.5 1309.8,132.7 1205,152 "/>
<polygon class="st75" points="1957.3,211 2103.9,214.5 2088.9,153.9 2058.9,115.9 2054.6,84.8 2103.5,42.1 2167.3,52 2208.1,87.7 
	2178.1,138.7 2150.1,156.6 2145,206.2 2270.8,228.7 "/>
<polygon class="st75" points="733.1,825.8 735,1011.1 810.4,1036 805.6,869.7 "/>
<polygon class="st75" points="2593.9,2640.5 2595.8,2825.8 2671.2,2850.7 2666.4,2684.4 "/>
<polygon class="st63" points="3643.3,1946.9 3711,1938 3800.1,1976.1 3719.6,1985.1 "/>
<polygon points="3800.1,2149.8 3719.6,2155.8 3719.6,1985.1 3800.1,1976.1 "/>
<polygon class="st64" points="3729.8,1990.4 3643.3,1946.9 3643.3,2110.2 3718.7,2155.8 3729.8,2155.8 "/>
<path class="st57" d="M3870.2,2134c-0.5,15.7,70,34.7,133.7,34.8c64.6,0.1,135.7-19.1,135.2-34.8c-0.5-16.1-76.1-28.5-134.5-28.5
	S3870.7,2117.9,3870.2,2134z"/>
<line class="st58" x1="4004.3" y1="2134.4" x2="3903.5" y2="2115.1"/>
<path class="st30" d="M3870.2,2162.2c-0.9,3.2,58.1,34.6,133.7,34.8c76.4,0.2,136.1-31.6,135.2-34.8s-55,20.3-136,20
	C3923.9,2181.9,3871,2159.2,3870.2,2162.2z"/>
<path class="st30" d="M4139.5,2134v28.2l-125.2,28.9l-144.5-28.9l0.4-25c13.2,8.1,27.3,14.7,41.9,19.8c37.2,13,68.1,12.6,97.1,11.9
	c27.8-0.7,57.3-1.7,92.6-15.6C4115,2148.1,4127.6,2141.7,4139.5,2134z"/>
</svg>
