<svg id="Ebene_1" data-name="Ebene 1" xmlns="http://www.w3.org/2000/svg" xmlns:xlink="http://www.w3.org/1999/xlink" viewBox="0 0 185.17 284.91"><defs><style>.cls-1{fill:#525252;}.cls-2{fill:#5e5e5e;}.cls-3{fill:url(#Unbenannter_Verlauf_10);}.cls-4{fill:#80bee5;opacity:0.24;}</style><linearGradient id="Unbenannter_Verlauf_10" x1="216.59" y1="467.87" x2="216.59" y2="247.98" gradientUnits="userSpaceOnUse"><stop offset="0" stop-color="#fff"/><stop offset="1"/></linearGradient></defs><title>abwasser</title><ellipse class="cls-1" cx="149.67" cy="48" rx="35.5" ry="48"/><ellipse class="cls-1" cx="142.67" cy="48" rx="35.5" ry="48"/><ellipse class="cls-1" cx="135.67" cy="48" rx="35.5" ry="48"/><ellipse class="cls-1" cx="120.67" cy="48" rx="35.5" ry="48"/><ellipse class="cls-1" cx="113.67" cy="48" rx="35.5" ry="48"/><ellipse class="cls-1" cx="106.67" cy="48" rx="35.5" ry="48"/><ellipse class="cls-1" cx="91.67" cy="48" rx="35.5" ry="48"/><ellipse class="cls-1" cx="84.67" cy="48" rx="35.5" ry="48"/><ellipse class="cls-1" cx="77.67" cy="48" rx="35.5" ry="48"/><ellipse class="cls-1" cx="77.67" cy="48" rx="35.5" ry="48"/><ellipse class="cls-1" cx="70.67" cy="48" rx="35.5" ry="48"/><ellipse class="cls-1" cx="63.67" cy="48" rx="35.5" ry="48"/><ellipse class="cls-2" cx="55.17" cy="48.5" rx="35.5" ry="48"/><path class="cls-3" d="M176.71,325.62c2.54-43.88,14.5-78.11,27.59-77.64l6.34.23,2.61.09,48.35,1.74c-13.15-.47-25.17,34.09-27.63,78.28h-.06l-5,139.55c-6.77-.58-6.27-16.54-13.2-16.79s-7.59,16.06-14.59,15.81-6.41-16.56-13.41-16.82-7.59,16.06-14.59,15.81a4.1,4.1,0,0,1-1.51-.35l5-139.91Z" transform="translate(-167.05 -192.87)"/><path class="cls-4" d="M172.39,329.32c2.71-45.76,15.8-81.43,30.2-80.91l7,.25,2.87.1,53.2,1.91c-14.48-.52-27.63,35.5-30.24,81.58h-.07l-5.24,145.53c-7.45-.62-6.94-17.27-14.56-17.54s-8.31,16.74-16,16.46-7.09-17.29-14.79-17.57-8.32,16.73-16,16.46a4.73,4.73,0,0,1-1.66-.37l5.25-145.91Z" transform="translate(-167.05 -192.87)"/></svg>