<svg id="Ebene_1" data-name="Ebene 1" xmlns="http://www.w3.org/2000/svg" viewBox="0 0 114.92 458.94"><defs><style>.cls-1{fill:#272828;stroke:#272828;opacity:0.68;}.cls-1,.cls-3,.cls-4,.cls-7{stroke-miterlimit:10;}.cls-2{fill:#b38258;}.cls-3,.cls-7{fill:none;}.cls-3{stroke:#9f7242;stroke-width:7px;}.cls-4{fill:#2c2d2d;stroke:#b38258;stroke-width:2px;}.cls-5{fill:#282727;}.cls-6{fill:#80bee5;}.cls-7{stroke:#847e7e;stroke-width:4px;}</style></defs><title>brunnen</title><ellipse class="cls-1" cx="784.12" cy="384.5" rx="57.17" ry="29.39" transform="translate(-761.17 -106.46) rotate(-5.74)"/><path class="cls-2" d="M732.39,260.3v57.16a90.93,90.93,0,0,0,86.14,0V260.3a84.2,84.2,0,0,1-86.14,0Z" transform="translate(-726.66 -186.78)"/><line class="cls-3" x1="91.88" y1="3.5" x2="5.74" y2="3.5"/><ellipse class="cls-4" cx="48.81" cy="70.21" rx="43.07" ry="18.36"/><line class="cls-3" x1="48.51" y1="76.63" x2="48.81" y2="5.15"/><path class="cls-5" d="M732.39,317.75V374.9a90.93,90.93,0,0,0,86.14,0V317.75a84.2,84.2,0,0,1-86.14,0Z" transform="translate(-726.66 -186.78)"/><path class="cls-5" d="M732.39,521.72v57.15a90.94,90.94,0,0,0,86.14,0V521.72a84.2,84.2,0,0,1-86.14,0Z" transform="translate(-726.66 -186.78)"/><path class="cls-5" d="M732.39,577.72v57.15a90.94,90.94,0,0,0,86.14,0V577.72a84.2,84.2,0,0,1-86.14,0Z" transform="translate(-726.66 -186.78)"/><path class="cls-6" d="M737.35,577.72v50.57a80.46,80.46,0,0,0,76.21,0V577.72a74.49,74.49,0,0,1-76.21,0Z" transform="translate(-726.66 -186.78)"/><ellipse class="cls-6" cx="48.82" cy="392.77" rx="38.09" ry="17.17"/><polyline class="cls-7" points="48.51 142.82 39.58 179.44 48.14 198.97"/><path class="cls-5" d="M732.39,465.72v57.15a90.94,90.94,0,0,0,86.14,0V465.72a84.2,84.2,0,0,1-86.14,0Z" transform="translate(-726.66 -186.78)"/><polyline class="cls-7" points="61.33 289.85 74.08 334.94 67.7 346.94 48.82 392.76"/></svg>