<svg id="Ebene_1" data-name="Ebene 1" xmlns="http://www.w3.org/2000/svg" viewBox="0 0 515 337.12"><defs><style>.cls-1{fill:#80bee5;}.cls-1,.cls-3{stroke:#91a6b5;stroke-width:4px;}.cls-1,.cls-2,.cls-3,.cls-4{stroke-miterlimit:10;}.cls-2{fill:none;stroke:#fff;stroke-width:7px;}.cls-3{fill:#91a6b5;}.cls-4,.cls-6{fill:#272828;opacity:0.64;isolation:isolate;}.cls-4{stroke:#272828;}.cls-5{fill:#2c2d2d;}.cls-7{fill:#767777;}</style></defs><title>klaranlage</title><path class="cls-1" d="M821.54,56.16c-.5,15.7,70,34.7,133.7,34.8,64.6.1,135.7-19.1,135.2-34.8-.5-16.1-76.1-28.5-134.5-28.5S822,40.06,821.54,56.16Z" transform="translate(-581.49 139.92)"/><line class="cls-2" x1="374.15" y1="196.48" x2="273.35" y2="177.18"/><path class="cls-3" d="M821.54,84.36c-.9,3.2,58.1,34.6,133.7,34.8,76.4.2,136.1-31.6,135.2-34.8s-55,20.3-136,20C875.24,104.06,822.34,81.36,821.54,84.36Z" transform="translate(-581.49 139.92)"/><path class="cls-3" d="M1090.84,56.16v28.2l-125.2,28.9-144.5-28.9.4-25a218.81,218.81,0,0,0,41.9,19.8c37.2,13,68.1,12.6,97.1,11.9,27.8-.7,57.3-1.7,92.6-15.6A222.28,222.28,0,0,0,1090.84,56.16Z" transform="translate(-581.49 139.92)"/><path class="cls-4" d="M1095.68,81.69c-2.3-2.7-16.1,6.2-30.5,13.3-28.6,14.1-53.8,16.6-79,19-71.8,6.9-126.9-16-131.8-18.2,0,0-13.6-6.1-24.2-10.1h0s12.6,6.6,32,14.8c16.1,6.8,41.9,17.7,73,24.4h0c94.2,20.9,129.4-5,141-16C1083.48,102,1098.28,84.89,1095.68,81.69Z" transform="translate(-581.49 139.92)"/><polygon class="cls-5" points="13.11 8.98 80.79 0 169.89 38.18 89.36 47.16 13.11 8.98"/><polygon points="169.89 211.87 89.36 217.86 89.36 47.16 169.89 38.18 169.89 211.87"/><path class="cls-6" d="M649.25-4.58l256,182.2L846.51,197.2,581.49,6a97.34,97.34,0,0,0,40.66,0A96.69,96.69,0,0,0,649.25-4.58Z" transform="translate(-581.49 139.92)"/><polygon class="cls-7" points="99.64 52.48 13.11 8.98 13.11 172.19 88.5 217.86 99.64 217.86 99.64 52.48"/></svg>