<svg id="Ebene_1" data-name="Ebene 1" xmlns="http://www.w3.org/2000/svg" viewBox="0 0 282.51 297.58"><defs><style>.cls-1{fill:#d8d8d8;}.cls-2{fill:#666;}</style></defs><title>keine_angabe</title><path class="cls-1" d="M138.87,99.13s-104.5,137-104.5,193.08a104.5,104.5,0,1,0,209,0C243.38,236.15,138.87,99.13,138.87,99.13Zm0,288.09a95.15,95.15,0,0,1-95-95c0-46.86,76.91-153,95-177.38,18.1,24.31,95,130.46,95,177.38A95.15,95.15,0,0,1,138.87,387.22Z" transform="translate(-3.49 -99.13)"/><rect class="cls-1" x="-42.88" y="259.41" width="375.26" height="9.98" transform="translate(214.24 -127.19) rotate(42.71)"/><path class="cls-2" d="M103,243.84V223h2.77v10.25L114.19,223h3L109,233l9.61,10.89h-3.74l-9.1-10.55v10.55Z" transform="translate(-3.49 -99.13)"/><path class="cls-2" d="M133.09,243.35a16.9,16.9,0,0,1-4.77.84,7.26,7.26,0,0,1-5.51-2.25,8.1,8.1,0,0,1-2.13-5.82,8.53,8.53,0,0,1,1.88-5.7,6,6,0,0,1,4.81-2.22,5.09,5.09,0,0,1,4.29,2,9,9,0,0,1,1.51,5.6v.86H123.5q.6,5.45,5.33,5.45a12.74,12.74,0,0,0,4.25-.93Zm-9.46-8.8h6.74q0-4.26-3.18-4.26T123.63,234.56Z" transform="translate(-3.49 -99.13)"/><path class="cls-2" d="M137.94,225.79V223h2.77v2.77Zm0,18.06V228.56h2.77v15.28Z" transform="translate(-3.49 -99.13)"/><path class="cls-2" d="M146.27,243.84V228.56H149v2.87q2.2-3.21,5.38-3.21a4.14,4.14,0,0,1,3.17,1.26,4.75,4.75,0,0,1,1.18,3.38v11H156V233.77a4.43,4.43,0,0,0-.5-2.43,1.86,1.86,0,0,0-1.65-.72q-2.55,0-4.8,3.33v9.89Z" transform="translate(-3.49 -99.13)"/><path class="cls-2" d="M175.36,243.35a16.9,16.9,0,0,1-4.77.84,7.26,7.26,0,0,1-5.51-2.25,8.1,8.1,0,0,1-2.13-5.82,8.53,8.53,0,0,1,1.88-5.7,6,6,0,0,1,4.81-2.22,5.09,5.09,0,0,1,4.29,2,9,9,0,0,1,1.51,5.6v.86h-9.64q.6,5.45,5.33,5.45a12.74,12.74,0,0,0,4.25-.93Zm-9.46-8.8h6.74q0-4.26-3.18-4.26T165.9,234.56Z" transform="translate(-3.49 -99.13)"/><path class="cls-2" d="M102.31,278.43,100,272.66H91.22l-2.29,5.77H86.18l8.26-20.83h2.93l8.13,20.83Zm-3.12-8-3.55-9-3.56,9Z" transform="translate(-3.49 -99.13)"/><path class="cls-2" d="M108.6,278.43V263.15h2.77V266q2.2-3.21,5.38-3.21a4.14,4.14,0,0,1,3.17,1.26,4.75,4.75,0,0,1,1.18,3.38v11h-2.77V268.35a4.43,4.43,0,0,0-.5-2.43,1.86,1.86,0,0,0-1.65-.72q-2.55,0-4.8,3.33v9.89Z" transform="translate(-3.49 -99.13)"/><path class="cls-2" d="M126.54,283.51l.32-2.41a11,11,0,0,0,4.74,1.14q4.69,0,4.69-5v-2.41a5.21,5.21,0,0,1-5,3.21,5.32,5.32,0,0,1-4.36-2,8.32,8.32,0,0,1-1.62-5.39,8.54,8.54,0,0,1,1.84-5.69,5.94,5.94,0,0,1,4.77-2.2,5.69,5.69,0,0,1,4.41,2.08v-1.75h2.79v11.12a27.45,27.45,0,0,1-.37,5.31,5.84,5.84,0,0,1-1.4,2.82q-1.82,1.93-5.64,1.93A16.07,16.07,0,0,1,126.54,283.51Zm9.75-10.37v-6.35a5.47,5.47,0,0,0-4-1.9,3.47,3.47,0,0,0-3,1.53,7.18,7.18,0,0,0-1.08,4.21q0,5,3.53,5A6,6,0,0,0,136.29,273.14Z" transform="translate(-3.49 -99.13)"/><path class="cls-2" d="M152.34,276.49a7.27,7.27,0,0,1-4.8,2.29,4.4,4.4,0,0,1-3.15-1.19,4,4,0,0,1-1.25-3,4.3,4.3,0,0,1,2.1-3.85,11.23,11.23,0,0,1,6-1.34h.66v-1.84q0-2.66-2.73-2.66a10.21,10.21,0,0,0-4.74,1.35v-2.29a14,14,0,0,1,5.25-1.14,5.33,5.33,0,0,1,3.78,1.15,4.73,4.73,0,0,1,1.22,3.59v6.92q0,2.38,1.46,2.38a3.68,3.68,0,0,0,.54-.06l.2,1.53a4.78,4.78,0,0,1-2.08.45Q152.88,278.78,152.34,276.49Zm-.41-1.51v-4l-.93,0a7,7,0,0,0-3.69.87,2.59,2.59,0,0,0-1.41,2.27,2.27,2.27,0,0,0,.71,1.69,2.36,2.36,0,0,0,1.72.69A5.77,5.77,0,0,0,151.93,275Z" transform="translate(-3.49 -99.13)"/><path class="cls-2" d="M160.37,278.6V256.21h2.77V266a5.47,5.47,0,0,1,5.11-3.21,5.22,5.22,0,0,1,4.34,2,8.68,8.68,0,0,1,1.58,5.5,9.78,9.78,0,0,1-1.79,6.13,5.95,5.95,0,0,1-9.24.25l-.34,1.9Zm2.77-3.81a6.29,6.29,0,0,0,4.08,1.91q4,0,4-6.09,0-5.38-3.55-5.38-2.32,0-4.53,2.52Z" transform="translate(-3.49 -99.13)"/><path class="cls-2" d="M189.72,277.94a16.9,16.9,0,0,1-4.77.84,7.26,7.26,0,0,1-5.51-2.25,8.1,8.1,0,0,1-2.13-5.82,8.53,8.53,0,0,1,1.88-5.7,6,6,0,0,1,4.81-2.22,5.09,5.09,0,0,1,4.29,2,9,9,0,0,1,1.51,5.6v.86h-9.64q.6,5.45,5.33,5.45a12.74,12.74,0,0,0,4.25-.93Zm-9.46-8.8H187q0-4.26-3.18-4.26T180.26,269.14Z" transform="translate(-3.49 -99.13)"/><path class="cls-2" d="M70.71,313,65,297.73H67.8l4.45,11.89,4.69-11.89h2.59l-6,15.28Z" transform="translate(-3.49 -99.13)"/><path class="cls-2" d="M88.45,313.37a6.7,6.7,0,0,1-5.24-2.17,9.64,9.64,0,0,1,0-11.65,7.68,7.68,0,0,1,10.65,0,9.67,9.67,0,0,1,0,11.69A7,7,0,0,1,88.45,313.37Zm0-2.08q4.4,0,4.4-5.94t-4.35-5.87q-4.34,0-4.33,5.9T88.49,311.29Z" transform="translate(-3.49 -99.13)"/><path class="cls-2" d="M100.17,313V297.73h2.77v2.87a5.17,5.17,0,0,1,4.78-3.21,5.93,5.93,0,0,1,.89.07v2.59a4.06,4.06,0,0,0-1.27-.24q-2.63,0-4.4,3.12V313Z" transform="translate(-3.49 -99.13)"/><path class="cls-2" d="M112,313V290.79h2.77v9.81q2.2-3.21,5.38-3.21a4.13,4.13,0,0,1,3.17,1.26,4.75,4.75,0,0,1,1.18,3.38v11h-2.77V302.94a4.43,4.43,0,0,0-.5-2.43,1.86,1.86,0,0,0-1.65-.72q-2.55,0-4.8,3.33V313Z" transform="translate(-3.49 -99.13)"/><path class="cls-2" d="M137.73,311.07a7.28,7.28,0,0,1-4.8,2.29,4.4,4.4,0,0,1-3.15-1.19,4,4,0,0,1-1.25-3,4.31,4.31,0,0,1,2.1-3.85,11.24,11.24,0,0,1,6-1.34h.66v-1.84q0-2.66-2.73-2.66a10.21,10.21,0,0,0-4.74,1.35v-2.29a14,14,0,0,1,5.25-1.14,5.33,5.33,0,0,1,3.78,1.15,4.73,4.73,0,0,1,1.22,3.59v6.92q0,2.38,1.46,2.38a3.62,3.62,0,0,0,.54-.06l.2,1.53a4.77,4.77,0,0,1-2.08.45Q138.26,313.37,137.73,311.07Zm-.41-1.51v-4l-.93,0a7,7,0,0,0-3.69.87,2.59,2.59,0,0,0-1.41,2.27,2.27,2.27,0,0,0,.7,1.69,2.36,2.36,0,0,0,1.72.69A5.77,5.77,0,0,0,137.32,309.57Z" transform="translate(-3.49 -99.13)"/><path class="cls-2" d="M145.77,313V297.73h2.77v2.87q2.19-3.21,5.38-3.21a4.13,4.13,0,0,1,3.17,1.26,4.74,4.74,0,0,1,1.18,3.38v11h-2.77V302.94a4.42,4.42,0,0,0-.5-2.43,1.86,1.86,0,0,0-1.65-.72q-2.55,0-4.8,3.33V313Z" transform="translate(-3.49 -99.13)"/><path class="cls-2" d="M173.46,313v-2.87a5.44,5.44,0,0,1-5.09,3.22,5.22,5.22,0,0,1-4.34-2,8.67,8.67,0,0,1-1.58-5.5,9.76,9.76,0,0,1,1.79-6.14,5.94,5.94,0,0,1,9.22-.24v-8.68h2.79V313Zm0-11.64a6.36,6.36,0,0,0-4.08-1.9q-4,0-4,6.09,0,5.36,3.55,5.36,2.31,0,4.52-2.52Z" transform="translate(-3.49 -99.13)"/><path class="cls-2" d="M193,312.52a16.91,16.91,0,0,1-4.77.84,7.26,7.26,0,0,1-5.51-2.24,8.1,8.1,0,0,1-2.13-5.82,8.53,8.53,0,0,1,1.88-5.7,6,6,0,0,1,4.81-2.22,5.09,5.09,0,0,1,4.29,2,9,9,0,0,1,1.51,5.6v.86h-9.64q.6,5.45,5.33,5.45a12.74,12.74,0,0,0,4.25-.93Zm-9.46-8.8h6.74q0-4.26-3.18-4.26T183.54,303.73Z" transform="translate(-3.49 -99.13)"/><path class="cls-2" d="M197.85,313V297.73h2.77v2.87q2.2-3.21,5.38-3.21a4.14,4.14,0,0,1,3.17,1.26,4.75,4.75,0,0,1,1.18,3.38v11h-2.77V302.94a4.43,4.43,0,0,0-.5-2.43,1.86,1.86,0,0,0-1.65-.72q-2.55,0-4.8,3.33V313Z" transform="translate(-3.49 -99.13)"/></svg>