<?xml version="1.0" encoding="utf-8"?>
<!-- Generator: Adobe Illustrator 21.0.0, SVG Export Plug-In . SVG Version: 6.00 Build 0)  -->
<svg version="1.1" id="Ebene_1" xmlns="http://www.w3.org/2000/svg" xmlns:xlink="http://www.w3.org/1999/xlink" x="0px" y="0px"
	 viewBox="0 0 2446 3663" style="enable-background:new 0 0 2446 3663;" xml:space="preserve">
<style type="text/css">
	.st0{fill:#87D4A2;}
	.st1{fill:#52956E;}
	.st2{fill:#9D7766;}
	.st3{fill:#AE8775;}
	.st4{fill:#A47A69;}
	.st5{fill:#A67C6B;}
	.st6{fill:#AE8673;}
	.st7{fill:#6FBF88;}
	.st8{fill:#A07A69;}
	.st9{fill:#A67D6C;}
	.st10{fill:#A37968;}
	.st11{fill:#B78D78;}
	.st12{fill:#A9806F;}
	.st13{fill:#AB8270;}
	.st14{fill:#9F7665;}
	.st15{fill:#B58C77;}
	.st16{fill:#BC927D;}
	.st17{fill:#BD947E;}
	.st18{fill:#B18773;}
	.st19{fill:#C09781;}
	.st20{fill:#C29982;}
	.st21{fill:#A27867;}
	.st22{fill:#AC8472;}
	.st23{fill:#B98F7A;}
	.st24{fill:#C49C84;}
	.st25{fill:#C19881;}
	.st26{fill:#BB917C;}
	.st27{opacity:0.3;fill:#2B2A29;enable-background:new    ;}
	.st28{fill:#B2B6B7;}
	.st29{fill:#FFFFFF;}
	.st30{fill:#ED2939;stroke:#515151;stroke-width:2;stroke-miterlimit:10;}
	.st31{fill:#FFFFFF;stroke:#515151;stroke-width:2;stroke-miterlimit:10;}
	.st32{fill:#002395;stroke:#515151;stroke-width:2;stroke-miterlimit:10;}
	.st33{fill:#7C7B7B;}
	.st34{fill:#171796;}
	.st35{fill:#FF0000;}
	.st36{fill:#FFFFFF;stroke:#000000;stroke-miterlimit:10;}
	.st37{display:none;}
	.st38{display:inline;fill:#0093DD;}
	.st39{display:inline;fill:#FFFFFF;stroke:#000000;stroke-width:118.1626;}
	.st40{display:inline;}
	.st41{fill:#F7DB17;}
	.st42{clip-path:url(#SVGID_15_);}
	.st43{clip-path:url(#SVGID_16_);}
	.st44{clip-path:url(#SVGID_17_);}
	.st45{clip-path:url(#SVGID_18_);}
	.st46{clip-path:url(#SVGID_19_);}
	.st47{clip-path:url(#SVGID_20_);}
	.st48{clip-path:url(#SVGID_21_);}
	.st49{clip-path:url(#SVGID_22_);}
	.st50{clip-path:url(#SVGID_23_);}
	.st51{clip-path:url(#SVGID_24_);}
	.st52{clip-path:url(#SVGID_25_);}
	.st53{clip-path:url(#SVGID_26_);}
	.st54{clip-path:url(#SVGID_27_);}
	.st55{clip-path:url(#SVGID_28_);fill:#0093DD;}
	.st56{clip-path:url(#SVGID_28_);}
</style>
<title>EmptyIslandShadow</title>
<path class="st0" d="M299,767L0,884l199,67L95,999l292,77l191,132l199-62l91,31h124l60,31l240,35l270,7l386-100l112,19l243-122
	l143-115l-63-104l-312-8l-67-39l-297-32l-130-61l-312-11l-98,45l-88-15l-92,6l-88,13L299,767z"/>
<polygon class="st1" points="0,884 32,911 177.1,961.1 199,951 "/>
<polygon class="st1" points="99,999 114,1017 383,1089 407,1089 387,1076 "/>
<polygon class="st2" points="45.9,915.8 79,955 148,974.5 177,961 "/>
<polygon class="st3" points="128,1036 398,1108 461,1142 586,1227 578,1208 473.6,1135.3 407,1089 111,1017 "/>
<polygon class="st4" points="414,1114.7 443,1233 553,1273 506,1225 483.5,1155.3 "/>
<polygon class="st5" points="484,1157 586,1227 644,1217 724,1366 506,1227 "/>
<polygon class="st6" points="506,1225 724,1364 749,1424 443,1233 553,1273 "/>
<polygon class="st3" points="586,1227 777,1194 777,1165 578,1208 "/>
<polygon class="st1" points="578,1208 732.6,1174.6 777,1165 "/>
<polygon class="st6" points="749,1424 841,1504 952,1581 1128,1635 1233,1704 1333,1624 1351,1663 1494,1542 1590,1486 1657,1457 
	1807,1366 1939,1275 1983,1196 1921,1186 1568,1267 1389,1261 1279,1273 1059,1227 987,1215 867,1213 791,1186 777,1194 644,1217 
	"/>
<polygon class="st7" points="777,1165 861,1194 987,1194 1059,1227 1261,1250 1336,1250 1056,1208 992,1177 868,1177 777,1146 
	578,1208 777,1146 "/>
<polygon class="st4" points="749,1171.1 578,1208 777,1146 777,1165 861,1194 987,1194 1059,1227 867,1216 777,1194 "/>
<polygon class="st8" points="1319.7,1247.6 1352,1244.6 1562,1250 1934,1165 2045,1186 2029,1198 1938.5,1187.8 1568,1267 
	1389,1261 "/>
<polygon class="st7" points="2060,1169 2045,1186 1934,1165 1562,1250 1948,1146 "/>
<polygon class="st4" points="1059,1227 1279,1273 1389,1261 1320,1250 "/>
<polygon class="st4" points="1313.5,1267 1429.1,1262.3 1352,1245 1320,1250 "/>
<polyline class="st0" points="1352,1245 1320,1250 1292,1243 1336,1216 "/>
<polygon class="st5" points="742.6,1391.8 813.1,1479.3 940.3,1535.1 818,1390.1 739.7,1365.9 "/>
<polygon class="st5" points="1939,1187 1887,1245 1939,1227 1983,1196 "/>
<polygon class="st5" points="1983,1196 2001,1187 1935,1187 "/>
<polygon class="st5" points="907,1256 1009,1267 1070,1400 1178,1559 1062,1505 936,1417 943,1340 "/>
<polygon class="st7" points="777,1165 749,1169 578,1208 777,1146 "/>
<polygon class="st9" points="644,1216 733.1,1201.3 770,1301 724,1364 "/>
<polygon class="st10" points="724,1364 749,1424 770,1301 "/>
<polygon class="st11" points="733,1201 777,1194 784,1283 770,1301 "/>
<polygon class="st10" points="644,1216 597.6,1225 724,1364 "/>
<polygon class="st12" points="1128,1635 957,1581 749,1424 770,1301 833,1435 "/>
<polygon class="st13" points="875,1334 833,1435 770,1301 784,1283 "/>
<polygon class="st9" points="784,1283 875,1334 893,1308 885.8,1216 791,1186 777,1194 "/>
<polygon class="st14" points="893.7,1345.6 963.8,1373 1000,1335.7 902.1,1216 886,1216 "/>
<polygon class="st15" points="835,1435 886,1408 920,1435 886,1470.9 "/>
<polygon class="st16" points="835,1435 875,1334 886,1408 "/>
<polygon class="st17" points="1128,1359 1216.8,1260 1279,1273 1371.3,1261.5 1336,1301 1144,1461 "/>
<polygon class="st18" points="1077.7,1233 1128,1359 1217,1260 "/>
<polygon class="st16" points="1380,1273 1455,1359 1172,1535 "/>
<polygon class="st19" points="1455,1359 1272,1545 1172,1535 "/>
<polygon class="st20" points="1272,1545 1320,1535 1470,1424 1455,1359 "/>
<polygon class="st21" points="1063,1504 1172,1535 1147,1461 "/>
<polygon class="st22" points="1063,1580 1063,1504 1172,1535 1172,1616 1233,1704 1128,1635 "/>
<polygon class="st23" points="1496.6,1267 1455,1359 1470,1424 1476,1384 1602,1351 1642.1,1250 1568,1267 "/>
<polygon class="st5" points="1470,1424 1549,1408 1634,1390 1663,1362 1663,1337 1634,1337 1602,1351 1558.1,1362.5 1476,1384 "/>
<polygon class="st24" points="1811,1366 1663,1363 1663,1337 1634,1337 1612.5,1346.4 1642,1250 1682.4,1245 1921,1186 1983,1196 
	1935,1275 "/>
<polygon class="st17" points="1634,1388.9 1657,1457 1811,1365.9 1663,1363 "/>
<polygon class="st6" points="1172,1604 1213.2,1675.4 1256,1665 1278,1640 1345,1584 1495,1488 1584,1435 1470,1424 1286,1566 "/>
<polygon class="st25" points="1217,1675 1233,1704 1336,1624 1497,1522 1497,1488 1278,1635 "/>
<polygon class="st26" points="1336,1624 1352,1663 1540,1504 1657,1457 1497,1522 "/>
<ellipse class="st27" cx="1224" cy="3382.1" rx="644.5" ry="50"/>
<ellipse class="st28" cx="574" cy="194.5" rx="38" ry="7.5"/>
<ellipse class="st27" cx="907" cy="967.3" rx="268" ry="20.8"/>
<rect x="808.4" y="205" class="st29" width="65.1" height="439"/>
<rect x="613" y="393.1" class="st29" width="602.5" height="62.7"/>
<rect x="613" y="205" class="st30" width="602.5" height="439"/>
<rect x="613" y="205" class="st31" width="401.7" height="439"/>
<rect x="613" y="205" class="st32" width="200.8" height="439"/>
<path class="st33" d="M536,974.5c5.3,3.5,17.8,10.8,35.3,11.5c20.7,0.8,35.5-8.1,40.7-11.5c0-259.5,0-519,0-778.5
	c-9.3,2.5-22,4.9-37,5c-16,0.1-29.3-2.4-39-5C536,455.5,536,715,536,974.5z"/>
<rect x="613" y="201.9" class="st34" width="602.5" height="442.1"/>
<rect x="613" y="201.9" class="st29" width="602.5" height="294.7"/>
<rect x="613" y="201.9" class="st35" width="602.5" height="147.4"/>
<g transform="scale(0.00296202)">
	<g>
		<path class="st35" d="M914.3,532.5L914.3,532.5c43.5,0,79.1-34.9,79.1-77.5v-92.1H835.2V455C835.2,497.6,870.8,532.5,914.3,532.5
			L914.3,532.5z"/>
		<path class="st29" d="M914.3,531.2L914.3,531.2c42.7,0,77.6-34.2,77.6-76v-90.8H836.7v90.8C836.7,497,871.6,531.2,914.3,531.2z"/>
		<g>
			<path class="st35" d="M869.5,367.2h-29.9v32.1h29.9V367.2z"/>
			<path class="st35" d="M869.5,431.5h29.9v-32.1h-29.9V431.5z"/>
			<path class="st35" d="M839.6,455c0,2.9,0.2,5.8,0.5,8.6h29.3v-32.1h-29.9V455z"/>
			<path class="st35" d="M929.2,431.5h-29.9v32.1h29.9V431.5z"/>
			<path class="st35" d="M929.2,495.8H959v-32.1h-29.9V495.8z"/>
			<path class="st35" d="M959,513.4c6.6-4.9,12.4-10.8,17-17.6h-17V513.4z"/>
			<path class="st35" d="M869.5,495.8h29.9v-32.1h-29.9V495.8z"/>
			<path class="st35" d="M852.4,495.8c4.7,6.7,10.4,12.7,17.1,17.6v-17.6H852.4z"/>
			<path class="st35" d="M919.4,528c3.3-0.2,6.6-0.7,9.7-1.3v-30.8h-29.9v30.8c3.2,0.6,6.4,1.1,9.7,1.3
				C912.5,528.2,916,528.2,919.4,528L919.4,528z"/>
			<path class="st35" d="M988.3,463.7c0.3-2.8,0.5-5.7,0.5-8.7v-23.5H959v32.1L988.3,463.7L988.3,463.7z"/>
			<path class="st35" d="M929.2,431.5H959v-32.1h-29.9V431.5z"/>
			<path class="st35" d="M929.2,367.2h-29.9v32.1h29.9V367.2z"/>
			<path class="st35" d="M988.8,399.4v-32.1H959v32.1H988.8z"/>
		</g>
	</g>
	<g>
		<path class="st36" d="M990.5,361.9l18.5-41.1l-14.1-22.3l-23.4,8.5l-16.4-18.4l-21.6,12.1l-19.3-15.5L895,300.7l-21.6-12.1
			L857,307l-23.4-8.5l-14.1,22.3L838,362c23.3-10.3,49.1-16.1,76.3-16.1C941.4,345.9,967.2,351.6,990.5,361.9L990.5,361.9z"/>
		<g class="st37">
			<path class="st38" d="M857.5,308.8L857.5,308.8l-23.2-8.4l-13,20.5l5,11.1l12.6,28c9.4-4.1,19.2-7.4,29.3-9.9L857.5,308.8
				L857.5,308.8z"/>
			<path class="st39" d="M856.2,329.1c0.8,1.5,1.3,3.3,1.3,5.2c0,6.1-5.1,11.1-11.3,11.1c-5.5,0-10.1-3.9-11.1-9
				c2,3.4,5.7,5.7,9.9,5.7c6.3,0,11.4-5,11.4-11.2C856.3,330.3,856.3,329.7,856.2,329.1L856.2,329.1z"/>
			<polygon class="st40" points="845.8,313.7 845.8,313.9 845,317.9 848.1,320.6 848.2,320.7 848,320.7 844.1,322.1 843.3,326.1 
				843.3,326.2 843.1,326.1 840,323.5 836.1,324.8 835.9,324.8 836,324.6 836.7,320.7 833.6,318 833.5,317.9 833.7,317.8 
				837.6,316.5 838.4,312.5 838.4,312.3 838.6,312.4 841.7,315.1 845.6,313.8 			"/>
			<g class="st40">
				<path class="st41" d="M841.1,319.4l2.9,2.5l3.7-1.2L841.1,319.4z"/>
				<path class="st41" d="M841.1,319.3l6.6,1.3l-2.9-2.5L841.1,319.3z"/>
				<path class="st41" d="M834,317.9l6.6,1.3l-2.9-2.5L834,317.9z"/>
				<path class="st41" d="M840.6,319.3L834,318l2.9,2.5L840.6,319.3z"/>
				<path class="st41" d="M841,319.1l4.4-5l-3.7,1.2L841,319.1z"/>
				<path class="st41" d="M836.2,324.4l4.4-5l-3.7,1.2L836.2,324.4z"/>
				<path class="st41" d="M840.7,319.5l-4.4,5l3.7-1.2L840.7,319.5z"/>
				<path class="st41" d="M845.5,314.2l-4.4,5l3.7-1.2L845.5,314.2z"/>
				<path class="st41" d="M840.7,319.1l-2.2-6.2l-0.7,3.7L840.7,319.1z"/>
				<path class="st41" d="M843,325.7l-2.2-6.2l-0.7,3.7L843,325.7z"/>
				<path class="st41" d="M841,319.5l2.2,6.2l0.7-3.7L841,319.5z"/>
				<path class="st41" d="M838.7,312.8l2.2,6.2l0.7-3.7L838.7,312.8z"/>
			</g>
		</g>
		<g>
			<defs>
				<path id="SVGID_1_" d="M923,302.6c0,0-0.1,0-0.1,0.1c-0.4,0.5-0.8,0.9-1.1,1.4c-0.4,0.1-0.5,0.3-0.4,0.7
					c-0.5-0.1-0.6,0.4-0.6,0.8c-0.5-0.8-1-1-1.6-0.7c0-0.5-0.3-0.7-0.9-0.8c-0.4,0-0.6-0.2-0.9-0.3c-0.1-0.1-0.2-0.1-0.3-0.2
					c-0.2-0.2-0.5,0-0.4,0.1c0.5,0.9,1,1.7,1.5,2.6c0,0.2,0,0.3,0.2,0.4c0.1,0.3,0.2,0.5,0.3,0.8c0,0.1,0,0.1-0.1,0.2
					c-0.4-0.2-0.9-0.3-1.3-0.3c-0.3,0-0.6-0.1-0.7-0.3c-0.1-0.1-0.2-0.1-0.2,0.2c0,1.1,0.2,2,1.1,3c-0.5,0-0.9,0-1.4,0
					c-0.2,0-0.2,0.1-0.2,0.2c0.2,0.6,0.6,1.2,1.6,1.6c-0.4,0.2-0.7,0.5-0.8,1c0,0.4-0.2,0.7-0.5,0.9c-0.1,0.1-0.2,0.1-0.1,0.2
					c0.5,0.4,1.1,0.4,1.8,0.3c-0.3,0.5-0.5,1.1-0.5,1.7c0.4,0.1,0.8,0.1,1.2-0.1c-0.1,0.1-0.1,0.3-0.1,0.6c0,0.2-0.1,0.4-0.2,0.7
					c-0.1,0.1-0.1,0.2,0,0.2c0.7,0.2,1.3,0.2,1.8,0c0,0.5,0,1,0.1,1.4c0,0.1,0.1,0.2,0.2,0.1c0.3-0.4,0.7-0.8,1.1-1
					c0.1,0.2,0.1,0.3,0.3,0.4c0.2,0.1,0.3,0.3,0.3,0.7c0,0.1,0,0.1,0.1,0.2c0.3,0,1.1-0.7,1.2-1.1c0.4,0.3,0.6,0.5,0.8,0.9
					c0.1,0.2,0.2,0.1,0.3,0c0.1-0.5,0.2-0.9,0.2-1.4c0.5,0.2,1.2,0.3,1.8,0.2c0.1,0,0.1-0.1,0-0.2c-0.1-0.2-0.2-0.5-0.2-0.7
					c0-0.3,0-0.4-0.1-0.6c0.4,0.1,0.8,0.2,1.2,0.1c0.1-0.6-0.1-1.1-0.4-1.7c0.7,0.2,1.3,0.2,1.8-0.2c0.1-0.1,0.1-0.1,0-0.2
					c-0.3-0.2-0.4-0.5-0.4-0.9c0-0.5-0.3-0.8-0.7-1c1-0.3,1.4-0.9,1.7-1.4c0-0.1,0-0.2-0.1-0.2c-0.5,0-1-0.1-1.4-0.1
					c0.9-0.9,1.3-1.8,1.3-2.9c0-0.2-0.1-0.3-0.2-0.2c-0.2,0.2-0.4,0.3-0.7,0.3c-0.4,0-0.9,0-1.3,0.2c0-0.1,0-0.1-0.1-0.2
					c0.1-0.3,0.2-0.5,0.3-0.8c0.2-0.1,0.2-0.2,0.2-0.4c0.6-0.8,1.1-1.7,1.7-2.5c0.1-0.2-0.1-0.3-0.3-0.2c-0.1,0.1-0.2,0.1-0.3,0.2
					c-0.2,0.1-0.5,0.2-0.9,0.3c-0.5,0.1-0.8,0.3-0.9,0.7c-0.6-0.4-1.1-0.2-1.7,0.5c0-0.5,0-0.9-0.6-0.9c0.2-0.3,0.1-0.6-0.3-0.7
					c-0.4-0.5-0.9-1-1.2-1.5C923.1,302.6,923,302.6,923,302.6L923,302.6z"/>
			</defs>
			<defs>
				<path id="SVGID_2_" d="M928,305.5c-0.1-0.1-0.3,0-0.3,0.2c-0.1,0.2-0.1,0.3,0,0.4c0.1,0,0.2,0,0.2-0.1l0-0.1c0,0,0,0,0,0
					C928,305.8,928.1,305.6,928,305.5L928,305.5z"/>
			</defs>
			<defs>
				<path id="SVGID_3_" d="M917.9,305.2c0.1,0,0.2,0,0.3,0.2c0.1,0.2,0.1,0.3,0,0.4s-0.2-0.1-0.3-0.2
					C917.8,305.4,917.8,305.2,917.9,305.2L917.9,305.2z"/>
			</defs>
			<defs>
				<path id="SVGID_4_" d="M926.9,307.3c-0.1,0-0.1,0-0.1,0.1c0,0.1,0,0.1,0.1,0.1s0.1,0,0.1-0.1C927.1,307.3,927,307.3,926.9,307.3
					z"/>
			</defs>
			<defs>
				<path id="SVGID_5_" d="M918.9,307c-0.1,0-0.1,0-0.1,0.1c0,0.1,0,0.1,0.1,0.1s0.1,0,0.1-0.1C919,307,918.9,307,918.9,307z"/>
			</defs>
			<defs>
				<path id="SVGID_6_" d="M927.5,306.7c-1.5-0.2-3-0.4-4.5-0.4c-1.5-0.1-3,0-4.6,0.1c-0.1,0,0,0.2,0,0.2c1.5-0.1,3-0.1,4.5-0.1
					c1.5,0.1,3,0.2,4.5,0.4C927.5,306.9,927.5,306.7,927.5,306.7L927.5,306.7z"/>
			</defs>
			<defs>
				<path id="SVGID_7_" d="M918.4,306.2c1.5-0.1,3.1-0.1,4.6-0.1c1.5,0.1,3,0.2,4.5,0.4l0.2-0.4c-0.1,0-0.1,0-0.2,0
					c-0.1-0.1-0.2-0.3-0.1-0.5c0.1-0.2,0.3-0.3,0.5-0.3c0.1,0,0.1,0.1,0.1,0.2l1-1.4c-0.4,0.2-0.7,0.4-1.2,0.5
					c-0.6,0.1-0.8,0.2-0.8,0.6c0.1,0.3-0.1,0.3-0.4,0.1c-0.6-0.4-1.1,0.1-1.3,0.6c-0.2,0.4-0.3,0.3-0.3,0c0-0.1,0-0.3,0-0.4
					c0-0.4-0.2-0.6-0.4-0.5c-0.3,0.1-0.4,0-0.3-0.1c0.1-0.1,0.2-0.2,0.1-0.4c0-0.1-0.1-0.2-0.3-0.2c-0.3-0.5-0.9-1-1.2-1.5
					c-0.4,0.5-0.8,0.9-1.2,1.4c-0.2,0-0.3,0-0.3,0.2c0,0.2,0.1,0.3,0.1,0.4c0.1,0.2,0,0.3-0.3,0.1c-0.3-0.1-0.4,0-0.4,0.4
					c0,0.1,0,0.3,0,0.4c0,0.4-0.2,0.4-0.3,0c-0.2-0.6-0.7-1.1-1.3-0.7c-0.3,0.1-0.4,0.2-0.4-0.1c0.1-0.3-0.2-0.5-0.8-0.6
					c-0.5-0.1-0.7-0.3-1.1-0.5l0.8,1.4c0,0,0.1-0.1,0.1-0.1c0.2-0.1,0.4,0.1,0.5,0.3c0.1,0.2,0.1,0.5-0.1,0.5c0,0,0,0-0.1,0
					L918.4,306.2L918.4,306.2z"/>
			</defs>
			<defs>
				<path id="SVGID_8_" d="M927.1,308.3C927.1,308.3,927.1,308.3,927.1,308.3c-0.1,0.1-0.2,0.1-0.3,0.3c-0.1,0.1-0.3,0.2-0.4,0.4
					c0,0-0.1,0-0.1,0c0-0.1,0-0.1,0-0.1c0.2-0.1,0.3-0.2,0.4-0.3c0.1-0.1,0.1-0.1,0.2-0.2c-0.2,0-0.4-0.1-0.6-0.1
					c-0.2,0-0.3,0.1-0.5,0.2c-0.1,0.1-0.2,0.1-0.3,0.2c0,0,0,0.1-0.1,0c-0.1,0,0-0.1,0-0.1c0.1-0.1,0.2-0.2,0.3-0.3
					c0.1,0,0.1-0.1,0.2-0.1c-0.2,0-0.4-0.1-0.6-0.1c0,0-0.1,0.1-0.1,0.1c0,0-0.1,0.1-0.1,0.1c0,0,0,0-0.1,0c-0.1,0,0-0.1,0-0.1
					c0-0.1,0.1-0.1,0.1-0.1c0,0,0,0,0,0c-0.2,0-0.3,0-0.5,0c0,0,0,0,0,0c0,0-0.1,0.1-0.1,0.1c0,0-0.1,0.1-0.1,0.1c0,0,0,0.1-0.1,0
					c-0.1,0,0-0.1,0-0.1c0-0.1,0.1-0.1,0.1-0.2c0,0,0,0,0.1-0.1c-0.2,0-0.5,0-0.7,0c0,0,0,0,0,0c-0.1,0-0.1,0.1-0.1,0.1
					c0,0-0.1,0.1-0.1,0.1c0,0,0,0.1-0.1,0c-0.1,0,0-0.1,0-0.1c0-0.1,0.1-0.1,0.1-0.1c0,0,0,0,0,0c-0.2,0-0.5,0-0.7,0
					c-0.2,0-0.5,0-0.7,0c0,0,0,0,0,0c0,0,0.1,0.1,0.1,0.2c0,0,0,0.1,0,0.1c-0.1,0-0.1,0-0.1,0c0,0-0.1-0.1-0.1-0.1
					c0,0-0.1-0.1-0.1-0.1c0,0,0,0,0,0c-0.2,0-0.5,0-0.7,0c0,0,0,0,0.1,0.1c0,0.1,0.1,0.1,0.1,0.2c0,0,0,0.1,0,0.1
					c-0.1,0-0.1,0-0.1,0c0,0,0-0.1-0.1-0.1c0,0-0.1-0.1-0.1-0.1c0,0,0,0,0,0c-0.2,0-0.3,0-0.5,0c0,0,0,0,0,0c0,0,0.1,0.1,0.1,0.2
					c0,0,0,0.1,0,0.1c-0.1,0-0.1,0-0.1,0c0-0.1-0.1-0.1-0.1-0.1c0,0-0.1-0.1-0.1-0.1c0,0,0,0,0,0c-0.2,0-0.4,0-0.7,0
					c0.1,0,0.2,0.1,0.2,0.1c0.1,0.1,0.2,0.2,0.3,0.3c0,0,0,0.1,0,0.1c-0.1,0-0.1,0-0.1,0c-0.1-0.1-0.1-0.2-0.3-0.3
					c-0.1-0.1-0.3-0.2-0.5-0.2l0,0c-0.2,0-0.4,0-0.5,0c0,0.1,0.1,0.1,0.2,0.2c0.1,0.1,0.2,0.2,0.4,0.4c0,0,0,0,0,0.1
					c0,0-0.1,0-0.1,0c-0.2-0.1-0.3-0.3-0.4-0.4c-0.1-0.1-0.2-0.2-0.3-0.3c-0.4-0.2-0.7-0.3-1.1-0.3c-0.3,0-0.6,0-0.9-0.2
					c0.1,0.2,0.1,0.3,0.2,0.5c0.1,0.1,0.2,0.2,0.4,0.3c0,0,0,0,0,0.1c0,0.3,0.1,0.6,0.3,0.8c0.1,0.1,0.2,0.2,0.4,0.3
					c-0.1-0.2-0.3-0.3-0.3-0.5c-0.1-0.3-0.2-0.6-0.1-0.8c0,0,0-0.1,0.1-0.1c0.1,0,0.1,0,0.1,0.1c0,0.2,0,0.5,0.1,0.8
					c0.1,0.2,0.3,0.5,0.6,0.7c0,0,0,0.1-0.1,0.1c-0.3-0.1-0.6-0.3-0.8-0.5c-0.2-0.2-0.3-0.5-0.3-0.8c-0.2-0.1-0.3-0.2-0.4-0.3
					c-0.1-0.1-0.2-0.3-0.2-0.4c0,0.8,0.3,1.6,0.8,2.3c0.1,0.2,0.3,0.4,0.5,0.4c0.2,0.1,0.2,0.2,0,0.2c-0.1,0-0.1,0-0.2,0
					c0.2,0.1,0.3,0.1,0.5,0.2c0.2,0.2,0.4,0.3,0.4,0.6c0,0,0,0.1-0.1,0.1c-0.1,0-0.1,0-0.1-0.1c0-0.2-0.2-0.3-0.4-0.5
					c-0.2-0.1-0.5-0.2-0.8-0.3c-0.3,0-0.6,0-0.9,0c0.1,0.1,0.2,0.1,0.3,0.2c0.2,0.1,0.4,0.2,0.7,0.3c0.2,0,0.3,0.1,0.5,0.2
					c0.1,0.1,0.3,0.2,0.3,0.3c0,0,0,0.1,0,0.1s-0.1,0-0.1,0c-0.1-0.1-0.2-0.2-0.3-0.3c-0.1-0.1-0.3-0.1-0.4-0.2
					c-0.3-0.1-0.5-0.2-0.7-0.3c-0.1-0.1-0.3-0.2-0.4-0.3c0.3,0.8,0.9,1.2,1.6,1.4c0,0,0.1,0,0.1,0c0,0,0,0,0,0
					c0.2,0,0.3,0.1,0.5,0.1c0.2,0,0.3,0.1,0.5,0.1c0,0,0.1,0,0.1,0.1c0,0.1,0,0.1-0.1,0.1c-0.2,0-0.3-0.1-0.5-0.1
					c-0.1,0-0.2,0-0.3-0.1c-0.1,0-0.1,0-0.2,0c-0.5,0-0.9,0.4-0.9,0.9c0,0,0,0,0,0c0.2-0.2,0.4-0.3,0.6-0.4c0.2-0.1,0.5-0.2,0.7-0.1
					c0,0,0.1,0,0,0.1c0,0.1,0,0.1-0.1,0c-0.2-0.1-0.4,0-0.6,0.1c-0.2,0.1-0.4,0.3-0.7,0.5c-0.1,0.3-0.2,0.6-0.4,0.7
					c0.1,0.1,0.2,0.1,0.3,0.1c0.2-0.1,0.4-0.1,0.5-0.2c0.2-0.1,0.4-0.1,0.6-0.1c0,0,0.1,0,0.1,0.1c0,0.1,0,0.1-0.1,0.1
					c-0.2,0-0.4,0-0.5,0.1c-0.2,0-0.3,0.1-0.5,0.2c0.4,0.1,0.9,0,1.3-0.1c0.1,0,0.2-0.1,0.3-0.1c0.1-0.1,0.2-0.1,0.4-0.1
					c0.1-0.1,0.3-0.1,0.4-0.1c0,0,0.1,0,0.1,0.1c0,0.1,0,0.1-0.1,0.1c-0.2,0-0.3,0-0.5,0.1c0,0-0.1,0.1-0.3,0.2
					c-0.1,0-0.1,0.1-0.2,0.1c-0.2,0.2-0.3,0.3-0.4,0.6c-0.1,0.1-0.1,0.3-0.2,0.4c0.1-0.2,0.3-0.4,0.4-0.6c0.2-0.2,0.4-0.4,0.7-0.5
					c0,0,0.1,0,0.1,0c0,0.1,0,0.1,0,0.1c-0.3,0.1-0.5,0.3-0.7,0.5c-0.2,0.2-0.3,0.4-0.5,0.7c-0.1,0.1,0,0-0.1,0.2
					c0.2-0.2,0.4-0.4,0.7-0.6c0.3-0.2,0.6-0.3,0.8-0.2c0,0,0.1,0,0,0.1c0,0.1,0,0.1-0.1,0c-0.2,0-0.5,0-0.7,0.2
					c-0.2,0.2-0.5,0.4-0.8,0.7c0.4,0.1,0.7,0,1.1-0.1c0.2-0.1,0.4-0.3,0.5-0.3c0,0,0.1-0.1,0.1-0.1c0.1-0.1,0.1-0.1,0.2-0.2
					c0,0,0,0,0.1,0c0,0,0,0.1,0,0.1c-0.1,0.1-0.1,0.1-0.2,0.2c-0.1,0.1-0.1,0.1-0.2,0.2c0,0,0,0,0,0c-0.1,0.1-0.3,0.3-0.4,0.5
					c-0.1,0.4-0.1,0.7-0.3,1.1c0.1-0.1,0.3-0.1,0.4-0.3c0.1-0.1,0.2-0.3,0.3-0.4c0.1-0.2,0.2-0.4,0.4-0.5c0.2-0.1,0.3-0.3,0.5-0.3
					c0,0,0.1,0,0.1,0c0,0.1,0,0.1,0,0.1c-0.2,0.1-0.3,0.2-0.5,0.3c-0.1,0.1-0.3,0.3-0.3,0.5c-0.1,0.2-0.2,0.4-0.3,0.5
					c-0.1,0.1-0.2,0.2-0.3,0.2c0.1,0,0.2,0,0.2,0c0.2,0,0.4-0.1,0.6-0.2c0.1-0.1,0.2-0.2,0.3-0.4c0,0,0-0.1,0.1,0s0,0.1,0,0.1
					c-0.1,0.2-0.2,0.3-0.4,0.4c-0.1,0.1-0.2,0.1-0.4,0.2c0.3,0,0.6-0.1,0.9-0.2c0.1,0,0.2-0.3,0.3-0.4c0.1-0.1,0.1-0.2,0.2-0.3
					c0.1-0.1,0.2-0.2,0.3-0.2c0,0,0.1,0,0.1,0c0,0.1,0,0.1,0,0.1c-0.1,0-0.2,0.1-0.3,0.2c-0.1,0.1-0.1,0.2-0.2,0.3
					c0,0.1-0.1,0.4-0.1,0.6c0,0.4,0,0.8,0.1,1.2c0.1-0.1,0.2-0.3,0.3-0.4c0,0,0,0,0,0c0-0.2,0.1-0.4,0.1-0.6c0-0.2,0-0.4,0-0.6
					c0,0,0-0.1,0.1-0.1c0.1,0,0.1,0,0.1,0.1c0,0.2,0,0.4,0,0.7c0,0.2,0,0.4-0.1,0.5c0.1-0.1,0.1-0.1,0.2-0.2
					c0.1-0.2,0.1-0.3,0.2-0.5c0-0.2,0-0.3,0-0.5c0,0,0-0.1,0.1-0.1s0.1,0,0.1,0.1c0,0.2,0,0.3,0,0.5c0,0.1-0.1,0.3-0.1,0.4
					c0.1-0.1,0.2-0.2,0.4-0.2c0-0.1,0-0.3,0-0.4c0-0.1,0-0.3,0.1-0.4c0,0,0-0.1,0.1-0.1c0.1,0,0.1,0.1,0.1,0.1c0,0.1,0,0.2,0,0.3
					c0,0.2,0,0.3,0,0.5c0,0.2,0.1,0.4,0.2,0.5c0.2,0.1,0.3,0.3,0.4,0.6c0-0.3,0.1-0.5,0-0.8c0-0.3-0.1-0.5-0.2-0.7c0,0,0-0.1,0-0.1
					c0.1,0,0.1,0,0.1,0c0.1,0.2,0.2,0.5,0.2,0.8c0,0.3,0,0.6-0.1,1c0.2-0.2,0.8-0.5,0.8-1.1c0-0.1,0-0.1-0.1-0.1c0,0,0-0.1,0-0.1
					c0.1,0,0.1,0,0.1,0c0,0.1,0.1,0.1,0.1,0.2c0,0,0,0.1,0,0.2c0,0,0.1-0.1,0.1-0.1c0,0,0.1,0.1,0.2,0.1c0-0.1-0.1-0.2-0.1-0.4
					c0-0.2,0-0.3,0-0.5c0,0,0-0.1,0.1,0c0.1,0,0.1,0,0,0.1c0,0.1-0.1,0.3,0,0.5c0,0.2,0.1,0.3,0.1,0.5c0,0,0,0,0,0
					c0,0,0.1,0.1,0.1,0.1c0-0.2,0-0.3,0-0.5c0-0.2,0-0.5,0-0.7c0,0,0-0.1,0.1-0.1c0.1,0,0.1,0,0.1,0.1c0,0.2,0,0.4,0,0.6
					c0,0.2,0,0.4,0.1,0.7c0,0,0,0,0,0c0.1,0.1,0.2,0.2,0.3,0.4c0.1-0.4,0.2-0.8,0.2-1.2c0-0.1-0.1-0.5-0.1-0.6
					c-0.1-0.1-0.1-0.2-0.2-0.3c-0.1-0.1-0.2-0.2-0.3-0.2c0,0-0.1,0,0-0.1c0-0.1,0.1,0,0.1,0c0.1,0.1,0.2,0.1,0.3,0.3
					c0.1,0.1,0.1,0.2,0.2,0.3c0.1,0,0.1,0.4,0.3,0.4c0.3,0.1,0.6,0.2,0.9,0.2c-0.1,0-0.3-0.1-0.4-0.2c-0.1-0.1-0.3-0.3-0.3-0.5
					c0,0,0-0.1,0-0.1c0.1,0,0.1,0,0.1,0c0.1,0.2,0.2,0.3,0.3,0.4c0.2,0.1,0.6,0.3,0.8,0.3c-0.1-0.1-0.2-0.2-0.3-0.3
					c-0.1-0.1-0.2-0.3-0.3-0.5c-0.1-0.2-0.2-0.4-0.3-0.5c-0.1-0.1-0.3-0.3-0.5-0.3c0,0-0.1,0,0-0.1c0-0.1,0.1,0,0.1,0
					c0.2,0.1,0.4,0.2,0.5,0.4c0.1,0.2,0.2,0.3,0.3,0.5c0.1,0.2,0.1,0.3,0.2,0.5c0.1,0.1,0.2,0.2,0.3,0.3c-0.2-0.4-0.1-0.7-0.2-1.1
					c-0.1-0.3-0.4-0.6-0.4-0.6c0.1-0.1,0.3,0.2,0.5,0.3c0.3,0.1,0.7,0.2,1.1,0.2c-0.2-0.3-0.5-0.5-0.7-0.7c-0.2-0.2-0.5-0.3-0.7-0.3
					c0,0-0.1,0-0.1-0.1c0-0.1,0-0.1,0.1-0.1c0.3,0,0.5,0.1,0.8,0.3c0.2,0.2,0.4,0.4,0.6,0.6c0-0.1,0,0-0.1-0.2
					c-0.1-0.2-0.2-0.5-0.4-0.7c-0.2-0.2-0.4-0.4-0.6-0.5c0,0-0.1,0,0-0.1c0-0.1,0.1,0,0.1,0c0.3,0.1,0.5,0.3,0.7,0.5
					c0.2,0.2,0.3,0.4,0.4,0.6c0-0.2-0.1-0.3-0.1-0.5c-0.1-0.2-0.2-0.4-0.4-0.6c-0.1-0.1-0.4-0.3-0.4-0.4c-0.1,0-0.1,0-0.1-0.1
					c-0.1-0.1-0.2-0.1-0.3-0.1c0,0-0.1,0-0.1-0.1c0-0.1,0-0.1,0.1-0.1c0.1,0,0.2,0.1,0.4,0.1c0.1,0,0.1,0.1,0.2,0.1
					c0.1,0,0.3,0.1,0.4,0.2c0.4,0.2,0.9,0.3,1.3,0.2c-0.1-0.1-0.3-0.1-0.4-0.2c-0.2-0.1-0.3-0.1-0.5-0.1c0,0-0.1,0-0.1-0.1
					s0-0.1,0.1-0.1c0.2,0,0.4,0.1,0.6,0.1c0.2,0.1,0.3,0.1,0.5,0.2c0.1,0.1,0.2,0,0.3-0.1c-0.2-0.2-0.3-0.5-0.4-0.8l0,0
					c-0.2-0.2-0.4-0.4-0.6-0.5c-0.2-0.1-0.4-0.2-0.6-0.1c0,0-0.1,0-0.1,0c0-0.1,0-0.1,0-0.1c0.3-0.1,0.5,0,0.7,0.2
					c0.2,0.1,0.4,0.3,0.5,0.4c0,0,0,0,0,0c0-0.5-0.4-1-0.8-1c-0.2,0-0.4,0-0.4-0.1c0-0.1,0.2-0.1,0.5-0.2c0.8-0.2,1.3-0.5,1.7-1.3
					c-0.1,0.1-0.2,0.2-0.4,0.2c-0.2,0.1-0.4,0.2-0.7,0.2c-0.2,0-0.3,0.1-0.4,0.1c-0.1,0.1-0.2,0.2-0.3,0.3c0,0,0,0-0.1,0
					c0,0,0-0.1,0-0.1c0.1-0.1,0.2-0.2,0.4-0.3c0.1-0.1,0.3-0.1,0.5-0.2c0.3-0.1,0.5-0.1,0.7-0.2c0.1,0,0.2-0.1,0.3-0.2
					c-0.3,0-0.6,0-0.9,0c-0.3,0.1-0.6,0.2-0.8,0.3c-0.2,0.1-0.4,0.3-0.4,0.4c0,0,0,0.1-0.1,0.1c-0.1,0-0.1,0-0.1-0.1
					c0-0.2,0.2-0.4,0.5-0.5c0.1-0.1,0.3-0.1,0.5-0.2c-0.1,0-0.1,0-0.2,0c-0.2,0-0.2-0.1,0-0.2c0.2-0.1,0.4-0.3,0.5-0.4
					c0.6-0.6,0.9-1.4,1-2.2c-0.1,0.1-0.1,0.3-0.2,0.4c-0.1,0.1-0.3,0.2-0.5,0.3c-0.1,0.3-0.2,0.6-0.4,0.8c-0.2,0.2-0.4,0.3-0.8,0.4
					c-0.1,0-0.1-0.1-0.1-0.1c0.3-0.2,0.5-0.4,0.6-0.7c0.1-0.3,0.2-0.5,0.2-0.8c0,0,0-0.1,0.1-0.1c0.1,0,0.1,0,0.1,0.1
					c0,0.3,0,0.5-0.2,0.8c-0.1,0.2-0.2,0.3-0.4,0.5c0.1-0.1,0.3-0.2,0.4-0.3c0.2-0.2,0.3-0.4,0.4-0.7c0,0,0,0,0,0
					c0.2,0,0.3-0.1,0.4-0.3c0.1-0.1,0.2-0.3,0.3-0.4c-0.3,0.1-0.6,0.1-0.9,0.1C927.8,308.1,927.5,308.2,927.1,308.3L927.1,308.3z"/>
			</defs>
			<defs>
				<path id="SVGID_9_" d="M927,308c-1.4-0.2-2.7-0.3-4.1-0.4c-1.4-0.1-2.8,0-4.1,0.1c0,0,0,0.1,0,0.1c0,0.1,0.1,0.1,0.2,0.1
					c1.3-0.1,2.6-0.1,3.9,0c1.4,0.1,2.7,0.1,4.1,0.4C927,308.1,927.1,308,927,308L927,308z"/>
			</defs>
			<defs>
				<path id="SVGID_10_" d="M918.8,307.5c1.4-0.1,2.7-0.1,4.1-0.1c1.4,0.1,2.7,0.2,4.1,0.4l0.1-0.2c0,0-0.1,0-0.1,0
					c-0.1,0-0.2-0.1-0.2-0.3c0-0.1,0.1-0.2,0.3-0.2c0.1,0,0.2,0.1,0.2,0.2l0.1-0.3c-1.4-0.2-2.9-0.3-4.3-0.4c-1.5-0.1-2.9,0-4.4,0
					l0.1,0.3c0-0.1,0.1-0.1,0.2-0.1c0.1,0,0.2,0.1,0.2,0.3c0,0.1-0.1,0.2-0.3,0.2c0,0-0.1,0-0.1,0L918.8,307.5L918.8,307.5
					L918.8,307.5z M925,306.9c-0.1,0-0.3,0.1-0.3,0.2c0,0.1,0.1,0.2,0.2,0.3c0.1,0,0.3-0.1,0.3-0.2S925.2,306.9,925,306.9z
					 M925,307.1c-0.1,0-0.1,0-0.1,0.1c0,0.1,0,0.1,0.1,0.1c0.1,0,0.1,0,0.1-0.1S925.1,307.1,925,307.1z M922.8,306.8
					c-0.1,0-0.3,0.1-0.3,0.2c0,0.1,0.1,0.2,0.2,0.3c0.1,0,0.3-0.1,0.3-0.2C923.1,306.9,923,306.8,922.8,306.8z M922.8,306.9
					c-0.1,0-0.1,0-0.1,0.1c0,0.1,0,0.1,0.1,0.1s0.1,0,0.1-0.1C923,307,922.9,306.9,922.8,306.9z M920.7,306.8
					c-0.1,0-0.3,0.1-0.3,0.2c0,0.1,0.1,0.2,0.2,0.3c0.1,0,0.3-0.1,0.3-0.2C921,306.9,920.8,306.8,920.7,306.8z M920.7,306.9
					c-0.1,0-0.1,0-0.1,0.1c0,0.1,0,0.1,0.1,0.1c0.1,0,0.1,0,0.1-0.1C920.8,306.9,920.8,306.9,920.7,306.9z"/>
			</defs>
			<defs>
				<path id="SVGID_11_" d="M923,305.3c0-0.1-0.1-0.3-0.2-0.4c-0.1-0.1-0.2-0.2-0.4-0.2c-0.1,0-0.1-0.1,0-0.1c0.1,0,0.2-0.1,0.3-0.2
					c0.1-0.1,0.2-0.3,0.2-0.5c0-0.1,0.1-0.1,0.1,0c0,0.2,0.1,0.3,0.2,0.4c0.1,0.1,0.2,0.2,0.4,0.3c0.1,0,0,0.1,0,0.1
					c-0.1,0-0.2,0.1-0.3,0.2c-0.1,0.1-0.2,0.3-0.2,0.4C923.1,305.4,923,305.4,923,305.3L923,305.3z M923.1,305.1
					c0-0.1,0.1-0.2,0.2-0.3c0.1-0.1,0.1-0.1,0.2-0.2c-0.1-0.1-0.2-0.1-0.3-0.2c-0.1-0.1-0.1-0.1-0.1-0.2c0,0.1-0.1,0.2-0.2,0.3
					c-0.1,0.1-0.1,0.2-0.2,0.2c0.1,0,0.2,0.1,0.3,0.2C923,304.9,923,305,923.1,305.1z"/>
			</defs>
			<defs>
				<path id="SVGID_12_" d="M924.3,315.2l-1,0.4c0,0-0.1,0-0.1,0c0-0.1,0-0.1,0-0.1l1-0.4C924.3,315.1,924.3,315.1,924.3,315.2
					C924.4,315.2,924.3,315.2,924.3,315.2z M924.4,314.6l-1.2,0.6c0,0-0.1,0-0.1,0c0-0.1,0-0.1,0-0.1l1.2-0.6
					C924.4,314.4,924.4,314.4,924.4,314.6C924.5,314.6,924.5,314.6,924.4,314.6z M920.8,314.3l1.2,0.7c0,0,0.1,0,0,0.1
					c0,0.1-0.1,0-0.1,0l-1.2-0.7c0,0-0.1,0,0-0.1C920.7,314.3,920.7,314.3,920.8,314.3z M920.8,315l1,0.4c0,0,0.1,0,0,0.1
					c0,0.1-0.1,0.1-0.1,0l-1-0.4C920.7,315.1,920.7,315.1,920.8,315C920.8,314.9,920.8,314.9,920.8,315L920.8,315z M921.3,315.8
					c0.3,0.1,0.5,0.1,0.7,0.1c0.2,0,0.3-0.1,0.4-0.3l0-1c-0.2,0-0.4,0-0.6-0.1c-0.2-0.1-0.3-0.2-0.4-0.4c-0.1-0.2,0-0.5,0-0.6
					c0,0,0-0.1,0.1,0c0.1,0,0.1,0.1,0.1,0.1c0,0.2-0.1,0.4,0,0.6c0,0.1,0.1,0.2,0.3,0.3c0.2,0.1,0.4,0.1,0.6,0.1
					c0.2,0,0.4,0,0.6-0.1c0.2,0,0.3-0.1,0.4-0.2c0.1-0.1,0.1-0.2,0.1-0.3c0-0.1,0-0.1-0.1-0.2c-0.1,0-0.2-0.1-0.3-0.1
					c-0.1,0-0.2,0-0.3,0c-0.1,0-0.1,0-0.2,0c0,0-0.1,0-0.1-0.1s0-0.1,0.1-0.1c0,0,0.1,0,0.1,0c0.1,0,0.2,0,0.3,0
					c0.1,0,0.2,0,0.3,0.1c0.1,0.1,0.1,0.1,0.2,0.3c0,0.2,0,0.3-0.2,0.5c-0.1,0.1-0.3,0.2-0.5,0.3c-0.2,0-0.4,0.1-0.6,0.1l0,0.9
					c0,0,0,0,0,0c0.1,0.2,0.2,0.3,0.4,0.3c0.2,0,0.4,0,0.7,0c0,0,0.1,0,0.1,0.1c0,0.1,0,0.1-0.1,0.1c-0.3,0.1-0.6,0.1-0.8,0
					c-0.2,0-0.3-0.1-0.4-0.3c-0.1,0.1-0.3,0.2-0.4,0.2c-0.2,0-0.5,0-0.8-0.1C921.2,316,921.1,316,921.3,315.8
					C921.2,315.8,921.2,315.8,921.3,315.8L921.3,315.8z M922,316.3l0.8,0c0,0,0.1,0,0.1,0.1c0,0.1,0,0.1-0.1,0.1l-0.8,0
					C921.9,316.4,921.9,316.4,922,316.3C921.9,316.3,921.9,316.3,922,316.3z"/>
			</defs>
			<defs>
				<path id="SVGID_13_" d="M923.4,310.3c0.3-0.2,0.6-0.4,0.9-0.6c0.3-0.1,0.5-0.2,0.7-0.2c0,0,0.1,0,0.1,0.1c0,0.1,0,0.1-0.1,0.1
					c-0.2,0-0.4,0-0.7,0.2c-0.3,0.1-0.5,0.3-0.8,0.5c0,0-0.1,0-0.1,0C923.3,310.3,923.4,310.3,923.4,310.3L923.4,310.3z
					 M922.2,310.3c-0.3-0.3-0.6-0.5-0.9-0.7c-0.3-0.2-0.5-0.2-0.7-0.2c0,0-0.1,0-0.1-0.1c0-0.1,0-0.1,0.1-0.1c0.2,0,0.5,0.1,0.8,0.2
					c0.3,0.2,0.6,0.4,0.9,0.7c0,0,0.1,0.1,0,0.1C922.2,310.4,922.2,310.3,922.2,310.3L922.2,310.3z M921.7,312.3
					c0.1-0.2,0.2-0.3,0.3-0.4c0.1-0.1,0.2-0.2,0.4-0.3c0,0,0.1,0,0.1,0c0,0.1,0,0.1,0,0.1c-0.1,0.1-0.2,0.2-0.3,0.3
					c-0.1,0.1-0.2,0.2-0.3,0.4C921.8,312.4,921.8,312.4,921.7,312.3C921.6,312.3,921.6,312.3,921.7,312.3z M922.5,308.9
					c0.1,0.1,0.2,0.3,0.2,0.4c0,0.2,0.1,0.3,0.1,0.6c0,0.2,0,0.3,0,0.5c0,0.2-0.1,0.3-0.2,0.5c-0.1,0.1-0.2,0.2-0.3,0.2
					c-0.1,0-0.2,0-0.3,0c0.1,0.2,0.1,0.4,0,0.6c0,0-0.1,0.1-0.1,0c-0.1,0-0.2-0.1-0.3-0.1s-0.2-0.1-0.3-0.1l0,0
					c-0.2-0.1-0.3-0.2-0.5-0.2c-0.1-0.1-0.2-0.2-0.3-0.3l0,0c-0.1-0.1-0.1-0.2-0.2-0.3c0-0.1,0-0.2,0-0.3c-0.1-0.1-0.3-0.2-0.4-0.2
					c-0.1-0.1-0.2-0.2-0.3-0.3c0,0-0.1-0.1,0-0.1c0.1,0,0.1,0,0.1,0c0.1,0.1,0.2,0.2,0.3,0.2c0.1,0.1,0.3,0.2,0.4,0.3
					c0.2,0,0.5,0.1,0.7,0.2c0.2,0.1,0.4,0.2,0.6,0.4c0,0,0,0,0.1,0c0,0,0,0,0,0c0.1,0,0.2,0.1,0.3,0c0.1,0,0.2-0.1,0.3-0.2
					c0.1-0.1,0.2-0.3,0.2-0.4c0-0.2,0-0.3,0-0.5l0,0c0-0.2,0-0.4-0.1-0.5c0-0.2-0.1-0.3-0.2-0.4
					C922.4,308.9,922.4,308.9,922.5,308.9C922.5,308.8,922.5,308.9,922.5,308.9L922.5,308.9z M921.7,310.9c-0.2-0.2-0.4-0.3-0.6-0.4
					c-0.2-0.1-0.4-0.2-0.6-0.2c0,0.1,0,0.2,0,0.3c0,0.1,0.1,0.2,0.1,0.3l0,0c0.1,0.1,0.1,0.1,0.3,0.2c0.1,0.1,0.3,0.1,0.4,0.2l0,0
					c0.1,0,0.2,0.1,0.3,0.1c0.1,0,0.1,0.1,0.2,0.1C921.8,311.3,921.8,311.2,921.7,310.9C921.7,311,921.7,311,921.7,310.9
					L921.7,310.9z M923.3,309c-0.1,0.1-0.2,0.2-0.2,0.4c-0.1,0.1-0.1,0.3-0.1,0.5l0,0c0,0.2,0,0.3,0,0.5c0,0.1,0.1,0.3,0.2,0.4
					c0.1,0.1,0.1,0.1,0.2,0.2c0.1,0,0.2,0,0.3,0c0,0,0,0,0.1,0c0,0,0,0,0.1,0c0.2-0.1,0.4-0.3,0.7-0.4c0.3-0.1,0.5-0.2,0.8-0.2
					c0.2-0.1,0.3-0.1,0.4-0.2s0.2-0.2,0.3-0.2c0,0,0.1-0.1,0.1,0s0,0.1,0,0.1c-0.1,0.1-0.2,0.2-0.3,0.2c-0.1,0.1-0.3,0.1-0.4,0.2
					c0,0.1,0,0.2-0.1,0.3c0,0.1-0.1,0.2-0.2,0.3l0,0c-0.1,0.1-0.2,0.2-0.3,0.2c-0.1,0.1-0.3,0.1-0.5,0.2l0,0c-0.1,0-0.2,0.1-0.3,0.1
					c-0.1,0-0.2,0.1-0.3,0.1c0,0-0.1,0-0.1,0c-0.1-0.2,0-0.4,0-0.6c-0.1,0-0.2,0-0.3,0c-0.1,0-0.2-0.1-0.3-0.2
					c-0.1-0.2-0.2-0.3-0.2-0.5c0-0.2,0-0.3,0-0.5c0-0.2,0-0.4,0.1-0.5c0.1-0.2,0.1-0.3,0.2-0.4C923.2,308.9,923.3,308.9,923.3,309
					C923.4,309,923.4,309,923.3,309L923.3,309z M925.2,310.5c-0.2,0-0.4,0.1-0.6,0.2c-0.2,0.1-0.4,0.2-0.6,0.4c0,0,0,0,0,0.1
					c-0.1,0.2-0.1,0.4-0.1,0.5c0.1,0,0.1-0.1,0.2-0.1c0.1,0,0.2-0.1,0.3-0.1l0,0c0.2-0.1,0.3-0.1,0.5-0.2c0.1-0.1,0.2-0.1,0.3-0.2
					l0,0c0.1-0.1,0.1-0.2,0.2-0.3C925.2,310.7,925.2,310.6,925.2,310.5L925.2,310.5z"/>
			</defs>
			<defs>
				<path id="SVGID_14_" d="M924.5,310.6c-0.2,0-0.4,0.2-0.4,0.4c0,0.2,0.2,0.4,0.4,0.4c0.2,0,0.4-0.2,0.5-0.4
					C924.9,310.8,924.8,310.6,924.5,310.6z M924.5,310.7c-0.2,0-0.3,0.1-0.3,0.3c0,0.2,0.1,0.3,0.3,0.3s0.3-0.1,0.3-0.3
					C924.8,310.8,924.7,310.7,924.5,310.7z M924.5,310.8c-0.1,0-0.2,0.1-0.2,0.2c0,0.1,0.1,0.2,0.2,0.2s0.2-0.1,0.2-0.2
					C924.7,310.9,924.6,310.8,924.5,310.8z M921.1,310.5c0.2,0,0.4,0.2,0.4,0.4s-0.2,0.4-0.5,0.4c-0.2,0-0.4-0.2-0.4-0.4
					C920.7,310.6,920.9,310.4,921.1,310.5z M921.1,310.6c0.2,0,0.3,0.1,0.3,0.3c0,0.2-0.1,0.3-0.3,0.3c-0.2,0-0.3-0.1-0.3-0.3
					C920.8,310.7,920.9,310.6,921.1,310.6z M921.1,310.7c0.1,0,0.2,0.1,0.2,0.2c0,0.1-0.1,0.2-0.2,0.2c-0.1,0-0.2-0.1-0.2-0.2
					C920.9,310.8,921,310.7,921.1,310.7z"/>
			</defs>
			<clipPath id="SVGID_15_">
				<use xlink:href="#SVGID_1_"  style="overflow:visible;"/>
			</clipPath>
			<clipPath id="SVGID_16_" class="st42">
				<use xlink:href="#SVGID_2_"  style="overflow:visible;"/>
			</clipPath>
			<clipPath id="SVGID_17_" class="st43">
				<use xlink:href="#SVGID_3_"  style="overflow:visible;"/>
			</clipPath>
			<clipPath id="SVGID_18_" class="st44">
				<use xlink:href="#SVGID_4_"  style="overflow:visible;"/>
			</clipPath>
			<clipPath id="SVGID_19_" class="st45">
				<use xlink:href="#SVGID_5_"  style="overflow:visible;"/>
			</clipPath>
			<clipPath id="SVGID_20_" class="st46">
				<use xlink:href="#SVGID_6_"  style="overflow:visible;"/>
			</clipPath>
			<clipPath id="SVGID_21_" class="st47">
				<use xlink:href="#SVGID_7_"  style="overflow:visible;"/>
			</clipPath>
			<clipPath id="SVGID_22_" class="st48">
				<use xlink:href="#SVGID_8_"  style="overflow:visible;"/>
			</clipPath>
			<clipPath id="SVGID_23_" class="st49">
				<use xlink:href="#SVGID_9_"  style="overflow:visible;"/>
			</clipPath>
			<clipPath id="SVGID_24_" class="st50">
				<use xlink:href="#SVGID_10_"  style="overflow:visible;"/>
			</clipPath>
			<clipPath id="SVGID_25_" class="st51">
				<use xlink:href="#SVGID_11_"  style="overflow:visible;"/>
			</clipPath>
			<clipPath id="SVGID_26_" class="st52">
				<use xlink:href="#SVGID_12_"  style="overflow:visible;"/>
			</clipPath>
			<clipPath id="SVGID_27_" class="st53">
				<use xlink:href="#SVGID_13_"  style="overflow:visible;"/>
			</clipPath>
			<clipPath id="SVGID_28_" class="st54">
				<use xlink:href="#SVGID_14_"  style="overflow:visible;"/>
			</clipPath>
			<path class="st55" d="M933.4,302.6L933.4,302.6l-19.2-15.3l-19.1,15.3l3.6,42.4c5.1-0.4,10.3-0.6,15.5-0.6
				c5.2,0,10.4,0.2,15.6,0.6L933.4,302.6L933.4,302.6z"/>
			<g id="lion" class="st56">
				<path d="M914.2,321.7c0,0-0.1,0-0.1,0.1c-0.4,0.5-0.7,0.9-1.1,1.4c-0.4,0.1-0.5,0.4-0.3,0.7c-0.5-0.1-0.6,0.4-0.6,0.9
					c-0.5-0.7-1-0.9-1.6-0.6c0-0.5-0.4-0.7-0.9-0.8c-0.4,0-0.6-0.1-0.9-0.3c-0.1-0.1-0.2-0.1-0.3-0.2c-0.3-0.2-0.5,0-0.3,0.1
					c0.5,0.9,1.1,1.7,1.6,2.6c0,0.2,0,0.3,0.2,0.4c0.1,0.3,0.2,0.5,0.3,0.8c0,0.1,0,0.1-0.1,0.2c-0.4-0.2-0.9-0.2-1.3-0.3
					c-0.3,0-0.6-0.1-0.7-0.3c-0.1-0.1-0.2-0.1-0.2,0.2c0,1.1,0.3,2,1.2,2.9c-0.5,0-0.9,0-1.4,0c-0.2,0-0.2,0.1-0.1,0.2
					c0.3,0.6,0.7,1.1,1.7,1.5c-0.4,0.2-0.7,0.6-0.7,1c0,0.4-0.2,0.8-0.4,0.9c-0.1,0.1-0.2,0.1,0,0.2c0.5,0.4,1.1,0.4,1.8,0.2
					c-0.3,0.5-0.5,1.1-0.4,1.7c0.4,0.1,0.8,0,1.2-0.1c-0.1,0.1-0.1,0.3-0.1,0.6c0,0.2-0.1,0.5-0.2,0.7c-0.1,0.1-0.1,0.2,0,0.2
					c0.7,0.2,1.3,0.1,1.8-0.1c0,0.5,0,1,0.2,1.4c0,0.1,0.1,0.2,0.3,0.1c0.3-0.4,0.6-0.8,1.1-1c0.1,0.2,0.2,0.3,0.3,0.4
					c0.2,0.1,0.3,0.3,0.3,0.7c0,0.1,0,0.1,0.1,0.2c0.3,0,1-0.7,1.2-1.2c0.4,0.2,0.6,0.5,0.9,0.9c0.1,0.1,0.2,0.1,0.3,0
					c0.1-0.5,0.1-0.9,0.1-1.4c0.5,0.2,1.2,0.3,1.8,0.1c0.1,0,0.1-0.1,0-0.2c-0.1-0.2-0.2-0.5-0.2-0.7c0-0.3,0-0.4-0.1-0.6
					c0.4,0.1,0.8,0.2,1.2,0.1c0.1-0.6-0.1-1.1-0.4-1.7c0.7,0.2,1.3,0.1,1.8-0.2c0.1-0.1,0.1-0.1,0-0.2c-0.3-0.1-0.4-0.5-0.4-0.9
					c-0.1-0.5-0.3-0.8-0.7-1c1-0.4,1.4-0.9,1.7-1.5c0-0.1,0-0.2-0.1-0.2c-0.5,0-1,0-1.4-0.1c0.9-0.9,1.2-1.9,1.2-2.9
					c0-0.2-0.1-0.3-0.2-0.2c-0.1,0.2-0.4,0.3-0.7,0.3c-0.4,0-0.9,0-1.3,0.3c0-0.1,0-0.1-0.1-0.2c0.1-0.3,0.2-0.5,0.3-0.8
					c0.2-0.1,0.2-0.2,0.2-0.4c0.5-0.9,1-1.7,1.6-2.6c0.1-0.2-0.1-0.3-0.3-0.1c-0.1,0.1-0.2,0.1-0.3,0.2c-0.2,0.2-0.5,0.3-0.9,0.3
					c-0.5,0.1-0.8,0.3-0.9,0.8c-0.6-0.3-1.1-0.1-1.6,0.6c0-0.5-0.1-0.9-0.6-0.9c0.2-0.3,0-0.6-0.4-0.7c-0.4-0.5-0.9-0.9-1.3-1.4
					C914.3,321.7,914.3,321.7,914.2,321.7L914.2,321.7z"/>
				<g>
					<path class="st41" d="M919.3,324.5c-0.1-0.1-0.2,0-0.3,0.2c-0.1,0.2-0.1,0.3,0,0.4c0.1,0,0.2,0,0.2-0.1l0-0.1c0,0,0,0,0,0
						C919.4,324.7,919.4,324.5,919.3,324.5L919.3,324.5z"/>
					<path class="st41" d="M909.3,324.5c0.1-0.1,0.2,0,0.3,0.2c0.1,0.2,0.1,0.3,0,0.4c-0.1,0.1-0.2,0-0.3-0.2
						S909.2,324.5,909.3,324.5L909.3,324.5z"/>
					<path class="st41" d="M918.4,326.2c-0.1,0-0.1,0.1-0.1,0.1c0,0.1,0.1,0.1,0.1,0.1c0.1,0,0.1-0.1,0.1-0.1
						C918.5,326.3,918.4,326.2,918.4,326.2z"/>
					<path class="st41" d="M910.3,326.2c-0.1,0-0.1,0.1-0.1,0.1c0,0.1,0.1,0.1,0.1,0.1c0.1,0,0.1-0.1,0.1-0.1
						C910.4,326.3,910.3,326.2,910.3,326.2z"/>
					<path class="st41" d="M918.9,325.6c-1.5-0.2-3-0.3-4.5-0.3c-1.5,0-3,0.1-4.6,0.2c-0.1,0,0,0.2,0,0.2c1.5-0.1,3-0.2,4.5-0.2
						c1.5,0,3,0.1,4.5,0.3C918.9,325.8,918.9,325.6,918.9,325.6L918.9,325.6z"/>
					<path class="st41" d="M909.8,325.5c1.5-0.1,3.1-0.2,4.6-0.2c1.5,0,3,0.1,4.5,0.3l0.2-0.4c-0.1,0-0.1,0-0.2,0
						c-0.2-0.1-0.2-0.3-0.1-0.5c0.1-0.2,0.3-0.3,0.5-0.3c0.1,0,0.1,0.1,0.1,0.2l0.9-1.5c-0.4,0.3-0.7,0.4-1.2,0.5
						c-0.6,0.1-0.8,0.3-0.7,0.6c0.1,0.3-0.1,0.3-0.4,0.1c-0.6-0.3-1.1,0.1-1.3,0.7c-0.1,0.4-0.3,0.4-0.3,0c0-0.1,0-0.3,0-0.4
						c0-0.4-0.2-0.6-0.4-0.4c-0.3,0.2-0.4,0-0.3-0.1c0.1-0.1,0.2-0.3,0.1-0.4c0-0.1-0.1-0.2-0.3-0.2c-0.4-0.5-0.9-1-1.3-1.4
						c-0.4,0.5-0.8,1-1.1,1.4c-0.2,0-0.3,0.1-0.3,0.2c0,0.2,0.1,0.3,0.2,0.4c0.1,0.2,0,0.3-0.3,0.1c-0.3-0.1-0.4,0-0.4,0.4
						c0,0.1,0,0.3,0,0.4c0,0.4-0.2,0.4-0.3,0c-0.2-0.6-0.7-1-1.3-0.7c-0.3,0.2-0.4,0.2-0.4-0.1c0-0.3-0.2-0.5-0.8-0.6
						c-0.5-0.1-0.8-0.2-1.2-0.5l0.8,1.3c0,0,0.1-0.1,0.1-0.1c0.2-0.1,0.4,0,0.5,0.3c0.1,0.2,0.1,0.5-0.1,0.5c0,0,0,0-0.1,0
						L909.8,325.5L909.8,325.5z"/>
					<path class="st41" d="M918.6,327.3C918.6,327.3,918.6,327.3,918.6,327.3c-0.1,0.1-0.2,0.2-0.3,0.3c-0.1,0.1-0.3,0.2-0.4,0.4
						c0,0-0.1,0-0.1,0c0,0,0-0.1,0-0.1c0.2-0.1,0.3-0.2,0.4-0.4c0.1-0.1,0.1-0.1,0.2-0.2c-0.2,0-0.4,0-0.6-0.1
						c-0.2,0-0.3,0.1-0.4,0.2c-0.1,0.1-0.2,0.2-0.3,0.2c0,0,0,0.1-0.1,0c-0.1,0,0-0.1,0-0.1c0.1-0.1,0.2-0.2,0.3-0.3
						c0.1,0,0.1-0.1,0.2-0.1c-0.2,0-0.4,0-0.6,0c0,0-0.1,0.1-0.1,0.1c0,0-0.1,0.1-0.1,0.1c0,0,0,0.1-0.1,0c-0.1,0,0-0.1,0-0.1
						c0-0.1,0.1-0.1,0.1-0.2c0,0,0,0,0,0c-0.2,0-0.3,0-0.5,0c0,0,0,0,0,0c0,0-0.1,0.1-0.1,0.1c0,0-0.1,0.1-0.1,0.1c0,0,0,0.1-0.1,0
						c-0.1,0,0-0.1,0-0.1c0-0.1,0.1-0.1,0.1-0.2c0,0,0,0,0.1-0.1c-0.2,0-0.5,0-0.7,0c0,0,0,0,0,0c-0.1,0-0.1,0.1-0.1,0.1
						c0,0-0.1,0.1-0.1,0.1c0,0,0,0.1-0.1,0c-0.1,0,0-0.1,0-0.1c0-0.1,0.1-0.1,0.1-0.2c0,0,0,0,0,0c-0.2,0-0.5,0-0.7,0
						c-0.2,0-0.5,0-0.7,0c0,0,0,0,0,0c0,0,0.1,0.1,0.1,0.2c0,0,0,0.1,0,0.1s-0.1,0-0.1,0c0,0-0.1-0.1-0.1-0.1c0,0-0.1-0.1-0.1-0.1
						c0,0,0,0,0,0c-0.2,0-0.5,0-0.7,0c0,0,0,0,0.1,0.1c0,0,0.1,0.1,0.1,0.2c0,0,0,0.1,0,0.1s-0.1,0-0.1,0c0,0,0-0.1-0.1-0.1
						c0,0-0.1-0.1-0.1-0.1c0,0,0,0,0,0c-0.2,0-0.3,0-0.5,0c0,0,0,0,0,0c0,0,0.1,0.1,0.1,0.2c0,0,0,0.1,0,0.1c-0.1,0-0.1,0-0.1,0
						c0-0.1-0.1-0.1-0.1-0.1c0,0-0.1-0.1-0.1-0.1c0,0,0,0,0,0c-0.2,0-0.4,0-0.7,0c0.1,0,0.2,0.1,0.2,0.1c0.1,0.1,0.2,0.2,0.3,0.3
						c0,0,0,0.1,0,0.1c-0.1,0-0.1,0-0.1,0c-0.1-0.1-0.2-0.2-0.3-0.2c-0.1-0.1-0.3-0.2-0.5-0.2h0c-0.2,0-0.4,0-0.5,0
						c0,0.1,0.1,0.1,0.2,0.2c0.1,0.1,0.2,0.2,0.4,0.4c0,0,0.1,0,0,0.1c0,0-0.1,0-0.1,0c-0.2-0.1-0.3-0.3-0.4-0.4
						c-0.1-0.1-0.2-0.2-0.3-0.3c-0.4-0.2-0.7-0.2-1.2-0.3c-0.3,0-0.6,0-0.9-0.2c0.1,0.2,0.2,0.3,0.3,0.5c0.1,0.1,0.2,0.2,0.4,0.3
						c0,0,0,0,0,0c0.1,0.3,0.2,0.6,0.3,0.8c0.1,0.1,0.2,0.2,0.4,0.3c-0.2-0.2-0.3-0.3-0.3-0.5c-0.1-0.3-0.2-0.6-0.2-0.8
						c0,0,0-0.1,0.1-0.1c0.1,0,0.1,0,0.1,0.1c0,0.2,0,0.5,0.1,0.8c0.1,0.2,0.3,0.5,0.6,0.7c0,0,0,0.1-0.1,0.1
						c-0.3-0.1-0.6-0.2-0.8-0.5c-0.2-0.2-0.3-0.5-0.4-0.8c-0.2-0.1-0.3-0.2-0.4-0.3c-0.1-0.1-0.2-0.3-0.2-0.4
						c0.1,0.8,0.4,1.6,0.9,2.2c0.1,0.1,0.3,0.4,0.5,0.4c0.2,0.1,0.2,0.2,0,0.2c-0.1,0-0.1,0-0.2,0c0.2,0.1,0.3,0.1,0.5,0.2
						c0.3,0.1,0.4,0.3,0.4,0.5c0,0,0,0.1-0.1,0.1c-0.1,0-0.1,0-0.1-0.1c0-0.2-0.2-0.3-0.4-0.4c-0.2-0.1-0.5-0.2-0.8-0.3
						c-0.3,0-0.6,0-0.9,0c0.1,0.1,0.2,0.1,0.3,0.2c0.2,0.1,0.4,0.2,0.7,0.2c0.2,0,0.3,0.1,0.5,0.2c0.1,0.1,0.3,0.2,0.4,0.3
						c0,0,0,0,0,0.1c-0.1,0-0.1,0-0.1,0c-0.1-0.1-0.2-0.2-0.3-0.3c-0.1-0.1-0.3-0.1-0.4-0.2c-0.3-0.1-0.5-0.2-0.7-0.3
						c-0.2-0.1-0.3-0.2-0.4-0.2c0.4,0.8,0.9,1.1,1.7,1.4c0,0,0.1,0,0.1,0c0,0,0,0,0,0c0.2,0,0.4,0.1,0.5,0.1c0.2,0,0.3,0.1,0.5,0.1
						c0,0,0.1,0,0.1,0.1c0,0.1,0,0.1-0.1,0.1c-0.2,0-0.3,0-0.5-0.1c-0.1,0-0.2,0-0.3-0.1c-0.1,0-0.1,0-0.2,0c-0.5,0-0.8,0.4-0.9,1
						c0,0,0,0,0,0c0.2-0.2,0.4-0.3,0.5-0.4c0.2-0.1,0.5-0.2,0.7-0.1c0,0,0.1,0,0,0.1c0,0.1,0,0.1-0.1,0c-0.2-0.1-0.4,0-0.6,0.1
						c-0.2,0.1-0.4,0.3-0.6,0.5c0,0.3-0.2,0.6-0.4,0.7c0.1,0.1,0.2,0.1,0.3,0.1c0.2-0.1,0.3-0.2,0.5-0.2c0.2-0.1,0.4-0.1,0.6-0.1
						c0,0,0.1,0,0.1,0.1c0,0.1,0,0.1-0.1,0.1c-0.2,0-0.4,0-0.5,0.1c-0.2,0.1-0.3,0.1-0.4,0.2c0.4,0.1,0.9,0,1.3-0.2
						c0.1,0,0.2-0.1,0.3-0.1c0.1-0.1,0.2-0.1,0.3-0.2c0.1-0.1,0.3-0.1,0.4-0.1c0,0,0.1,0,0.1,0.1c0,0.1,0,0.1-0.1,0.1
						c-0.2,0-0.3,0-0.4,0.2c0,0-0.1,0.1-0.3,0.2c-0.1,0-0.1,0.1-0.2,0.1c-0.2,0.2-0.3,0.4-0.4,0.6c-0.1,0.1-0.1,0.3-0.1,0.4
						c0.1-0.2,0.2-0.4,0.4-0.6c0.2-0.2,0.4-0.4,0.7-0.5c0,0,0.1,0,0.1,0c0,0.1,0,0.1,0,0.1c-0.3,0.1-0.5,0.3-0.7,0.5
						c-0.2,0.2-0.3,0.4-0.4,0.7c-0.1,0.1,0,0-0.1,0.2c0.2-0.2,0.4-0.4,0.6-0.6c0.3-0.2,0.6-0.3,0.8-0.3c0,0,0.1,0,0.1,0.1
						c0,0.1,0,0.1-0.1,0.1c-0.2,0-0.5,0.1-0.7,0.2c-0.2,0.2-0.5,0.4-0.7,0.7c0.4,0.1,0.7-0.1,1.1-0.2c0.2-0.1,0.4-0.3,0.5-0.3
						c0,0,0.1-0.1,0.1-0.1c0.1-0.1,0.1-0.1,0.2-0.2c0,0,0,0,0.1,0s0,0.1,0,0.1c-0.1,0.1-0.1,0.1-0.2,0.2c-0.1,0.1-0.1,0.1-0.2,0.2
						c0,0,0,0,0,0c-0.1,0.1-0.3,0.3-0.3,0.5c-0.1,0.4-0.1,0.7-0.2,1.1c0.1-0.1,0.3-0.2,0.4-0.3c0.1-0.1,0.2-0.3,0.3-0.5
						c0.1-0.2,0.2-0.4,0.3-0.5c0.2-0.2,0.3-0.3,0.5-0.3c0,0,0.1,0,0.1,0s0,0.1,0,0.1c-0.2,0.1-0.3,0.2-0.5,0.3
						c-0.1,0.1-0.2,0.3-0.3,0.5c-0.1,0.2-0.2,0.4-0.3,0.5c-0.1,0.1-0.2,0.2-0.3,0.2c0.1,0,0.2,0,0.2,0c0.2,0,0.4-0.1,0.6-0.2
						c0.1-0.1,0.2-0.2,0.3-0.4c0,0,0-0.1,0.1,0s0,0.1,0,0.1c-0.1,0.2-0.2,0.3-0.3,0.5c-0.1,0.1-0.2,0.1-0.4,0.2
						c0.3,0,0.6-0.1,0.9-0.2c0.1,0,0.2-0.3,0.3-0.4c0.1-0.1,0.1-0.2,0.2-0.3c0.1-0.1,0.2-0.2,0.3-0.2c0,0,0.1,0,0.1,0
						c0,0.1,0,0.1,0,0.1c-0.1,0-0.2,0.1-0.3,0.2c-0.1,0.1-0.1,0.2-0.2,0.3c0,0.1-0.1,0.4-0.1,0.6c0,0.4,0,0.8,0.1,1.2
						c0.1-0.1,0.2-0.3,0.3-0.4c0,0,0,0,0,0c0-0.2,0.1-0.4,0.1-0.7c0-0.2,0-0.4,0-0.6c0,0,0-0.1,0.1-0.1c0.1,0,0.1,0,0.1,0.1
						c0,0.2,0,0.4,0,0.7c0,0.2,0,0.4-0.1,0.5c0.1-0.1,0.1-0.1,0.2-0.2c0.1-0.2,0.1-0.3,0.1-0.5c0-0.2,0-0.3,0-0.5c0,0,0-0.1,0-0.1
						c0.1,0,0.1,0,0.1,0c0,0.2,0.1,0.3,0,0.5c0,0.1,0,0.3-0.1,0.4c0.1-0.1,0.2-0.2,0.4-0.2c0-0.1,0-0.3,0-0.4c0-0.1,0-0.3,0-0.4
						c0,0,0-0.1,0.1-0.1c0.1,0,0.1,0.1,0.1,0.1c0,0.1,0,0.2,0,0.3c0,0.2,0,0.3,0,0.5c0,0.2,0.1,0.4,0.3,0.5c0.2,0.1,0.3,0.3,0.4,0.5
						c0-0.3,0-0.6,0-0.8c0-0.3-0.1-0.5-0.2-0.7c0,0,0-0.1,0-0.1c0.1,0,0.1,0,0.1,0c0.1,0.2,0.2,0.5,0.2,0.8c0,0.3,0,0.6,0,1
						c0.2-0.2,0.8-0.5,0.7-1.2c0-0.1,0-0.1-0.1-0.1c0,0,0-0.1,0-0.1c0.1,0,0.1,0,0.1,0c0,0.1,0.1,0.1,0.1,0.2c0,0,0,0.1,0,0.1
						c0,0,0.1-0.1,0.1-0.1c0,0,0.1,0.1,0.2,0.1c0-0.1-0.1-0.2-0.1-0.4c0-0.2,0-0.3,0-0.5c0,0,0-0.1,0.1,0c0.1,0,0.1,0,0,0.1
						c0,0.1,0,0.3,0,0.5c0,0.2,0.1,0.3,0.1,0.5c0,0,0,0,0,0c0,0,0.1,0.1,0.1,0.1c0-0.2,0-0.3-0.1-0.5c0-0.2,0-0.5,0-0.7
						c0,0,0-0.1,0.1-0.1s0.1,0,0.1,0.1c0,0.2,0,0.4,0,0.6c0,0.2,0,0.4,0.1,0.7c0,0,0,0,0,0c0.1,0.1,0.2,0.2,0.3,0.4
						c0.1-0.4,0.1-0.8,0.1-1.2c0-0.1-0.1-0.4-0.1-0.6c-0.1-0.1-0.1-0.2-0.2-0.3c-0.1-0.1-0.2-0.2-0.3-0.2c0,0-0.1,0,0-0.1
						c0-0.1,0.1,0,0.1,0c0.1,0.1,0.2,0.1,0.3,0.2c0.1,0.1,0.1,0.2,0.2,0.3c0.1,0,0.2,0.4,0.3,0.4c0.3,0.1,0.6,0.2,0.9,0.2
						c-0.2,0-0.3-0.1-0.4-0.2c-0.1-0.1-0.3-0.3-0.3-0.5c0,0,0-0.1,0-0.1c0.1,0,0.1,0,0.1,0c0.1,0.2,0.2,0.3,0.3,0.4
						c0.2,0.1,0.6,0.2,0.8,0.2c-0.1-0.1-0.2-0.2-0.3-0.3c-0.1-0.1-0.2-0.3-0.3-0.5c-0.1-0.2-0.2-0.4-0.3-0.5
						c-0.1-0.1-0.3-0.2-0.5-0.3c0,0-0.1,0,0-0.1c0-0.1,0.1,0,0.1,0c0.2,0.1,0.4,0.2,0.5,0.3c0.1,0.1,0.3,0.3,0.3,0.5
						c0.1,0.2,0.2,0.3,0.3,0.5c0.1,0.1,0.2,0.2,0.4,0.3c-0.2-0.4-0.1-0.7-0.2-1.1c-0.1-0.3-0.5-0.5-0.4-0.6c0.1-0.1,0.3,0.2,0.5,0.2
						c0.4,0.1,0.7,0.2,1.1,0.2c-0.2-0.3-0.5-0.5-0.7-0.7c-0.2-0.2-0.5-0.3-0.7-0.2c0,0-0.1,0-0.1-0.1c0-0.1,0-0.1,0.1-0.1
						c0.3,0,0.5,0.1,0.8,0.3c0.2,0.2,0.4,0.3,0.6,0.6c0-0.1,0,0-0.1-0.2c-0.1-0.2-0.3-0.5-0.4-0.7c-0.2-0.2-0.4-0.4-0.7-0.5
						c0,0-0.1,0,0-0.1c0-0.1,0.1,0,0.1,0c0.3,0.1,0.5,0.3,0.7,0.5c0.2,0.2,0.3,0.4,0.4,0.6c0-0.2-0.1-0.3-0.1-0.4
						c-0.1-0.2-0.2-0.4-0.4-0.6c-0.1-0.1-0.4-0.3-0.4-0.4c-0.1,0-0.1,0-0.1,0c-0.1-0.1-0.2-0.1-0.3-0.1c0,0-0.1,0-0.1-0.1
						c0-0.1,0-0.1,0.1-0.1c0.1,0,0.2,0.1,0.4,0.1c0.1,0,0.1,0.1,0.2,0.1c0.1,0,0.3,0.1,0.4,0.1c0.4,0.2,0.9,0.2,1.3,0.2
						c-0.1-0.1-0.3-0.1-0.4-0.2c-0.2-0.1-0.3-0.1-0.5-0.1c0,0-0.1,0-0.1-0.1s0-0.1,0.1-0.1c0.2,0,0.4,0.1,0.6,0.1
						c0.2,0.1,0.4,0.1,0.5,0.2c0.1,0.1,0.2,0,0.3-0.1c-0.2-0.2-0.4-0.5-0.4-0.7l0,0c-0.2-0.2-0.4-0.4-0.6-0.5
						c-0.2-0.1-0.4-0.2-0.6-0.1c0,0-0.1,0-0.1,0c0-0.1,0-0.1,0-0.1c0.3-0.1,0.5,0,0.7,0.1c0.2,0.1,0.4,0.3,0.6,0.4c0,0,0,0,0,0
						c0-0.5-0.4-0.9-0.9-1c-0.2,0-0.4,0-0.4-0.1c0-0.1,0.2-0.1,0.5-0.2c0.8-0.2,1.3-0.6,1.7-1.4c-0.1,0.1-0.2,0.2-0.4,0.2
						c-0.2,0.1-0.4,0.2-0.7,0.3c-0.2,0-0.3,0.1-0.4,0.2c-0.1,0.1-0.2,0.2-0.3,0.3c0,0,0,0-0.1,0c-0.1,0,0-0.1,0-0.1
						c0.1-0.1,0.2-0.2,0.4-0.3c0.1-0.1,0.3-0.1,0.5-0.2c0.3-0.1,0.5-0.2,0.7-0.2c0.1-0.1,0.2-0.1,0.3-0.2c-0.3,0-0.6,0-0.9,0
						c-0.3,0.1-0.6,0.2-0.8,0.3c-0.2,0.1-0.4,0.3-0.4,0.4c0,0,0,0.1-0.1,0.1c-0.1,0-0.1,0-0.1-0.1c0-0.2,0.2-0.4,0.4-0.5
						c0.1-0.1,0.3-0.1,0.5-0.2c-0.1,0-0.1,0-0.2,0c-0.2,0-0.2-0.1,0-0.2c0.2-0.1,0.4-0.3,0.5-0.4c0.5-0.7,0.8-1.4,0.9-2.2
						c-0.1,0.1-0.1,0.3-0.2,0.4c-0.1,0.1-0.3,0.3-0.4,0.3c-0.1,0.3-0.2,0.6-0.4,0.8c-0.2,0.2-0.4,0.4-0.7,0.5
						c-0.1,0-0.1-0.1-0.1-0.1c0.3-0.2,0.4-0.4,0.6-0.7c0.1-0.3,0.2-0.5,0.1-0.8c0,0,0-0.1,0.1-0.1c0.1,0,0.1,0,0.1,0.1
						c0,0.3,0,0.5-0.2,0.8c-0.1,0.2-0.2,0.3-0.3,0.5c0.1-0.1,0.3-0.2,0.4-0.3c0.2-0.2,0.3-0.5,0.3-0.8c0,0,0,0,0,0
						c0.2-0.1,0.3-0.2,0.4-0.3c0.1-0.1,0.2-0.3,0.3-0.4c-0.3,0.1-0.6,0.1-0.9,0.2C919.3,327,918.9,327.1,918.6,327.3L918.6,327.3z"
						/>
					<path class="st41" d="M918.5,326.9c-1.4-0.2-2.7-0.2-4.1-0.2c-1.4,0-2.7,0.1-4.1,0.2c0,0,0,0.1,0,0.1c0,0.1,0.1,0.1,0.2,0.1
						c1.3-0.1,2.6-0.2,3.9-0.2c1.4,0,2.7,0,4.1,0.2C918.5,327.1,918.6,326.9,918.5,326.9L918.5,326.9z"/>
					<path class="st41" d="M910.3,326.8c1.4-0.1,2.7-0.2,4.1-0.2c1.4,0,2.7,0.1,4.1,0.2l0.1-0.2c0,0-0.1,0-0.1,0
						c-0.1,0-0.2-0.1-0.2-0.2c0-0.1,0.1-0.2,0.2-0.2c0.1,0,0.2,0.1,0.2,0.1l0.1-0.3c-1.5-0.2-2.9-0.2-4.4-0.2
						c-1.5,0-2.9,0.1-4.4,0.2l0.1,0.3c0-0.1,0.1-0.1,0.2-0.1c0.1,0,0.2,0.1,0.2,0.2c0,0.1-0.1,0.2-0.2,0.2c0,0-0.1,0-0.1,0
						L910.3,326.8L910.3,326.8L910.3,326.8z M916.4,326c-0.1,0-0.2,0.1-0.2,0.2c0,0.1,0.1,0.2,0.2,0.2c0.1,0,0.2-0.1,0.2-0.2
						C916.7,326.1,916.6,326,916.4,326z M916.4,326.1c-0.1,0-0.1,0.1-0.1,0.1c0,0.1,0.1,0.1,0.1,0.1c0.1,0,0.1-0.1,0.1-0.1
						C916.5,326.1,916.5,326.1,916.4,326.1z M914.3,325.9c-0.1,0-0.2,0.1-0.2,0.2s0.1,0.2,0.2,0.2s0.2-0.1,0.2-0.2
						S914.4,325.9,914.3,325.9z M914.3,326c-0.1,0-0.1,0.1-0.1,0.1s0.1,0.1,0.1,0.1s0.1-0.1,0.1-0.1
						C914.4,326.1,914.3,326,914.3,326z M912.1,326c-0.1,0-0.2,0.1-0.2,0.2s0.1,0.2,0.2,0.2c0.1,0,0.2-0.1,0.2-0.2
						S912.3,326,912.1,326z M912.1,326.1c-0.1,0-0.1,0.1-0.1,0.1s0.1,0.1,0.1,0.1c0.1,0,0.1-0.1,0.1-0.1
						C912.2,326.1,912.2,326.1,912.1,326.1z"/>
				</g>
				<g>
					<path d="M914.3,324.4c0-0.1-0.1-0.3-0.2-0.3c-0.1-0.1-0.2-0.2-0.4-0.2c-0.1,0-0.1-0.1,0-0.1c0.1,0,0.2-0.1,0.3-0.3
						c0.1-0.1,0.2-0.3,0.2-0.5c0-0.1,0.1-0.1,0.1,0c0,0.2,0.1,0.3,0.2,0.4c0.1,0.1,0.3,0.2,0.4,0.3c0.1,0,0.1,0.1,0,0.1
						c-0.1,0-0.2,0.1-0.3,0.2c-0.1,0.1-0.2,0.3-0.2,0.4C914.5,324.5,914.4,324.5,914.3,324.4L914.3,324.4z M914.4,324.2
						c0-0.1,0.1-0.2,0.2-0.3c0.1-0.1,0.1-0.1,0.2-0.2c-0.1-0.1-0.2-0.1-0.3-0.2c-0.1-0.1-0.1-0.1-0.1-0.2c0,0.1-0.1,0.2-0.2,0.3
						c-0.1,0.1-0.1,0.2-0.2,0.2c0.1,0,0.2,0.1,0.3,0.2C914.3,324.1,914.4,324.1,914.4,324.2z"/>
					<path d="M916,334.3l-1,0.4c0,0-0.1,0-0.1,0c0-0.1,0-0.1,0-0.1l1-0.4C916,334.1,916,334.1,916,334.3
						C916.1,334.3,916.1,334.3,916,334.3z M916.1,333.6l-1.2,0.6c0,0-0.1,0-0.1,0c0-0.1,0-0.1,0-0.1l1.2-0.6c0,0,0.1,0,0.1,0
						S916.2,333.6,916.1,333.6z M912.5,333.5l1.2,0.6c0,0,0.1,0,0,0.1c0,0.1-0.1,0-0.1,0l-1.2-0.6c0,0-0.1,0,0-0.1
						C912.4,333.5,912.4,333.5,912.5,333.5z M912.6,334.1l1,0.4c0,0,0.1,0,0,0.1c0,0.1-0.1,0.1-0.1,0l-1-0.4
						C912.5,334.3,912.4,334.3,912.6,334.1C912.5,334.1,912.5,334.1,912.6,334.1L912.6,334.1z M913,335c0.3,0.1,0.5,0.1,0.7,0.1
						c0.2,0,0.3-0.1,0.4-0.3v-1c-0.2,0-0.4,0-0.6-0.1c-0.2-0.1-0.3-0.2-0.4-0.4c-0.1-0.2-0.1-0.5,0-0.6c0,0,0-0.1,0.1-0.1
						c0.1,0,0.1,0.1,0.1,0.1c0,0.2-0.1,0.4,0,0.6c0,0.1,0.1,0.2,0.3,0.3c0.2,0,0.4,0.1,0.6,0.1c0.2,0,0.4,0,0.6-0.1
						c0.2,0,0.3-0.1,0.4-0.2c0.1-0.1,0.1-0.2,0.1-0.3c0-0.1,0-0.1-0.1-0.2c-0.1,0-0.2-0.1-0.3-0.1c-0.1,0-0.2,0-0.3,0
						c-0.1,0-0.1,0-0.2,0c0,0-0.1,0-0.1-0.1c0-0.1,0-0.1,0.1-0.1c0,0,0.1,0,0.1,0c0.1,0,0.2,0,0.3,0c0.1,0,0.2,0,0.3,0.1
						c0.1,0.1,0.1,0.1,0.2,0.3c0,0.2,0,0.3-0.1,0.5c-0.1,0.1-0.3,0.2-0.5,0.3c-0.2,0-0.4,0.1-0.6,0.1v1c0,0,0,0,0,0
						c0.1,0.2,0.2,0.2,0.4,0.3c0.2,0,0.4,0,0.7-0.1c0,0,0.1,0,0.1,0.1c0,0.1,0,0.1-0.1,0.1c-0.3,0.1-0.6,0.1-0.8,0.1
						c-0.2,0-0.3-0.1-0.4-0.3c-0.1,0.1-0.2,0.2-0.4,0.3c-0.2,0-0.5,0-0.8-0.1C913,335.1,912.9,335.1,913,335
						C912.9,335,913,335,913,335L913,335z M913.7,335.4l0.8,0c0,0,0.1,0,0.1,0.1c0,0.1,0,0.1-0.1,0.1l-0.8,0
						C913.7,335.6,913.7,335.6,913.7,335.4C913.7,335.4,913.7,335.4,913.7,335.4z"/>
					<path d="M914.9,329.3c0.3-0.2,0.6-0.4,0.8-0.6c0.3-0.1,0.5-0.2,0.7-0.2c0,0,0.1,0,0.1,0.1c0,0.1,0,0.1-0.1,0.1
						c-0.2,0-0.4,0.1-0.6,0.2c-0.3,0.1-0.5,0.3-0.8,0.6c0,0-0.1,0-0.1,0C914.9,329.4,914.9,329.4,914.9,329.3L914.9,329.3z
						 M913.7,329.5c-0.3-0.3-0.6-0.5-0.9-0.6c-0.3-0.1-0.5-0.2-0.7-0.2c0,0-0.1,0-0.1-0.1c0-0.1,0-0.1,0.1-0.1
						c0.2,0,0.5,0.1,0.8,0.2c0.3,0.2,0.6,0.4,0.9,0.6c0,0,0.1,0,0,0.1C913.8,329.5,913.7,329.5,913.7,329.5L913.7,329.5z
						 M913.3,331.4c0.1-0.2,0.2-0.3,0.3-0.4c0.1-0.1,0.2-0.2,0.3-0.3c0,0,0.1,0,0.1,0c0,0.1,0,0.1,0,0.1c-0.1,0.1-0.2,0.2-0.3,0.3
						c-0.1,0.1-0.2,0.2-0.3,0.4C913.4,331.5,913.4,331.6,913.3,331.4C913.3,331.5,913.3,331.5,913.3,331.4z M914,328
						c0.1,0.1,0.2,0.3,0.2,0.4c0.1,0.2,0.1,0.3,0.1,0.5c0,0.2,0,0.3,0,0.5c0,0.2-0.1,0.3-0.2,0.5c-0.1,0.1-0.2,0.2-0.3,0.2
						c-0.1,0-0.2,0-0.3,0c0.1,0.2,0.1,0.4,0,0.6c0,0-0.1,0.1-0.1,0c-0.1,0-0.2-0.1-0.3-0.1s-0.2-0.1-0.3-0.1l0,0
						c-0.2-0.1-0.3-0.1-0.5-0.2c-0.1-0.1-0.2-0.2-0.3-0.2l0,0c-0.1-0.1-0.1-0.2-0.2-0.3c0-0.1,0-0.2,0-0.3c-0.1-0.1-0.3-0.2-0.4-0.2
						c-0.1-0.1-0.2-0.2-0.3-0.3c0,0-0.1-0.1,0-0.1c0.1-0.1,0.1,0,0.1,0c0.1,0.1,0.2,0.2,0.3,0.2c0.1,0.1,0.3,0.2,0.4,0.2
						c0.2,0,0.5,0.1,0.7,0.2c0.2,0.1,0.4,0.2,0.6,0.4c0,0,0,0,0.1,0c0,0,0,0,0.1,0c0.1,0,0.2,0.1,0.3,0c0.1,0,0.2-0.1,0.2-0.2
						c0.1-0.1,0.1-0.3,0.2-0.4c0-0.2,0-0.3,0-0.5v0c0-0.2,0-0.4-0.1-0.5c0-0.1-0.1-0.3-0.2-0.4c0,0,0-0.1,0-0.1S914,328,914,328
						L914,328z M913.3,330.1c-0.2-0.2-0.4-0.3-0.6-0.4c-0.2-0.1-0.4-0.2-0.6-0.2c0,0.1,0,0.2,0,0.3c0,0.1,0.1,0.2,0.1,0.3l0,0
						c0.1,0.1,0.1,0.1,0.3,0.2c0.1,0.1,0.3,0.1,0.5,0.2l0,0c0.1,0,0.2,0.1,0.3,0.1c0.1,0,0.1,0.1,0.2,0.1
						C913.4,330.5,913.3,330.3,913.3,330.1C913.3,330.1,913.3,330.1,913.3,330.1L913.3,330.1z M914.8,328.1
						c-0.1,0.1-0.2,0.2-0.2,0.4c0,0.1-0.1,0.3-0.1,0.5v0c0,0.2,0,0.3,0,0.5c0,0.1,0.1,0.3,0.2,0.4c0.1,0.1,0.2,0.1,0.2,0.2
						c0.1,0,0.2,0,0.3,0c0,0,0,0,0.1,0c0,0,0,0,0.1,0c0.2-0.2,0.4-0.3,0.6-0.4c0.2-0.1,0.5-0.2,0.7-0.2c0.2-0.1,0.3-0.2,0.4-0.2
						s0.2-0.2,0.3-0.2c0,0,0.1-0.1,0.1,0c0.1,0.1,0,0.1,0,0.1c-0.1,0.1-0.2,0.2-0.3,0.3c-0.1,0.1-0.2,0.2-0.4,0.2c0,0.1,0,0.2,0,0.3
						c0,0.1-0.1,0.2-0.2,0.3l0,0c-0.1,0.1-0.2,0.2-0.3,0.2c-0.1,0.1-0.3,0.1-0.5,0.2l0,0c-0.1,0-0.2,0.1-0.3,0.1
						c-0.1,0-0.2,0.1-0.3,0.1c0,0-0.1,0-0.1,0c-0.1-0.2,0-0.4,0-0.6c-0.1,0-0.2,0-0.3,0c-0.1,0-0.2-0.1-0.3-0.2
						c-0.1-0.1-0.2-0.3-0.2-0.5c0-0.2,0-0.3,0-0.5c0-0.2,0-0.4,0.1-0.5c0.1-0.2,0.1-0.3,0.2-0.4C914.7,328,914.8,328,914.8,328.1
						C914.9,328,914.9,328.1,914.8,328.1L914.8,328.1z M916.7,329.5c-0.2,0-0.4,0.1-0.6,0.2c-0.2,0.1-0.4,0.2-0.6,0.4c0,0,0,0,0,0.1
						c-0.1,0.2-0.1,0.4-0.1,0.5c0.1,0,0.1-0.1,0.2-0.1c0.1,0,0.2-0.1,0.3-0.1l0,0c0.2-0.1,0.3-0.1,0.5-0.2c0.1-0.1,0.2-0.1,0.3-0.2
						l0,0c0.1-0.1,0.1-0.2,0.1-0.3C916.7,329.7,916.7,329.6,916.7,329.5L916.7,329.5z"/>
					<path d="M916.1,329.6c-0.2,0-0.4,0.2-0.4,0.4s0.2,0.4,0.4,0.4s0.4-0.2,0.4-0.4C916.5,329.8,916.3,329.6,916.1,329.6z
						 M916.1,329.8c-0.2,0-0.3,0.1-0.3,0.3s0.1,0.3,0.3,0.3s0.3-0.1,0.3-0.3S916.2,329.8,916.1,329.8z M916.1,329.9
						c-0.1,0-0.2,0.1-0.2,0.2s0.1,0.2,0.2,0.2s0.2-0.1,0.2-0.2S916.2,329.9,916.1,329.9z M912.7,329.6c0.2,0,0.4,0.2,0.4,0.4
						c0,0.2-0.2,0.4-0.4,0.4c-0.2,0-0.4-0.2-0.4-0.4C912.2,329.8,912.4,329.6,912.7,329.6z M912.7,329.8c0.2,0,0.3,0.1,0.3,0.3
						c0,0.2-0.1,0.3-0.3,0.3s-0.3-0.1-0.3-0.3C912.4,329.9,912.5,329.8,912.7,329.8z M912.7,329.9c0.1,0,0.2,0.1,0.2,0.2
						c0,0.1-0.1,0.2-0.2,0.2c-0.1,0-0.2-0.1-0.2-0.2C912.5,330,912.6,329.9,912.7,329.9z"/>
				</g>
			</g>
			<g transform="matrix(0.99928092,-0.03791625,0.03791625,0.99928092,-5965.3264,-1993.2203)" class="st56">
				<g id="lion_1_">
					<path d="M905.5,302.6c0,0-0.1,0-0.1,0.1c-0.4,0.5-0.7,0.9-1,1.5c-0.4,0.1-0.5,0.4-0.3,0.7c-0.5,0-0.6,0.4-0.6,0.9
						c-0.5-0.7-1.1-0.9-1.7-0.5c0-0.5-0.4-0.7-0.9-0.7c-0.4,0-0.6-0.1-0.9-0.3c-0.1-0.1-0.2-0.1-0.3-0.2c-0.3-0.2-0.5,0-0.3,0.2
						c0.6,0.8,1.1,1.7,1.7,2.5c0,0.2,0,0.3,0.2,0.4c0.1,0.3,0.2,0.5,0.3,0.8c0,0.1,0,0.1-0.1,0.2c-0.5-0.2-0.9-0.2-1.3-0.2
						c-0.3,0-0.6-0.1-0.7-0.2c-0.1-0.1-0.2,0-0.2,0.2c0,1.1,0.4,2,1.3,2.9c-0.5,0-0.9,0.1-1.4,0.1c-0.2,0-0.2,0.1-0.1,0.2
						c0.3,0.6,0.7,1.1,1.7,1.4c-0.4,0.2-0.6,0.6-0.7,1c0,0.4-0.1,0.8-0.4,0.9c-0.1,0.1-0.2,0.1,0,0.2c0.5,0.3,1.1,0.3,1.8,0.2
						c-0.3,0.5-0.4,1.1-0.3,1.7c0.4,0.1,0.8,0,1.2-0.1c-0.1,0.1-0.1,0.3-0.1,0.6c0,0.2-0.1,0.5-0.2,0.7c-0.1,0.1-0.1,0.2,0,0.2
						c0.7,0.2,1.3,0.1,1.8-0.2c0,0.5,0,1,0.2,1.4c0,0.1,0.1,0.2,0.3,0c0.3-0.4,0.6-0.8,1-1.1c0.1,0.2,0.2,0.3,0.3,0.4
						c0.2,0.1,0.3,0.3,0.3,0.7c0,0.1,0,0.1,0.1,0.2c0.3,0,1-0.8,1.1-1.2c0.4,0.2,0.6,0.5,0.9,0.9c0.1,0.1,0.2,0,0.3-0.1
						c0.1-0.5,0.1-1,0.1-1.4c0.5,0.2,1.2,0.2,1.8,0c0.1,0,0.1-0.1,0-0.2c-0.1-0.2-0.2-0.5-0.3-0.7c0-0.3,0-0.4-0.1-0.6
						c0.4,0.1,0.8,0.2,1.2,0.1c0-0.6-0.2-1.1-0.5-1.7c0.7,0.1,1.3,0.1,1.8-0.3c0.1-0.1,0.1-0.1-0.1-0.2c-0.3-0.1-0.4-0.4-0.5-0.9
						c-0.1-0.5-0.3-0.8-0.8-1c1-0.4,1.4-1,1.6-1.6c0-0.1,0-0.2-0.2-0.2c-0.5,0-1,0-1.4,0c0.8-1,1.1-1.9,1.1-3c0-0.2-0.1-0.3-0.2-0.2
						c-0.1,0.2-0.3,0.3-0.7,0.3c-0.4,0-0.9,0.1-1.3,0.3c0-0.1,0-0.1-0.1-0.2c0.1-0.3,0.2-0.5,0.3-0.8c0.2-0.1,0.2-0.2,0.2-0.4
						c0.5-0.9,1-1.7,1.5-2.6c0.1-0.2-0.1-0.3-0.3-0.1c-0.1,0.1-0.2,0.1-0.3,0.2c-0.2,0.2-0.5,0.3-0.9,0.3c-0.5,0.1-0.8,0.4-0.8,0.8
						c-0.6-0.3-1.1-0.1-1.6,0.7c0-0.5-0.1-0.9-0.6-0.8c0.1-0.3,0-0.6-0.4-0.7c-0.4-0.5-1-0.9-1.3-1.4
						C905.6,302.6,905.5,302.6,905.5,302.6L905.5,302.6z"/>
					<g>
						<path class="st41" d="M910.7,305.2c-0.1,0-0.2,0-0.3,0.2s-0.1,0.3,0.1,0.4c0.1,0,0.2,0,0.2-0.1l0-0.1c0,0,0,0,0,0
							C910.8,305.4,910.8,305.2,910.7,305.2L910.7,305.2z"/>
						<path class="st41" d="M900.6,305.5c0.1-0.1,0.3,0,0.3,0.2c0.1,0.2,0.1,0.3,0,0.4s-0.2,0-0.3-0.2S900.5,305.6,900.6,305.5
							L900.6,305.5z"/>
						<path class="st41" d="M909.8,307c-0.1,0-0.1,0.1-0.1,0.1c0,0.1,0.1,0.1,0.1,0.1c0.1,0,0.1-0.1,0.1-0.1
							C909.9,307,909.9,307,909.8,307z"/>
						<path class="st41" d="M901.7,307.3c-0.1,0-0.1,0.1-0.1,0.1c0,0.1,0.1,0.1,0.1,0.1c0.1,0,0.1-0.1,0.1-0.1
							S901.8,307.3,901.7,307.3z"/>
						<path class="st41" d="M910.3,306.4c-1.5-0.1-3-0.1-4.5-0.1c-1.5,0.1-3,0.2-4.5,0.4c-0.1,0,0,0.2,0,0.2c1.5-0.2,3-0.3,4.5-0.4
							c1.5-0.1,3,0,4.5,0.1C910.3,306.5,910.4,306.4,910.3,306.4L910.3,306.4z"/>
						<path class="st41" d="M901.2,306.5c1.5-0.2,3.1-0.3,4.6-0.4c1.5-0.1,3,0,4.5,0.1l0.2-0.4c-0.1,0-0.1,0-0.2,0
							c-0.2-0.1-0.2-0.3-0.1-0.5c0.1-0.2,0.3-0.4,0.5-0.3c0.1,0,0.1,0.1,0.1,0.2l0.8-1.5c-0.4,0.3-0.6,0.4-1.1,0.5
							c-0.6,0.1-0.8,0.3-0.7,0.6c0.1,0.3-0.1,0.3-0.4,0.1c-0.6-0.3-1.1,0.2-1.3,0.7c-0.1,0.4-0.3,0.4-0.3,0c0-0.1,0-0.3,0-0.4
							c-0.1-0.4-0.2-0.6-0.5-0.4c-0.3,0.2-0.3,0.1-0.3-0.1c0.1-0.1,0.2-0.3,0.1-0.4c0-0.1-0.1-0.2-0.3-0.2c-0.4-0.5-1-0.9-1.4-1.4
							c-0.3,0.5-0.7,1-1.1,1.5c-0.2,0-0.3,0.1-0.3,0.2c0,0.2,0.1,0.3,0.2,0.4c0.1,0.2,0.1,0.3-0.3,0.1c-0.3-0.1-0.4,0-0.4,0.4
							c0,0.1,0,0.3,0,0.4c0,0.4-0.2,0.4-0.3,0c-0.2-0.5-0.7-1-1.4-0.6c-0.3,0.2-0.4,0.2-0.4-0.1c0-0.3-0.2-0.5-0.8-0.6
							c-0.5-0.1-0.8-0.2-1.2-0.5l0.9,1.3c0-0.1,0.1-0.1,0.1-0.1c0.1-0.1,0.4,0,0.5,0.3c0.1,0.2,0.1,0.5-0.1,0.5c0,0,0,0-0.1,0
							L901.2,306.5L901.2,306.5z"/>
						<path class="st41" d="M910.1,308C910.1,308,910.1,308,910.1,308c-0.1,0.1-0.2,0.2-0.3,0.3c-0.1,0.1-0.2,0.3-0.4,0.4
							c0,0,0,0-0.1,0c0,0,0-0.1,0-0.1c0.2-0.1,0.3-0.3,0.4-0.4c0.1-0.1,0.1-0.1,0.1-0.2c-0.2,0-0.4,0-0.6,0
							c-0.2,0.1-0.3,0.1-0.4,0.2c-0.1,0.1-0.2,0.2-0.3,0.3c0,0,0,0.1-0.1,0c-0.1,0,0-0.1,0-0.1c0.1-0.1,0.2-0.2,0.3-0.3
							c0.1,0,0.1-0.1,0.2-0.1c-0.2,0-0.4,0-0.6,0c0,0-0.1,0.1-0.1,0.1c0,0-0.1,0.1-0.1,0.1c0,0,0,0.1-0.1,0c-0.1,0,0-0.1,0-0.1
							c0-0.1,0.1-0.1,0.1-0.2c0,0,0,0,0,0c-0.2,0-0.3,0-0.5,0c0,0,0,0,0,0c0,0-0.1,0.1-0.1,0.1s-0.1,0.1-0.1,0.1c0,0,0,0.1-0.1,0
							c-0.1,0,0,0,0-0.1c0-0.1,0-0.1,0.1-0.2c0,0,0,0,0.1-0.1c-0.2,0-0.5,0-0.7,0c0,0,0,0,0,0c0,0-0.1,0.1-0.1,0.1s-0.1,0.1-0.1,0.1
							c0,0,0,0.1-0.1,0c-0.1,0,0-0.1,0-0.1c0-0.1,0.1-0.1,0.1-0.2c0,0,0,0,0,0c-0.2,0-0.5,0-0.7,0c-0.2,0-0.5,0-0.7,0c0,0,0,0,0,0
							c0,0,0.1,0.1,0.1,0.1c0,0,0,0.1,0,0.1c-0.1,0-0.1,0-0.1,0c0,0-0.1-0.1-0.1-0.1c0,0-0.1-0.1-0.1-0.1c0,0,0,0,0,0
							c-0.2,0-0.5,0-0.7,0c0,0,0,0,0.1,0.1c0,0,0.1,0.1,0.1,0.2c0,0,0,0.1,0,0.1c-0.1,0-0.1,0-0.1,0c0,0,0-0.1-0.1-0.1
							c0,0-0.1-0.1-0.1-0.1c0,0,0,0,0,0c-0.2,0-0.3,0-0.5,0c0,0,0,0,0,0c0,0,0.1,0.1,0.1,0.1c0,0,0,0,0,0.1c-0.1,0-0.1,0-0.1,0
							c0,0-0.1-0.1-0.1-0.1c0,0-0.1-0.1-0.1-0.1c0,0,0,0,0,0c-0.2,0-0.4,0-0.7,0.1c0.1,0,0.2,0.1,0.2,0.1c0.1,0.1,0.3,0.2,0.3,0.3
							c0,0,0,0.1,0,0.1c-0.1,0-0.1,0-0.1,0c-0.1-0.1-0.2-0.2-0.3-0.2c-0.1-0.1-0.3-0.1-0.5-0.2l0,0c-0.2,0-0.4,0-0.5,0.1
							c0,0.1,0.1,0.1,0.2,0.2c0.1,0.1,0.3,0.2,0.4,0.3c0,0,0.1,0,0,0.1c0,0.1-0.1,0-0.1,0c-0.2-0.1-0.3-0.2-0.4-0.4
							c-0.1-0.1-0.2-0.2-0.3-0.3c-0.4-0.2-0.7-0.2-1.2-0.2c-0.3,0-0.6,0-0.9-0.1c0.1,0.2,0.2,0.3,0.3,0.4c0.1,0.1,0.3,0.2,0.4,0.3
							c0,0,0,0,0,0c0.1,0.3,0.2,0.6,0.4,0.7c0.1,0.1,0.2,0.2,0.4,0.3c-0.2-0.2-0.3-0.3-0.4-0.5c-0.1-0.3-0.2-0.6-0.2-0.8
							c0,0,0-0.1,0.1-0.1c0.1,0,0.1,0,0.1,0.1c0,0.2,0,0.5,0.2,0.8c0.1,0.2,0.3,0.5,0.6,0.7c0,0,0,0.1-0.1,0.1
							c-0.3-0.1-0.6-0.2-0.8-0.4c-0.2-0.2-0.3-0.5-0.4-0.8c-0.2-0.1-0.3-0.2-0.5-0.3c-0.1-0.1-0.2-0.3-0.3-0.4
							c0.1,0.8,0.4,1.6,1,2.2c0.1,0.1,0.3,0.3,0.5,0.4c0.2,0.1,0.2,0.2,0,0.2c-0.1,0-0.1,0-0.2,0c0.2,0.1,0.3,0.1,0.5,0.2
							c0.3,0.1,0.4,0.3,0.5,0.5c0,0,0,0.1-0.1,0.1c-0.1,0-0.1,0-0.1-0.1c0-0.2-0.2-0.3-0.4-0.4c-0.2-0.1-0.5-0.2-0.8-0.3
							c-0.3,0-0.6,0-0.9,0c0.1,0.1,0.2,0.1,0.3,0.2c0.2,0.1,0.4,0.2,0.7,0.2c0.2,0,0.3,0.1,0.5,0.2c0.1,0.1,0.3,0.2,0.4,0.3
							c0,0,0,0,0,0.1s-0.1,0-0.1,0c-0.1-0.1-0.2-0.2-0.3-0.3c-0.1-0.1-0.3-0.1-0.4-0.1c-0.3-0.1-0.6-0.1-0.7-0.2
							c-0.2-0.1-0.3-0.2-0.4-0.2c0.4,0.8,0.9,1.1,1.7,1.3c0,0,0.1,0,0.1,0c0,0,0,0,0,0c0.2,0,0.4,0.1,0.5,0.1c0.2,0,0.3,0,0.5,0.1
							c0,0,0.1,0,0.1,0.1c0,0.1,0,0.1-0.1,0.1c-0.2,0-0.4,0-0.5-0.1c-0.1,0-0.2,0-0.3-0.1c-0.1,0-0.1,0-0.2,0c-0.5,0-0.8,0.5-0.8,1
							c0,0,0,0,0,0c0.2-0.2,0.3-0.3,0.5-0.4c0.2-0.1,0.5-0.2,0.7-0.2c0,0,0.1,0,0,0.1c0,0.1,0,0.1-0.1,0c-0.2,0-0.4,0-0.6,0.1
							c-0.2,0.1-0.4,0.3-0.6,0.5c0,0.3-0.1,0.6-0.4,0.8c0.1,0.1,0.2,0.1,0.3,0.1c0.2-0.1,0.3-0.2,0.5-0.2c0.2-0.1,0.4-0.1,0.6-0.1
							c0,0,0.1,0,0.1,0.1s0,0.1-0.1,0.1c-0.2,0-0.4,0.1-0.5,0.1c-0.1,0.1-0.3,0.1-0.4,0.2c0.4,0.1,0.9,0,1.3-0.2
							c0.1,0,0.2-0.1,0.3-0.1c0.1-0.1,0.2-0.1,0.3-0.2c0.1-0.1,0.3-0.1,0.4-0.1c0,0,0.1,0,0.1,0.1c0,0.1,0,0.1-0.1,0.1
							c-0.2,0-0.3,0.1-0.4,0.2c0,0-0.1,0.1-0.2,0.2c-0.1,0-0.1,0.1-0.2,0.1c-0.2,0.2-0.3,0.4-0.4,0.6c-0.1,0.1-0.1,0.3-0.1,0.4
							c0.1-0.2,0.2-0.4,0.4-0.6c0.2-0.2,0.4-0.4,0.7-0.5c0,0,0.1,0,0.1,0c0,0.1,0,0.1,0,0.1c-0.3,0.1-0.5,0.3-0.6,0.5
							c-0.2,0.2-0.3,0.4-0.4,0.7c-0.1,0.1,0,0-0.1,0.2c0.2-0.2,0.4-0.5,0.6-0.6c0.3-0.2,0.6-0.3,0.8-0.3c0,0,0.1,0,0.1,0.1
							s0,0.1-0.1,0.1c-0.2,0-0.5,0.1-0.7,0.3c-0.2,0.2-0.5,0.5-0.7,0.7c0.4,0,0.7-0.1,1.1-0.2c0.2-0.1,0.4-0.3,0.5-0.3
							c0,0,0.1-0.1,0.1-0.1c0.1-0.1,0.1-0.1,0.2-0.2c0,0,0,0,0.1,0c0,0,0,0.1,0,0.1c-0.1,0.1-0.1,0.1-0.2,0.2
							c-0.1,0.1-0.1,0.1-0.2,0.2c0,0,0,0,0,0c-0.1,0.1-0.3,0.3-0.3,0.5c-0.1,0.4,0,0.7-0.2,1.1c0.1-0.1,0.3-0.2,0.3-0.3
							c0.1-0.1,0.2-0.3,0.2-0.5c0.1-0.2,0.2-0.4,0.3-0.5c0.1-0.2,0.3-0.3,0.5-0.4c0,0,0.1,0,0.1,0c0,0.1,0,0.1,0,0.1
							c-0.2,0.1-0.3,0.2-0.5,0.3c-0.1,0.1-0.2,0.3-0.3,0.5c-0.1,0.2-0.1,0.4-0.3,0.5c-0.1,0.1-0.2,0.2-0.3,0.3c0.1,0,0.2,0,0.2,0
							c0.2,0,0.4-0.1,0.6-0.3c0.1-0.1,0.2-0.2,0.3-0.4c0,0,0-0.1,0.1,0s0,0.1,0,0.1c-0.1,0.2-0.2,0.3-0.3,0.5
							c-0.1,0.1-0.2,0.2-0.4,0.2c0.3,0,0.6-0.1,0.9-0.2c0.1-0.1,0.2-0.3,0.2-0.4c0.1-0.1,0.1-0.2,0.2-0.3c0.1-0.1,0.2-0.2,0.3-0.3
							c0,0,0.1,0,0.1,0c0,0.1,0,0.1,0,0.1c-0.1,0-0.2,0.1-0.3,0.2c-0.1,0.1-0.1,0.2-0.2,0.3c0,0.1-0.1,0.5-0.1,0.6
							c0,0.4,0,0.8,0.2,1.2c0.1-0.1,0.2-0.3,0.3-0.4c0,0,0,0,0,0c0-0.2,0-0.4,0.1-0.7c0-0.2,0-0.4,0-0.6c0,0,0-0.1,0.1-0.1
							c0.1,0,0.1,0,0.1,0.1c0,0.2,0,0.4,0,0.7c0,0.2,0,0.4,0,0.5c0.1-0.1,0.1-0.1,0.1-0.2c0.1-0.2,0.1-0.3,0.1-0.5
							c0-0.2,0-0.3,0-0.5c0,0,0-0.1,0-0.1c0.1,0,0.1,0,0.1,0c0,0.2,0.1,0.3,0,0.5c0,0.1,0,0.3-0.1,0.4c0.1-0.1,0.2-0.2,0.3-0.3
							c0-0.1,0-0.3,0-0.4c0-0.1,0-0.3,0-0.4c0,0,0-0.1,0.1-0.1s0.1,0.1,0.1,0.1c0,0.1,0,0.2,0,0.3c0,0.2,0,0.3,0,0.5
							c0,0.2,0.1,0.4,0.3,0.4c0.2,0.1,0.3,0.3,0.4,0.5c0-0.3,0-0.6,0-0.8c0-0.3-0.1-0.5-0.3-0.7c0,0,0-0.1,0-0.1c0.1,0,0.1,0,0.1,0
							c0.1,0.2,0.2,0.5,0.3,0.8c0,0.3,0,0.6,0,1c0.2-0.2,0.7-0.5,0.7-1.2c0-0.1,0-0.1-0.1-0.1c0,0,0-0.1,0-0.1c0.1,0,0.1,0,0.1,0
							c0,0.1,0.1,0.1,0.1,0.2c0,0,0,0.1,0,0.1c0,0,0.1-0.1,0.1-0.1c0,0,0.1,0.1,0.2,0.1c0-0.1-0.1-0.2-0.1-0.3c0-0.2,0-0.3,0-0.5
							c0,0,0-0.1,0.1-0.1c0.1,0,0.1,0,0.1,0.1c0,0.1,0,0.3,0,0.5c0,0.2,0.1,0.3,0.2,0.5c0,0,0,0,0,0c0,0,0.1,0.1,0.1,0.1
							c0-0.2-0.1-0.3-0.1-0.5c0-0.2,0-0.5,0-0.7c0,0,0-0.1,0.1-0.1s0.1,0,0.1,0.1c0,0.2,0,0.4,0,0.6c0,0.2,0.1,0.4,0.1,0.6
							c0,0,0,0,0,0c0.1,0.1,0.2,0.2,0.3,0.4c0.1-0.4,0.1-0.8,0.1-1.2c0-0.1-0.2-0.4-0.2-0.6c-0.1-0.1-0.1-0.2-0.2-0.3
							c-0.1-0.1-0.2-0.2-0.3-0.2c0,0-0.1,0,0-0.1c0-0.1,0.1,0,0.1,0c0.1,0,0.2,0.1,0.3,0.2c0.1,0.1,0.2,0.2,0.2,0.3
							c0.1,0,0.2,0.3,0.3,0.4c0.3,0.1,0.6,0.2,0.9,0.2c-0.2,0-0.3-0.1-0.4-0.2c-0.2-0.1-0.3-0.3-0.4-0.4c0,0,0-0.1,0-0.1
							c0.1,0,0.1,0,0.1,0c0.1,0.2,0.2,0.3,0.3,0.4c0.2,0.1,0.6,0.2,0.8,0.2c-0.1-0.1-0.2-0.1-0.3-0.2c-0.1-0.1-0.2-0.3-0.3-0.5
							c-0.1-0.2-0.2-0.3-0.3-0.5c-0.1-0.1-0.3-0.2-0.5-0.3c0,0-0.1,0,0-0.1c0-0.1,0.1,0,0.1,0c0.2,0.1,0.4,0.2,0.5,0.3
							c0.2,0.1,0.3,0.3,0.4,0.5c0.1,0.2,0.2,0.3,0.3,0.4c0.1,0.1,0.2,0.2,0.4,0.3c-0.2-0.4-0.2-0.7-0.3-1.1
							c-0.1-0.3-0.5-0.5-0.4-0.6c0.1-0.1,0.3,0.2,0.5,0.2c0.4,0.1,0.7,0.2,1.1,0.1c-0.3-0.3-0.5-0.5-0.8-0.7
							c-0.2-0.2-0.5-0.3-0.7-0.2c0,0-0.1,0-0.1,0c0-0.1,0-0.1,0-0.1c0.3-0.1,0.5,0,0.8,0.2c0.2,0.2,0.4,0.3,0.6,0.6
							c0-0.1,0,0-0.1-0.1c-0.1-0.2-0.3-0.5-0.5-0.7c-0.2-0.2-0.4-0.4-0.7-0.5c0,0-0.1,0,0-0.1c0-0.1,0.1,0,0.1,0
							c0.3,0.1,0.5,0.3,0.7,0.5c0.2,0.2,0.3,0.4,0.4,0.6c0-0.2-0.1-0.3-0.2-0.4c-0.1-0.2-0.2-0.4-0.4-0.6c-0.1-0.1-0.4-0.3-0.4-0.3
							c-0.1,0-0.1,0-0.1,0c-0.1,0-0.2-0.1-0.3-0.1c0,0-0.1,0-0.1-0.1c0-0.1,0-0.1,0.1-0.1c0.1,0,0.2,0,0.4,0.1
							c0.1,0,0.1,0.1,0.2,0.1c0.1,0,0.3,0.1,0.4,0.1c0.4,0.1,0.9,0.2,1.3,0.1c-0.1-0.1-0.3-0.1-0.5-0.2c-0.2-0.1-0.3-0.1-0.5-0.1
							c0,0-0.1,0-0.1-0.1c0-0.1,0-0.1,0.1-0.1c0.2,0,0.4,0,0.6,0.1c0.2,0.1,0.4,0.1,0.5,0.2c0.1,0,0.2,0,0.3-0.1
							c-0.3-0.2-0.4-0.4-0.4-0.7l0,0c-0.2-0.2-0.4-0.4-0.7-0.5c-0.2-0.1-0.4-0.2-0.6-0.1c0,0-0.1,0-0.1,0c0-0.1,0-0.1,0-0.1
							c0.2-0.1,0.5,0,0.7,0.1c0.2,0.1,0.4,0.2,0.6,0.4c0,0,0,0,0,0c-0.1-0.5-0.4-0.9-0.9-0.9c-0.2,0-0.4,0.1-0.4,0
							c0-0.1,0.2-0.1,0.5-0.2c0.8-0.3,1.3-0.6,1.6-1.4c-0.1,0.1-0.2,0.2-0.4,0.3c-0.2,0.1-0.4,0.2-0.7,0.3c-0.2,0-0.3,0.1-0.4,0.2
							c-0.1,0.1-0.2,0.2-0.3,0.3c0,0,0,0.1-0.1,0s0-0.1,0-0.1c0.1-0.1,0.2-0.2,0.3-0.3c0.1-0.1,0.3-0.1,0.5-0.2
							c0.3-0.1,0.5-0.2,0.7-0.3c0.1-0.1,0.2-0.1,0.3-0.2c-0.3,0-0.6,0-0.9,0c-0.3,0.1-0.6,0.2-0.8,0.3c-0.2,0.1-0.4,0.3-0.4,0.5
							c0,0,0,0.1-0.1,0.1c-0.1,0-0.1,0-0.1-0.1c0-0.2,0.2-0.4,0.4-0.6c0.1-0.1,0.3-0.2,0.5-0.2c-0.1,0-0.1,0-0.2,0
							c-0.2,0-0.2-0.1,0-0.2c0.2-0.1,0.4-0.3,0.5-0.4c0.5-0.7,0.8-1.4,0.8-2.3c-0.1,0.1-0.1,0.3-0.2,0.4c-0.1,0.1-0.2,0.3-0.4,0.3
							c-0.1,0.3-0.2,0.6-0.3,0.8c-0.2,0.2-0.4,0.4-0.7,0.5c-0.1,0-0.1-0.1-0.1-0.1c0.3-0.2,0.4-0.5,0.5-0.7c0.1-0.3,0.1-0.5,0.1-0.8
							c0,0,0-0.1,0.1-0.1c0.1,0,0.1,0,0.1,0.1c0,0.3,0,0.5-0.1,0.8c-0.1,0.2-0.2,0.3-0.3,0.5c0.1-0.1,0.3-0.2,0.4-0.3
							c0.2-0.2,0.3-0.5,0.3-0.8c0,0,0,0,0-0.1c0.2-0.1,0.3-0.2,0.4-0.3c0.1-0.1,0.2-0.3,0.2-0.5c-0.3,0.1-0.6,0.1-0.9,0.2
							C910.7,307.7,910.4,307.8,910.1,308L910.1,308z"/>
						<path class="st41" d="M909.9,307.7c-1.4-0.1-2.7-0.1-4.1-0.1c-1.4,0.1-2.7,0.2-4.1,0.4c0,0,0,0.1,0,0.1c0,0.1,0.1,0.1,0.2,0
							c1.3-0.2,2.6-0.3,3.9-0.3c1.4-0.1,2.7-0.1,4.1,0C910,307.8,910,307.6,909.9,307.7L909.9,307.7z"/>
						<path class="st41" d="M901.7,307.8c1.4-0.2,2.7-0.3,4.1-0.4c1.4-0.1,2.7,0,4.1,0.1l0.1-0.3c0,0-0.1,0-0.1,0
							c-0.1,0-0.3-0.1-0.3-0.2c0-0.1,0.1-0.2,0.2-0.3c0.1,0,0.2,0.1,0.2,0.1l0.1-0.3c-1.5-0.1-2.9-0.1-4.4-0.1
							c-1.5,0.1-2.9,0.2-4.4,0.4l0.1,0.3c0-0.1,0.1-0.1,0.2-0.1c0.1,0,0.3,0.1,0.3,0.2c0,0.1-0.1,0.2-0.2,0.3c0,0-0.1,0-0.1,0
							L901.7,307.8L901.7,307.8L901.7,307.8z M907.9,306.8c-0.1,0-0.2,0.1-0.2,0.3c0,0.1,0.1,0.2,0.3,0.2c0.1,0,0.2-0.1,0.2-0.3
							C908.1,306.9,908,306.8,907.9,306.8z M907.9,306.9c-0.1,0-0.1,0.1-0.1,0.1c0,0.1,0.1,0.1,0.1,0.1c0.1,0,0.1-0.1,0.1-0.1
							C908,306.9,907.9,306.9,907.9,306.9z M905.7,306.8c-0.1,0-0.2,0.1-0.2,0.3c0,0.1,0.1,0.2,0.3,0.2s0.2-0.1,0.2-0.3
							C905.9,306.9,905.8,306.8,905.7,306.8z M905.7,306.9c-0.1,0-0.1,0.1-0.1,0.1s0.1,0.1,0.1,0.1c0.1,0,0.1-0.1,0.1-0.1
							C905.8,307,905.8,306.9,905.7,306.9z M903.6,306.9c-0.1,0-0.2,0.1-0.2,0.3c0,0.1,0.1,0.2,0.3,0.2c0.1,0,0.2-0.1,0.2-0.3
							C903.8,307,903.7,306.9,903.6,306.9z M903.6,307c-0.1,0-0.1,0.1-0.1,0.1s0.1,0.1,0.1,0.1c0.1,0,0.1-0.1,0.1-0.1
							C903.7,307.1,903.6,307,903.6,307z"/>
					</g>
					<g>
						<path d="M905.7,305.3c0-0.1-0.1-0.3-0.2-0.3c-0.1-0.1-0.2-0.1-0.4-0.2c-0.1,0-0.1-0.1,0-0.1c0.1,0,0.2-0.1,0.3-0.3
							c0.1-0.1,0.1-0.3,0.2-0.5c0-0.1,0.1-0.1,0.1,0c0,0.2,0.1,0.3,0.2,0.4c0.1,0.1,0.3,0.2,0.4,0.3c0.1,0,0.1,0.1,0,0.1
							c-0.1,0-0.2,0.1-0.3,0.2c-0.1,0.1-0.2,0.3-0.2,0.4C905.9,305.4,905.7,305.4,905.7,305.3L905.7,305.3z M905.8,305.1
							c0-0.1,0.1-0.2,0.2-0.3c0.1-0.1,0.1-0.1,0.2-0.2c-0.1-0.1-0.2-0.1-0.3-0.2c-0.1-0.1-0.1-0.1-0.2-0.2c0,0.1-0.1,0.2-0.1,0.3
							c-0.1,0.1-0.1,0.2-0.2,0.2c0.1,0,0.2,0.1,0.3,0.2C905.7,304.9,905.7,305,905.8,305.1z"/>
						<path d="M907.8,315.1l-1,0.4c0,0-0.1,0-0.1,0c0-0.1,0-0.1,0-0.1l1-0.4C907.8,314.9,907.8,314.9,907.8,315.1
							C907.8,315.1,907.8,315.1,907.8,315.1z M907.9,314.5l-1.2,0.7c0,0-0.1,0-0.1,0c0-0.1,0-0.1,0-0.1l1.2-0.7c0,0,0.1,0,0.1,0
							S907.9,314.4,907.9,314.5z M904.2,314.5l1.2,0.6c0,0,0.1,0,0,0.1s-0.1,0-0.1,0l-1.2-0.6c0,0-0.1,0,0-0.1
							C904.1,314.4,904.2,314.4,904.2,314.5z M904.3,315.1l1,0.4c0,0,0.1,0,0,0.1c0,0.1-0.1,0.1-0.1,0l-1-0.4
							C904.2,315.2,904.2,315.2,904.3,315.1C904.3,315.1,904.3,315.1,904.3,315.1L904.3,315.1z M904.8,315.9c0.3,0.1,0.5,0.1,0.7,0
							c0.2,0,0.3-0.1,0.4-0.3l0-1c-0.2,0-0.4,0-0.6-0.1c-0.2-0.1-0.3-0.2-0.4-0.3c-0.1-0.2-0.1-0.5,0-0.6c0,0,0-0.1,0.1-0.1
							s0.1,0.1,0.1,0.1c0,0.2-0.1,0.4,0,0.6c0.1,0.1,0.1,0.2,0.3,0.3c0.2,0,0.4,0.1,0.6,0.1c0.2,0,0.4,0,0.6-0.1
							c0.2-0.1,0.3-0.1,0.4-0.3c0.1-0.1,0.1-0.2,0.1-0.4c0-0.1-0.1-0.1-0.1-0.2c-0.1,0-0.2-0.1-0.3-0.1c-0.1,0-0.2,0-0.3,0
							c0,0-0.1,0-0.2,0c0,0-0.1,0-0.1-0.1c0-0.1,0-0.1,0.1-0.1c0,0,0.1,0,0.1,0c0.1,0,0.2,0,0.3,0c0.1,0,0.2,0,0.3,0.1
							c0.1,0.1,0.1,0.1,0.2,0.3c0,0.2,0,0.3-0.1,0.5c-0.1,0.1-0.3,0.2-0.4,0.3c-0.2,0.1-0.4,0.1-0.5,0.1l0,0.9c0,0,0,0,0,0
							c0.1,0.2,0.2,0.2,0.4,0.3c0.2,0,0.4,0,0.7-0.1c0,0,0.1,0,0.1,0c0,0.1,0,0.1-0.1,0.1c-0.3,0.1-0.6,0.1-0.8,0.1
							c-0.2,0-0.3-0.1-0.4-0.2c-0.1,0.1-0.2,0.2-0.4,0.3c-0.2,0-0.5,0-0.8,0C904.7,316.1,904.7,316.1,904.8,315.9
							C904.7,315.9,904.8,315.9,904.8,315.9L904.8,315.9z M905.5,316.3l0.8,0c0,0,0.1,0,0.1,0.1c0,0.1,0,0.1-0.1,0.1l-0.8,0
							C905.5,316.5,905.5,316.5,905.5,316.3C905.5,316.3,905.5,316.3,905.5,316.3z"/>
						<path d="M906.5,310.2c0.3-0.3,0.6-0.5,0.8-0.6c0.3-0.2,0.5-0.2,0.7-0.2c0,0,0.1,0,0.1,0.1c0,0.1,0,0.1-0.1,0.1
							c-0.2,0-0.4,0.1-0.6,0.2c-0.2,0.1-0.5,0.3-0.8,0.6c0,0-0.1,0-0.1,0C906.4,310.3,906.5,310.2,906.5,310.2L906.5,310.2z
							 M905.3,310.4c-0.3-0.2-0.6-0.4-0.9-0.6c-0.3-0.1-0.5-0.2-0.7-0.2c0,0-0.1,0-0.1-0.1c0-0.1,0-0.1,0.1-0.1c0.2,0,0.5,0,0.8,0.2
							c0.3,0.1,0.6,0.4,0.9,0.6c0,0,0.1,0,0,0.1C905.3,310.4,905.3,310.4,905.3,310.4L905.3,310.4z M904.9,312.4
							c0.1-0.2,0.2-0.3,0.3-0.4c0.1-0.1,0.2-0.2,0.3-0.3c0,0,0.1,0,0.1,0c0.1,0.1,0,0.1,0,0.1c-0.1,0.1-0.2,0.2-0.3,0.3
							c-0.1,0.1-0.2,0.3-0.2,0.4C905.1,312.4,905,312.5,904.9,312.4C904.9,312.4,904.9,312.4,904.9,312.4z M905.5,308.9
							c0.1,0.1,0.2,0.3,0.2,0.4c0.1,0.2,0.1,0.3,0.1,0.5c0,0.2,0,0.3,0,0.5c0,0.2-0.1,0.3-0.2,0.5c-0.1,0.1-0.2,0.2-0.3,0.2
							c-0.1,0-0.2,0-0.3,0c0.1,0.2,0.1,0.4,0,0.6c0,0-0.1,0.1-0.1,0c-0.1,0-0.2-0.1-0.3-0.1s-0.2-0.1-0.3-0.1l0,0
							c-0.2-0.1-0.4-0.1-0.5-0.2c-0.1-0.1-0.2-0.1-0.3-0.2l0,0c-0.1-0.1-0.2-0.2-0.2-0.3c0-0.1,0-0.2-0.1-0.3
							c-0.1-0.1-0.3-0.1-0.4-0.2c-0.1-0.1-0.2-0.2-0.3-0.2c0,0-0.1-0.1,0-0.1c0.1-0.1,0.1,0,0.1,0c0.1,0.1,0.2,0.2,0.3,0.2
							c0.1,0.1,0.3,0.1,0.4,0.2c0.2,0,0.5,0.1,0.8,0.2c0.2,0.1,0.4,0.2,0.7,0.4c0,0,0,0,0.1,0c0,0,0,0,0.1,0c0.1,0,0.2,0,0.3,0
							c0.1,0,0.2-0.1,0.2-0.2c0.1-0.1,0.1-0.3,0.2-0.4c0-0.2,0-0.3,0-0.5l0,0c0-0.2,0-0.4-0.1-0.5c-0.1-0.1-0.1-0.3-0.2-0.4
							c0,0,0-0.1,0-0.1C905.5,308.9,905.5,308.9,905.5,308.9L905.5,308.9z M904.9,311c-0.2-0.1-0.4-0.3-0.6-0.4
							c-0.2-0.1-0.4-0.1-0.6-0.2c0,0.1,0,0.2,0,0.3c0,0.1,0.1,0.2,0.2,0.3l0,0c0.1,0.1,0.2,0.1,0.3,0.2c0.1,0.1,0.3,0.1,0.5,0.2l0,0
							c0.1,0,0.2,0.1,0.3,0.1c0.1,0,0.1,0.1,0.2,0.1C905,311.4,905,311.2,904.9,311C904.9,311,904.9,311,904.9,311L904.9,311z
							 M906.4,309c-0.1,0.1-0.1,0.3-0.2,0.4c0,0.2-0.1,0.3-0.1,0.5l0,0c0,0.2,0,0.3,0,0.5c0,0.1,0.1,0.3,0.2,0.4
							c0.1,0.1,0.2,0.1,0.3,0.2c0.1,0,0.2,0,0.3,0c0,0,0,0,0,0c0,0,0,0,0.1,0c0.2-0.2,0.4-0.3,0.6-0.4c0.2-0.1,0.5-0.2,0.7-0.2
							c0.1-0.1,0.3-0.2,0.4-0.3c0.1-0.1,0.2-0.2,0.3-0.2c0,0,0.1-0.1,0.1,0c0.1,0,0,0.1,0,0.1c-0.1,0.1-0.2,0.2-0.3,0.3
							c-0.1,0.1-0.2,0.2-0.4,0.2c0,0.1,0,0.2,0,0.3c0,0.1-0.1,0.2-0.2,0.3l0,0c-0.1,0.1-0.2,0.2-0.3,0.3c-0.1,0.1-0.3,0.2-0.5,0.2
							l0,0c-0.1,0-0.2,0.1-0.3,0.1c-0.1,0-0.2,0.1-0.3,0.1c0,0-0.1,0-0.1,0c-0.1-0.2-0.1-0.4,0-0.6c-0.1,0-0.2,0-0.3,0
							c-0.1,0-0.2-0.1-0.3-0.2c-0.1-0.1-0.2-0.3-0.2-0.5c0-0.2,0-0.3,0-0.5c0-0.2,0-0.4,0.1-0.6c0-0.2,0.1-0.3,0.2-0.4
							C906.3,308.9,906.3,308.8,906.4,309C906.4,308.9,906.4,308.9,906.4,309L906.4,309z M908.3,310.3c-0.2,0-0.4,0.1-0.6,0.2
							c-0.2,0.1-0.4,0.2-0.6,0.4c0,0,0,0,0,0.1c0,0.2-0.1,0.4-0.1,0.5c0.1,0,0.1-0.1,0.2-0.1c0.1,0,0.2-0.1,0.3-0.1l0,0
							c0.2-0.1,0.3-0.1,0.4-0.2c0.1-0.1,0.2-0.1,0.3-0.2l0,0c0.1-0.1,0.1-0.2,0.1-0.3C908.3,310.5,908.3,310.4,908.3,310.3
							L908.3,310.3z"/>
						<path d="M907.6,310.4c-0.2,0-0.4,0.2-0.4,0.4c0,0.2,0.2,0.4,0.4,0.4c0.2,0,0.4-0.2,0.4-0.4
							C908.1,310.6,907.9,310.4,907.6,310.4z M907.7,310.6c-0.2,0-0.3,0.1-0.3,0.3s0.1,0.3,0.3,0.3s0.3-0.1,0.3-0.3
							S907.8,310.6,907.7,310.6z M907.7,310.7c-0.1,0-0.2,0.1-0.2,0.2c0,0.1,0.1,0.2,0.2,0.2c0.1,0,0.2-0.1,0.2-0.2
							C907.8,310.8,907.8,310.7,907.7,310.7z M904.2,310.6c0.2,0,0.4,0.2,0.5,0.4c0,0.2-0.2,0.4-0.4,0.4c-0.2,0-0.4-0.2-0.4-0.4
							C903.8,310.8,904,310.6,904.2,310.6z M904.2,310.7c0.2,0,0.3,0.1,0.3,0.3c0,0.2-0.1,0.3-0.3,0.3s-0.3-0.1-0.3-0.3
							C904,310.9,904.1,310.7,904.2,310.7z M904.3,310.8c0.1,0,0.2,0.1,0.2,0.2c0,0.1-0.1,0.2-0.2,0.2c-0.1,0-0.2-0.1-0.2-0.2
							C904.1,310.9,904.2,310.8,904.3,310.8z"/>
					</g>
				</g>
			</g>
		</g>
	</g>
</g>
</svg>
