<?xml version="1.0" encoding="utf-8"?>
<!-- Generator: Adobe Illustrator 21.0.0, SVG Export Plug-In . SVG Version: 6.00 Build 0)  -->
<svg version="1.1" id="Ebene_1" xmlns="http://www.w3.org/2000/svg" xmlns:xlink="http://www.w3.org/1999/xlink" x="0px" y="0px"
	 viewBox="0 0 2446 3663" style="enable-background:new 0 0 2446 3663;" xml:space="preserve">
<style type="text/css">
	.st0{fill:#87D4A2;}
	.st1{fill:#52956E;}
	.st2{fill:#9D7766;}
	.st3{fill:#AE8775;}
	.st4{fill:#A47A69;}
	.st5{fill:#A67C6B;}
	.st6{fill:#AE8673;}
	.st7{fill:#6FBF88;}
	.st8{fill:#A07A69;}
	.st9{fill:#A67D6C;}
	.st10{fill:#A37968;}
	.st11{fill:#B78D78;}
	.st12{fill:#A9806F;}
	.st13{fill:#AB8270;}
	.st14{fill:#9F7665;}
	.st15{fill:#B58C77;}
	.st16{fill:#BC927D;}
	.st17{fill:#BD947E;}
	.st18{fill:#B18773;}
	.st19{fill:#C09781;}
	.st20{fill:#C29982;}
	.st21{fill:#A27867;}
	.st22{fill:#AC8472;}
	.st23{fill:#B98F7A;}
	.st24{fill:#C49C84;}
	.st25{fill:#C19881;}
	.st26{fill:#BB917C;}
	.st27{opacity:0.3;fill:#2B2A29;enable-background:new    ;}
	.st28{fill:#B2B6B7;}
	.st29{fill:#FFFFFF;}
	.st30{fill:#CF142B;stroke:#6D6D6C;stroke-width:2;stroke-miterlimit:10;}
	.st31{fill:#FFFFFF;stroke:#6D6D6C;stroke-width:2;stroke-miterlimit:10;}
	.st32{fill:#E60D2E;}
	.st33{fill:#96877D;}
	.st34{fill:#CCCCCC;}
	.st35{fill:#D0D0D0;}
	.st36{fill:none;stroke:#96877D;stroke-width:0.514;}
	.st37{fill:#96877D;stroke:#000000;stroke-width:0.203;}
	.st38{fill:#7C7B7B;}
</style>
<title>EmptyIslandShadow</title>
<path class="st0" d="M299,767L0,884l199,67L95,999l292,77l191,132l199-62l91,31h124l60,31l240,35l270,7l386-100l112,19l243-122
	l143-115l-63-104l-312-8l-67-39l-297-32l-130-61l-312-11l-98,45l-88-15l-92,6l-88,13L299,767z"/>
<polygon class="st1" points="0,884 32,911 177.1,961.1 199,951 "/>
<polygon class="st1" points="99,999 114,1017 383,1089 407,1089 387,1076 "/>
<polygon class="st2" points="45.9,915.8 79,955 148,974.5 177,961 "/>
<polygon class="st3" points="128,1036 398,1108 461,1142 586,1227 578,1208 473.6,1135.3 407,1089 111,1017 "/>
<polygon class="st4" points="414,1114.7 443,1233 553,1273 506,1225 483.5,1155.3 "/>
<polygon class="st5" points="484,1157 586,1227 644,1217 724,1366 506,1227 "/>
<polygon class="st6" points="506,1225 724,1364 749,1424 443,1233 553,1273 "/>
<polygon class="st3" points="586,1227 777,1194 777,1165 578,1208 "/>
<polygon class="st1" points="578,1208 732.6,1174.6 777,1165 "/>
<polygon class="st6" points="749,1424 841,1504 952,1581 1128,1635 1233,1704 1333,1624 1351,1663 1494,1542 1590,1486 1657,1457 
	1807,1366 1939,1275 1983,1196 1921,1186 1568,1267 1389,1261 1279,1273 1059,1227 987,1215 867,1213 791,1186 777,1194 644,1217 
	"/>
<polygon class="st7" points="777,1165 861,1194 987,1194 1059,1227 1261,1250 1336,1250 1056,1208 992,1177 868,1177 777,1146 
	578,1208 777,1146 "/>
<polygon class="st4" points="749,1171.1 578,1208 777,1146 777,1165 861,1194 987,1194 1059,1227 867,1216 777,1194 "/>
<polygon class="st8" points="1319.7,1247.6 1352,1244.6 1562,1250 1934,1165 2045,1186 2029,1198 1938.5,1187.8 1568,1267 
	1389,1261 "/>
<polygon class="st7" points="2060,1169 2045,1186 1934,1165 1562,1250 1948,1146 "/>
<polygon class="st4" points="1059,1227 1279,1273 1389,1261 1320,1250 "/>
<polygon class="st4" points="1313.5,1267 1429.1,1262.3 1352,1245 1320,1250 "/>
<polyline class="st0" points="1352,1245 1320,1250 1292,1243 1336,1216 "/>
<polygon class="st5" points="742.6,1391.8 813.1,1479.3 940.3,1535.1 818,1390.1 739.7,1365.9 "/>
<polygon class="st5" points="1939,1187 1887,1245 1939,1227 1983,1196 "/>
<polygon class="st5" points="1983,1196 2001,1187 1935,1187 "/>
<polygon class="st5" points="907,1256 1009,1267 1070,1400 1178,1559 1062,1505 936,1417 943,1340 "/>
<polygon class="st7" points="777,1165 749,1169 578,1208 777,1146 "/>
<polygon class="st9" points="644,1216 733.1,1201.3 770,1301 724,1364 "/>
<polygon class="st10" points="724,1364 749,1424 770,1301 "/>
<polygon class="st11" points="733,1201 777,1194 784,1283 770,1301 "/>
<polygon class="st10" points="644,1216 597.6,1225 724,1364 "/>
<polygon class="st12" points="1128,1635 957,1581 749,1424 770,1301 833,1435 "/>
<polygon class="st13" points="875,1334 833,1435 770,1301 784,1283 "/>
<polygon class="st9" points="784,1283 875,1334 893,1308 885.8,1216 791,1186 777,1194 "/>
<polygon class="st14" points="893.7,1345.6 963.8,1373 1000,1335.7 902.1,1216 886,1216 "/>
<polygon class="st15" points="835,1435 886,1408 920,1435 886,1470.9 "/>
<polygon class="st16" points="835,1435 875,1334 886,1408 "/>
<polygon class="st17" points="1128,1359 1216.8,1260 1279,1273 1371.3,1261.5 1336,1301 1144,1461 "/>
<polygon class="st18" points="1077.7,1233 1128,1359 1217,1260 "/>
<polygon class="st16" points="1380,1273 1455,1359 1172,1535 "/>
<polygon class="st19" points="1455,1359 1272,1545 1172,1535 "/>
<polygon class="st20" points="1272,1545 1320,1535 1470,1424 1455,1359 "/>
<polygon class="st21" points="1063,1504 1172,1535 1147,1461 "/>
<polygon class="st22" points="1063,1580 1063,1504 1172,1535 1172,1616 1233,1704 1128,1635 "/>
<polygon class="st23" points="1496.6,1267 1455,1359 1470,1424 1476,1384 1602,1351 1642.1,1250 1568,1267 "/>
<polygon class="st5" points="1470,1424 1549,1408 1634,1390 1663,1362 1663,1337 1634,1337 1602,1351 1558.1,1362.5 1476,1384 "/>
<polygon class="st24" points="1811,1366 1663,1363 1663,1337 1634,1337 1612.5,1346.4 1642,1250 1682.4,1245 1921,1186 1983,1196 
	1935,1275 "/>
<polygon class="st17" points="1634,1388.9 1657,1457 1811,1365.9 1663,1363 "/>
<polygon class="st6" points="1172,1604 1213.2,1675.4 1256,1665 1278,1640 1345,1584 1495,1488 1584,1435 1470,1424 1286,1566 "/>
<polygon class="st25" points="1217,1675 1233,1704 1336,1624 1497,1522 1497,1488 1278,1635 "/>
<polygon class="st26" points="1336,1624 1352,1663 1540,1504 1657,1457 1497,1522 "/>
<ellipse class="st27" cx="1224" cy="3382.1" rx="644.5" ry="50"/>
<ellipse class="st28" cx="574" cy="194.5" rx="38" ry="7.5"/>
<ellipse class="st27" cx="907" cy="967.3" rx="268" ry="20.8"/>
<rect x="808.4" y="205" class="st29" width="65.1" height="439"/>
<rect x="613" y="393.1" class="st29" width="602.5" height="62.7"/>
<rect x="609" y="205" class="st30" width="624" height="440.5"/>
<rect x="609" y="205" class="st31" width="312" height="440.5"/>
<g>
	<path class="st32" d="M624.4,265.8v33.4h31.5c0,5.6,5.3,11.1,10.5,11.1v33.4h31.5v-33.4c5.3,0,10.5-5.6,10.5-11.1H740v-33.4h-31.5
		c0-5.6-5.3-11.1-10.5-11.1v-33.4h-31.5v33.4c-5.3,0-10.5,5.6-10.5,11.1C655.9,265.8,624.4,265.8,624.4,265.8z"/>
	<path class="st33" d="M626.5,268V297H658c0,5.6,5.3,11.1,10.5,11.1v33.4h27.3v-33.4c5.3,0,10.5-5.6,10.5-11.1h31.5V268h-31.5
		c0-5.6-5.3-11.1-10.5-11.1v-33.4h-27.3v33.4c-5.3,0-10.5,5.6-10.5,11.1C658,268,626.5,268,626.5,268z"/>
	<path class="st34" d="M627.6,269.1v26.7h31.5c0,5.6,5.3,11.1,10.5,11.1v33.4h25.2V307c5.3,0,10.5-5.6,10.5-11.1h31.5v-26.7h-31.5
		c0-5.6-5.3-11.1-10.5-11.1v-33.4h-25.2V258c-5.3,0-10.5,5.6-10.5,11.1H627.6z"/>
	<g id="vi">
		<path class="st33" d="M667.6,257.6c1.8,2,1.3,5.7-1.1,8.3c-2.5,2.6-6,3.1-7.8,1.2c-1.8-2-1.3-5.7,1.1-8.3
			C662.3,256.2,665.8,255.7,667.6,257.6z"/>
		<path class="st35" d="M658.3,263.5l0.7-0.8l3,1.6l-1.5-3.1l0.7-0.8l3,6.3L658.3,263.5L658.3,263.5z"/>
		<path class="st35" d="M662.8,258.8l0.7-0.8l4.5,4.7l-0.7,0.8L662.8,258.8z"/>
	</g>
	<g transform="rotate(90,105.555,105.557)">
		<g id="vi_1_">
			<path class="st33" d="M705.7,267.1c-1.8,2-5.3,1.4-7.8-1.2c-2.5-2.6-3-6.3-1.1-8.3c1.8-2,5.3-1.4,7.8,1.2
				C707,261.4,707.5,265.1,705.7,267.1z"/>
			<path class="st35" d="M700.1,257.2l0.7,0.8l-1.5,3.1l3-1.6l0.7,0.8l-5.9,3.1L700.1,257.2L700.1,257.2z"/>
			<path class="st35" d="M704.6,262l0.7,0.8l-4.5,4.7l-0.7-0.8L704.6,262z"/>
		</g>
	</g>
	<g transform="rotate(180,105.555,105.557)">
		<g id="vi_2_">
			<path class="st33" d="M696.8,307.4c-1.8-2-1.3-5.7,1.1-8.3c2.5-2.6,6-3.1,7.8-1.2c1.8,2,1.3,5.7-1.1,8.3
				C702.1,308.8,698.6,309.3,696.8,307.4z"/>
			<path class="st35" d="M706,301.5l-0.7,0.8l-3-1.6l1.5,3.1l-0.7,0.8l-3-6.3L706,301.5L706,301.5z"/>
			<path class="st35" d="M701.6,306.2l-0.7,0.8l-4.5-4.7l0.7-0.8L701.6,306.2z"/>
		</g>
	</g>
	<g transform="rotate(270,105.555,105.557)">
		<g id="vi_3_">
			<path class="st33" d="M658.7,297.9c1.8-2,5.3-1.4,7.8,1.2c2.5,2.6,3,6.3,1.1,8.3c-1.8,2-5.3,1.4-7.8-1.2
				C657.4,303.6,656.9,299.9,658.7,297.9z"/>
			<path class="st35" d="M664.3,307.8l-0.7-0.8l1.5-3.1l-3,1.6l-0.7-0.8l5.9-3.1L664.3,307.8L664.3,307.8z"/>
			<path class="st35" d="M659.8,303l-0.7-0.8l4.5-4.7l0.7,0.8L659.8,303z"/>
		</g>
	</g>
	<g>
		<ellipse class="st36" cx="682.2" cy="282.5" rx="22.1" ry="23.4"/>
		<ellipse class="st36" cx="682.2" cy="282.5" rx="16.8" ry="17.8"/>
	</g>
	<g>
		<ellipse cx="673.8" cy="301.4" rx="1.1" ry="1.1"/>
		<ellipse cx="690.6" cy="301.4" rx="1.1" ry="1.1"/>
		<path d="M681.5,301.4v1.2h-1.4c-1.4,0-1.4,1.2,0,1.2h1.4v1.2c0,1.2,1.2,1.3,1.3,0.1l0.1-1.3h1.4c1.4,0,1.4-1.2,0-1.2h-1.4v-1.2
			C682.9,300.3,681.5,300.3,681.5,301.4L681.5,301.4z"/>
		<path d="M661.7,288.3l1.4-0.4l-0.2-0.7c0-0.2-0.1-0.3-0.2-0.3c-0.1-0.1-0.2-0.1-0.4,0l0-0.1l1.2-0.3l0,0.1c-0.1,0-0.2,0.1-0.3,0.1
			s-0.1,0.1-0.1,0.2c0,0.1,0,0.2,0,0.3l0.2,0.7l1.2-0.3c0.2,0,0.3-0.1,0.4-0.1c0,0,0.1-0.1,0.1-0.1c0-0.1,0-0.2,0-0.3l0-0.1l0.1,0
			l0.4,1.7l-0.1,0l0-0.1c0-0.2-0.1-0.3-0.2-0.3c-0.1,0-0.2,0-0.4,0l-2.4,0.6c-0.2,0-0.3,0.1-0.4,0.1c0,0-0.1,0.1-0.1,0.1
			c0,0.1,0,0.2,0,0.3l0,0.1l-0.1,0l-0.7-2.9l0.8-0.2l0,0.1c-0.2,0.1-0.3,0.2-0.3,0.3c-0.1,0.1-0.1,0.2-0.1,0.3s0,0.3,0,0.5
			L661.7,288.3L661.7,288.3z M660.7,281.4c0-0.5,0.2-1,0.6-1.3c0.4-0.4,0.9-0.5,1.4-0.5c0.6,0,1,0.3,1.4,0.7s0.5,0.9,0.5,1.4
			c0,0.5-0.2,1-0.6,1.4c-0.4,0.4-0.9,0.5-1.5,0.5c-0.6,0-1.1-0.3-1.4-0.7C660.8,282.3,660.7,281.9,660.7,281.4L660.7,281.4z
			 M660.9,281.4c0,0.4,0.1,0.7,0.3,0.9c0.3,0.3,0.7,0.4,1.3,0.5c0.6,0,1.1-0.1,1.4-0.3c0.3-0.2,0.4-0.5,0.4-0.8c0-0.4-0.1-0.7-0.4-1
			c-0.3-0.3-0.7-0.4-1.3-0.4c-0.6,0-1.1,0.1-1.5,0.3C661.1,280.7,661,281,660.9,281.4L660.9,281.4z M666.4,274.1l-0.4,1l-2.1,0.6
			c0,0.1-0.1,0.2-0.1,0.2c0,0,0,0,0,0.1c0,0,0,0.1,0,0.1l1,0.4c0.2,0.1,0.4,0.1,0.4,0.1c0.1,0,0.2-0.1,0.2-0.3l0.1-0.1l0.1,0
			l-0.6,1.6l-0.1,0l0.1-0.1c0.1-0.2,0-0.3,0-0.4c0-0.1-0.2-0.1-0.4-0.2l-2.3-0.9c-0.2-0.1-0.4-0.1-0.4-0.1c-0.1,0-0.2,0.1-0.2,0.3
			l-0.1,0.1l-0.1,0l0.5-1.4c0.1-0.4,0.3-0.7,0.4-0.8c0.1-0.2,0.3-0.3,0.5-0.4s0.4-0.1,0.6,0c0.2,0.1,0.4,0.2,0.5,0.5
			c0.1,0.2,0.1,0.5,0.1,0.8l1.3-0.4c0.3-0.1,0.5-0.2,0.6-0.3C666.1,274.4,666.2,274.3,666.4,274.1L666.4,274.1L666.4,274.1z
			 M663.6,276C663.6,276,663.7,276,663.6,276c0-0.1,0.1-0.1,0.1-0.2c0.1-0.4,0.2-0.7,0.1-0.9c-0.1-0.2-0.2-0.4-0.5-0.5
			c-0.2-0.1-0.4-0.1-0.6,0c-0.2,0.1-0.3,0.3-0.4,0.5c0,0.1-0.1,0.3-0.1,0.5L663.6,276L663.6,276z M671.7,262.8l0.7,1l-0.1,0.1
			c-0.2-0.2-0.5-0.3-0.7-0.4c-0.3-0.1-0.6,0-0.9,0.2c-0.4,0.3-0.6,0.7-0.6,1.1c0,0.4,0.1,0.8,0.4,1.2c0.2,0.3,0.4,0.6,0.7,0.8
			c0.3,0.2,0.6,0.3,0.8,0.3c0.3,0,0.5-0.1,0.7-0.2c0.1-0.1,0.2-0.2,0.3-0.3c0.1-0.1,0.2-0.2,0.2-0.4l-0.6-1
			c-0.1-0.2-0.2-0.3-0.2-0.3c-0.1,0-0.1,0-0.2,0s-0.2,0.1-0.3,0.1l-0.1-0.1l1.2-0.8l0.1,0.1l-0.1,0c-0.1,0.1-0.2,0.2-0.2,0.3
			c0,0.1,0.1,0.2,0.2,0.4l0.6,1c-0.1,0.2-0.2,0.4-0.4,0.6s-0.3,0.3-0.5,0.5c-0.6,0.4-1.2,0.5-1.8,0.3c-0.4-0.1-0.8-0.4-1-0.8
			c-0.2-0.3-0.3-0.6-0.3-1c0-0.4,0-0.8,0.2-1.2c0.1-0.3,0.4-0.6,0.7-0.8c0.1-0.1,0.2-0.1,0.3-0.2c0.1,0,0.3-0.1,0.5-0.1
			c0.1,0,0.2,0,0.2-0.1c0,0,0-0.1,0-0.1C671.7,263,671.6,262.9,671.7,262.8L671.7,262.8L671.7,262.8z M677.8,263.2l-1.4,0.4
			l-0.1,0.7c0,0.2,0,0.3,0,0.4c0,0.1,0.1,0.1,0.1,0.1c0.1,0,0.2,0,0.4,0l0,0.1l-1.1,0.3l0-0.1c0.1-0.1,0.2-0.1,0.3-0.2
			c0.1-0.1,0.1-0.3,0.2-0.6l0.5-3.5l0.1,0l2.1,2.9c0.2,0.2,0.3,0.4,0.4,0.4c0.1,0.1,0.2,0.1,0.4,0l0,0.1l-1.4,0.4l0-0.1
			c0.1,0,0.2-0.1,0.3-0.2c0-0.1,0.1-0.1,0-0.2c0-0.1-0.1-0.2-0.2-0.4L677.8,263.2L677.8,263.2z M677.7,263l-1-1.4l-0.2,1.7
			L677.7,263L677.7,263z M684.4,263L684.4,263l-0.3,1.1l-2.9-0.1l0-0.1l0.1,0c0.2,0,0.3,0,0.3-0.2c0-0.1,0.1-0.2,0.1-0.4l0.1-2.6
			c0-0.2,0-0.4-0.1-0.5c-0.1-0.1-0.2-0.1-0.3-0.1l-0.1,0l0-0.1l1.7,0.1l0,0.1c-0.2,0-0.3,0-0.4,0c-0.1,0-0.1,0.1-0.2,0.1
			c0,0.1-0.1,0.2-0.1,0.4l-0.1,2.5c0,0.2,0,0.3,0,0.3c0,0,0.1,0.1,0.1,0.1c0,0,0.2,0,0.4,0l0.3,0c0.3,0,0.5,0,0.6,0
			c0.1,0,0.2-0.1,0.3-0.2C684.2,263.4,684.3,263.3,684.4,263L684.4,263z M689.4,264.5L689.4,264.5l-0.5,1l-2.8-1l0-0.1l0.1,0
			c0.2,0.1,0.3,0,0.4,0c0.1,0,0.1-0.2,0.2-0.4l0.8-2.5c0.1-0.2,0.1-0.4,0.1-0.5c0-0.1-0.1-0.2-0.3-0.2l-0.1,0l0-0.1l1.6,0.6l0,0.1
			c-0.2-0.1-0.3-0.1-0.4-0.1c-0.1,0-0.2,0-0.2,0.1c0,0-0.1,0.2-0.2,0.4l-0.7,2.4c0,0.2-0.1,0.3-0.1,0.3c0,0,0,0.1,0.1,0.1
			s0.2,0.1,0.4,0.2l0.3,0.1c0.3,0.1,0.5,0.1,0.6,0.1c0.1,0,0.2,0,0.4-0.1C689.1,264.8,689.2,264.7,689.4,264.5L689.4,264.5z
			 M693.5,266.7l-1.2-0.9l-0.6,0.4c-0.1,0.1-0.2,0.2-0.3,0.2c0,0,0,0.1,0,0.2c0,0.1,0.1,0.2,0.2,0.3l-0.1,0.1l-1-0.7l0.1-0.1
			c0.1,0.1,0.2,0.1,0.3,0.1c0.1,0,0.3-0.1,0.6-0.3l2.9-1.9l0.1,0.1l-0.7,3.5c-0.1,0.3-0.1,0.5,0,0.6c0,0.1,0.1,0.2,0.2,0.3l-0.1,0.1
			l-1.2-0.9l0.1-0.1c0.1,0.1,0.2,0.1,0.3,0.1c0.1,0,0.1,0,0.2-0.1c0-0.1,0.1-0.2,0.1-0.4L693.5,266.7L693.5,266.7z M693.5,266.5
			l0.4-1.7l-1.4,0.9L693.5,266.5L693.5,266.5z M698,267.4l0.6,0.9l-0.9,3.8l1.8-1.4c0.2-0.1,0.3-0.3,0.3-0.3c0-0.1,0-0.2-0.1-0.4
			l-0.1-0.1l0.1-0.1l0.8,1.1l-0.1,0.1l-0.1-0.1c-0.1-0.1-0.2-0.2-0.3-0.2c-0.1,0-0.2,0.1-0.4,0.2l-2.6,2l-0.1-0.1l1-4l-1.9,1.5
			c-0.2,0.1-0.3,0.3-0.3,0.3c0,0.1,0,0.2,0.1,0.4l0.1,0.1l-0.1,0.1l-0.8-1.1l0.1-0.1l0.1,0.1c0.1,0.1,0.2,0.2,0.3,0.2
			c0.1,0,0.2-0.1,0.4-0.2l2.1-1.7c0-0.2,0.1-0.3,0.1-0.4c0-0.1,0-0.2-0.1-0.3C698,267.6,698,267.5,698,267.4L698,267.4L698,267.4z
			 M702.8,276.7l-0.8,0.4l0-0.1c0.1-0.1,0.2-0.1,0.3-0.2c0.1-0.1,0.1-0.2,0.1-0.3s0-0.2-0.1-0.4l-0.2-0.5l-2.7,1
			c-0.2,0.1-0.3,0.2-0.4,0.2c0,0.1-0.1,0.2,0,0.4l0,0.1l-0.1,0l-0.5-1.6l0.1,0l0,0.1c0.1,0.2,0.1,0.3,0.2,0.3c0.1,0,0.2,0,0.4-0.1
			l2.7-1l-0.2-0.5c-0.1-0.2-0.1-0.3-0.2-0.4c-0.1-0.1-0.2-0.1-0.3-0.2c-0.1,0-0.3,0-0.4,0l0-0.1l0.9-0.3L702.8,276.7L702.8,276.7z
			 M699.8,283.8l-0.1-1.1l1.7-1.4c0-0.1,0-0.2,0-0.2c0,0,0-0.1,0-0.1c0,0,0-0.1,0-0.1l-1.1,0.1c-0.2,0-0.4,0-0.4,0.1
			c-0.1,0.1-0.1,0.2-0.1,0.3l0,0.2l-0.1,0l-0.1-1.7l0.1,0l0,0.2c0,0.2,0.1,0.3,0.2,0.4c0.1,0,0.2,0.1,0.4,0l2.4-0.1
			c0.2,0,0.4,0,0.4-0.1c0.1-0.1,0.1-0.2,0.1-0.3l0-0.2l0.1,0l0.1,1.5c0,0.4,0,0.7,0,0.9c0,0.2-0.1,0.4-0.3,0.5
			c-0.1,0.1-0.3,0.2-0.6,0.2c-0.2,0-0.4-0.1-0.6-0.2c-0.2-0.2-0.3-0.4-0.4-0.7l-1,0.9c-0.2,0.2-0.4,0.4-0.5,0.5
			c-0.1,0.1-0.1,0.3-0.1,0.5L699.8,283.8L699.8,283.8z M701.6,280.8C701.6,280.9,701.6,280.9,701.6,280.8c0,0.1,0,0.1,0,0.2
			c0,0.4,0.1,0.7,0.3,0.8c0.2,0.2,0.4,0.3,0.6,0.3c0.2,0,0.4-0.1,0.6-0.3c0.1-0.2,0.2-0.4,0.2-0.6c0-0.1,0-0.3-0.1-0.5L701.6,280.8
			L701.6,280.8z M702.6,289.1l-0.3,1.3l-0.1,0l0-0.1c0,0,0-0.1,0-0.2s-0.1-0.2-0.1-0.3c-0.1-0.1-0.2-0.2-0.3-0.4l-1.2-1.3l-0.9-0.3
			c-0.2-0.1-0.4-0.1-0.4,0c-0.1,0.1-0.2,0.2-0.2,0.3l0,0.1l-0.1,0l0.4-1.6l0.1,0l0,0.1c0,0.2,0,0.3,0.1,0.4c0,0.1,0.2,0.1,0.4,0.2
			l0.9,0.2l1.8-0.6c0.2-0.1,0.3-0.1,0.4-0.2c0.1,0,0.1-0.1,0.2-0.2c0,0,0.1-0.1,0.1-0.2l0.1,0l-0.4,1.7l-0.1,0l0-0.1
			c0-0.1,0-0.2,0-0.3c0-0.1-0.1-0.1-0.1-0.2c-0.1,0-0.2,0-0.4,0.1l-1.4,0.5l0.9,1.1c0.1,0.2,0.3,0.3,0.3,0.3c0.1,0,0.1,0,0.1,0
			c0,0,0.1,0,0.1-0.1C702.4,289.2,702.5,289.1,702.6,289.1L702.6,289.1L702.6,289.1z"/>
	</g>
	<g>
		<path class="st37" d="M694.2,285.9c0.4-0.1,1,0,1,0s0.1,0.3-0.1,0.4c0.2,0.1,0.8,0.1,0.8,0.1s-0.2,0.2-0.4,0.3
			c0.2,0,0.5,0.3,0.5,0.3s-0.5,0.1-0.8,0c0.1,0.3,0.1,0.6,0.1,0.6s-0.9-0.2-1.2-0.8"/>
		<path class="st37" d="M692.7,285.4c-0.2,0.5-1.7-0.5-1.7-0.5s0.7,1.1,1.7,1.3"/>
		<path class="st37" d="M673.6,295.8h17.9l1.4-1.2l-2.3-1.3l-3.6-1.3l-1.4-0.8l-2.6,0.2l-2.2,1.2l-3,0.4l-0.7,0.9l-2.2,0.2l-3.5-0.1
			l5.9,1l-4.8-0.3L673.6,295.8L673.6,295.8z"/>
		<path class="st37" d="M683.3,290.3c-2.2-1.3-2.9,1.9-3.9,2.6c1.3,0.2,2.3-1.1,3.4-1.7c0.8,2.4,2.2,0.8,2.2,0.8s1.4,2.3,3.3,1.3
			c0.5,0.4,1.1,0,1.1,0s0.7,0.1,0.8-0.2c0.4,0.1,0.7-0.3,0.7-0.3s0.8,0,0.9-0.4c1.1,0.2,2.7-2.5,2.7-2.5l0.5-0.9l0.7-0.2
			c0,0,0-0.5-0.3-0.5c0-0.3-0.2-0.4-0.6-0.4c0.1-0.2-0.2-0.3-0.2-0.3c-0.6,0.2-0.7,1.9-0.7,1.9s-1.1,0.9-1.5,1.1
			c0-1-1.6-2.3-1.2-2.9s1.3,1,2.2,0.7c0.9-0.3,1.3-1.5,1.4-2.4c-0.2-0.6-0.9-1.7-0.9-1.7l-0.6,0l-0.5-1.3c0,0-1,0.7-1,1.4
			c0,0.6,1.1,1.2,1.1,1.2s-0.6,0.4-1.2,0.2c-0.1,0.6,0.7,0.5,1,0.5c0.1,0.5,0.6,0.7,0.6,0.7s0.3,0.7-0.4,0.6c-0.7-0.1-1.5-1.8-2.5-1
			c-1,0.8,0.5,2.3,0.5,2.3s-0.9,0.5-1.5,1.8C687,288.9,685.7,289.8,683.3,290.3L683.3,290.3z"/>
		<path class="st37" d="M680,287c0.9,0.9,0.3,2.5,0.6,2.7c0.4,0.3,0.9-0.2,0.9-0.2c1,0.3,2.7-0.3,2.7-0.3c0.8,0.5,0.5-0.2,0.9-0.2
			c0.4,1.1,1.8,0.9,1.8,0.9s-1.3-1.4-2-1.7c-0.6,0.4-2.3,0.4-2.6,0.4c-0.3-0.1-0.1-0.5-0.3-0.8c0.6-0.7,0.1-2.3-0.2-2.9
			C680.4,284,678.8,285.7,680,287L680,287z"/>
		<path class="st37" d="M673.9,284.2c-1.2,0.3-3.2-1.6-4.1-0.9c-0.9,0.7-0.5,2.6,0.1,3.5c0.6,0.9-0.9,1.2-1.3,1.7
			c-0.4,0.5,0.1,1.1,0.1,1.1l0.4,0.3l-0.1,0.7l0.2,0.8c0,0,0.2,0.2,0.3-0.1c0.2,0.2,0,0.8,0.5,0.9c-0.2-0.4,0.1-1.4,0.1-1.4
			s0.8,0.1,1.1-0.3c0.2-0.4-0.2-1.2-0.2-1.2h0.3c-0.3-0.2-0.4-0.8-0.4-0.8s1.2-0.4,1.2-1.3c0-0.9-1.9-1.9-1.2-2.4
			c0.8-0.5,2.1,1.4,3.2,0.5c1.1-0.9,0.4,0,0.4,0S675,283.9,673.9,284.2L673.9,284.2z"/>
		<path class="st37" d="M679.9,271.1c-1.6-0.7-4.7-0.7-6.5-1.7c-0.8,0.1-1.1,0.7-1.2,1c-0.8,0-1.4,1.3-1.2,1.6
			c-1.5-0.6-2.2,1.8-1.7,2.4c-1.3,0.1-1.1,1.8-1.2,2.2c-0.4,1,0.1,1.4,0.9,1c0.1,0.5,0,0.7-0.4,0.8c2.2,2.7,3.4-1.6,5.3-1.6
			c2.4-0.7,3.3-2,3.3-2l0.9,0.1L679.9,271.1L679.9,271.1z"/>
		<ellipse class="st37" cx="681.9" cy="269.2" rx="2.3" ry="2.4"/>
		<path class="st37" d="M677.9,288.3c-1.4-0.3-3.8-1.8-4-3.9c1.3-5.5,8.2-2.6,8.7-6.8c-0.2-2.7,0.3-5.4,1.7-7.7
			c0.7-0.9,1.5-1.1,1.5-1.1s0.2,0.6-0.1,1c1.1-0.1,2.7,0.5,3.7,0.6c0.3,0.7,0.3,0.9,0.2,1.3c-0.1,0.4-0.5,0.3-0.5,0.3
			c-0.3,0.3-0.6,0.6-1.4,0.4c-0.6,0.5-1.7,0.6-1.7,0.6s2.5,2.8,2.1,3.6c0.5,0.3,1.3,1.5,1.3,1.5s1.7-0.9,2.2-1.8
			c1,0,2.6,1.1,3.4,1.2c1,0.8,2,1.7,2,1.7s-1.2,0.8-1.7-0.3c-0.6,0.1-1.9-1.5-3.8-1c-0.1,1.7-1.8,2.9-1.8,2.9s1.7-0.2,2.6,0.3
			c1,0.8,2.3,2,2.3,2l1.2,2.3c0,0-1.1,0.2-1.6-1.4c-0.4,1.3-0.4-0.8-2.1-1.7c-0.5,0.1-0.8,0.1-1.2-0.3c-1.2,0.3-2.7,1.1-4.4,0.9
			c-1.2,0.4-2.1,1.5-3.3,2.1c-1.2,0.6-1.6,0.3-1.6,0.3l-1,0c-0.1,0.6-0.1,1.6-0.6,1.8c0.3,0.4-0.2,2.1-0.9,2.4c0.3,1.1,1.1,1.4,2,2
			c0,0,0.8-0.4,1.3,0.1c0.5,0.5,1,1.9,1,1.9s-1.1,0.1-1.4-0.1s-0.4-0.5-0.7-0.4c-2.4-2.3-3.7-1.4-3.9-1.9
			C677.3,290.5,678.1,289.1,677.9,288.3L677.9,288.3z"/>
		<path class="st37" d="M672.1,278.2c0.1-0.2,1,0.2,1,0.2l1.6,1.1l3.3,2.2l1.2,1.8l-2.1-0.7l-2.9-2.6l-1.6-1.1
			C672.6,279,672,278.3,672.1,278.2L672.1,278.2z"/>
		<path class="st37" d="M691.4,283.8c-1.1-0.3-3.9,3.3-3.9,3.3l2.1,2.4C689.6,289.5,689.7,285.4,691.4,283.8z"/>
		<path class="st37" d="M677.7,273.9c-0.6,0.8-0.7,2.5,0.1,3.2c0.1,1,0.9,3.1,1.5,3.3c0.7,0.2,3.5,0.9,4.6,0.7
			c-0.2,1.9,1.2,3.4,2.5,4.4c0,0.2,0,0.4,0.1,0.6c0.1,0.2,0.8,0.2,0.9,0.1c0.3,0.4,1.8,0.6,1.9,0.4c0.1-0.2-2.2-1.9-2.7-2.4
			c-0.4-0.8-1.2-2.7-1.4-4.2c-1.1-1.4-3-1.4-3-1.4l0.1-2.7l0.1-3.1l-1-0.6c0,0,0.2-0.1,0.3-0.2c0.3,0.1,0.7-0.4,0.8-0.6
			c0.2,0.1,0.5,0.1,0.5,0c0-0.1,0.1-0.6,0.2-0.9c0.8-0.7-0.1-2.3-1.3-2.3c-1.2,0-1.4,1.5-1.4,1.6c0.1,0.5,0.1,0.7,0,0.8
			c-0.1,0.1-0.5,0.4-0.5,0.4s-0.7-0.3-1.5,0c-0.8,0.3-1.7,0.8-1.7,1.3c-0.4,0.1-1,0.6-1.1,1c-0.3-0.1-0.7,0.2-1.4,1.4
			c-1.2,0.6-1.3,3.3-1.3,3.3s-0.3,0.5-0.3,0.8c0,0.3,0.1,0.5,0.3,0.5c0,0.2,0.2,0.3,0.3,0.3c0,0.2,0.3,0.3,0.4,0.3
			c0,0.1,0.5,0.1,0.5,0c0-0.1,0-0.7,0-0.8c0.1,0,0.4,0.3,0.6,0.2s0-0.4-0.1-0.5c-0.1-0.1-0.4-0.2-0.5-0.6c-0.1-0.4,0.2-1.1,0.2-1.1
			s1.3-1.1,1.5-2.1C676.8,275.1,677.4,274.2,677.7,273.9L677.7,273.9z"/>
		<path class="st37" d="M675.3,269.9c0.3-0.8,1.4-0.7,1.4-0.7s0.4-1.1,1.9-0.4c0.6-0.5,2,0.2,2,0.2s0.5-0.8,1.3-0.7
			c1.3,0.2,1.6,1.5,1.5,1.7c-0.7,0.2-2-0.6-3-0.4c-0.6,0.3-1.5,0.7-1.8,1.2C677.7,270.8,676.8,269.8,675.3,269.9L675.3,269.9z"/>
		<path class="st37" d="M678.1,271.2c0.3-0.2,1.2-0.6,1.7-0.1c0.6,0.7,1.5,1.3,1.5,1.3l1,0.5l0.5,0.3l-0.3,4.9
			c-0.9-1-1.8-1.2-2.5-2.4c-0.4-0.5-0.1-1.7-0.7-2.6C678.6,272.2,678,271.7,678.1,271.2L678.1,271.2z"/>
		<path class="st37" d="M680.6,272.6c0,0,0.5-0.1,0.7,0c0.2,0.1,0.4,0.1,0.4,0.3c0.2,0.1,0.3,0.2,0.3,0.3c0.2,0.1,0.3,0.4,0.3,0.4
			l-0.2,0.3c0,0-0.2-0.2-0.2-0.4c-0.1-0.1-0.4-0.1-0.5-0.3c-0.2,0-0.4-0.1-0.4-0.3C680.8,272.9,680.6,272.6,680.6,272.6L680.6,272.6
			z"/>
		<path class="st37" d="M685,269.4c-0.3-0.4-0.8-0.1-0.8-0.1l-1.4,2.6l-0.6,0.5l-0.1,2l0.5,1.9l-0.2,1.5c0,0,0.7-0.7,0.8-1.1
			c0.1-0.4-0.3-1.6-0.3-1.6s-0.4-0.8,0.1-2.2C683.6,271.5,684.8,270.3,685,269.4L685,269.4z"/>
		<path class="st37" d="M688.6,271.7c0,0-2.2,3.4-5.9,4.6c-1,0.3-0.6-2.5-0.6-2.5l-0.2,0.1c0,0-0.6,2.7,0.8,2.7
			c3.7-0.8,6.4-4.8,6.4-4.8L688.6,271.7L688.6,271.7z"/>
		<path class="st37" d="M690.1,291c0,0-0.3,0.3-0.8,0c-0.2-0.6-0.9-0.6-0.9-0.6s-0.4-1.2-1-0.9c-0.1-0.6-0.8-0.3-0.8-0.3
			s0-0.9-0.8-0.8c0.3-1-1.1-1-1.1-1s0-1.2-2.1-0.9c4.3-2.1,7.8,3.2,7.8,3.2"/>
		<path class="st37" d="M692.1,291.5c0,0,1,1.2,1.5,1.2c0.5,0,0.6-1.2,0.6-1.2s0.2,0.5,0.4,0.4c0,0.4,0.3,0.5,0.3,0.5
			s-0.9,2.2-3.5,0.1"/>
		<path class="st37" d="M684.3,291.9l-0.4,1.5c0,0-0.5,0.4-0.3,0.5s0.9-0.2,0.9-0.2s1.1-0.1,1.5-0.5c0.2,0.6,0.7,0.6,0.7,0.6
			s0-0.2,0-0.4c0.2,0,0.5,0,0.5,0s0.1-0.4-0.2-0.6c0-0.3,0.2-0.6-0.4-0.6c-0.4,0.5-1.4,1-1.6,0.8c-0.2-0.2,1-0.8,0.6-1.5"/>
	</g>
</g>
<path class="st38" d="M536,974.5c5.3,3.5,17.8,10.8,35.3,11.5c20.7,0.8,35.5-8.1,40.7-11.5c0-259.5,0-519,0-778.5
	c-9.3,2.5-22,4.9-37,5c-16,0.1-29.3-2.4-39-5C536,455.5,536,715,536,974.5z"/>
</svg>
