<?xml version="1.0" encoding="utf-8"?>
<!-- Generator: Adobe Illustrator 21.0.0, SVG Export Plug-In . SVG Version: 6.00 Build 0)  -->
<svg version="1.1" id="Ebene_1" xmlns="http://www.w3.org/2000/svg" xmlns:xlink="http://www.w3.org/1999/xlink" x="0px" y="0px"
	 viewBox="0 0 2446 3663" style="enable-background:new 0 0 2446 3663;" xml:space="preserve">
<style type="text/css">
	.st0{fill:#87D4A2;}
	.st1{fill:#52956E;}
	.st2{fill:#9D7766;}
	.st3{fill:#AE8775;}
	.st4{fill:#A47A69;}
	.st5{fill:#A67C6B;}
	.st6{fill:#AE8673;}
	.st7{fill:#6FBF88;}
	.st8{fill:#A07A69;}
	.st9{fill:#A67D6C;}
	.st10{fill:#A37968;}
	.st11{fill:#B78D78;}
	.st12{fill:#A9806F;}
	.st13{fill:#AB8270;}
	.st14{fill:#9F7665;}
	.st15{fill:#B58C77;}
	.st16{fill:#BC927D;}
	.st17{fill:#BD947E;}
	.st18{fill:#B18773;}
	.st19{fill:#C09781;}
	.st20{fill:#C29982;}
	.st21{fill:#A27867;}
	.st22{fill:#AC8472;}
	.st23{fill:#B98F7A;}
	.st24{fill:#C49C84;}
	.st25{fill:#C19881;}
	.st26{fill:#BB917C;}
	.st27{opacity:0.3;fill:#2B2A29;enable-background:new    ;}
	.st28{fill:#B2B6B7;}
	.st29{fill:#FFFFFF;}
	.st30{fill:#21468B;stroke:#6B6B6B;stroke-width:2;stroke-miterlimit:10;}
	.st31{fill:#FFFFFF;stroke:#6B6B6B;stroke-width:2;stroke-miterlimit:10;}
	.st32{fill:#AE1C28;stroke:#6B6B6B;stroke-width:2;stroke-miterlimit:10;}
	.st33{fill:#7C7B7B;}
</style>
<title>EmptyIslandShadow</title>
<path class="st0" d="M299,767L0,884l199,67L95,999l292,77l191,132l199-62l91,31h124l60,31l240,35l270,7l386-100l112,19l243-122
	l143-115l-63-104l-312-8l-67-39l-297-32l-130-61l-312-11l-98,45l-88-15l-92,6l-88,13L299,767z"/>
<polygon class="st1" points="0,884 32,911 177.1,961.1 199,951 "/>
<polygon class="st1" points="99,999 114,1017 383,1089 407,1089 387,1076 "/>
<polygon class="st2" points="45.9,915.8 79,955 148,974.5 177,961 "/>
<polygon class="st3" points="128,1036 398,1108 461,1142 586,1227 578,1208 473.6,1135.3 407,1089 111,1017 "/>
<polygon class="st4" points="414,1114.7 443,1233 553,1273 506,1225 483.5,1155.3 "/>
<polygon class="st5" points="484,1157 586,1227 644,1217 724,1366 506,1227 "/>
<polygon class="st6" points="506,1225 724,1364 749,1424 443,1233 553,1273 "/>
<polygon class="st3" points="586,1227 777,1194 777,1165 578,1208 "/>
<polygon class="st1" points="578,1208 732.6,1174.6 777,1165 "/>
<polygon class="st6" points="749,1424 841,1504 952,1581 1128,1635 1233,1704 1333,1624 1351,1663 1494,1542 1590,1486 1657,1457 
	1807,1366 1939,1275 1983,1196 1921,1186 1568,1267 1389,1261 1279,1273 1059,1227 987,1215 867,1213 791,1186 777,1194 644,1217 
	"/>
<polygon class="st7" points="777,1165 861,1194 987,1194 1059,1227 1261,1250 1336,1250 1056,1208 992,1177 868,1177 777,1146 
	578,1208 777,1146 "/>
<polygon class="st4" points="749,1171.1 578,1208 777,1146 777,1165 861,1194 987,1194 1059,1227 867,1216 777,1194 "/>
<polygon class="st8" points="1319.7,1247.6 1352,1244.6 1562,1250 1934,1165 2045,1186 2029,1198 1938.5,1187.8 1568,1267 
	1389,1261 "/>
<polygon class="st7" points="2060,1169 2045,1186 1934,1165 1562,1250 1948,1146 "/>
<polygon class="st4" points="1059,1227 1279,1273 1389,1261 1320,1250 "/>
<polygon class="st4" points="1313.5,1267 1429.1,1262.3 1352,1245 1320,1250 "/>
<polyline class="st0" points="1352,1245 1320,1250 1292,1243 1336,1216 "/>
<polygon class="st5" points="742.6,1391.8 813.1,1479.3 940.3,1535.1 818,1390.1 739.7,1365.9 "/>
<polygon class="st5" points="1939,1187 1887,1245 1939,1227 1983,1196 "/>
<polygon class="st5" points="1983,1196 2001,1187 1935,1187 "/>
<polygon class="st5" points="907,1256 1009,1267 1070,1400 1178,1559 1062,1505 936,1417 943,1340 "/>
<polygon class="st7" points="777,1165 749,1169 578,1208 777,1146 "/>
<polygon class="st9" points="644,1216 733.1,1201.3 770,1301 724,1364 "/>
<polygon class="st10" points="724,1364 749,1424 770,1301 "/>
<polygon class="st11" points="733,1201 777,1194 784,1283 770,1301 "/>
<polygon class="st10" points="644,1216 597.6,1225 724,1364 "/>
<polygon class="st12" points="1128,1635 957,1581 749,1424 770,1301 833,1435 "/>
<polygon class="st13" points="875,1334 833,1435 770,1301 784,1283 "/>
<polygon class="st9" points="784,1283 875,1334 893,1308 885.8,1216 791,1186 777,1194 "/>
<polygon class="st14" points="893.7,1345.6 963.8,1373 1000,1335.7 902.1,1216 886,1216 "/>
<polygon class="st15" points="835,1435 886,1408 920,1435 886,1470.9 "/>
<polygon class="st16" points="835,1435 875,1334 886,1408 "/>
<polygon class="st17" points="1128,1359 1216.8,1260 1279,1273 1371.3,1261.5 1336,1301 1144,1461 "/>
<polygon class="st18" points="1077.7,1233 1128,1359 1217,1260 "/>
<polygon class="st16" points="1380,1273 1455,1359 1172,1535 "/>
<polygon class="st19" points="1455,1359 1272,1545 1172,1535 "/>
<polygon class="st20" points="1272,1545 1320,1535 1470,1424 1455,1359 "/>
<polygon class="st21" points="1063,1504 1172,1535 1147,1461 "/>
<polygon class="st22" points="1063,1580 1063,1504 1172,1535 1172,1616 1233,1704 1128,1635 "/>
<polygon class="st23" points="1496.6,1267 1455,1359 1470,1424 1476,1384 1602,1351 1642.1,1250 1568,1267 "/>
<polygon class="st5" points="1470,1424 1549,1408 1634,1390 1663,1362 1663,1337 1634,1337 1602,1351 1558.1,1362.5 1476,1384 "/>
<polygon class="st24" points="1811,1366 1663,1363 1663,1337 1634,1337 1612.5,1346.4 1642,1250 1682.4,1245 1921,1186 1983,1196 
	1935,1275 "/>
<polygon class="st17" points="1634,1388.9 1657,1457 1811,1365.9 1663,1363 "/>
<polygon class="st6" points="1172,1604 1213.2,1675.4 1256,1665 1278,1640 1345,1584 1495,1488 1584,1435 1470,1424 1286,1566 "/>
<polygon class="st25" points="1217,1675 1233,1704 1336,1624 1497,1522 1497,1488 1278,1635 "/>
<polygon class="st26" points="1336,1624 1352,1663 1540,1504 1657,1457 1497,1522 "/>
<ellipse class="st27" cx="1224" cy="3382.1" rx="644.5" ry="50"/>
<ellipse class="st28" cx="574" cy="194.5" rx="38" ry="7.5"/>
<ellipse class="st27" cx="907" cy="967.3" rx="268" ry="20.8"/>
<rect x="808.4" y="205" class="st29" width="65.1" height="439"/>
<rect x="613" y="393.1" class="st29" width="602.5" height="62.7"/>
<rect x="613" y="205" class="st30" width="620" height="472"/>
<rect x="613" y="205" class="st31" width="620" height="314.7"/>
<rect x="613" y="205" class="st32" width="620" height="157.3"/>
<path class="st33" d="M536,974.5c5.3,3.5,17.8,10.8,35.3,11.5c20.7,0.8,35.5-8.1,40.7-11.5c0-259.5,0-519,0-778.5
	c-9.3,2.5-22,4.9-37,5c-16,0.1-29.3-2.4-39-5C536,455.5,536,715,536,974.5z"/>
</svg>
