<?xml version="1.0" encoding="utf-8"?>
<!-- Generator: Adobe Illustrator 21.0.0, SVG Export Plug-In . SVG Version: 6.00 Build 0)  -->
<svg version="1.1" id="Ebene_1" xmlns="http://www.w3.org/2000/svg" xmlns:xlink="http://www.w3.org/1999/xlink" x="0px" y="0px"
	 viewBox="0 0 2446 3663" style="enable-background:new 0 0 2446 3663;" xml:space="preserve">
<style type="text/css">
	.st0{fill:#87D4A2;}
	.st1{fill:#52956E;}
	.st2{fill:#9D7766;}
	.st3{fill:#AE8775;}
	.st4{fill:#A47A69;}
	.st5{fill:#A67C6B;}
	.st6{fill:#AE8673;}
	.st7{fill:#6FBF88;}
	.st8{fill:#A07A69;}
	.st9{fill:#A67D6C;}
	.st10{fill:#A37968;}
	.st11{fill:#B78D78;}
	.st12{fill:#A9806F;}
	.st13{fill:#AB8270;}
	.st14{fill:#9F7665;}
	.st15{fill:#B58C77;}
	.st16{fill:#BC927D;}
	.st17{fill:#BD947E;}
	.st18{fill:#B18773;}
	.st19{fill:#C09781;}
	.st20{fill:#C29982;}
	.st21{fill:#A27867;}
	.st22{fill:#AC8472;}
	.st23{fill:#B98F7A;}
	.st24{fill:#C49C84;}
	.st25{fill:#C19881;}
	.st26{fill:#BB917C;}
	.st27{opacity:0.3;fill:#2B2A29;enable-background:new    ;}
	.st28{fill:#B2B6B7;}
	.st29{fill:#FFFFFF;}
	.st30{fill:#FF0000;}
	.st31{fill:#006600;}
	.st32{fill:#FFFF00;stroke:#000000;stroke-width:0.573;stroke-linecap:round;stroke-linejoin:round;}
	.st33{fill:#FFFF00;stroke:#000000;stroke-width:0.55;stroke-linecap:round;stroke-linejoin:round;}
	.st34{fill:#FFFFFF;stroke:#000000;stroke-width:0.6704;}
	.st35{fill:#FF0000;stroke:#000000;stroke-width:0.5073;}
	.st36{fill:#FFFF00;}
	.st37{fill:#FFFF00;stroke:#000000;stroke-width:0.5;}
	.st38{fill:#003399;}
	.st39{fill:#7C7B7B;}
</style>
<title>EmptyIslandShadow</title>
<path class="st0" d="M299,767L0,884l199,67L95,999l292,77l191,132l199-62l91,31h124l60,31l240,35l270,7l386-100l112,19l243-122
	l143-115l-63-104l-312-8l-67-39l-297-32l-130-61l-312-11l-98,45l-88-15l-92,6l-88,13L299,767z"/>
<polygon class="st1" points="0,884 32,911 177.1,961.1 199,951 "/>
<polygon class="st1" points="99,999 114,1017 383,1089 407,1089 387,1076 "/>
<polygon class="st2" points="45.9,915.8 79,955 148,974.5 177,961 "/>
<polygon class="st3" points="128,1036 398,1108 461,1142 586,1227 578,1208 473.6,1135.3 407,1089 111,1017 "/>
<polygon class="st4" points="414,1114.7 443,1233 553,1273 506,1225 483.5,1155.3 "/>
<polygon class="st5" points="484,1157 586,1227 644,1217 724,1366 506,1227 "/>
<polygon class="st6" points="506,1225 724,1364 749,1424 443,1233 553,1273 "/>
<polygon class="st3" points="586,1227 777,1194 777,1165 578,1208 "/>
<polygon class="st1" points="578,1208 732.6,1174.6 777,1165 "/>
<polygon class="st6" points="749,1424 841,1504 952,1581 1128,1635 1233,1704 1333,1624 1351,1663 1494,1542 1590,1486 1657,1457 
	1807,1366 1939,1275 1983,1196 1921,1186 1568,1267 1389,1261 1279,1273 1059,1227 987,1215 867,1213 791,1186 777,1194 644,1217 
	"/>
<polygon class="st7" points="777,1165 861,1194 987,1194 1059,1227 1261,1250 1336,1250 1056,1208 992,1177 868,1177 777,1146 
	578,1208 777,1146 "/>
<polygon class="st4" points="749,1171.1 578,1208 777,1146 777,1165 861,1194 987,1194 1059,1227 867,1216 777,1194 "/>
<polygon class="st8" points="1319.7,1247.6 1352,1244.6 1562,1250 1934,1165 2045,1186 2029,1198 1938.5,1187.8 1568,1267 
	1389,1261 "/>
<polygon class="st7" points="2060,1169 2045,1186 1934,1165 1562,1250 1948,1146 "/>
<polygon class="st4" points="1059,1227 1279,1273 1389,1261 1320,1250 "/>
<polygon class="st4" points="1313.5,1267 1429.1,1262.3 1352,1245 1320,1250 "/>
<polyline class="st0" points="1352,1245 1320,1250 1292,1243 1336,1216 "/>
<polygon class="st5" points="742.6,1391.8 813.1,1479.3 940.3,1535.1 818,1390.1 739.7,1365.9 "/>
<polygon class="st5" points="1939,1187 1887,1245 1939,1227 1983,1196 "/>
<polygon class="st5" points="1983,1196 2001,1187 1935,1187 "/>
<polygon class="st5" points="907,1256 1009,1267 1070,1400 1178,1559 1062,1505 936,1417 943,1340 "/>
<polygon class="st7" points="777,1165 749,1169 578,1208 777,1146 "/>
<polygon class="st9" points="644,1216 733.1,1201.3 770,1301 724,1364 "/>
<polygon class="st10" points="724,1364 749,1424 770,1301 "/>
<polygon class="st11" points="733,1201 777,1194 784,1283 770,1301 "/>
<polygon class="st10" points="644,1216 597.6,1225 724,1364 "/>
<polygon class="st12" points="1128,1635 957,1581 749,1424 770,1301 833,1435 "/>
<polygon class="st13" points="875,1334 833,1435 770,1301 784,1283 "/>
<polygon class="st9" points="784,1283 875,1334 893,1308 885.8,1216 791,1186 777,1194 "/>
<polygon class="st14" points="893.7,1345.6 963.8,1373 1000,1335.7 902.1,1216 886,1216 "/>
<polygon class="st15" points="835,1435 886,1408 920,1435 886,1470.9 "/>
<polygon class="st16" points="835,1435 875,1334 886,1408 "/>
<polygon class="st17" points="1128,1359 1216.8,1260 1279,1273 1371.3,1261.5 1336,1301 1144,1461 "/>
<polygon class="st18" points="1077.7,1233 1128,1359 1217,1260 "/>
<polygon class="st16" points="1380,1273 1455,1359 1172,1535 "/>
<polygon class="st19" points="1455,1359 1272,1545 1172,1535 "/>
<polygon class="st20" points="1272,1545 1320,1535 1470,1424 1455,1359 "/>
<polygon class="st21" points="1063,1504 1172,1535 1147,1461 "/>
<polygon class="st22" points="1063,1580 1063,1504 1172,1535 1172,1616 1233,1704 1128,1635 "/>
<polygon class="st23" points="1496.6,1267 1455,1359 1470,1424 1476,1384 1602,1351 1642.1,1250 1568,1267 "/>
<polygon class="st5" points="1470,1424 1549,1408 1634,1390 1663,1362 1663,1337 1634,1337 1602,1351 1558.1,1362.5 1476,1384 "/>
<polygon class="st24" points="1811,1366 1663,1363 1663,1337 1634,1337 1612.5,1346.4 1642,1250 1682.4,1245 1921,1186 1983,1196 
	1935,1275 "/>
<polygon class="st17" points="1634,1388.9 1657,1457 1811,1365.9 1663,1363 "/>
<polygon class="st6" points="1172,1604 1213.2,1675.4 1256,1665 1278,1640 1345,1584 1495,1488 1584,1435 1470,1424 1286,1566 "/>
<polygon class="st25" points="1217,1675 1233,1704 1336,1624 1497,1522 1497,1488 1278,1635 "/>
<polygon class="st26" points="1336,1624 1352,1663 1540,1504 1657,1457 1497,1522 "/>
<ellipse class="st27" cx="1224" cy="3382.1" rx="644.5" ry="50"/>
<ellipse class="st28" cx="574" cy="194.5" rx="38" ry="7.5"/>
<ellipse class="st27" cx="907" cy="967.3" rx="268" ry="20.8"/>
<rect x="808.4" y="205" class="st29" width="65.1" height="439"/>
<rect x="613" y="393.1" class="st29" width="602.5" height="62.7"/>
<rect x="607" y="201.5" class="st30" width="626" height="482.5"/>
<rect x="607" y="201.5" class="st31" width="250.4" height="482.5"/>
<g>
	<path class="st32" d="M935.7,501.2C905.5,500.3,767,413.8,766.1,400l7.6-12.8c13.7,20,155.4,104.1,169.3,101.1L935.7,501.2"/>
	<path class="st32" d="M772.1,385.5c-2.7,7.3,36.1,31.3,82.9,59.8c46.8,28.4,87.1,46,90.1,43.5c0.2-0.3,1.5-2.5,1.4-2.5
		c-0.6,0.8-1.9,1.1-4.1,0.5c-12.6-3.6-45.6-18.8-86.4-43.5c-40.8-24.7-76.3-47.5-81.8-57.2c-0.4-0.7-0.7-1.9-0.6-2.8l-0.1,0
		l-1.2,2.1L772.1,385.5L772.1,385.5L772.1,385.5z M936.5,501.6c-0.5,0.9-1.5,1-3.3,0.8c-11.3-1.3-45.6-17.9-86.2-42.2
		c-47.2-28.3-86.2-54-82-60.7l1.2-2l0.2,0.1c-3.8,11.4,76.9,57.6,81.7,60.5c46.7,28.9,86.1,45.9,89.6,41.5L936.5,501.6L936.5,501.6
		L936.5,501.6z"/>
	<path class="st32" d="M857.7,408.4c30.2-0.2,67.5-4.1,89-12.7l-4.6-7.5c-12.7,7-50.2,11.6-84.7,12.3c-40.7-0.4-69.5-4.2-83.9-13.8
		l-4.4,8C795.6,405.9,822.8,408.2,857.7,408.4"/>
	<path class="st32" d="M947.9,395.8c-0.7,1.2-14.7,6-35.4,9.6c-14,2.1-32.2,4-55,4c-21.6,0-39.3-1.5-52.7-3.3
		c-21.7-3.4-32.8-8.1-37-9.8c0.4-0.8,0.6-1.3,1-2.1c11.9,4.7,23.1,7.6,36.3,9.6c13.3,1.8,30.8,3.4,52.3,3.3c22.7,0,40.7-2,54.6-4.1
		c21.2-3.4,32.7-7.8,34.3-9.8L947.9,395.8L947.9,395.8L947.9,395.8z M943.9,388.2c-2.3,1.8-13.7,5.9-33.8,9.1
		c-13.4,1.9-30.5,3.6-52.3,3.7c-20.7,0-37.6-1.4-50.5-3.2c-20.4-2.7-31.3-7.5-35.2-8.9c0.4-0.7,0.8-1.3,1.2-2
		c3,1.5,13.5,5.8,34.2,8.7c12.7,1.8,29.7,3.1,50.3,3.1c21.7,0,38.6-1.8,51.9-3.7c20.2-2.8,31.1-7.9,32.7-9.2L943.9,388.2
		L943.9,388.2L943.9,388.2z"/>
	<path class="st32" d="M758.4,444.8c18.6,10,59.9,15,99,15.4c35.6,0.1,82-5.5,99.3-14.7l-0.5-10c-5.4,8.5-55.1,16.6-99.2,16.3
		c-44.1-0.3-85-7.1-98.7-16L758.4,444.8"/>
	<path class="st32" d="M957.6,443.4l0,2.4c-2.6,3.1-18.9,7.8-39.4,11.1c-15.6,2.4-35.9,4.2-61.3,4.2c-24.1,0-43.3-1.7-58.1-4
		c-23.5-3.4-38.6-9.4-41.6-11.2l0-2.8c9.1,6,33.7,10.4,41.9,11.8c14.8,2.3,33.9,4,57.8,4c25.2,0,45.4-1.8,60.9-4.2
		C932.6,452.6,953.5,447,957.6,443.4L957.6,443.4L957.6,443.4z M957.6,434.9l0,2.4c-2.6,3.1-18.9,7.8-39.4,11.1
		c-15.6,2.4-35.9,4.2-61.3,4.2c-24.1,0-43.3-1.7-58.1-4c-23.5-3.4-38.6-9.4-41.6-11.2l0-2.8c9.1,6,33.7,10.4,41.9,11.8
		c14.8,2.3,33.9,4,57.8,4c25.2,0,45.4-1.8,60.9-4.2C932.6,444.1,953.5,438.5,957.6,434.9L957.6,434.9L957.6,434.9z"/>
	<path class="st32" d="M857.3,499.5c-42.8-0.3-79.4-11.7-87.2-13.5l5.6,8.8c13.7,5.8,49.4,14.3,81.9,13.4
		c32.5-0.9,60.9-3.5,80.9-13.2l5.8-9.2C930.8,492.2,884.3,499.4,857.3,499.5"/>
	<path class="st33" d="M940.8,492.9c-0.9,1.3-1.7,2.6-2.6,3.8c-9.4,3.3-24.3,6.8-30.6,7.8c-12.8,2.6-32.7,4.6-50.3,4.6
		c-37.9-0.6-68.9-8-83.5-14.3l-1.2-2l0.2-0.3l2,0.8c25.9,9.3,55.1,13,82.7,13.7c17.5,0.1,35.1-2,49.3-4.5
		c21.8-4.4,30.6-7.6,33.3-9.1L940.8,492.9L940.8,492.9L940.8,492.9z M945.8,484.6C945.8,484.6,945.9,484.6,945.8,484.6
		c-0.6,1.2-1.2,2.2-1.9,3.3c-5,1.8-18.7,5.8-38.7,8.6c-13.1,1.8-21.3,3.5-47.5,4c-49-1.2-80.8-10.8-88.3-13.2l-1.1-2.1
		c28.4,7.4,57.4,12.6,89.4,13.1c23.9-0.5,34.1-2.3,47.2-4c23.3-3.6,35-7.4,38.5-8.6c0-0.1-0.1-0.1-0.2-0.2L945.8,484.6L945.8,484.6
		L945.8,484.6z"/>
	<path class="st32" d="M946.3,436.9c0.1,28.1-14.3,53.4-25.9,64.5c-16.4,15.8-38.2,25.9-63.6,26.4c-28.4,0.5-55.1-18-62.3-26.1
		c-14-15.9-25.4-36.1-25.8-63.2c1.7-30.7,13.8-52.1,31.3-66.8c17.5-14.7,40.7-21.8,60.1-21.3c22.4,0.6,48.5,11.6,66.5,33.3
		C938.5,398,943.6,413.4,946.3,436.9L946.3,436.9z M857.1,340.6c54.5,0,99.3,44.3,99.3,98.7c0,54.4-44.8,98.7-99.3,98.7
		s-98.9-44.3-98.9-98.7S802.7,340.6,857.1,340.6"/>
	<path class="st32" d="M857.4,340.2c54.5,0,99,44.5,99,99c0,54.5-44.5,99-99,99c-54.5,0-99-44.5-99-99S802.9,340.2,857.4,340.2
		L857.4,340.2z M760.6,439.2c0,53.3,43.7,96.8,96.8,96.8c53.1,0,96.8-43.6,96.8-96.8c0-53.3-43.7-96.8-96.8-96.8
		S760.6,386,760.6,439.2L760.6,439.2z"/>
	<path class="st32" d="M857.5,348.4c49.7,0,90.7,40.8,90.7,90.7c0,49.9-41,90.7-90.7,90.7s-90.7-40.8-90.7-90.7
		C766.8,389.3,807.8,348.4,857.5,348.4L857.5,348.4z M769,439.1c0,48.7,40,88.5,88.5,88.5s88.5-39.8,88.5-88.5
		c0-48.7-40-88.5-88.5-88.5C809,350.6,769,390.5,769,439.1L769,439.1z"/>
	<path class="st32" d="M861.5,339.8H853l0,199h8.5L861.5,339.8z"/>
	<path class="st32" d="M860.6,338.7h2.2l0,201.2h-2.2L860.6,338.7L860.6,338.7z M852.2,338.7h2.2l0,201.2h-2.2L852.2,338.7
		L852.2,338.7z"/>
	<path class="st32" d="M956.5,443.1v-7.4l-6-5.6l-34-9l-49-5l-59,3l-42,10l-8.5,6.3v7.4l21.5-9.6l51-8h49l36,4l25,6L956.5,443.1z"/>
	<path class="st32" d="M857.5,423.9c23.4,0,46.1,2.2,64.1,5.7c18.6,3.7,31.6,8.4,36.1,13.6l0,2.6c-5.4-6.5-23-11.2-36.5-14
		c-17.9-3.5-40.4-5.7-63.6-5.7c-24.5,0-47.4,2.4-65,5.8c-14.1,2.8-33,8.4-35.3,13.9v-2.7c1.3-3.8,15.3-9.5,35-13.4
		C809.9,426.2,832.8,423.9,857.5,423.9L857.5,423.9z M857.5,415.4c23.4,0,46.1,2.2,64.1,5.7c18.6,3.7,31.6,8.4,36.1,13.6l0,2.6
		c-5.4-6.5-23-11.2-36.5-14c-17.9-3.5-40.4-5.7-63.6-5.7c-24.5,0-47.3,2.4-64.9,5.8c-13.6,2.6-33.2,8.4-35.4,13.9v-2.7
		c1.3-3.8,15.6-9.6,35-13.4C809.9,417.7,832.8,415.5,857.5,415.4L857.5,415.4z"/>
	<path class="st32" d="M857,372.1c36.8-0.2,69,5.2,83.7,12.7l5.4,9.3c-12.8-6.9-47.5-14.1-89-13c-33.9,0.2-70,3.7-88.2,13.4
		l6.4-10.7C790.2,376.1,825.3,372.1,857,372.1"/>
	<path class="st32" d="M857.5,379.8c21-0.1,41.3,1.1,57.5,4c15,2.8,29.4,7,31.4,9.3l1.6,2.8c-5-3.3-17.4-6.9-33.3-9.9
		c-16-3-36.3-4-57.2-4c-23.7-0.1-42.2,1.2-58,3.9c-16.7,3.1-28.3,7.6-31.2,9.7l1.6-3c5.6-2.8,14.4-6.3,29.2-8.9
		C815.4,380.8,834,379.9,857.5,379.8L857.5,379.8L857.5,379.8z M857.5,371.3c20.1-0.1,40,1.1,55.5,3.9c12.2,2.4,24.3,6.1,28.7,9.4
		l2.3,3.7c-4-4.4-18.8-8.6-32-10.9c-15.4-2.6-34.4-3.7-54.5-3.9c-21.1,0.1-40.6,1.4-55.8,4.1c-14.4,2.7-23.8,6-27.7,8.5l2-3.1
		c5.4-2.9,14.2-5.5,25.3-7.6C816.6,372.6,836.2,371.3,857.5,371.3L857.5,371.3z"/>
	<path class="st32" d="M906.7,480.4c-18.2-3.4-36.5-3.9-49.2-3.7c-61.4,0.7-81.2,12.6-83.7,16.2l-4.6-7.5
		c15.6-11.3,49.1-17.7,88.6-17c20.5,0.3,38.2,1.7,53.1,4.6L906.7,480.4"/>
	<path class="st33" d="M857.1,475.6c17.1,0.3,33.8,1,50,4l-1.2,2.1c-15-2.8-31.1-3.8-48.8-3.8c-22.7-0.2-45.6,1.9-65.5,7.7
		c-6.3,1.8-16.7,5.8-17.8,9.1l-1.2-1.9c0.3-2,6.6-6.1,18.4-9.4C813.9,476.8,835.3,475.7,857.1,475.6L857.1,475.6L857.1,475.6z
		 M857.9,467c17.7,0.3,36,1.1,53.7,4.7l-1.2,2.2c-16-3.2-31.4-4.2-52.4-4.6c-22.7,0-46.9,1.7-68.8,8c-7.1,2.1-19.3,6.5-19.7,10.1
		l-1.2-2.1c0.3-3.2,10.8-7.4,20.4-10.2C810.8,468.7,834.9,467,857.9,467L857.9,467z"/>
	<path class="st32" d="M945.1,486.5l-7.4,11.4l-21.2-18.8l-55-37l-62-34l-32.2-11l6.9-12.7l2.3-1.3l20,5l66,34l38,24l32,23l13,15
		L945.1,486.5z"/>
	<path class="st32" d="M766.2,397.4c5.6-3.8,47.1,14.7,90.6,40.8c43.3,26.3,84.7,55.9,80.9,61.5l-1.2,1.9l-0.6,0.4
		c0.1-0.1,0.7-0.8-0.1-2.9c-1.8-6.1-31.2-29.5-79.9-58.9c-47.5-28.3-87-45.4-91-40.5L766.2,397.4L766.2,397.4L766.2,397.4z
		 M946.6,486.4c3.6-7.1-34.9-36-82.6-64.3c-48.8-27.7-84-44-90.4-39.1l-1.4,2.6c0,0.1,0.1-0.2,0.4-0.4c1.2-1,3.1-1,4-1
		c11.1,0.2,42.7,14.7,87,40.1c19.4,11.3,82.1,51.5,81.8,62.8c0,1,0.1,1.2-0.3,1.7L946.6,486.4L946.6,486.4L946.6,486.4z"/>
</g>
<g>
	<path class="st34" d="M798.1,450.1c0,16.3,6.7,31,17.5,41.7c10.8,10.8,25.5,17.6,41.8,17.6c16.4,0,31.2-6.7,42-17.4
		c10.8-10.7,17.4-25.6,17.4-41.9h0V371l-118.7-0.1L798.1,450.1L798.1,450.1L798.1,450.1z"/>
	<path class="st35" d="M800.3,450.3L800.3,450.3c0,15.6,6.4,29.8,16.8,40.1c10.4,10.3,24.6,16.7,40.2,16.7
		c15.7,0,29.9-6.4,40.2-16.6c10.3-10.3,16.7-24.4,16.7-40h0v-76.8l-113.8,0L800.3,450.3 M891.3,396.5l0,48.9l0,5.2h0
		c0,1.4-0.1,2.9-0.2,4.2c-0.9,7.7-4.5,14.5-9.7,19.7c-6.2,6.1-14.7,9.9-24,9.9c-9.3,0-17.6-3.9-23.8-10.1c-6.3-6.3-10-15-10-23.9
		l0-54L891.3,396.5L891.3,396.5L891.3,396.5z"/>
	<g>
		<g id="castle">
			<path class="st36" d="M807.7,393.6c0.1-5.5,4.1-6.8,4.1-6.8c0,0,4.2,1.4,4.2,6.9L807.7,393.6"/>
			<path class="st37" d="M804.3,386.8l-0.7,6.3l4.1,0c0-5.2,4-6.1,4.1-6.1c0.1,0,4,1.2,4.1,6.1h4.2l-0.7-6.4L804.3,386.8
				L804.3,386.8L804.3,386.8z"/>
			<path class="st37" d="M803.4,393.2h16.9c0.4,0,0.6,0.4,0.6,0.8c0,0.4-0.3,0.8-0.6,0.8h-16.9c-0.4,0-0.6-0.4-0.6-0.8
				C802.7,393.5,803,393.2,803.4,393.2z"/>
			<path class="st37" d="M809.5,393.2c0-3.3,2.3-4.3,2.3-4.2c0,0,2.3,1,2.4,4.2H809.5"/>
			<path class="st37" d="M803.7,384.2H820c0.3,0,0.6,0.3,0.6,0.7c0,0.4-0.3,0.7-0.6,0.7h-16.2c-0.3,0-0.6-0.3-0.6-0.7
				C803.1,384.5,803.4,384.2,803.7,384.2z"/>
			<path class="st37" d="M804.1,385.6h15.5c0.3,0,0.6,0.3,0.6,0.7c0,0.4-0.3,0.7-0.6,0.7h-15.5c-0.3,0-0.6-0.3-0.6-0.7
				C803.5,385.9,803.7,385.6,804.1,385.6z"/>
			<path class="st37" d="M809.1,375l1.2,0v0.9h0.9V375l1.3,0v0.9h0.9V375h1.3l0,2c0,0.3-0.3,0.5-0.5,0.5h-4.4
				c-0.3,0-0.6-0.2-0.6-0.5L809.1,375L809.1,375L809.1,375z"/>
			<path class="st37" d="M813.7,377.7l0.3,6.5l-4.3,0l0.3-6.5L813.7,377.7"/>
			<path id="cp1" class="st37" d="M808.4,380.7l0.1,3.5l-4.1,0l0.1-3.5L808.4,380.7L808.4,380.7L808.4,380.7z"/>
			<g>
				<path id="cp1_1_" class="st37" d="M819.1,380.7l0.1,3.5l-4.1,0l0.1-3.5L819.1,380.7L819.1,380.7L819.1,380.7z"/>
			</g>
			<path id="cp2" class="st37" d="M803.8,378.2l1.2,0v0.9h0.9v-0.9l1.2,0v0.9h0.9v-0.9l1.2,0l0,2c0,0.3-0.2,0.5-0.5,0.5h-4.3
				c-0.3,0-0.6-0.2-0.6-0.5L803.8,378.2L803.8,378.2L803.8,378.2z"/>
			<g>
				<path id="cp2_1_" class="st37" d="M814.4,378.2l1.2,0v0.9h0.9v-0.9l1.2,0v0.9h0.9v-0.9l1.2,0l0,2c0,0.3-0.2,0.5-0.5,0.5H815
					c-0.3,0-0.6-0.2-0.6-0.5L814.4,378.2L814.4,378.2L814.4,378.2z"/>
			</g>
			<path d="M811.4,379.7c0-0.6,0.9-0.6,0.9,0v1.5h-0.9L811.4,379.7"/>
			<path id="cp3" d="M806.1,382c0-0.6,0.8-0.6,0.8,0v1.2h-0.8L806.1,382"/>
			<g>
				<path id="cp3_1_" d="M816.7,382c0-0.6,0.8-0.6,0.8,0v1.2h-0.8L816.7,382"/>
			</g>
		</g>
		<g>
			<g id="castle_1_">
				<path class="st36" d="M807.7,439.9c0.1-5.5,4.1-6.8,4.1-6.8c0,0,4.2,1.4,4.2,6.9L807.7,439.9"/>
				<path class="st37" d="M804.3,433.1l-0.7,6.3l4.1,0c0-5.2,4-6.1,4.1-6.1c0.1,0,4,1.2,4.1,6.1h4.2l-0.7-6.4L804.3,433.1
					L804.3,433.1L804.3,433.1z"/>
				<path class="st37" d="M803.4,439.5h16.9c0.4,0,0.6,0.4,0.6,0.8c0,0.4-0.3,0.8-0.6,0.8h-16.9c-0.4,0-0.6-0.4-0.6-0.8
					C802.7,439.9,803,439.5,803.4,439.5z"/>
				<path class="st37" d="M809.5,439.5c0-3.3,2.3-4.3,2.3-4.2c0,0,2.3,1,2.4,4.2H809.5"/>
				<path class="st37" d="M803.7,430.5H820c0.3,0,0.6,0.3,0.6,0.7c0,0.4-0.3,0.7-0.6,0.7h-16.2c-0.3,0-0.6-0.3-0.6-0.7
					C803.1,430.8,803.4,430.5,803.7,430.5z"/>
				<path class="st37" d="M804.1,431.9h15.5c0.3,0,0.6,0.3,0.6,0.7c0,0.4-0.3,0.7-0.6,0.7h-15.5c-0.3,0-0.6-0.3-0.6-0.7
					C803.5,432.2,803.7,431.9,804.1,431.9z"/>
				<path class="st37" d="M809.1,421.3l1.2,0v0.9h0.9v-0.9l1.3,0v0.9h0.9v-0.9h1.3l0,2c0,0.3-0.3,0.5-0.5,0.5h-4.4
					c-0.3,0-0.6-0.2-0.6-0.5L809.1,421.3L809.1,421.3L809.1,421.3z"/>
				<path class="st37" d="M813.7,424l0.3,6.5l-4.3,0l0.3-6.5L813.7,424"/>
				<path id="cp1_2_" class="st37" d="M808.4,427l0.1,3.5l-4.1,0l0.1-3.5L808.4,427L808.4,427L808.4,427z"/>
				<g>
					<path id="cp1_3_" class="st37" d="M819.1,427l0.1,3.5l-4.1,0l0.1-3.5L819.1,427L819.1,427L819.1,427z"/>
				</g>
				<path id="cp2_2_" class="st37" d="M803.8,424.5l1.2,0v0.9h0.9v-0.9l1.2,0v0.9h0.9v-0.9l1.2,0l0,2c0,0.3-0.2,0.5-0.5,0.5h-4.3
					c-0.3,0-0.6-0.2-0.6-0.5L803.8,424.5L803.8,424.5L803.8,424.5z"/>
				<g>
					<path id="cp2_3_" class="st37" d="M814.4,424.5l1.2,0v0.9h0.9v-0.9l1.2,0v0.9h0.9v-0.9l1.2,0l0,2c0,0.3-0.2,0.5-0.5,0.5H815
						c-0.3,0-0.6-0.2-0.6-0.5L814.4,424.5L814.4,424.5L814.4,424.5z"/>
				</g>
				<path d="M811.4,426.1c0-0.6,0.9-0.6,0.9,0v1.5h-0.9L811.4,426.1"/>
				<path id="cp3_2_" d="M806.1,428.3c0-0.6,0.8-0.6,0.8,0v1.2h-0.8L806.1,428.3"/>
				<g>
					<path id="cp3_3_" d="M816.7,428.3c0-0.6,0.8-0.6,0.8,0v1.2h-0.8L816.7,428.3"/>
				</g>
			</g>
			<g id="castle3">
				<g id="castle_2_">
					<path class="st36" d="M825.8,488.1c-3.8-4-2-7.7-2-7.7c0,0,4-2,7.9,1.9L825.8,488.1"/>
					<path class="st37" d="M818.6,485.7l4,5l2.9-2.9c-3.7-3.7-1.5-7.1-1.5-7.2c0.1-0.1,3.6-2,7.2,1.4l2.9-2.9l-5.1-4L818.6,485.7
						L818.6,485.7L818.6,485.7z"/>
					<path class="st37" d="M822.4,490.9l11.9-12c0.3-0.3,0.7-0.2,1,0.1c0.3,0.3,0.3,0.8,0.1,1l-11.9,12c-0.3,0.3-0.7,0.2-1-0.1
						C822.2,491.6,822.2,491.2,822.4,490.9z"/>
					<path class="st37" d="M826.8,486.5c-2.3-2.3-1.4-4.6-1.4-4.6c0,0,2.3-1,4.7,1.3L826.8,486.5"/>
					<path class="st37" d="M816.3,484.3l11.4-11.5c0.2-0.2,0.7-0.2,0.9,0.1c0.3,0.3,0.3,0.7,0.1,0.9l-11.4,11.5
						c-0.2,0.2-0.7,0.2-0.9-0.1C816.1,485,816.1,484.6,816.3,484.3z"/>
					<path class="st37" d="M817.5,485.1l10.9-11c0.2-0.2,0.6-0.2,0.9,0.1c0.3,0.3,0.3,0.7,0.1,0.9l-10.9,11
						c-0.2,0.2-0.6,0.2-0.9-0.1C817.3,485.7,817.3,485.3,817.5,485.1z"/>
					<path class="st37" d="M813.6,474l0.9-0.9l0.6,0.6l0.6-0.6l-0.6-0.6l0.9-0.9l0.6,0.6l0.6-0.6l-0.6-0.6l0.9-0.9l1.4,1.4
						c0.2,0.2,0.2,0.5,0,0.8l-3.1,3.1c-0.2,0.2-0.6,0.2-0.8,0L813.6,474L813.6,474L813.6,474z"/>
					<path class="st37" d="M818.7,472.7l4.8,4.3l-3,3l-4.4-4.7L818.7,472.7"/>
					<path id="cp1_4_" class="st37" d="M817.1,478.5l2.6,2.4l-2.9,2.9l-2.4-2.5L817.1,478.5L817.1,478.5L817.1,478.5z"/>
					<g>
						<path id="cp1_5_" class="st37" d="M824.6,471l2.6,2.4l-2.9,2.9l-2.4-2.5L824.6,471L824.6,471L824.6,471z"/>
					</g>
					<path id="cp2_4_" class="st37" d="M812.1,480l0.8-0.8l0.6,0.6l0.6-0.6l-0.6-0.6l0.9-0.9l0.6,0.6l0.6-0.6L815,477l0.9-0.9
						l1.4,1.4c0.2,0.2,0.2,0.5,0,0.7l-3,3.1c-0.2,0.2-0.6,0.2-0.8,0L812.1,480L812.1,480L812.1,480z"/>
					<g>
						<path id="cp2_5_" class="st37" d="M819.6,472.5l0.8-0.8l0.6,0.6l0.6-0.6L821,471l0.9-0.9l0.6,0.6l0.6-0.6l-0.6-0.6l0.9-0.9
							l1.4,1.4c0.2,0.2,0.2,0.5,0,0.7l-3,3.1c-0.2,0.2-0.6,0.2-0.8,0L819.6,472.5L819.6,472.5L819.6,472.5z"/>
					</g>
					<path d="M818.6,475.7c-0.5-0.4,0.2-1.1,0.6-0.6l1.1,1.1l-0.6,0.6L818.6,475.7"/>
					<path id="cp3_4_" d="M816.4,481.1c-0.4-0.4,0.2-1,0.6-0.6l0.8,0.8l-0.6,0.6L816.4,481.1"/>
					<g transform="matrix(0.70460892,-0.70959585,0.70959585,0.70460892,-35.341459,275.10898)">
						<path id="cp3_5_" d="M823.9,473.5c-0.4-0.4,0.2-1,0.6-0.6l0.8,0.8l-0.6,0.6L823.9,473.5"/>
					</g>
				</g>
			</g>
			<g>
				<g id="castle_3_">
					<path class="st36" d="M853.4,393.6c0.1-5.5,4.1-6.8,4.1-6.8c0,0,4.2,1.4,4.2,6.9L853.4,393.6"/>
					<path class="st37" d="M850,386.8l-0.7,6.3l4.1,0c0-5.2,4-6.1,4.1-6.1c0.1,0,4,1.2,4.1,6.1h4.2l-0.7-6.4L850,386.8L850,386.8
						L850,386.8z"/>
					<path class="st37" d="M849.1,393.2H866c0.4,0,0.6,0.4,0.6,0.8c0,0.4-0.3,0.8-0.6,0.8h-16.9c-0.4,0-0.6-0.4-0.6-0.8
						C848.4,393.5,848.7,393.2,849.1,393.2z"/>
					<path class="st37" d="M855.2,393.2c0-3.3,2.3-4.3,2.3-4.2c0,0,2.3,1,2.4,4.2H855.2"/>
					<path class="st37" d="M849.4,384.2h16.2c0.3,0,0.6,0.3,0.6,0.7c0,0.4-0.3,0.7-0.6,0.7h-16.2c-0.3,0-0.6-0.3-0.6-0.7
						C848.8,384.5,849.1,384.2,849.4,384.2z"/>
					<path class="st37" d="M849.8,385.6h15.5c0.3,0,0.6,0.3,0.6,0.7c0,0.4-0.3,0.7-0.6,0.7h-15.5c-0.3,0-0.6-0.3-0.6-0.7
						C849.2,385.9,849.4,385.6,849.8,385.6z"/>
					<path class="st37" d="M854.8,375l1.2,0v0.9h0.9V375l1.3,0v0.9h0.9V375h1.3l0,2c0,0.3-0.3,0.5-0.5,0.5h-4.4
						c-0.3,0-0.6-0.2-0.6-0.5L854.8,375L854.8,375L854.8,375z"/>
					<path class="st37" d="M859.4,377.7l0.3,6.5l-4.3,0l0.3-6.5L859.4,377.7"/>
					<path id="cp1_6_" class="st37" d="M854.2,380.7l0.1,3.5l-4.1,0l0.1-3.5L854.2,380.7L854.2,380.7L854.2,380.7z"/>
					<g>
						<path id="cp1_7_" class="st37" d="M864.8,380.7l0.1,3.5l-4.1,0l0.1-3.5L864.8,380.7L864.8,380.7L864.8,380.7z"/>
					</g>
					<path id="cp2_6_" class="st37" d="M849.5,378.2l1.2,0v0.9h0.9v-0.9l1.2,0v0.9h0.9v-0.9l1.2,0l0,2c0,0.3-0.2,0.5-0.5,0.5h-4.3
						c-0.3,0-0.6-0.2-0.6-0.5L849.5,378.2L849.5,378.2L849.5,378.2z"/>
					<g>
						<path id="cp2_7_" class="st37" d="M860.1,378.2l1.2,0v0.9h0.9v-0.9l1.2,0v0.9h0.9v-0.9l1.2,0l0,2c0,0.3-0.2,0.5-0.5,0.5h-4.3
							c-0.3,0-0.6-0.2-0.6-0.5L860.1,378.2L860.1,378.2L860.1,378.2z"/>
					</g>
					<path d="M857.1,379.7c0-0.6,0.9-0.6,0.9,0v1.5h-0.9L857.1,379.7"/>
					<path id="cp3_6_" d="M851.8,382c0-0.6,0.8-0.6,0.8,0v1.2h-0.8L851.8,382"/>
					<g>
						<path id="cp3_7_" d="M862.4,382c0-0.6,0.8-0.6,0.8,0v1.2h-0.8L862.4,382"/>
					</g>
				</g>
				<g>
					<g>
						<g id="castle_4_">
							<path class="st36" d="M907.1,393.6c-0.1-5.5-4.1-6.8-4.1-6.8c0,0-4.2,1.4-4.2,6.9L907.1,393.6"/>
							<path class="st37" d="M910.5,386.8l0.7,6.3l-4.1,0c0-5.2-4-6.1-4.1-6.1c-0.1,0-4,1.2-4.1,6.1h-4.2l0.7-6.4L910.5,386.8
								L910.5,386.8L910.5,386.8z"/>
							<path class="st37" d="M911.4,393.2h-16.9c-0.4,0-0.6,0.4-0.6,0.8c0,0.4,0.3,0.8,0.6,0.8h16.9c0.4,0,0.6-0.4,0.6-0.8
								C912.1,393.5,911.8,393.2,911.4,393.2z"/>
							<path class="st37" d="M905.3,393.2c0-3.3-2.3-4.3-2.3-4.2c0,0-2.3,1-2.4,4.2H905.3"/>
							<path class="st37" d="M911.1,384.2h-16.2c-0.3,0-0.6,0.3-0.6,0.7c0,0.4,0.3,0.7,0.6,0.7h16.2c0.3,0,0.6-0.3,0.6-0.7
								C911.7,384.5,911.4,384.2,911.1,384.2z"/>
							<path class="st37" d="M910.7,385.6h-15.5c-0.3,0-0.6,0.3-0.6,0.7c0,0.4,0.3,0.7,0.6,0.7h15.5c0.3,0,0.6-0.3,0.6-0.7
								C911.3,385.9,911.1,385.6,910.7,385.6z"/>
							<path class="st37" d="M905.7,375l-1.2,0v0.9h-0.9V375l-1.3,0v0.9h-0.9V375h-1.3l0,2c0,0.3,0.3,0.5,0.5,0.5h4.4
								c0.3,0,0.6-0.2,0.6-0.5L905.7,375L905.7,375L905.7,375z"/>
							<path class="st37" d="M901.1,377.7l-0.3,6.5l4.3,0l-0.3-6.5L901.1,377.7"/>
							<path id="cp1_8_" class="st37" d="M906.4,380.7l-0.1,3.5l4.1,0l-0.1-3.5L906.4,380.7L906.4,380.7L906.4,380.7z"/>
							<g>
								<path id="cp1_9_" class="st37" d="M895.7,380.7l-0.1,3.5l4.1,0l-0.1-3.5L895.7,380.7L895.7,380.7L895.7,380.7z"/>
							</g>
							<path id="cp2_8_" class="st37" d="M911,378.2l-1.2,0v0.9h-0.9v-0.9l-1.2,0v0.9h-0.9v-0.9l-1.2,0l0,2c0,0.3,0.2,0.5,0.5,0.5
								h4.3c0.3,0,0.6-0.2,0.6-0.5L911,378.2L911,378.2L911,378.2z"/>
							<g>
								<path id="cp2_9_" class="st37" d="M900.4,378.2l-1.2,0v0.9h-0.9v-0.9l-1.2,0v0.9h-0.9v-0.9l-1.2,0l0,2
									c0,0.3,0.2,0.5,0.5,0.5h4.3c0.3,0,0.6-0.2,0.6-0.5L900.4,378.2L900.4,378.2L900.4,378.2z"/>
							</g>
							<path d="M903.4,379.7c0-0.6-0.9-0.6-0.9,0v1.5h0.9L903.4,379.7"/>
							<path id="cp3_8_" d="M908.7,382c0-0.6-0.8-0.6-0.8,0v1.2h0.8L908.7,382"/>
							<g>
								<path id="cp3_9_" d="M898.1,382c0-0.6-0.8-0.6-0.8,0v1.2h0.8L898.1,382"/>
							</g>
						</g>
						<g>
							<g id="castle_5_">
								<path class="st36" d="M907.1,439.9c-0.1-5.5-4.1-6.8-4.1-6.8c0,0-4.2,1.4-4.2,6.9L907.1,439.9"/>
								<path class="st37" d="M910.5,433.1l0.7,6.3l-4.1,0c0-5.2-4-6.1-4.1-6.1c-0.1,0-4,1.2-4.1,6.1h-4.2l0.7-6.4L910.5,433.1
									L910.5,433.1L910.5,433.1z"/>
								<path class="st37" d="M911.4,439.5h-16.9c-0.4,0-0.6,0.4-0.6,0.8c0,0.4,0.3,0.8,0.6,0.8h16.9c0.4,0,0.6-0.4,0.6-0.8
									C912.1,439.9,911.8,439.5,911.4,439.5z"/>
								<path class="st37" d="M905.3,439.5c0-3.3-2.3-4.3-2.3-4.2c0,0-2.3,1-2.4,4.2H905.3"/>
								<path class="st37" d="M911.1,430.5h-16.2c-0.3,0-0.6,0.3-0.6,0.7c0,0.4,0.3,0.7,0.6,0.7h16.2c0.3,0,0.6-0.3,0.6-0.7
									C911.7,430.8,911.4,430.5,911.1,430.5z"/>
								<path class="st37" d="M910.7,431.9h-15.5c-0.3,0-0.6,0.3-0.6,0.7c0,0.4,0.3,0.7,0.6,0.7h15.5c0.3,0,0.6-0.3,0.6-0.7
									C911.3,432.2,911.1,431.9,910.7,431.9z"/>
								<path class="st37" d="M905.7,421.3l-1.2,0v0.9h-0.9v-0.9l-1.3,0v0.9h-0.9v-0.9h-1.3l0,2c0,0.3,0.3,0.5,0.5,0.5h4.4
									c0.3,0,0.6-0.2,0.6-0.5L905.7,421.3L905.7,421.3L905.7,421.3z"/>
								<path class="st37" d="M901.1,424l-0.3,6.5l4.3,0l-0.3-6.5L901.1,424"/>
								<path id="cp1_10_" class="st37" d="M906.4,427l-0.1,3.5l4.1,0l-0.1-3.5L906.4,427L906.4,427L906.4,427z"/>
								<g>
									<path id="cp1_11_" class="st37" d="M895.7,427l-0.1,3.5l4.1,0l-0.1-3.5L895.7,427L895.7,427L895.7,427z"/>
								</g>
								<path id="cp2_10_" class="st37" d="M911,424.5l-1.2,0v0.9h-0.9v-0.9l-1.2,0v0.9h-0.9v-0.9l-1.2,0l0,2c0,0.3,0.2,0.5,0.5,0.5
									h4.3c0.3,0,0.6-0.2,0.6-0.5L911,424.5L911,424.5L911,424.5z"/>
								<g>
									<path id="cp2_11_" class="st37" d="M900.4,424.5l-1.2,0v0.9h-0.9v-0.9l-1.2,0v0.9h-0.9v-0.9l-1.2,0l0,2
										c0,0.3,0.2,0.5,0.5,0.5h4.3c0.3,0,0.6-0.2,0.6-0.5L900.4,424.5L900.4,424.5L900.4,424.5z"/>
								</g>
								<path d="M903.4,426.1c0-0.6-0.9-0.6-0.9,0v1.5h0.9L903.4,426.1"/>
								<path id="cp3_10_" d="M908.7,428.3c0-0.6-0.8-0.6-0.8,0v1.2h0.8L908.7,428.3"/>
								<g>
									<path id="cp3_11_" d="M898.1,428.3c0-0.6-0.8-0.6-0.8,0v1.2h0.8L898.1,428.3"/>
								</g>
							</g>
							<g id="castle3_1_">
								<g id="castle_6_">
									<path class="st36" d="M889,488.1c3.8-4,2-7.7,2-7.7c0,0-4-2-7.9,1.9L889,488.1"/>
									<path class="st37" d="M896.2,485.7l-4,5l-2.9-2.9c3.7-3.7,1.5-7.1,1.5-7.2c-0.1-0.1-3.6-2-7.2,1.4l-2.9-2.9l5.1-4
										L896.2,485.7L896.2,485.7L896.2,485.7z"/>
									<path class="st37" d="M892.4,490.9l-11.9-12c-0.3-0.3-0.7-0.2-1,0.1c-0.3,0.3-0.3,0.8-0.1,1l11.9,12c0.3,0.3,0.7,0.2,1-0.1
										C892.6,491.6,892.6,491.2,892.4,490.9z"/>
									<path class="st37" d="M888,486.5c2.3-2.3,1.4-4.6,1.4-4.6c0,0-2.3-1-4.7,1.3L888,486.5"/>
									<path class="st37" d="M898.5,484.3l-11.4-11.5c-0.2-0.2-0.7-0.2-0.9,0.1c-0.3,0.3-0.3,0.7-0.1,0.9l11.4,11.5
										c0.2,0.2,0.7,0.2,0.9-0.1C898.7,485,898.7,484.6,898.5,484.3z"/>
									<path class="st37" d="M897.3,485.1l-10.9-11c-0.2-0.2-0.6-0.2-0.9,0.1c-0.3,0.3-0.3,0.7-0.1,0.9l10.9,11
										c0.2,0.2,0.6,0.2,0.9-0.1C897.5,485.7,897.5,485.3,897.3,485.1z"/>
									<path class="st37" d="M901.2,474l-0.9-0.9l-0.6,0.6l-0.6-0.6l0.6-0.6l-0.9-0.9l-0.6,0.6l-0.6-0.6l0.6-0.6l-0.9-0.9
										l-1.4,1.4c-0.2,0.2-0.2,0.5,0,0.8l3.1,3.1c0.2,0.2,0.6,0.2,0.8,0L901.2,474L901.2,474L901.2,474z"/>
									<path class="st37" d="M896.1,472.7l-4.8,4.3l3,3l4.4-4.7L896.1,472.7"/>
									<path id="cp1_12_" class="st37" d="M897.6,478.5l-2.6,2.4l2.9,2.9l2.4-2.5L897.6,478.5L897.6,478.5L897.6,478.5z"/>
									<g>
										<path id="cp1_13_" class="st37" d="M890.2,471l-2.6,2.4l2.9,2.9l2.4-2.5L890.2,471L890.2,471L890.2,471z"/>
									</g>
									<path id="cp2_12_" class="st37" d="M902.7,480l-0.8-0.8l-0.6,0.6l-0.6-0.6l0.6-0.6l-0.9-0.9l-0.6,0.6l-0.6-0.6l0.6-0.6
										l-0.9-0.9l-1.4,1.4c-0.2,0.2-0.2,0.5,0,0.7l3,3.1c0.2,0.2,0.6,0.2,0.8,0L902.7,480L902.7,480L902.7,480z"/>
									<g>
										<path id="cp2_13_" class="st37" d="M895.2,472.5l-0.8-0.8l-0.6,0.6l-0.6-0.6l0.6-0.6l-0.9-0.9l-0.6,0.6l-0.6-0.6l0.6-0.6
											l-0.9-0.9l-1.4,1.4c-0.2,0.2-0.2,0.5,0,0.7l3,3.1c0.2,0.2,0.6,0.2,0.8,0L895.2,472.5L895.2,472.5L895.2,472.5z"/>
									</g>
									<path d="M896.2,475.7c0.5-0.4-0.2-1.1-0.6-0.6l-1.1,1.1l0.6,0.6L896.2,475.7"/>
									<path id="cp3_12_" d="M898.4,481.1c0.4-0.4-0.2-1-0.6-0.6l-0.8,0.8l0.6,0.6L898.4,481.1"/>
									<g transform="matrix(-1,0,0,1,479.79195,0)">
										<path id="cp3_13_" d="M890.9,473.5c0.4-0.4-0.2-1-0.6-0.6l-0.8,0.8l0.6,0.6L890.9,473.5"/>
									</g>
								</g>
							</g>
							<g id="quina">
								<path class="st38" d="M850.1,441.5L850.1,441.5c0,2.2,0.8,4.2,2.2,5.7c1.4,1.5,3.2,2.4,5.3,2.4c2.1,0,3.9-0.9,5.3-2.4
									c1.4-1.5,2.2-3.5,2.2-5.7v-10.8l-15,0L850.1,441.5"/>
								<circle class="st29" cx="853.6" cy="434.9" r="1.5"/>
								<circle class="st29" cx="861.9" cy="434.9" r="1.5"/>
								<circle class="st29" cx="857.7" cy="438.9" r="1.5"/>
								<circle class="st29" cx="853.6" cy="443" r="1.5"/>
								<circle class="st29" cx="861.9" cy="443" r="1.5"/>
							</g>
							<g>
								<g id="quina_1_">
									<path class="st38" d="M850.1,415.5L850.1,415.5c0,2.2,0.8,4.2,2.2,5.7c1.4,1.5,3.2,2.4,5.3,2.4c2.1,0,3.9-0.9,5.3-2.4
										c1.4-1.5,2.2-3.5,2.2-5.7v-10.8l-15,0L850.1,415.5"/>
									<circle class="st29" cx="853.6" cy="408.9" r="1.5"/>
									<circle class="st29" cx="861.9" cy="408.9" r="1.5"/>
									<circle class="st29" cx="857.7" cy="412.9" r="1.5"/>
									<circle class="st29" cx="853.6" cy="417" r="1.5"/>
									<circle class="st29" cx="861.9" cy="417" r="1.5"/>
								</g>
							</g>
							<g>
								<g id="quina_2_">
									<path class="st38" d="M829.3,441.5L829.3,441.5c0,2.2,0.8,4.2,2.2,5.7c1.4,1.5,3.2,2.4,5.3,2.4c2.1,0,3.9-0.9,5.3-2.4
										c1.4-1.5,2.2-3.5,2.2-5.7v-10.8l-15,0L829.3,441.5"/>
									<circle class="st29" cx="832.8" cy="434.9" r="1.5"/>
									<circle class="st29" cx="841.1" cy="434.9" r="1.5"/>
									<circle class="st29" cx="836.9" cy="438.9" r="1.5"/>
									<circle class="st29" cx="832.8" cy="443" r="1.5"/>
									<circle class="st29" cx="841.1" cy="443" r="1.5"/>
								</g>
							</g>
							<g>
								<g id="quina_3_">
									<path class="st38" d="M870.9,441.5L870.9,441.5c0,2.2,0.8,4.2,2.2,5.7c1.4,1.5,3.2,2.4,5.3,2.4c2.1,0,3.9-0.9,5.3-2.4
										c1.4-1.5,2.2-3.5,2.2-5.7v-10.8l-15,0L870.9,441.5"/>
									<circle class="st29" cx="874.3" cy="434.9" r="1.5"/>
									<circle class="st29" cx="882.6" cy="434.9" r="1.5"/>
									<circle class="st29" cx="878.5" cy="438.9" r="1.5"/>
									<circle class="st29" cx="874.3" cy="443" r="1.5"/>
									<circle class="st29" cx="882.6" cy="443" r="1.5"/>
								</g>
							</g>
							<g>
								<g id="quina_4_">
									<path class="st38" d="M850.1,467.3L850.1,467.3c0,2.2,0.8,4.2,2.2,5.7c1.4,1.5,3.2,2.4,5.3,2.4c2.1,0,3.9-0.9,5.3-2.4
										c1.4-1.5,2.2-3.5,2.2-5.7v-10.8l-15,0L850.1,467.3"/>
									<circle class="st29" cx="853.6" cy="460.7" r="1.5"/>
									<circle class="st29" cx="861.9" cy="460.7" r="1.5"/>
									<circle class="st29" cx="857.7" cy="464.7" r="1.5"/>
									<circle class="st29" cx="853.6" cy="468.8" r="1.5"/>
									<circle class="st29" cx="861.9" cy="468.8" r="1.5"/>
								</g>
							</g>
						</g>
					</g>
				</g>
			</g>
		</g>
	</g>
	<path class="st39" d="M536,974.5c5.3,3.5,17.8,10.8,35.3,11.5c20.7,0.8,35.5-8.1,40.7-11.5c0-259.5,0-519,0-778.5
		c-9.3,2.5-22,4.9-37,5c-16,0.1-29.3-2.4-39-5C536,455.5,536,715,536,974.5z"/>
</g>
</svg>
