<?xml version="1.0" encoding="utf-8"?>
<!-- Generator: Adobe Illustrator 21.0.0, SVG Export Plug-In . SVG Version: 6.00 Build 0)  -->
<svg version="1.1" id="Ebene_1" xmlns="http://www.w3.org/2000/svg" xmlns:xlink="http://www.w3.org/1999/xlink" x="0px" y="0px"
	 viewBox="0 0 2446 3663" style="enable-background:new 0 0 2446 3663;" xml:space="preserve">
<style type="text/css">
	.st0{fill:#87D4A2;}
	.st1{fill:#52956E;}
	.st2{fill:#9D7766;}
	.st3{fill:#AE8775;}
	.st4{fill:#A47A69;}
	.st5{fill:#A67C6B;}
	.st6{fill:#AE8673;}
	.st7{fill:#6FBF88;}
	.st8{fill:#A07A69;}
	.st9{fill:#A67D6C;}
	.st10{fill:#A37968;}
	.st11{fill:#B78D78;}
	.st12{fill:#A9806F;}
	.st13{fill:#AB8270;}
	.st14{fill:#9F7665;}
	.st15{fill:#B58C77;}
	.st16{fill:#BC927D;}
	.st17{fill:#BD947E;}
	.st18{fill:#B18773;}
	.st19{fill:#C09781;}
	.st20{fill:#C29982;}
	.st21{fill:#A27867;}
	.st22{fill:#AC8472;}
	.st23{fill:#B98F7A;}
	.st24{fill:#C49C84;}
	.st25{fill:#C19881;}
	.st26{fill:#BB917C;}
	.st27{opacity:0.3;fill:#2B2A29;enable-background:new    ;}
	.st28{fill:#B2B6B7;}
	.st29{fill:#FFFFFF;}
	.st30{fill:#C60B1E;}
	.st31{fill:#FFC400;}
	.st32{fill:#AD1519;stroke:#000000;stroke-width:0.26;stroke-linejoin:round;}
	.st33{fill:#C8B100;stroke:#000000;stroke-width:0.26;}
	.st34{fill:#C8B100;}
	.st35{fill:#C8B100;stroke:#000000;stroke-width:0.3;}
	.st36{fill:none;stroke:#000000;stroke-width:0.26;}
	.st37{fill:#C8B100;stroke:#000000;stroke-width:0.26;stroke-linejoin:round;}
	.st38{fill:#AD1519;stroke:#000000;stroke-width:0.26;}
	.st39{fill:#058E6E;stroke:#000000;stroke-width:0.26;}
	.st40{fill:#FFFFFF;stroke:#000000;stroke-width:0.26;}
	.st41{fill:none;stroke:#000000;stroke-width:1.000000e-02;}
	.st42{fill:none;stroke:#000000;stroke-width:2.000000e-02;}
	.st43{fill:none;stroke:#000000;stroke-width:3.000000e-02;}
	.st44{fill:none;stroke:#000000;stroke-width:4.000000e-02;}
	.st45{fill:none;stroke:#000000;stroke-width:5.000000e-02;}
	.st46{fill:none;stroke:#000000;stroke-width:6.000000e-02;}
	.st47{fill:none;stroke:#000000;stroke-width:7.000000e-02;}
	.st48{fill:none;stroke:#000000;stroke-width:8.000000e-02;}
	.st49{fill:none;stroke:#000000;stroke-width:9.000000e-02;}
	.st50{fill:none;stroke:#000000;stroke-width:0.1;}
	.st51{fill:none;stroke:#000000;stroke-width:0.11;}
	.st52{fill:none;stroke:#000000;stroke-width:0.12;}
	.st53{fill:none;stroke:#000000;stroke-width:0.13;}
	.st54{fill:none;stroke:#000000;stroke-width:0.14;}
	.st55{fill:none;stroke:#000000;stroke-width:0.15;}
	.st56{fill:none;stroke:#000000;stroke-width:0.18;}
	.st57{fill:#005BBF;stroke:#000000;stroke-width:0.39;}
	.st58{fill:#CCCCCC;stroke:#000000;stroke-width:0.39;}
	.st59{fill:#C8B100;stroke:#000000;stroke-width:0.39;stroke-linejoin:round;}
	.st60{fill:#C8B100;stroke:#000000;stroke-width:0.39;}
	.st61{fill:none;stroke:#000000;stroke-width:0.39;}
	.st62{fill:#AD1519;stroke:#000000;stroke-width:0.39;}
	.st63{fill:#AD1519;stroke:#000000;stroke-width:0.39;stroke-linejoin:round;}
	.st64{fill:#AD1519;stroke:#000000;stroke-width:0.27;}
	.st65{fill:none;stroke:#000000;stroke-width:0.26;stroke-linecap:round;}
	.st66{fill:none;stroke:#000000;stroke-width:0.21;}
	.st67{fill:#FFFFFF;stroke:#000000;stroke-width:0.21;}
	.st68{fill:#005BBF;stroke:#000000;stroke-width:0.26;}
	.st69{fill:#FFFFFF;stroke:#000000;stroke-width:0.39;}
	.st70{fill:none;stroke:#000000;stroke-width:0.23;}
	.st71{fill:none;stroke:#000000;stroke-width:0.28;}
	.st72{fill:none;stroke:#000000;stroke-width:0.33;}
	.st73{fill:none;stroke:#000000;stroke-width:0.37;}
	.st74{fill:none;stroke:#000000;stroke-width:0.42;}
	.st75{fill:none;stroke:#000000;stroke-width:0.46;}
	.st76{fill:none;stroke:#000000;stroke-width:0.51;}
	.st77{fill:none;stroke:#000000;stroke-width:0.56;}
	.st78{fill:none;stroke:#000000;stroke-width:0.6;}
	.st79{fill:none;stroke:#000000;stroke-width:0.63;}
	.st80{fill:none;stroke:#000000;stroke-width:0.68;}
	.st81{fill:none;stroke:#000000;stroke-width:0.73;}
	.st82{fill:none;stroke:#000000;stroke-width:0.77;}
	.st83{fill:none;stroke:#000000;stroke-width:0.91;}
	.st84{fill:#058E6E;stroke:#000000;stroke-width:0.39;}
	.st85{fill:#CCCCCC;stroke:#000000;stroke-width:0.52;}
	.st86{fill:#FFD691;stroke:#000000;stroke-width:0.52;}
	.st87{fill:#058E6E;stroke:#000000;stroke-width:0.52;}
	.st88{fill:#AD1519;stroke:#000000;stroke-width:0.52;}
	.st89{fill:#C8B100;stroke:#000000;stroke-width:0.52;}
	.st90{fill:#C8B100;stroke:#C8B100;stroke-width:0.26;}
	.st91{fill:#058E6E;}
	.st92{fill:#C8B100;stroke:#000000;stroke-width:0.46;}
	.st93{fill:#0039F0;}
	.st94{fill:#DB4446;stroke:#000000;stroke-width:0.39;}
	.st95{fill:#ED72AA;stroke:#000000;stroke-width:0.39;}
	.st96{stroke:#000000;stroke-width:0.26;}
	.st97{stroke:#000000;stroke-width:5.000000e-02;}
	.st98{fill:#AD1519;stroke:#000000;stroke-width:0.61;}
	.st99{fill:#005BBF;stroke:#000000;stroke-width:0.61;}
	.st100{fill:#C8B100;stroke:#000000;stroke-width:0.34;stroke-linejoin:round;}
	.st101{fill:#C8B100;stroke:#000000;stroke-width:0.34;}
	.st102{fill:#7C7B7B;}
</style>
<title>EmptyIslandShadow</title>
<path class="st0" d="M299,767L0,884l199,67L95,999l292,77l191,132l199-62l91,31h124l60,31l240,35l270,7l386-100l112,19l243-122
	l143-115l-63-104l-312-8l-67-39l-297-32l-130-61l-312-11l-98,45l-88-15l-92,6l-88,13L299,767z"/>
<polygon class="st1" points="0,884 32,911 177.1,961.1 199,951 "/>
<polygon class="st1" points="99,999 114,1017 383,1089 407,1089 387,1076 "/>
<polygon class="st2" points="45.9,915.8 79,955 148,974.5 177,961 "/>
<polygon class="st3" points="128,1036 398,1108 461,1142 586,1227 578,1208 473.6,1135.3 407,1089 111,1017 "/>
<polygon class="st4" points="414,1114.7 443,1233 553,1273 506,1225 483.5,1155.3 "/>
<polygon class="st5" points="484,1157 586,1227 644,1217 724,1366 506,1227 "/>
<polygon class="st6" points="506,1225 724,1364 749,1424 443,1233 553,1273 "/>
<polygon class="st3" points="586,1227 777,1194 777,1165 578,1208 "/>
<polygon class="st1" points="578,1208 732.6,1174.6 777,1165 "/>
<polygon class="st6" points="749,1424 841,1504 952,1581 1128,1635 1233,1704 1333,1624 1351,1663 1494,1542 1590,1486 1657,1457 
	1807,1366 1939,1275 1983,1196 1921,1186 1568,1267 1389,1261 1279,1273 1059,1227 987,1215 867,1213 791,1186 777,1194 644,1217 
	"/>
<polygon class="st7" points="777,1165 861,1194 987,1194 1059,1227 1261,1250 1336,1250 1056,1208 992,1177 868,1177 777,1146 
	578,1208 777,1146 "/>
<polygon class="st4" points="749,1171.1 578,1208 777,1146 777,1165 861,1194 987,1194 1059,1227 867,1216 777,1194 "/>
<polygon class="st8" points="1319.7,1247.6 1352,1244.6 1562,1250 1934,1165 2045,1186 2029,1198 1938.5,1187.8 1568,1267 
	1389,1261 "/>
<polygon class="st7" points="2060,1169 2045,1186 1934,1165 1562,1250 1948,1146 "/>
<polygon class="st4" points="1059,1227 1279,1273 1389,1261 1320,1250 "/>
<polygon class="st4" points="1313.5,1267 1429.1,1262.3 1352,1245 1320,1250 "/>
<polyline class="st0" points="1352,1245 1320,1250 1292,1243 1336,1216 "/>
<polygon class="st5" points="742.6,1391.8 813.1,1479.3 940.3,1535.1 818,1390.1 739.7,1365.9 "/>
<polygon class="st5" points="1939,1187 1887,1245 1939,1227 1983,1196 "/>
<polygon class="st5" points="1983,1196 2001,1187 1935,1187 "/>
<polygon class="st5" points="907,1256 1009,1267 1070,1400 1178,1559 1062,1505 936,1417 943,1340 "/>
<polygon class="st7" points="777,1165 749,1169 578,1208 777,1146 "/>
<polygon class="st9" points="644,1216 733.1,1201.3 770,1301 724,1364 "/>
<polygon class="st10" points="724,1364 749,1424 770,1301 "/>
<polygon class="st11" points="733,1201 777,1194 784,1283 770,1301 "/>
<polygon class="st10" points="644,1216 597.6,1225 724,1364 "/>
<polygon class="st12" points="1128,1635 957,1581 749,1424 770,1301 833,1435 "/>
<polygon class="st13" points="875,1334 833,1435 770,1301 784,1283 "/>
<polygon class="st9" points="784,1283 875,1334 893,1308 885.8,1216 791,1186 777,1194 "/>
<polygon class="st14" points="893.7,1345.6 963.8,1373 1000,1335.7 902.1,1216 886,1216 "/>
<polygon class="st15" points="835,1435 886,1408 920,1435 886,1470.9 "/>
<polygon class="st16" points="835,1435 875,1334 886,1408 "/>
<polygon class="st17" points="1128,1359 1216.8,1260 1279,1273 1371.3,1261.5 1336,1301 1144,1461 "/>
<polygon class="st18" points="1077.7,1233 1128,1359 1217,1260 "/>
<polygon class="st16" points="1380,1273 1455,1359 1172,1535 "/>
<polygon class="st19" points="1455,1359 1272,1545 1172,1535 "/>
<polygon class="st20" points="1272,1545 1320,1535 1470,1424 1455,1359 "/>
<polygon class="st21" points="1063,1504 1172,1535 1147,1461 "/>
<polygon class="st22" points="1063,1580 1063,1504 1172,1535 1172,1616 1233,1704 1128,1635 "/>
<polygon class="st23" points="1496.6,1267 1455,1359 1470,1424 1476,1384 1602,1351 1642.1,1250 1568,1267 "/>
<polygon class="st5" points="1470,1424 1549,1408 1634,1390 1663,1362 1663,1337 1634,1337 1602,1351 1558.1,1362.5 1476,1384 "/>
<polygon class="st24" points="1811,1366 1663,1363 1663,1337 1634,1337 1612.5,1346.4 1642,1250 1682.4,1245 1921,1186 1983,1196 
	1935,1275 "/>
<polygon class="st17" points="1634,1388.9 1657,1457 1811,1365.9 1663,1363 "/>
<polygon class="st6" points="1172,1604 1213.2,1675.4 1256,1665 1278,1640 1345,1584 1495,1488 1584,1435 1470,1424 1286,1566 "/>
<polygon class="st25" points="1217,1675 1233,1704 1336,1624 1497,1522 1497,1488 1278,1635 "/>
<polygon class="st26" points="1336,1624 1352,1663 1540,1504 1657,1457 1497,1522 "/>
<ellipse class="st27" cx="1224" cy="3382.1" rx="644.5" ry="50"/>
<ellipse class="st28" cx="574" cy="194.5" rx="38" ry="7.5"/>
<ellipse class="st27" cx="907" cy="967.3" rx="268" ry="20.8"/>
<rect x="808.4" y="205" class="st29" width="65.1" height="439"/>
<rect x="613" y="393.1" class="st29" width="602.5" height="62.7"/>
<rect x="612" y="207.6" class="st30" width="601.3" height="436.4"/>
<rect x="612" y="316.7" class="st31" width="601.3" height="218.2"/>
<g id="coa">
	<g id="supporters">
		<g id="crown_left">
			<path class="st32" d="M746.6,401.6c0,0-0.4,0-0.6-0.1c-0.2-0.1-0.9-0.8-0.9-0.8l-0.5-0.4l-0.5-0.7c0,0-0.6-1-0.3-1.8
				s0.7-1.1,1.1-1.3c0.4-0.2,1.3-0.5,1.3-0.5s0.7-0.3,0.9-0.4s1-0.3,1-0.3s0.2-0.1,0.4-0.2s0.5-0.1,0.7-0.1c0.2-0.1,0.6-0.2,0.9-0.2
				c0.4,0,1.1,0.1,1.3,0.1s1,0,1.3,0s1.4-0.1,1.8-0.1c0.3,0,0.5,0,0.9,0c0.4,0.1,1,0.3,1.2,0.4s1.3,0.5,1.7,0.7s1.4,0.3,1.9,0.6
				c0.4,0.2,0.7,0.6,1,1c0.2,0.3,0.3,0.7,0.4,0.9c0.1,0.2,0.1,0.7,0,1c-0.1,0.2-0.4,0.7-0.4,0.7l-0.5,0.9l-0.6,0.6
				c0,0-0.5,0.5-0.8,0.4c-0.4,0-4-0.8-6.4-0.8C750.4,400.8,746.6,401.6,746.6,401.6L746.6,401.6L746.6,401.6z"/>
			<g>
				<ellipse class="st33" cx="752.8" cy="395.8" rx="1.1" ry="2.2"/>
				<ellipse class="st33" cx="752.8" cy="395.8" rx="0.5" ry="2"/>
				<ellipse class="st34" cx="752.8" cy="393.5" rx="0.7" ry="0.8"/>
				<path class="st35" d="M753.8,393.3v0.5h-2v-0.5h0.8v-1.2h-0.5v-0.5h0.5v-0.5h0.5v0.5h0.5v0.5H753v1.2H753.8"/>
				<path class="st36" d="M753,392.8c0.4,0.1,0.6,0.5,0.5,0.9s-0.5,0.6-0.9,0.5s-0.6-0.5-0.5-0.9c0.1-0.3,0.3-0.5,0.5-0.5"/>
				<path class="st33" d="M752.8,401.4H749l-0.1-1l-0.2-1.1l-0.2-1.3c-1.1-1.5-2-2.5-2.4-2.3c0.1-0.3,0.2-0.5,0.4-0.6
					c0.9-0.6,2.9,0.9,4.4,3.3c0.1,0.2,0.3,0.4,0.4,0.7h3.2c0.1-0.2,0.2-0.4,0.4-0.7c1.5-2.4,3.4-3.9,4.4-3.3
					c0.2,0.1,0.3,0.3,0.4,0.6c-0.3-0.2-1.3,0.8-2.4,2.3l-0.2,1.3l-0.2,1.1l-0.1,1H752.8L752.8,401.4z"/>
				<path class="st36" d="M746.3,395.6c0.7-0.5,2.4,1,3.8,3.3 M759.3,395.6c-0.7-0.5-2.4,1-3.8,3.3"/>
			</g>
			<g id="crown_pt1">
				<path class="st33" d="M747.1,403.3c-0.2-0.5-0.5-0.9-0.5-0.9c1.6-0.5,3.7-0.8,6.1-0.8c2.4,0,4.6,0.3,6.2,0.8
					c0,0-0.2,0.3-0.4,0.8c-0.1,0.3-0.3,0.7-0.3,0.7c-1.4-0.5-3.2-0.7-5.5-0.7c-2.2,0-4.4,0.3-5.5,0.8
					C747.3,403.9,747.2,403.6,747.1,403.3L747.1,403.3"/>
				<path class="st33" d="M752.8,405.5c1.9,0,4.1-0.3,4.9-0.5c0.5-0.2,0.8-0.4,0.8-0.7c0-0.1-0.1-0.3-0.3-0.3
					c-1.2-0.4-3.3-0.7-5.4-0.7c-2.1,0-4.2,0.3-5.4,0.7c-0.2,0.1-0.3,0.2-0.3,0.3c-0.1,0.3,0.3,0.6,0.8,0.7
					C748.7,405.2,750.9,405.5,752.8,405.5z"/>
				<path class="st33" d="M759.1,401.4l-0.5-0.5c0,0-0.5,0.3-1,0.2c-0.6-0.1-0.7-0.8-0.7-0.8s-0.6,0.6-1.2,0.5
					c-0.5-0.1-0.9-0.5-0.9-0.5s-0.6,0.4-1.1,0.4c-0.5-0.1-1-0.7-1-0.7s-0.5,0.7-1,0.8c-0.5,0-0.9-0.5-0.9-0.5s-0.2,0.5-0.9,0.6
					c-0.6,0.1-1.2-0.5-1.2-0.5s-0.4,0.6-0.8,0.8c-0.4,0.2-1-0.2-1-0.2s-0.1,0.2-0.2,0.4c-0.1,0.1-0.2,0.2-0.2,0.2l0.1,0.4
					c1.5-0.5,3.7-0.8,6-0.8c2.4,0,4.5,0.3,6.1,0.8L759.1,401.4L759.1,401.4L759.1,401.4z"/>
				<path class="st33" d="M752.8,399.2h0.2c0,0.1,0,0.2,0,0.3c0,0.5,0.4,0.9,0.9,0.9c0.4,0,0.7-0.3,0.8-0.6l0.1-0.3v0.4
					c0.1,0.5,0.4,0.8,0.9,0.8s0.9-0.4,0.9-0.9v-0.1l0.3-0.3l0.2,0.4c-0.1,0.1-0.1,0.3-0.1,0.4c0,0.5,0.4,0.9,0.8,0.9
					c0.3,0,0.6-0.2,0.7-0.4l0.2-0.3v0.3c0,0.3,0.1,0.6,0.4,0.6c0,0,0.3,0,0.7-0.3c0.4-0.4,0.6-0.7,0.6-0.7v0.4c0,0-0.4,0.7-0.8,1
					c-0.2,0.1-0.5,0.3-0.8,0.2c-0.3,0-0.4-0.3-0.5-0.5c-0.2,0.1-0.4,0.2-0.6,0.2c-0.5,0-1-0.3-1.1-0.8c-0.2,0.3-0.6,0.4-0.9,0.4
					c-0.4,0-0.8-0.2-1-0.5c-0.2,0.2-0.5,0.4-0.9,0.4s-0.8-0.2-1.1-0.6c-0.2,0.4-0.6,0.6-1.1,0.6c-0.3,0-0.6-0.1-0.9-0.4
					c-0.2,0.3-0.6,0.5-1,0.5s-0.7-0.2-0.9-0.4c-0.2,0.4-0.6,0.8-1.1,0.8c-0.2,0-0.4-0.1-0.6-0.2c-0.1,0.3-0.3,0.5-0.5,0.5
					c-0.2,0.1-0.6-0.1-0.8-0.2c-0.4-0.2-0.8-1-0.8-1l0.1-0.4c0,0,0.2,0.3,0.6,0.7c0.4,0.4,0.7,0.3,0.7,0.3c0.3,0,0.4-0.3,0.4-0.6
					v-0.3l0.2,0.3c0.2,0.2,0.4,0.4,0.7,0.4c0.5,0,0.8-0.4,0.8-0.9c0-0.1,0-0.3-0.1-0.4l0.2-0.4l0.3,0.3v0.1c0,0.5,0.4,0.9,0.9,0.9
					c0.4,0,0.8-0.3,0.9-0.8v-0.4l0.1,0.3c0.1,0.4,0.4,0.6,0.8,0.6c0.5,0,0.9-0.4,0.9-0.9c0-0.1,0-0.2,0-0.3H752.8L752.8,399.2
					L752.8,399.2z"/>
				<path class="st37" d="M752.8,401.6c-2.4,0-4.6,0.3-6.1,0.8c-0.1,0-0.2-0.1-0.3-0.1c0-0.1,0-0.2,0.1-0.3c1.6-0.5,3.8-0.9,6.3-0.9
					s4.7,0.3,6.3,0.9c0.1,0,0.2,0.2,0.1,0.3c0,0.1-0.2,0.2-0.3,0.1C757.4,401.9,755.2,401.6,752.8,401.6z"/>
				<path class="st33" d="M744.6,400.5c0,0-0.3-0.4-0.5-0.6s-0.5-0.3-0.5-0.3c0-0.1,0.2-0.2,0.5-0.2c0.1,0,0.3,0.1,0.4,0.2v-0.2
					c0,0,0.2,0,0.3,0.3s0,0.6,0,0.6S744.7,400.4,744.6,400.5L744.6,400.5z"/>
				<path class="st33" d="M746.1,399.8l-0.1,0.6l-1.1,0.1l-0.2-0.1v-0.2l0.8-0.8L746.1,399.8"/>
				<path class="st33" d="M744.6,400.3c0.1-0.1,0.3-0.1,0.4,0.1c0.1,0.1,0.2,0.3,0.1,0.4c-0.1,0.1-0.3,0.1-0.4-0.1
					C744.6,400.6,744.5,400.4,744.6,400.3z"/>
				<path class="st33" d="M746.7,400.4c0-0.2,0-0.3,0.1-0.4c0.1,0,0.2,0.1,0.3,0.2c0,0.2,0,0.3-0.1,0.4S746.7,400.5,746.7,400.4z"/>
				<path class="st33" d="M747.2,399.7l0.4,0.4l1-0.6l0.1-0.2l-0.1-0.1l-1.1-0.1L747.2,399.7"/>
				<path class="st33" d="M748.3,397.7l-0.5,0.6l0.7,1l0.2,0.1l0.1-0.2l0.2-1.2L748.3,397.7"/>
				<path class="st33" d="M750.1,399l-0.2,0.5l-1.1-0.1l-0.1-0.1l0.1-0.2l1-0.6L750.1,399"/>
				<ellipse class="st33" cx="748.7" cy="399.3" rx="0.4" ry="0.4"/>
				<path class="st33" d="M750.6,399.6c0-0.2,0.1-0.3,0.2-0.3c0.1,0,0.2,0.1,0.2,0.3c0,0.2-0.1,0.3-0.2,0.3
					C750.7,399.9,750.6,399.7,750.6,399.6z"/>
				<path class="st33" d="M751.3,399l0.3,0.5l1.1-0.4l0.1-0.2l-0.1-0.2l-1.1-0.3L751.3,399"/>
				<path class="st33" d="M752.8,397.1l-0.7,0.5l0.5,1.2l0.2,0.1l0.2-0.1l0.5-1.2L752.8,397.1"/>
				<path class="st33" d="M754.3,399l-0.3,0.5l-1.1-0.4l-0.1-0.2l0.1-0.2l1.1-0.3L754.3,399"/>
				<ellipse class="st33" cx="752.8" cy="398.9" rx="0.4" ry="0.4"/>
				<path class="st33" d="M755.1,399.6c0-0.2-0.1-0.3-0.2-0.3c-0.1,0-0.2,0.1-0.2,0.3c0,0.2,0.1,0.3,0.2,0.3
					C754.9,399.9,755,399.7,755.1,399.6z"/>
				<path class="st33" d="M755.5,399l0.2,0.5l1.1-0.1l0.1-0.1l-0.1-0.2l-1-0.6L755.5,399"/>
				<path class="st33" d="M757.3,397.7l0.5,0.6l-0.7,1l-0.2,0.1l-0.1-0.2l-0.2-1.2L757.3,397.7"/>
				<path class="st33" d="M758.4,399.7l-0.4,0.4l-1-0.6l-0.1-0.2l0.2-0.1l1.1-0.1L758.4,399.7"/>
				<ellipse class="st33" cx="757" cy="399.3" rx="0.4" ry="0.4"/>
				<path class="st33" d="M759,400.4c0-0.2,0-0.3-0.1-0.4c-0.1,0-0.2,0.1-0.3,0.2c0,0.2,0,0.3,0.1,0.4S758.9,400.5,759,400.4z"/>
				<path class="st33" d="M760.9,400.5c0,0,0.3-0.4,0.5-0.6s0.5-0.3,0.5-0.3c0-0.1-0.2-0.2-0.5-0.2c-0.1,0-0.3,0.1-0.4,0.2v-0.2
					c0,0-0.2,0-0.3,0.3s0,0.6,0,0.6S760.8,400.4,760.9,400.5L760.9,400.5z"/>
				<path class="st33" d="M759.4,399.8l0.1,0.6l1.1,0.1l0.2-0.1v-0.2l-0.8-0.8L759.4,399.8"/>
				<path class="st33" d="M760.9,400.3c-0.1-0.1-0.3-0.1-0.4,0.1c-0.1,0.1-0.2,0.3-0.1,0.4c0.1,0.1,0.3,0.1,0.4-0.1
					C760.9,400.6,761,400.4,760.9,400.3z"/>
			</g>
			<g id="crown_pt2">
				<path class="st38" d="M746.7,403.4l0.2-0.4l0.5,0.1l-0.3,0.5L746.7,403.4"/>
				<path class="st39" d="M748.9,402.9l-0.6,0.1c-0.1,0-0.3-0.1-0.3-0.2s0.1-0.3,0.2-0.3l0.6-0.1l0.6-0.1c0.1,0,0.3,0.1,0.3,0.2
					s-0.1,0.3-0.2,0.3L748.9,402.9"/>
				<ellipse class="st40" cx="750.8" cy="402.5" rx="0.4" ry="0.4"/>
				<path class="st38" d="M752.8,402.7H752c-0.1,0-0.3-0.1-0.3-0.3s0.1-0.3,0.3-0.3h1.6c0.2,0,0.3,0.1,0.3,0.3s-0.1,0.3-0.3,0.3
					H752.8"/>
				<ellipse class="st40" cx="754.8" cy="402.5" rx="0.4" ry="0.4"/>
				<path class="st39" d="M756.7,402.9l0.6,0.1c0.1,0,0.3-0.1,0.3-0.2s-0.1-0.3-0.2-0.3l-0.6-0.1l-0.6-0.1c-0.1,0-0.3,0.1-0.3,0.2
					s0.1,0.3,0.2,0.3L756.7,402.9"/>
				<path class="st38" d="M758.9,403.4l-0.2-0.5l-0.5,0.1l0.3,0.5L758.9,403.4"/>
				<path class="st32" d="M752.8,405c-1.9,0-3.7-0.2-5.1-0.6c1.3-0.4,3.1-0.6,5.1-0.6s3.7,0.2,5.1,0.6
					C756.5,404.8,754.8,405,752.8,405z"/>
				<path class="st41" d="M753.7,404.9v-1 M753.2,405v-1.1 M752.9,405v-1.1"/>
				<path class="st42" d="M752.6,405v-1.1"/>
				<path class="st43" d="M752.3,405v-1.1"/>
				<path class="st44" d="M752.1,405v-1.1"/>
				<path class="st44" d="M751.8,405v-1.1"/>
				<path class="st45" d="M751.6,405v-1.1"/>
				<path class="st46" d="M751.2,404.9v-1 M751.4,404.9v-1.1"/>
				<path class="st47" d="M750.7,404.9V404 M751,404.9v-1"/>
				<path class="st48" d="M750.2,404.8V404 M750.4,404.8V404 M750.6,404.9V404"/>
				<path class="st49" d="M750,404.8V404"/>
				<path class="st50" d="M749.8,404.8V404"/>
				<path class="st51" d="M749.6,404.8v-0.7"/>
				<path class="st52" d="M749.3,404.7v-0.5 M749.5,404.7v-0.6"/>
				<path class="st52" d="M749.1,404.7v-0.5"/>
				<path class="st53" d="M748.9,404.6v-0.4"/>
				<path class="st54" d="M748.7,404.6v-0.3"/>
				<path class="st55" d="M748.5,404.5v-0.2"/>
				<path class="st56" d="M748.2,404.5v-0.1"/>
			</g>
		</g>
		<g id="pillar_left">
			<g>
				<path class="st57" d="M765.3,496.2c-1.2,0-2.3-0.3-3.2-0.8c-0.8-0.4-1.9-0.7-3.1-0.7c-1.2,0-2.3,0.3-3.1,0.7
					c-0.8,0.5-1.9,0.8-3.1,0.8c-1.2,0-2.3-0.3-3.2-0.8c-0.8-0.4-1.9-0.7-3-0.7c-1.2,0-2.3,0.3-3.1,0.7c-0.8,0.5-1.9,0.8-3.2,0.8v2.1
					c1.2,0,2.3-0.3,3.2-0.8c0.8-0.5,1.9-0.7,3.1-0.7c1.2,0,2.2,0.3,3,0.7c0.8,0.5,1.9,0.8,3.2,0.8c1.2,0,2.3-0.3,3.1-0.8
					s1.9-0.7,3.1-0.7c1.2,0,2.3,0.3,3.1,0.7c0.8,0.5,1.9,0.8,3.1,0.8L765.3,496.2L765.3,496.2z"/>
				<path class="st58" d="M765.3,498.3c-1.2,0-2.3-0.3-3.2-0.8c-0.8-0.4-1.9-0.7-3.1-0.7c-1.2,0-2.3,0.3-3.1,0.7
					c-0.8,0.5-1.9,0.8-3.1,0.8c-1.2,0-2.3-0.3-3.2-0.8c-0.8-0.4-1.9-0.7-3-0.7c-1.2,0-2.3,0.3-3.1,0.7c-0.8,0.5-1.9,0.8-3.2,0.8v2.1
					c1.2,0,2.3-0.3,3.2-0.8c0.8-0.5,1.9-0.7,3.1-0.7c1.2,0,2.2,0.3,3,0.7c0.8,0.5,1.9,0.8,3.2,0.8c1.2,0,2.3-0.3,3.1-0.8
					s1.9-0.7,3.1-0.7c1.2,0,2.3,0.3,3.1,0.7c0.8,0.5,1.9,0.8,3.1,0.8L765.3,498.3"/>
				<path class="st57" d="M765.3,500.4c-1.2,0-2.3-0.3-3.2-0.8c-0.8-0.5-1.9-0.7-3.1-0.7c-1.2,0-2.3,0.3-3.1,0.7
					c-0.8,0.5-1.9,0.8-3.1,0.8c-1.2,0-2.3-0.3-3.2-0.8c-0.8-0.4-1.9-0.7-3-0.7c-1.2,0-2.3,0.3-3.1,0.7c-0.8,0.5-1.9,0.8-3.2,0.8v2.1
					c1.2,0,2.3-0.3,3.2-0.8c0.8-0.4,1.9-0.7,3.1-0.7c1.2,0,2.2,0.3,3,0.7c0.8,0.5,1.9,0.8,3.2,0.8c1.2,0,2.3-0.3,3.1-0.7
					c0.8-0.5,1.9-0.7,3.1-0.7c1.2,0,2.3,0.3,3.1,0.7c0.8,0.5,1.9,0.8,3.1,0.8L765.3,500.4"/>
				<path class="st58" d="M765.3,504.6c-1.2,0-2.3-0.3-3.1-0.8c-0.8-0.4-1.9-0.7-3.1-0.7c-1.2,0-2.3,0.3-3.1,0.7
					c-0.8,0.5-1.9,0.8-3.1,0.8c-1.2,0-2.3-0.3-3.2-0.8c-0.8-0.4-1.9-0.7-3-0.7c-1.2,0-2.3,0.3-3.1,0.7c-0.8,0.5-1.9,0.8-3.2,0.8
					v-2.1c1.2,0,2.3-0.3,3.2-0.8c0.8-0.4,1.9-0.7,3.1-0.7c1.2,0,2.2,0.3,3,0.7c0.8,0.5,1.9,0.8,3.2,0.8c1.2,0,2.3-0.3,3.1-0.7
					c0.8-0.5,1.9-0.7,3.1-0.7c1.2,0,2.3,0.3,3.1,0.7c0.8,0.5,1.9,0.8,3.2,0.8L765.3,504.6"/>
				<path class="st57" d="M765.3,506.7c-1.2,0-2.3-0.3-3.1-0.8s-1.9-0.7-3.1-0.7c-1.2,0-2.3,0.3-3.1,0.7c-0.8,0.5-1.9,0.8-3.1,0.8
					c-1.2,0-2.3-0.3-3.2-0.8c-0.8-0.4-1.9-0.7-3-0.7c-1.2,0-2.3,0.3-3.1,0.7c-0.8,0.5-1.9,0.8-3.2,0.8v-2.1c1.2,0,2.3-0.3,3.2-0.8
					c0.8-0.5,1.9-0.7,3.1-0.7c1.2,0,2.2,0.3,3,0.7c0.8,0.5,1.9,0.8,3.2,0.8c1.2,0,2.3-0.3,3.1-0.8s1.9-0.7,3.1-0.7
					c1.2,0,2.3,0.3,3.1,0.7c0.8,0.5,1.9,0.8,3.2,0.8L765.3,506.7L765.3,506.7z"/>
			</g>
			<g>
				<path class="st59" d="M745.8,487.6c0,0.2,0.1,0.3,0.1,0.5c0,1.3-1,2.3-2.3,2.3H762c-1.2,0-2.3-1-2.3-2.3c0-0.2,0-0.4,0.1-0.5
					c-0.1,0-0.2,0.1-0.4,0.1H746C746,487.6,745.9,487.6,745.8,487.6z"/>
				<path class="st60" d="M746.1,486.3h13.4c0.5,0,0.8,0.3,0.8,0.7c0,0.4-0.4,0.7-0.8,0.7h-13.4c-0.4,0-0.8-0.3-0.8-0.7
					C745.3,486.6,745.7,486.3,746.1,486.3z"/>
				<path class="st60" d="M743.7,495.5H762v-5.1h-18.3V495.5z"/>
			</g>
			<path class="st58" d="M746.3,485.4h13v-69.5h-13V485.4z"/>
			<path class="st61" d="M755.6,416v69.4 M757,416v69.4"/>
			<g>
				<path class="st60" d="M743.9,410.4h17.9v-5.1h-17.9V410.4L743.9,410.4z"/>
				<path class="st59" d="M745.8,413.8c0.1-0.1,0.2-0.1,0.3-0.1h13.4c0.1,0,0.3,0,0.4,0.1c-0.5-0.2-0.8-0.6-0.8-1.2
					c0-0.5,0.4-1,0.8-1.2c-0.1,0-0.3,0.1-0.4,0.1h-13.4c-0.1,0-0.3,0-0.4-0.1h0.1c0.5,0.2,0.8,0.6,0.8,1.1
					C746.6,413.2,746.3,413.7,745.8,413.8L745.8,413.8z"/>
				<path class="st60" d="M746.1,413.7h13.4c0.5,0,0.8,0.3,0.8,0.7c0,0.4-0.4,0.7-0.8,0.7h-13.4c-0.4,0-0.8-0.3-0.8-0.7
					C745.3,414.1,745.7,413.7,746.1,413.7z"/>
				<path class="st60" d="M746.1,410.4h13.4c0.5,0,0.8,0.3,0.8,0.6c0,0.3-0.4,0.6-0.8,0.6h-13.4c-0.4,0-0.8-0.3-0.8-0.6
					C745.3,410.7,745.7,410.4,746.1,410.4z"/>
			</g>
		</g>
		<g id="ribbon_left">
			<path class="st62" d="M742.2,468.2c-1.8,1.1-3,2.3-2.8,2.9c0.1,0.5,0.7,0.9,1.5,1.5c1.3,1,2.1,2.7,1.5,3.6
				c1.1-0.9,1.8-2.3,1.8-3.9C744.1,470.7,743.4,469.2,742.2,468.2z"/>
			<path class="st63" d="M772.6,441.9c-2.8-1.3-7.7-2.2-13.2-2.4c-1.9,0-4,0.2-6.2,0.6c-7.8,1.4-13.7,4.8-13.3,7.6
				c0,0.1,0,0.2,0,0.2s-2.9-7.2-3-7.4c-0.5-3.1,6.1-6.8,14.7-8.4c2.7-0.5,5.4-0.7,7.7-0.7c5.5,0,10.3,0.8,13.2,1.9L772.6,441.9"/>
			<path class="st62" d="M746.3,450.6c-3.6-0.3-6.1-1.3-6.4-3c-0.2-1.3,1-2.8,3.2-4.1c1,0.1,2.1,0.3,3.2,0.3V450.6"/>
			<path class="st62" d="M759.3,445.3c2.3,0.4,4,1,4.8,1.7l0.1,0.1c0.4,0.9-1.6,2.8-4.9,4.9L759.3,445.3"/>
			<path class="st63" d="M738.2,464.1c-0.3-1.1,3.2-3.4,8.2-5.4c2.3-0.9,4.2-1.8,6.5-2.9c6.9-3.3,12-7.2,11.4-8.5l-0.1-0.1
				c0.4,0.3,0.9,7.2,0.9,7.2c0.6,1.3-4,5-10.4,8.4c-2,1.1-6.3,2.8-8.4,3.6c-3.6,1.4-7.2,4-6.9,4.9L738.2,464.1L738.2,464.1
				L738.2,464.1z"/>
		</g>
		<g id="crown_right">
			<path class="st64" d="M872.4,400c0,0-0.6,0.7-1,0.8c-0.4,0.1-1-0.4-1-0.4s-0.4,0.4-0.9,0.6c-0.5,0.1-1.1-0.6-1.1-0.6
				s-0.5,0.7-0.9,0.9c-0.4,0.2-0.9-0.2-0.9-0.2s-0.2,0.3-0.5,0.5c-0.1,0.1-0.4,0-0.4,0l-0.5-0.3l-0.5-0.6l-0.5-0.2
				c0,0-0.2-0.8-0.2-0.9s-0.1-0.5-0.1-0.5c-0.1-0.6,0.7-1.2,1.8-1.5c0.7-0.2,1.2-0.2,1.7,0c0.5-0.4,1.4-0.7,2.6-0.7
				c1,0,1.9,0.2,2.4,0.6c0.5-0.4,1.4-0.6,2.4-0.6c1.1,0,2.1,0.3,2.6,0.7c0.4-0.1,1-0.1,1.7,0c1.1,0.3,1.9,0.9,1.8,1.5
				c0,0,0,0.4-0.1,0.5c0,0.1-0.3,0.9-0.3,0.9l-0.5,0.2l-0.5,0.6l-0.5,0.3c0,0-0.2,0.1-0.4,0c-0.3-0.2-0.5-0.5-0.5-0.5
				s-0.5,0.4-0.9,0.2c-0.4-0.2-0.9-0.9-0.9-0.9s-0.7,0.7-1.1,0.6c-0.5-0.1-0.9-0.6-0.9-0.6s-0.5,0.5-1,0.4
				C873,400.7,872.4,400,872.4,400L872.4,400z"/>
			<g>
				<ellipse class="st33" cx="872.4" cy="396.3" rx="1.1" ry="1.7"/>
				<ellipse class="st33" cx="872.4" cy="396.3" rx="0.5" ry="1.6"/>
				<ellipse class="st34" cx="872.4" cy="394.3" rx="0.7" ry="0.8"/>
				<path class="st35" d="M873.4,394.1v0.5h-2v-0.5h0.8V393h-0.5v-0.5h0.5V392h0.5v0.5h0.5v0.5h-0.5v1.1H873.4"/>
				<path class="st36" d="M872.6,393.6c0.4,0.1,0.6,0.6,0.5,1s-0.5,0.6-0.9,0.5s-0.6-0.6-0.5-1c0.1-0.3,0.3-0.4,0.5-0.5"/>
			</g>
			<g>
				<path class="st65" d="M864,399.6c-0.1-0.3-0.2-0.6-0.2-0.9c0-1.4,1-2.5,2.3-2.5c0.4,0,0.8,0.1,1.1,0.3"/>
				<path class="st36" d="M868.1,397.8c-0.1-0.2-0.2-0.5-0.2-0.7c0-1,1-1.8,2.1-1.8c0.5,0,1,0.1,1.3,0.4"/>
				<path class="st36" d="M876.7,397.8c0.1-0.2,0.2-0.5,0.2-0.8c0-1-0.9-1.8-2.1-1.8c-0.5,0-1,0.1-1.3,0.4"/>
				<path class="st65" d="M880.7,399.6c0.1-0.3,0.2-0.6,0.2-0.9c0-1.4-1-2.5-2.3-2.5c-0.4,0-0.8,0.1-1.1,0.3"/>
				<ellipse class="st66" cx="863.4" cy="398.5" rx="0.4" ry="0.4"/>
				<ellipse class="st66" cx="863.5" cy="397.1" rx="0.4" ry="0.4"/>
				<ellipse class="st66" cx="864.3" cy="396" rx="0.4" ry="0.4"/>
				<ellipse class="st66" cx="865.4" cy="395.5" rx="0.4" ry="0.4"/>
				<ellipse class="st66" cx="866.6" cy="395.5" rx="0.4" ry="0.4"/>
				<ellipse class="st67" cx="867.3" cy="397.1" rx="0.4" ry="0.4"/>
				<ellipse class="st66" cx="867.5" cy="395.8" rx="0.4" ry="0.4"/>
				<ellipse class="st66" cx="868.4" cy="394.9" rx="0.4" ry="0.4"/>
				<ellipse class="st66" cx="869.5" cy="394.5" rx="0.4" ry="0.4"/>
				<ellipse class="st66" cx="870.7" cy="394.6" rx="0.4" ry="0.4"/>
				<ellipse class="st66" cx="874.1" cy="394.6" rx="0.4" ry="0.4"/>
				<ellipse class="st66" cx="875.2" cy="394.5" rx="0.4" ry="0.4"/>
				<ellipse class="st66" cx="876.4" cy="394.9" rx="0.4" ry="0.4"/>
				<ellipse class="st66" cx="877.3" cy="395.8" rx="0.4" ry="0.4"/>
				<ellipse class="st67" cx="877.5" cy="397.1" rx="0.4" ry="0.4"/>
				<ellipse class="st66" cx="878.2" cy="395.5" rx="0.4" ry="0.4"/>
				<ellipse class="st66" cx="879.4" cy="395.5" rx="0.4" ry="0.4"/>
				<ellipse class="st66" cx="880.4" cy="396" rx="0.4" ry="0.4"/>
				<ellipse class="st66" cx="881.3" cy="397.1" rx="0.4" ry="0.4"/>
				<ellipse class="st66" cx="881.4" cy="398.5" rx="0.4" ry="0.4"/>
			</g>
			<g>
				<g id="crown_pt1_1_">
					<path class="st33" d="M866.7,403.3c-0.2-0.5-0.5-0.9-0.5-0.9c1.6-0.5,3.7-0.8,6.1-0.8c2.4,0,4.6,0.3,6.2,0.8
						c0,0-0.2,0.3-0.4,0.8c-0.1,0.3-0.3,0.7-0.3,0.7c-1.4-0.5-3.2-0.7-5.5-0.7c-2.2,0-4.4,0.3-5.5,0.8
						C866.9,403.9,866.8,403.6,866.7,403.3L866.7,403.3"/>
					<path class="st33" d="M872.4,405.5c1.9,0,4.1-0.3,4.9-0.5c0.5-0.2,0.8-0.4,0.8-0.7c0-0.1-0.1-0.3-0.3-0.3
						c-1.2-0.4-3.3-0.7-5.4-0.7c-2.1,0-4.2,0.3-5.4,0.7c-0.2,0.1-0.3,0.2-0.3,0.3c-0.1,0.3,0.3,0.6,0.8,0.7
						C868.3,405.2,870.5,405.5,872.4,405.5z"/>
					<path class="st33" d="M878.7,401.4l-0.5-0.5c0,0-0.5,0.3-1,0.2c-0.6-0.1-0.7-0.8-0.7-0.8s-0.6,0.6-1.2,0.5
						c-0.5-0.1-0.9-0.5-0.9-0.5s-0.6,0.4-1.1,0.4c-0.5-0.1-1-0.7-1-0.7s-0.5,0.7-1,0.8c-0.5,0-0.9-0.5-0.9-0.5s-0.2,0.5-0.9,0.6
						c-0.6,0.1-1.2-0.5-1.2-0.5s-0.4,0.6-0.8,0.8c-0.4,0.2-1-0.2-1-0.2s-0.1,0.2-0.2,0.4c-0.1,0.1-0.2,0.2-0.2,0.2l0.1,0.4
						c1.5-0.5,3.7-0.8,6-0.8c2.4,0,4.5,0.3,6.1,0.8L878.7,401.4L878.7,401.4L878.7,401.4z"/>
					<path class="st33" d="M872.4,399.2h0.2c0,0.1,0,0.2,0,0.3c0,0.5,0.4,0.9,0.9,0.9c0.4,0,0.7-0.3,0.8-0.6l0.1-0.3v0.4
						c0.1,0.5,0.4,0.8,0.9,0.8s0.9-0.4,0.9-0.9v-0.1l0.3-0.3l0.2,0.4c-0.1,0.1-0.1,0.3-0.1,0.4c0,0.5,0.4,0.9,0.8,0.9
						c0.3,0,0.6-0.2,0.7-0.4l0.2-0.3v0.3c0,0.3,0.1,0.6,0.4,0.6c0,0,0.3,0,0.7-0.3c0.4-0.4,0.6-0.7,0.6-0.7v0.4c0,0-0.4,0.7-0.8,1
						c-0.2,0.1-0.5,0.3-0.8,0.2c-0.3,0-0.4-0.3-0.5-0.5c-0.2,0.1-0.4,0.2-0.6,0.2c-0.5,0-1-0.3-1.1-0.8c-0.2,0.3-0.6,0.4-0.9,0.4
						c-0.4,0-0.8-0.2-1-0.5c-0.2,0.2-0.5,0.4-0.9,0.4s-0.8-0.2-1.1-0.6c-0.2,0.4-0.6,0.6-1.1,0.6c-0.3,0-0.6-0.1-0.9-0.4
						c-0.2,0.3-0.6,0.5-1,0.5s-0.7-0.2-0.9-0.4c-0.2,0.4-0.6,0.8-1.1,0.8c-0.2,0-0.4-0.1-0.6-0.2c-0.1,0.3-0.3,0.5-0.5,0.5
						c-0.2,0.1-0.6-0.1-0.8-0.2c-0.4-0.2-0.8-1-0.8-1l0.1-0.4c0,0,0.2,0.3,0.6,0.7c0.4,0.4,0.7,0.3,0.7,0.3c0.3,0,0.4-0.3,0.4-0.6
						v-0.3l0.2,0.3c0.2,0.2,0.4,0.4,0.7,0.4c0.5,0,0.8-0.4,0.8-0.9c0-0.1,0-0.3-0.1-0.4l0.2-0.4l0.3,0.3v0.1c0,0.5,0.4,0.9,0.9,0.9
						c0.4,0,0.8-0.3,0.9-0.8v-0.4l0.1,0.3c0.1,0.4,0.4,0.6,0.8,0.6c0.5,0,0.9-0.4,0.9-0.9c0-0.1,0-0.2,0-0.3H872.4L872.4,399.2
						L872.4,399.2z"/>
					<path class="st37" d="M872.4,401.6c-2.4,0-4.6,0.3-6.1,0.8c-0.1,0-0.2-0.1-0.3-0.1c0-0.1,0-0.2,0.1-0.3
						c1.6-0.5,3.8-0.9,6.3-0.9s4.7,0.3,6.3,0.9c0.1,0,0.2,0.2,0.1,0.3c0,0.1-0.2,0.2-0.3,0.1C877,401.9,874.8,401.6,872.4,401.6z"/>
					<path class="st33" d="M864.2,400.5c0,0-0.3-0.4-0.5-0.6s-0.5-0.3-0.5-0.3c0-0.1,0.2-0.2,0.5-0.2c0.1,0,0.3,0.1,0.4,0.2v-0.2
						c0,0,0.2,0,0.3,0.3s0,0.6,0,0.6S864.3,400.4,864.2,400.5L864.2,400.5z"/>
					<path class="st33" d="M865.7,399.8l-0.1,0.6l-1.1,0.1l-0.2-0.1v-0.2l0.8-0.8L865.7,399.8"/>
					<path class="st33" d="M864.2,400.3c0.1-0.1,0.3-0.1,0.4,0.1c0.1,0.1,0.2,0.3,0.1,0.4c-0.1,0.1-0.3,0.1-0.4-0.1
						C864.2,400.6,864.1,400.4,864.2,400.3z"/>
					<path class="st33" d="M866.3,400.4c0-0.2,0-0.3,0.1-0.4c0.1,0,0.2,0.1,0.3,0.2c0,0.2,0,0.3-0.1,0.4S866.3,400.5,866.3,400.4z"
						/>
					<path class="st33" d="M866.8,399.7l0.4,0.4l1-0.6l0.1-0.2l-0.1-0.1l-1.1-0.1L866.8,399.7"/>
					<path class="st33" d="M867.9,397.7l-0.5,0.6l0.7,1l0.2,0.1l0.1-0.2l0.2-1.2L867.9,397.7"/>
					<path class="st33" d="M869.7,399l-0.2,0.5l-1.1-0.1l-0.1-0.1l0.1-0.2l1-0.6L869.7,399"/>
					<ellipse class="st33" cx="868.3" cy="399.3" rx="0.4" ry="0.4"/>
					<path class="st33" d="M870.2,399.6c0-0.2,0.1-0.3,0.2-0.3c0.1,0,0.2,0.1,0.2,0.3c0,0.2-0.1,0.3-0.2,0.3
						S870.2,399.7,870.2,399.6z"/>
					<path class="st33" d="M870.9,399l0.3,0.5l1.1-0.4l0.1-0.2l-0.1-0.2l-1.1-0.3L870.9,399"/>
					<path class="st33" d="M872.4,397.1l-0.7,0.5l0.5,1.2l0.2,0.1l0.2-0.1l0.5-1.2L872.4,397.1"/>
					<path class="st33" d="M873.9,399l-0.3,0.5l-1.1-0.4l-0.1-0.2l0.1-0.2l1.1-0.3L873.9,399"/>
					<ellipse class="st33" cx="872.4" cy="398.9" rx="0.4" ry="0.4"/>
					<path class="st33" d="M874.7,399.6c0-0.2-0.1-0.3-0.2-0.3c-0.1,0-0.2,0.1-0.2,0.3c0,0.2,0.1,0.3,0.2,0.3
						C874.5,399.9,874.6,399.7,874.7,399.6z"/>
					<path class="st33" d="M875.1,399l0.2,0.5l1.1-0.1l0.1-0.1l-0.1-0.2l-1-0.6L875.1,399"/>
					<path class="st33" d="M876.9,397.7l0.5,0.6l-0.7,1l-0.2,0.1l-0.1-0.2l-0.2-1.2L876.9,397.7"/>
					<path class="st33" d="M878,399.7l-0.4,0.4l-1-0.6l-0.1-0.2l0.2-0.1l1.1-0.1L878,399.7"/>
					<ellipse class="st33" cx="876.6" cy="399.3" rx="0.4" ry="0.4"/>
					<path class="st33" d="M878.5,400.4c0-0.2,0-0.3-0.1-0.4c-0.1,0-0.2,0.1-0.3,0.2c0,0.2,0,0.3,0.1,0.4
						C878.4,400.7,878.5,400.5,878.5,400.4z"/>
					<path class="st33" d="M880.5,400.5c0,0,0.3-0.4,0.5-0.6s0.5-0.3,0.5-0.3c0-0.1-0.2-0.2-0.5-0.2c-0.1,0-0.3,0.1-0.4,0.2v-0.2
						c0,0-0.2,0-0.3,0.3s0,0.6,0,0.6S880.4,400.4,880.5,400.5L880.5,400.5z"/>
					<path class="st33" d="M879,399.8l0.1,0.6l1.1,0.1l0.2-0.1v-0.2l-0.8-0.8L879,399.8"/>
					<path class="st33" d="M880.5,400.3c-0.1-0.1-0.3-0.1-0.4,0.1c-0.1,0.1-0.2,0.3-0.1,0.4c0.1,0.1,0.3,0.1,0.4-0.1
						C880.5,400.6,880.6,400.4,880.5,400.3z"/>
				</g>
			</g>
			<g>
				<g id="crown_pt2_1_">
					<path class="st38" d="M866.3,403.4l0.2-0.4l0.5,0.1l-0.3,0.5L866.3,403.4"/>
					<path class="st39" d="M868.5,402.9L868,403c-0.1,0-0.3-0.1-0.3-0.2s0.1-0.3,0.2-0.3l0.6-0.1l0.6-0.1c0.1,0,0.3,0.1,0.3,0.2
						s-0.1,0.3-0.2,0.3L868.5,402.9"/>
					<ellipse class="st40" cx="870.4" cy="402.5" rx="0.4" ry="0.4"/>
					<path class="st38" d="M872.4,402.7h-0.8c-0.1,0-0.3-0.1-0.3-0.3s0.1-0.3,0.3-0.3h1.6c0.2,0,0.3,0.1,0.3,0.3s-0.1,0.3-0.3,0.3
						H872.4"/>
					<ellipse class="st40" cx="874.4" cy="402.5" rx="0.4" ry="0.4"/>
					<path class="st39" d="M876.3,402.9l0.6,0.1c0.1,0,0.3-0.1,0.3-0.2s-0.1-0.3-0.2-0.3l-0.6-0.1l-0.6-0.1c-0.1,0-0.3,0.1-0.3,0.2
						s0.1,0.3,0.2,0.3L876.3,402.9"/>
					<path class="st38" d="M878.5,403.4l-0.2-0.5l-0.5,0.1l0.3,0.5L878.5,403.4"/>
					<path class="st32" d="M872.4,405c-1.9,0-3.7-0.2-5.1-0.6c1.3-0.4,3.1-0.6,5.1-0.6s3.7,0.2,5.1,0.6
						C876.1,404.8,874.3,405,872.4,405z"/>
					<path class="st41" d="M873.3,404.9v-1 M872.8,405v-1.1 M872.5,405v-1.1"/>
					<path class="st42" d="M872.2,405v-1.1"/>
					<path class="st43" d="M871.9,405v-1.1"/>
					<path class="st44" d="M871.7,405v-1.1"/>
					<path class="st44" d="M871.4,405v-1.1"/>
					<path class="st45" d="M871.2,405v-1.1"/>
					<path class="st46" d="M870.7,404.9v-1 M871,404.9v-1.1"/>
					<path class="st47" d="M870.3,404.9V404 M870.5,404.9v-1"/>
					<path class="st48" d="M869.8,404.8V404 M870,404.8V404 M870.2,404.9V404"/>
					<path class="st49" d="M869.6,404.8V404"/>
					<path class="st50" d="M869.4,404.8V404"/>
					<path class="st51" d="M869.2,404.8v-0.7"/>
					<path class="st52" d="M868.8,404.7v-0.5 M869,404.7v-0.6"/>
					<path class="st52" d="M868.6,404.7v-0.5"/>
					<path class="st53" d="M868.5,404.6v-0.4"/>
					<path class="st54" d="M868.3,404.6v-0.3"/>
					<path class="st55" d="M868.1,404.5v-0.2"/>
					<path class="st56" d="M867.8,404.5v-0.1"/>
				</g>
			</g>
		</g>
		<g id="pillar_right">
			<g id="pillar_left_1_">
				<g>
					<path class="st57" d="M884.9,496.2c-1.2,0-2.3-0.3-3.2-0.8c-0.8-0.4-1.9-0.7-3.1-0.7c-1.2,0-2.3,0.3-3.1,0.7
						c-0.8,0.5-1.9,0.8-3.1,0.8c-1.2,0-2.3-0.3-3.2-0.8c-0.8-0.4-1.9-0.7-3-0.7c-1.2,0-2.3,0.3-3.1,0.7c-0.8,0.5-1.9,0.8-3.2,0.8
						v2.1c1.2,0,2.3-0.3,3.2-0.8c0.8-0.5,1.9-0.7,3.1-0.7c1.2,0,2.2,0.3,3,0.7c0.8,0.5,1.9,0.8,3.2,0.8c1.2,0,2.3-0.3,3.1-0.8
						s1.9-0.7,3.1-0.7c1.2,0,2.3,0.3,3.1,0.7c0.8,0.5,1.9,0.8,3.1,0.8L884.9,496.2L884.9,496.2z"/>
					<path class="st58" d="M884.9,498.3c-1.2,0-2.3-0.3-3.2-0.8c-0.8-0.4-1.9-0.7-3.1-0.7c-1.2,0-2.3,0.3-3.1,0.7
						c-0.8,0.5-1.9,0.8-3.1,0.8c-1.2,0-2.3-0.3-3.2-0.8c-0.8-0.4-1.9-0.7-3-0.7c-1.2,0-2.3,0.3-3.1,0.7c-0.8,0.5-1.9,0.8-3.2,0.8
						v2.1c1.2,0,2.3-0.3,3.2-0.8c0.8-0.5,1.9-0.7,3.1-0.7c1.2,0,2.2,0.3,3,0.7c0.8,0.5,1.9,0.8,3.2,0.8c1.2,0,2.3-0.3,3.1-0.8
						s1.9-0.7,3.1-0.7c1.2,0,2.3,0.3,3.1,0.7c0.8,0.5,1.9,0.8,3.1,0.8L884.9,498.3"/>
					<path class="st57" d="M884.9,500.4c-1.2,0-2.3-0.3-3.2-0.8c-0.8-0.5-1.9-0.7-3.1-0.7c-1.2,0-2.3,0.3-3.1,0.7
						c-0.8,0.5-1.9,0.8-3.1,0.8c-1.2,0-2.3-0.3-3.2-0.8c-0.8-0.4-1.9-0.7-3-0.7c-1.2,0-2.3,0.3-3.1,0.7c-0.8,0.5-1.9,0.8-3.2,0.8
						v2.1c1.2,0,2.3-0.3,3.2-0.8c0.8-0.4,1.9-0.7,3.1-0.7c1.2,0,2.2,0.3,3,0.7c0.8,0.5,1.9,0.8,3.2,0.8c1.2,0,2.3-0.3,3.1-0.7
						c0.8-0.5,1.9-0.7,3.1-0.7c1.2,0,2.3,0.3,3.1,0.7c0.8,0.5,1.9,0.8,3.1,0.8L884.9,500.4"/>
					<path class="st58" d="M884.9,504.6c-1.2,0-2.3-0.3-3.1-0.8c-0.8-0.4-1.9-0.7-3.1-0.7c-1.2,0-2.3,0.3-3.1,0.7
						c-0.8,0.5-1.9,0.8-3.1,0.8c-1.2,0-2.3-0.3-3.2-0.8c-0.8-0.4-1.9-0.7-3-0.7c-1.2,0-2.3,0.3-3.1,0.7c-0.8,0.5-1.9,0.8-3.2,0.8
						v-2.1c1.2,0,2.3-0.3,3.2-0.8c0.8-0.4,1.9-0.7,3.1-0.7c1.2,0,2.2,0.3,3,0.7c0.8,0.5,1.9,0.8,3.2,0.8c1.2,0,2.3-0.3,3.1-0.7
						c0.8-0.5,1.9-0.7,3.1-0.7c1.2,0,2.3,0.3,3.1,0.7c0.8,0.5,1.9,0.8,3.2,0.8L884.9,504.6"/>
					<path class="st57" d="M884.9,506.7c-1.2,0-2.3-0.3-3.1-0.8s-1.9-0.7-3.1-0.7c-1.2,0-2.3,0.3-3.1,0.7c-0.8,0.5-1.9,0.8-3.1,0.8
						c-1.2,0-2.3-0.3-3.2-0.8c-0.8-0.4-1.9-0.7-3-0.7c-1.2,0-2.3,0.3-3.1,0.7c-0.8,0.5-1.9,0.8-3.2,0.8v-2.1c1.2,0,2.3-0.3,3.2-0.8
						c0.8-0.5,1.9-0.7,3.1-0.7c1.2,0,2.2,0.3,3,0.7c0.8,0.5,1.9,0.8,3.2,0.8c1.2,0,2.3-0.3,3.1-0.8s1.9-0.7,3.1-0.7
						c1.2,0,2.3,0.3,3.1,0.7c0.8,0.5,1.9,0.8,3.2,0.8L884.9,506.7L884.9,506.7z"/>
				</g>
				<g>
					<path class="st59" d="M865.4,487.6c0,0.2,0.1,0.3,0.1,0.5c0,1.3-1,2.3-2.3,2.3h18.4c-1.2,0-2.3-1-2.3-2.3c0-0.2,0-0.4,0.1-0.5
						c-0.1,0-0.2,0.1-0.4,0.1h-13.4C865.6,487.6,865.5,487.6,865.4,487.6z"/>
					<path class="st60" d="M865.7,486.3h13.4c0.5,0,0.8,0.3,0.8,0.7c0,0.4-0.4,0.7-0.8,0.7h-13.4c-0.4,0-0.8-0.3-0.8-0.7
						C864.9,486.6,865.3,486.3,865.7,486.3z"/>
					<path class="st60" d="M863.3,495.5h18.3v-5.1h-18.3V495.5z"/>
				</g>
				<path class="st58" d="M865.9,485.4h13v-69.5h-13V485.4z"/>
				<path class="st61" d="M875.2,416v69.4 M876.6,416v69.4"/>
				<g>
					<path class="st60" d="M863.5,410.4h17.9v-5.1h-17.9V410.4L863.5,410.4z"/>
					<path class="st59" d="M865.4,413.8c0.1-0.1,0.2-0.1,0.3-0.1h13.4c0.1,0,0.3,0,0.4,0.1c-0.5-0.2-0.8-0.6-0.8-1.2
						c0-0.5,0.4-1,0.8-1.2c-0.1,0-0.3,0.1-0.4,0.1h-13.4c-0.1,0-0.3,0-0.4-0.1h0.1c0.5,0.2,0.8,0.6,0.8,1.1
						C866.2,413.2,865.9,413.7,865.4,413.8L865.4,413.8z"/>
					<path class="st60" d="M865.7,413.7h13.4c0.5,0,0.8,0.3,0.8,0.7c0,0.4-0.4,0.7-0.8,0.7h-13.4c-0.4,0-0.8-0.3-0.8-0.7
						C864.9,414.1,865.3,413.7,865.7,413.7z"/>
					<path class="st60" d="M865.7,410.4h13.4c0.5,0,0.8,0.3,0.8,0.6c0,0.3-0.4,0.6-0.8,0.6h-13.4c-0.4,0-0.8-0.3-0.8-0.6
						C864.9,410.7,865.3,410.4,865.7,410.4z"/>
				</g>
			</g>
		</g>
		<g id="plus_ultra">
			<path class="st34" d="M745.4,438.6c1.6-0.6,2.6-1.4,2.1-2.7c-0.3-0.9-1.1-1-2.4-0.5l-2.2,0.9l2,5.3c0.2-0.1,0.4-0.2,0.6-0.3
				c0.2-0.1,0.5-0.2,0.7-0.2L745.4,438.6L745.4,438.6L745.4,438.6z M744.4,436l0.6-0.2c0.5-0.2,1,0.1,1.2,0.7c0.2,0.5,0.1,1-0.4,1.4
				c-0.2,0.1-0.4,0.2-0.6,0.3L744.4,436"/>
			<path class="st34" d="M750.5,433.8c-0.2,0.1-0.5,0.1-0.7,0.2c-0.2,0-0.5,0.1-0.7,0.1l1.1,5.5l3.5-0.8c0-0.1-0.1-0.2-0.1-0.3
				c0-0.1,0-0.2,0-0.4c-0.6,0.2-1.3,0.4-2.1,0.6L750.5,433.8"/>
			<path class="st34" d="M757.5,438.6c0.7-2,1.5-3.9,2.3-5.8c-0.1,0-0.3,0.1-0.4,0.1c-0.1,0-0.3,0-0.4,0c-0.4,1.4-0.9,2.8-1.5,4.2
				c-0.7-1.3-1.4-2.6-1.9-3.9c-0.3,0-0.6,0.1-0.8,0.1c-0.3,0-0.6,0-0.8,0c1,1.8,2,3.6,2.9,5.4c0.1,0,0.3-0.1,0.4-0.1
				C757.3,438.5,757.4,438.6,757.5,438.6"/>
			<path class="st34" d="M764.9,434.4c0.1-0.3,0.2-0.5,0.4-0.8c-0.2-0.2-0.8-0.5-1.5-0.5c-1.4-0.2-2.3,0.5-2.3,1.5
				c-0.2,2,2.7,1.8,2.5,3.1c-0.1,0.6-0.6,0.8-1.2,0.7c-0.6-0.1-1.1-0.5-1.2-1h-0.2c-0.1,0.3-0.2,0.7-0.4,1c0.4,0.3,1,0.5,1.5,0.5
				c1.5,0.2,2.6-0.5,2.7-1.5c0.2-1.9-2.7-2-2.6-3.1c0-0.5,0.4-0.8,1.1-0.7c0.5,0.1,0.9,0.4,1,0.8H764.9"/>
			<path class="st34" d="M860.7,438.9c0.5-2,1.1-4,1.8-6c-0.1,0-0.3,0.1-0.4,0.1c-0.1,0-0.3,0-0.4,0c-0.3,1.4-0.7,2.9-1.1,4.3
				c-0.8-1.3-1.6-2.5-2.3-3.8c-0.3,0.1-0.5,0.1-0.8,0.2c-0.3,0-0.6,0.1-0.8,0.1c1.2,1.7,2.3,3.4,3.4,5.2c0.1,0,0.3-0.1,0.4-0.1
				C860.5,438.9,860.6,438.9,860.7,438.9"/>
			<path class="st34" d="M865.7,432.9c-0.2,0-0.5,0-0.7,0s-0.5,0-0.7-0.1l-0.1,5.6l3.6,0.1c0-0.1,0-0.2,0-0.4s0-0.2,0.1-0.3
				c-0.6,0-1.3,0.1-2.2,0.1L865.7,432.9"/>
			<path class="st34" d="M871.3,433.8c0.6,0.1,1.1,0.2,1.7,0.3c0-0.1,0-0.2,0-0.4c0-0.1,0-0.2,0.1-0.3l-4.9-0.4c0,0.1,0,0.2,0,0.3
				c0,0.1,0,0.2-0.1,0.3c0.5,0,1.1,0,1.8,0l-0.4,5c0.2,0,0.5,0,0.7,0s0.5,0.1,0.7,0.1L871.3,433.8"/>
			<path class="st34" d="M873.3,439.4c0.2,0,0.5,0.1,0.7,0.1c0.2,0.1,0.5,0.1,0.7,0.2l0.6-2.6h0.1c0.1,0.4,0.3,0.8,0.4,1l0.7,1.9
				c0.3,0.1,0.6,0.1,0.8,0.2c0.3,0.1,0.6,0.2,0.8,0.2l-0.2-0.6c-0.4-0.9-0.8-1.8-1.1-2.6c0.9,0,1.6-0.3,1.8-1.1
				c0.1-0.5-0.1-1-0.5-1.3s-1-0.4-1.5-0.5l-2-0.5L873.3,439.4 M875.9,434.6c0.6,0.1,1.3,0.2,1.3,0.9c0,0.2,0,0.3,0,0.4
				c-0.2,0.8-0.8,1.1-1.7,0.8L875.9,434.6"/>
			<path class="st34" d="M882.6,441c0,0.6-0.1,1.2-0.2,1.8c0.2,0.1,0.5,0.2,0.7,0.4c0.2,0.1,0.5,0.3,0.7,0.5l0.5-6.3
				c-0.1-0.1-0.2-0.1-0.3-0.2s-0.2-0.1-0.3-0.2l-5.1,3.5c0.1,0.1,0.3,0.1,0.4,0.2c0.1,0.1,0.2,0.2,0.4,0.2c0.4-0.4,0.9-0.7,1.4-1.1
				L882.6,441L882.6,441z M881.2,439.6l1.7-1.2l-0.2,2.1L881.2,439.6"/>
		</g>
	</g>
	<g id="crown_crest">
		<path class="st38" d="M812.1,367.1c5.3,0,10.1,0.9,13.2,2.2c1.8,0.9,4.1,1.5,6.7,1.9c2,0.3,3.9,0.3,5.5,0.2
			c2.2-0.1,5.3,0.6,8.5,2.2c2.6,1.3,4.8,2.8,6.3,4.3L851,379l-0.4,3.5l-3.4,4.3l-1.7,1.6l-4.1,3.6l-2.1,0.2l-0.6,2l-26.4-3.4
			l-26.5,3.4l-0.6-2l-2.1-0.2l-4.1-3.6l-1.7-1.6l-3.4-4.3l-0.4-3.5l-1.3-1.2c1.5-1.5,3.6-3,6.3-4.3c3.2-1.5,6.3-2.2,8.5-2.2
			c1.6,0.1,3.5,0.1,5.5-0.2c2.6-0.4,5-1,6.7-1.9C802.3,367.9,806.8,367.1,812.1,367.1L812.1,367.1z"/>
		<g>
			<path class="st60" d="M792.6,374.7l1.1,1l1.7-3c-1.8-1.2-3-3.3-3-5.7c0-0.3,0-0.5,0-0.8c0.2-3.8,4.4-6.9,9.8-6.9
				c2.8,0,5.3,0.8,7.1,2.2c0-0.6,0.1-1.1,0.2-1.6c-1.9-1.2-4.5-2-7.3-2c-6.2,0-11,3.8-11.2,8.4c0,0.3,0,0.5,0,0.8
				c0,2.4,1,4.6,2.6,6.1L792.6,374.7"/>
			<path class="st60" d="M792.7,374.7c-2.1-1.7-3.4-4-3.4-6.6c0-3,1.8-5.6,4.5-7.3c-1.7,1.5-2.7,3.3-2.8,5.4c0,0.3,0,0.5,0,0.8
				c0,2.4,1,4.6,2.6,6.1L792.7,374.7"/>
			<path class="st60" d="M774.1,377.7c-1.2-1.4-1.9-3.3-1.9-5.3c0-1.2,0.3-2.4,0.7-3.4c1.7-3.8,7.1-6.6,13.4-6.6
				c1.7,0,3.4,0.2,4.9,0.6c-0.3,0.4-0.6,0.8-0.9,1.3c-1.3-0.3-2.6-0.4-4.1-0.4c-5.8,0-10.7,2.5-12.1,5.8c-0.4,0.8-0.6,1.8-0.6,2.8
				c0,2,0.9,3.8,2.2,5.1l-2.1,3.8l-1.1-1L774.1,377.7L774.1,377.7z"/>
			<path class="st60" d="M776.2,365.1c-1.5,1.1-2.7,2.3-3.3,3.8c-0.5,1-0.7,2.2-0.7,3.4c0,2,0.7,3.9,1.9,5.3l-1.3,2.3
				c-1.2-1.7-1.9-3.7-1.9-5.8C770.9,370.4,773,367.2,776.2,365.1L776.2,365.1z"/>
			<path class="st60" d="M812.4,357.1c1.4,0,2.6,1,2.9,2.4c0.2,1.2,0.3,2.6,0.3,4c0,0.2,0,0.3,0,0.5s0,0.4,0,0.5
				c0,3.1,0.4,5.8,1,7.4l-4.3,4.5l-4.4-4.5c0.6-1.7,1-4.4,1-7.4c0-0.2,0-0.4,0-0.5s0-0.3,0-0.5c0-1.5,0.1-2.8,0.3-4
				C809.8,358.1,811,357.1,812.4,357.1L812.4,357.1z"/>
			<path class="st60" d="M812.4,358.5c0.7,0,1.3,0.5,1.5,1.2c0.2,1.1,0.3,2.4,0.3,3.8c0,0.1,0,0.3,0,0.4c0,0.2,0,0.3,0,0.5
				c0,2.9,0.4,5.5,1,7l-2.8,2.9l-2.8-2.9c0.5-1.6,0.9-4.1,1-7c0-0.2,0-0.3,0-0.5c0-0.1,0-0.3,0-0.4c0-1.4,0.1-2.7,0.3-3.8
				C811,359,811.7,358.5,812.4,358.5z"/>
			<path class="st60" d="M832.2,374.7l-1.1,1l-1.7-3c1.8-1.2,3.1-3.3,3.1-5.7c0-0.3,0-0.5,0-0.8c-0.2-3.8-4.4-6.9-9.8-6.9
				c-2.8,0-5.3,0.8-7.1,2.2c0-0.6-0.1-1.1-0.2-1.6c2-1.2,4.5-2,7.3-2c6.2,0,11,3.8,11.2,8.4c0,0.3,0,0.5,0,0.8c0,2.4-1,4.6-2.6,6.1
				L832.2,374.7"/>
			<path class="st60" d="M832.1,374.7c2.1-1.7,3.4-4,3.4-6.6c0-3-1.8-5.6-4.5-7.3c1.7,1.5,2.7,3.3,2.8,5.4c0,0.3,0,0.5,0,0.8
				c0,2.4-1,4.6-2.6,6.1L832.1,374.7"/>
			<path class="st60" d="M850.7,377.7c1.2-1.4,1.9-3.3,1.9-5.3c0-1.2-0.3-2.4-0.7-3.4c-1.7-3.8-7.1-6.6-13.4-6.6
				c-1.7,0-3.4,0.2-4.9,0.6c0.3,0.4,0.6,0.8,0.9,1.3c1.3-0.3,2.6-0.4,4.1-0.4c5.8,0,10.7,2.5,12.1,5.8c0.4,0.8,0.6,1.8,0.6,2.8
				c0,2-0.9,3.8-2.2,5.1l2.1,3.8l1.1-1L850.7,377.7z"/>
			<path class="st60" d="M848.6,365.1c1.5,1.1,2.7,2.3,3.3,3.8c0.5,1,0.7,2.2,0.7,3.4c0,2-0.7,3.9-1.9,5.3l1.3,2.3
				c1.2-1.7,1.9-3.7,1.9-5.8C854,370.4,851.8,367.2,848.6,365.1L848.6,365.1z"/>
			<ellipse class="st68" cx="812.4" cy="353.6" rx="3.6" ry="3.7"/>
			<path class="st33" d="M811.5,343.4v2h-1.9v2h1.9v2.7v3h-2.4c0,0.2-0.2,0.3-0.2,0.5c0,0.5,0.1,1,0.3,1.4l0,0h6.5l0,0
				c0.2-0.4,0.3-0.9,0.3-1.4c0-0.2-0.2-0.3-0.2-0.5h-2.4v-3v-2.8h1.9v-2h-1.9v-2L811.5,343.4L811.5,343.4z"/>
		</g>
		<g>
			<ellipse class="st69" cx="812.4" cy="372.5" rx="1.5" ry="1.6"/>
			<ellipse class="st69" cx="812.4" cy="369.4" rx="1.5" ry="1.6"/>
			<ellipse class="st69" cx="812.4" cy="366.1" rx="1.2" ry="1.3"/>
			<ellipse class="st69" cx="812.4" cy="363.1" rx="0.9" ry="0.9"/>
			<ellipse class="st69" cx="812.4" cy="360.5" rx="0.7" ry="0.7"/>
			<ellipse class="st69" cx="771.5" cy="381" rx="0.9" ry="0.9"/>
			<ellipse class="st69" cx="770.3" cy="378.7" rx="0.9" ry="0.9"/>
			<ellipse class="st69" cx="769.5" cy="376" rx="0.9" ry="0.9"/>
			<ellipse class="st69" cx="769.4" cy="373.1" rx="0.9" ry="0.9"/>
			<ellipse class="st69" cx="770" cy="370.3" rx="0.9" ry="0.9"/>
			<ellipse class="st69" cx="771.4" cy="367.7" rx="0.9" ry="0.9"/>
			<ellipse class="st69" cx="773.2" cy="365.6" rx="0.9" ry="0.9"/>
			<ellipse class="st69" cx="775.3" cy="363.8" rx="0.9" ry="0.9"/>
			<ellipse class="st69" cx="777.8" cy="362.4" rx="0.9" ry="0.9"/>
			<ellipse class="st69" cx="780.4" cy="361.4" rx="0.9" ry="0.9"/>
			<ellipse class="st69" cx="783.3" cy="360.8" rx="0.9" ry="0.9"/>
			<ellipse class="st69" cx="786" cy="360.7" rx="0.9" ry="0.9"/>
			<ellipse class="st69" cx="788.7" cy="360.8" rx="0.9" ry="0.9"/>
			<ellipse class="st69" cx="791.7" cy="373.7" rx="0.9" ry="0.9"/>
			<ellipse class="st69" cx="790.2" cy="371.4" rx="0.9" ry="0.9"/>
			<ellipse class="st69" cx="789.4" cy="368.8" rx="0.9" ry="0.9"/>
			<ellipse class="st69" cx="789.5" cy="366.1" rx="0.9" ry="0.9"/>
			<ellipse class="st69" cx="790.1" cy="363.3" rx="0.9" ry="0.9"/>
			<ellipse class="st69" cx="791.4" cy="360.8" rx="0.9" ry="0.9"/>
			<ellipse class="st69" cx="793.5" cy="359" rx="0.9" ry="0.9"/>
			<ellipse class="st69" cx="795.9" cy="357.6" rx="0.9" ry="0.9"/>
			<ellipse class="st69" cx="798.5" cy="356.7" rx="0.9" ry="0.9"/>
			<ellipse class="st69" cx="801.3" cy="356.2" rx="0.9" ry="0.9"/>
			<ellipse class="st69" cx="804" cy="356.2" rx="0.9" ry="0.9"/>
			<ellipse class="st69" cx="806.8" cy="356.7" rx="0.9" ry="0.9"/>
			<ellipse class="st69" cx="809.4" cy="357.7" rx="0.9" ry="0.9"/>
			<ellipse class="st69" cx="815.4" cy="357.7" rx="0.9" ry="0.9"/>
			<ellipse class="st69" cx="818" cy="356.7" rx="0.9" ry="0.9"/>
			<ellipse class="st69" cx="820.8" cy="356.2" rx="0.9" ry="0.9"/>
			<ellipse class="st69" cx="823.5" cy="356.2" rx="0.9" ry="0.9"/>
			<ellipse class="st69" cx="826.3" cy="356.7" rx="0.9" ry="0.9"/>
			<ellipse class="st69" cx="828.9" cy="357.6" rx="0.9" ry="0.9"/>
			<ellipse class="st69" cx="831.4" cy="359" rx="0.9" ry="0.9"/>
			<ellipse class="st69" cx="833.4" cy="360.8" rx="0.9" ry="0.9"/>
			<ellipse class="st69" cx="834.8" cy="363.3" rx="0.9" ry="0.9"/>
			<ellipse class="st69" cx="835.3" cy="366.1" rx="0.9" ry="0.9"/>
			<ellipse class="st69" cx="835.4" cy="368.8" rx="0.9" ry="0.9"/>
			<ellipse class="st69" cx="834.6" cy="371.4" rx="0.9" ry="0.9"/>
			<ellipse class="st69" cx="833.1" cy="373.7" rx="0.9" ry="0.9"/>
			<ellipse class="st69" cx="836.1" cy="360.8" rx="0.9" ry="0.9"/>
			<ellipse class="st69" cx="838.8" cy="360.7" rx="0.9" ry="0.9"/>
			<ellipse class="st69" cx="841.6" cy="360.8" rx="0.9" ry="0.9"/>
			<ellipse class="st69" cx="844.5" cy="361.4" rx="0.9" ry="0.9"/>
			<ellipse class="st69" cx="847.1" cy="362.4" rx="0.9" ry="0.9"/>
			<ellipse class="st69" cx="849.6" cy="363.8" rx="0.9" ry="0.9"/>
			<ellipse class="st69" cx="851.7" cy="365.6" rx="0.9" ry="0.9"/>
			<ellipse class="st69" cx="853.5" cy="367.7" rx="0.9" ry="0.9"/>
			<ellipse class="st69" cx="854.8" cy="370.3" rx="0.9" ry="0.9"/>
			<ellipse class="st69" cx="855.5" cy="373.1" rx="0.9" ry="0.9"/>
			<ellipse class="st69" cx="855.4" cy="376" rx="0.9" ry="0.9"/>
			<ellipse class="st69" cx="854.6" cy="378.7" rx="0.9" ry="0.9"/>
			<ellipse class="st69" cx="853.4" cy="381" rx="0.9" ry="0.9"/>
		</g>
		<g>
			<path class="st60" d="M812.5,405c-9.8,0-18.6-1.3-24.9-3.3c-0.5-0.2-0.7-0.6-0.7-1.1s0.2-0.9,0.7-1c6.3-2.1,15.1-3.3,24.9-3.3
				c9.8,0,18.6,1.3,24.9,3.3c0.4,0.1,0.7,0.6,0.7,1c0,0.5-0.2,0.9-0.7,1.1C831.2,403.7,822.4,405,812.5,405"/>
			<path class="st60" d="M812.5,396.2c-9.9,0-18.9,1.4-25.2,3.5c0.5-0.3,0.5-1-0.2-2.8c-0.8-2.2-2-2.1-2-2.1
				c6.9-2.2,16.6-3.6,27.4-3.6c10.8,0,20.5,1.4,27.5,3.6c0,0-1.2-0.1-2,2.1c-0.6,1.8-0.7,2.5-0.2,2.8
				C831.5,397.6,822.4,396.2,812.5,396.2"/>
			<path class="st60" d="M812.5,391.1c-10.8,0-20.4,1.4-27.4,3.6c-0.5,0.1-1,0-1.1-0.5s0.1-1,0.6-1.2c7-2.3,16.9-3.8,27.9-3.8
				s21,1.5,28,3.8c0.5,0.1,0.7,0.7,0.6,1.2s-0.6,0.7-1.1,0.5C833,392.6,823.3,391.2,812.5,391.1"/>
			<path class="st60" d="M812.6,382l1,0.2c-0.2,0.4-0.2,0.9-0.2,1.4c0,2.2,1.8,4.1,3.9,4.1c1.7,0,3.2-1.2,3.7-2.8
				c0.1,0,0.4-1.5,0.5-1.4c0.1,0,0.1,1.6,0.2,1.5c0.2,2,2,3.4,3.9,3.4c2.2,0,3.9-1.8,3.9-4.1c0-0.2,0-0.3,0-0.5l1.2-1.3l0.7,1.7
				c-0.3,0.5-0.4,1.1-0.4,1.8c0,2.1,1.7,3.9,3.8,3.9c1.3,0,2.5-0.7,3.1-1.7l0.8-1.1v1.3c0,1.4,0.5,2.6,1.7,2.8c0,0,1.4,0.1,3.2-1.5
				s2.8-2.9,2.8-2.9l0.2,1.6c0,0-1.5,2.6-3.2,3.6c-0.9,0.6-2.3,1.2-3.4,1c-1.2-0.2-2-1.2-2.4-2.4c-0.8,0.5-1.8,0.8-2.8,0.8
				c-2.3,0-4.3-1.3-5.1-3.4c-1,1.2-2.5,2-4.2,2c-1.8,0-3.4-0.9-4.5-2.2c-1,1-2.4,1.6-3.9,1.6c-2,0-3.8-1.1-4.8-2.7
				c-1,1.6-2.8,2.7-4.8,2.7c-1.5,0-2.9-0.6-3.9-1.6c-1,1.4-2.7,2.2-4.5,2.2c-1.7,0-3.1-0.7-4.2-2c-0.8,2-2.8,3.4-5.1,3.4
				c-1.1,0-2-0.3-2.8-0.8c-0.4,1.2-1.3,2.2-2.4,2.4c-1.1,0.2-2.5-0.4-3.4-1c-1.7-1-3.2-3.6-3.2-3.6l0.2-1.6c0,0,1,1.3,2.9,2.9
				c1.8,1.6,3.2,1.5,3.2,1.5c1.2-0.2,1.7-1.4,1.7-2.8v-1.3l0.8,1.1c0.7,1,1.8,1.7,3.1,1.7c2.1,0,3.8-1.7,3.8-3.9
				c0-0.6-0.1-1.2-0.4-1.8l0.7-1.7l1.2,1.3c0,0.2,0,0.3,0,0.5c0,2.2,1.8,4.1,3.9,4.1c1.9,0,3.7-1.4,3.9-3.4c0,0,0-1.5,0.2-1.5
				s0.5,1.5,0.5,1.4c0.5,1.6,2,2.8,3.8,2.8c2.2,0,3.9-1.8,3.9-4.1c0-0.5,0-1-0.2-1.4L812.6,382"/>
			<path class="st60" d="M779,387.7c-0.1-0.3-0.3-0.7-0.6-0.9c-0.6-0.6-1.5-0.7-1.9-0.2c-0.1,0.1-0.1,0.1-0.1,0.2
				c0,0-0.9-1.8-1.9-2.4s-2.8-0.5-2.8-0.5c0-1.4,1-2.5,2.4-2.5c0.8,0,1.5,0.4,2,1l0.2-0.9c0,0,1.1,0.2,1.6,1.6s0,3.3,0,3.3
				s0.3-0.8,0.7-1.4s1.5-1.2,2-1.4c0.5-0.3,1.1-0.7,1.1-0.7s0,0.2,0,0.5c0,0.4,0,0.7,0,0.7c1-0.1,2.2,0,3.1,0.4
				c-0.4,0.8-1.1,1.6-2.1,2c0,0,0.4,0.3,0.7,0.7c0.3,0.3,0.4,0.4,0.4,0.4s-0.7,0.1-1,0.2c-0.3,0-1.5,0.2-2.2,0.2
				C779.9,387.8,779.4,387.7,779,387.7"/>
			<path class="st62" d="M776.6,386.5c0.4-0.5,1.3-0.4,1.9,0.2c0.6,0.6,0.8,1.4,0.4,1.9c-0.4,0.5-1.3,0.4-1.9-0.2
				C776.3,387.9,776.1,387,776.6,386.5"/>
			<path class="st69" d="M785.5,387.3c-0.2-0.7,0-1.4,0.5-1.6s1.1,0.3,1.3,1s0,1.4-0.5,1.6S785.7,388,785.5,387.3"/>
			<path class="st60" d="M793.3,383.8c-0.3-0.2-0.5-0.6-0.5-0.9s0-0.8,0.2-1.1c0,0-0.7-0.4-1.5-0.6c-0.6-0.2-1.6-0.2-1.9-0.2
				c-0.3,0-0.9,0-0.9,0s0.1,0.1,0.2,0.5c0.2,0.4,0.4,0.7,0.4,0.7c-1,0.3-1.9,1-2.4,1.8c0.8,0.6,1.8,1,2.9,0.8c0,0-0.1,0.3-0.2,0.8
				c0,0.4,0,0.5,0,0.5s0.6-0.2,0.9-0.3c0.3-0.1,1.2-0.5,1.7-0.8C792.7,384.4,793.3,383.8,793.3,383.8"/>
			<path class="st60" d="M792.9,374.9c0.8,0.6,1.6,1.6,1.8,2.6c0,0,0.1-0.2,0.6-0.5s0.9-0.3,0.9-0.3s-0.1,0.8-0.2,1.2
				c-0.1,0.3-0.1,1.2-0.3,2s-0.5,1.5-0.5,1.5c-0.3-0.3-0.8-0.4-1.3-0.4c-0.5,0.1-0.8,0.4-1.1,0.8c0,0-0.5-0.5-1-1.2
				c-0.4-0.7-0.7-1.6-0.9-1.8c-0.2-0.3-0.6-1-0.6-1s0.4-0.2,0.9,0c0.5,0.1,0.7,0.3,0.7,0.3C792,376.9,792.3,375.7,792.9,374.9"/>
			<path class="st60" d="M795.5,383.4c0.2-0.3,0.3-0.7,0.2-1.1s-0.3-0.7-0.5-0.9c0,0,0.5-0.6,1.2-1.1c0.5-0.4,1.4-0.7,1.7-0.8
				c0.3-0.1,0.9-0.3,0.9-0.3s0,0.2,0,0.5c-0.1,0.5-0.2,0.8-0.2,0.8c1-0.1,2.1,0.3,2.9,0.9c-0.6,0.8-1.4,1.6-2.4,1.8
				c0,0,0.2,0.2,0.4,0.6c0.2,0.3,0.2,0.5,0.2,0.5s-0.6,0-0.9,0c-0.3,0-1.3,0-1.9-0.2C796.3,383.8,795.5,383.4,795.5,383.4"/>
			<ellipse class="st62" cx="794.3" cy="382.6" rx="1.7" ry="1.8"/>
			<path class="st69" d="M802.6,383.7c-0.1-0.8,0.2-1.4,0.7-1.5s1,0.5,1.1,1.3s-0.2,1.4-0.7,1.5C803.2,385,802.7,384.5,802.6,383.7"
				/>
			<path class="st60" d="M811.2,382c-0.3-0.3-0.4-0.7-0.4-1.2c0-0.4,0.2-0.8,0.4-1.2c0,0-0.7-0.6-1.5-1c-0.6-0.3-1.7-0.5-2.1-0.6
				c-0.3-0.1-1-0.2-1-0.2s0,0.2,0.2,0.6c0.2,0.5,0.3,0.8,0.3,0.8c-1.2,0.1-2.3,0.7-3.1,1.5c0.8,0.8,1.9,1.4,3.1,1.5
				c0,0-0.2,0.3-0.3,0.8c-0.1,0.4-0.2,0.6-0.2,0.6s0.7-0.1,1-0.2s1.5-0.3,2.1-0.6C810.5,382.6,811.2,382,811.2,382"/>
			<path class="st60" d="M812.5,372c0.8,0.8,1.5,2.1,1.6,3.3c0,0,0.2-0.2,0.7-0.5c0.6-0.2,1-0.1,1-0.1s-0.3,0.9-0.4,1.2
				c-0.1,0.3-0.3,1.3-0.7,2.2c-0.4,0.9-0.8,1.5-0.8,1.5c-0.3-0.4-0.8-0.7-1.3-0.7s-1,0.3-1.3,0.7c0,0-0.5-0.7-0.8-1.5
				c-0.4-0.9-0.5-1.9-0.7-2.2c-0.1-0.3-0.4-1.2-0.4-1.2s0.4-0.1,1,0.1s0.7,0.5,0.7,0.5C811.1,374.1,811.7,372.8,812.5,372"/>
			<path class="st60" d="M813.8,382c0.3-0.3,0.4-0.7,0.4-1.2c0-0.4-0.2-0.8-0.4-1.2c0,0,0.7-0.6,1.5-1c0.6-0.3,1.7-0.5,2.1-0.6
				c0.3-0.1,1-0.2,1-0.2s0,0.2-0.2,0.6c-0.2,0.5-0.3,0.8-0.3,0.8c1.2,0.1,2.3,0.7,3.1,1.5c-0.8,0.8-1.9,1.4-3.1,1.5
				c0,0,0.2,0.3,0.3,0.8c0.1,0.4,0.2,0.6,0.2,0.6l-1-0.2c-0.3-0.1-1.5-0.3-2.1-0.6C814.5,382.6,813.8,382,813.8,382"/>
			<ellipse class="st62" cx="812.5" cy="380.9" rx="1.7" ry="1.8"/>
			<path class="st69" d="M822.5,383.7c0.1-0.8-0.2-1.4-0.7-1.5s-1,0.5-1.1,1.3s0.2,1.4,0.7,1.5C821.9,385,822.4,384.5,822.5,383.7"
				/>
			<path class="st60" d="M829.5,383.4c-0.2-0.3-0.3-0.7-0.2-1.1s0.3-0.7,0.5-0.9c0,0-0.5-0.6-1.2-1.1c-0.5-0.4-1.4-0.7-1.7-0.8
				c-0.3-0.1-0.8-0.3-0.8-0.3s0,0.2,0,0.5c0.1,0.5,0.2,0.8,0.2,0.8c-1-0.1-2.1,0.3-2.9,0.9c0.5,0.8,1.4,1.6,2.4,1.8
				c0,0-0.2,0.2-0.4,0.6c-0.2,0.3-0.2,0.5-0.2,0.5h0.9c0.3,0,1.3,0,1.9-0.2C828.8,383.8,829.5,383.4,829.5,383.4"/>
			<path class="st60" d="M832.2,374.9c-0.8,0.6-1.6,1.6-1.9,2.6c0,0-0.1-0.2-0.6-0.5s-0.9-0.3-0.9-0.3s0.1,0.8,0.2,1.2
				c0.1,0.3,0.1,1.2,0.2,2c0.2,0.8,0.5,1.5,0.5,1.5c0.3-0.3,0.8-0.4,1.3-0.4c0.5,0.1,0.8,0.4,1.1,0.8c0,0,0.5-0.5,1-1.2
				c0.4-0.7,0.7-1.6,0.9-1.8c0.2-0.3,0.6-1,0.6-1s-0.4-0.2-0.9,0c-0.5,0.1-0.7,0.3-0.7,0.3C833.1,376.9,832.8,375.7,832.2,374.9"/>
			<path class="st60" d="M831.8,383.8c0.3-0.2,0.5-0.6,0.5-0.9c0.1-0.4,0-0.8-0.2-1.1c0,0,0.7-0.4,1.5-0.6c0.6-0.2,1.6-0.2,1.9-0.2
				c0.3,0,0.9,0,0.9,0s0,0.1-0.2,0.5s-0.4,0.7-0.4,0.7c1,0.3,1.9,1,2.4,1.8c-0.8,0.6-1.9,1-2.9,0.8c0,0,0.1,0.3,0.2,0.8
				c0,0.4,0,0.5,0,0.5s-0.6-0.2-0.8-0.3c-0.3-0.1-1.2-0.5-1.7-0.8C832.4,384.4,831.8,383.8,831.8,383.8"/>
			<ellipse class="st62" cx="830.8" cy="382.6" rx="1.7" ry="1.8"/>
			<path class="st69" d="M839.6,387.3c0.2-0.7,0-1.4-0.5-1.6s-1.1,0.3-1.3,1s0,1.4,0.5,1.6S839.4,388,839.6,387.3"/>
			<path class="st60" d="M846,387.7c0.1-0.3,0.3-0.7,0.6-0.9c0.6-0.6,1.5-0.7,1.9-0.2c0.1,0.1,0.1,0.1,0.1,0.2c0,0,0.9-1.8,1.9-2.4
				s2.8-0.5,2.8-0.5c0-1.4-1.1-2.5-2.4-2.5c-0.8,0-1.5,0.4-2,1l-0.2-0.9c0,0-1.1,0.2-1.6,1.6s0,3.3,0,3.3s-0.3-0.8-0.7-1.4
				s-1.5-1.2-2-1.4c-0.5-0.3-1.1-0.7-1.1-0.7s0,0.2,0,0.5c0,0.4,0,0.7,0,0.7c-1-0.1-2.2,0-3.1,0.4c0.4,0.8,1.1,1.6,2.1,2
				c0,0-0.3,0.3-0.7,0.7c-0.3,0.3-0.3,0.4-0.3,0.4s0.7,0.1,1,0.2c0.3,0,1.5,0.2,2.1,0.2C845.2,387.8,845.7,387.7,846,387.7"/>
			<path class="st62" d="M848.5,386.5c-0.4-0.5-1.3-0.4-1.9,0.2c-0.6,0.6-0.8,1.4-0.4,1.9c0.4,0.5,1.3,0.4,1.9-0.2
				C848.7,387.9,848.9,387,848.5,386.5"/>
		</g>
		<g>
			<path class="st63" d="M812.5,403.6c-8.9,0-16.9-1.1-23-2.8c6.1-1.7,14.1-2.8,23-2.8s16.9,1.1,23,2.8
				C829.4,402.5,821.4,403.6,812.5,403.6L812.5,403.6z"/>
			<path class="st45" d="M818.8,403.4v-5.2 M816.4,403.5v-5.6 M814.7,403.6v-5.7"/>
			<path class="st49" d="M813.2,403.7V398"/>
			<path class="st54" d="M811.7,403.7V398"/>
			<path class="st56" d="M810.4,403.7V398"/>
			<path class="st70" d="M809,403.7V398"/>
			<path class="st71" d="M807.8,403.7V398"/>
			<path class="st72" d="M805.6,403.4v-5.2 M806.6,403.4V398"/>
			<path class="st73" d="M803.5,403.1v-4.8 M804.5,403.3v-5.1"/>
			<path class="st74" d="M800.7,402.8v-4.2 M801.6,402.9v-4.4 M802.5,403.1v-4.6"/>
			<path class="st75" d="M799.7,402.8v-4.1"/>
			<path class="st76" d="M798.7,402.6v-3.8"/>
			<path class="st77" d="M797.8,402.5V399"/>
			<path class="st78" d="M795.7,402.2v-2.8 M796.8,402.3v-3.2"/>
			<path class="st79" d="M794.7,402v-2.5"/>
			<path class="st80" d="M793.7,401.8v-2.1"/>
			<path class="st81" d="M792.7,401.5v-1.6"/>
			<path class="st82" d="M791.6,401.3v-1.2"/>
			<path class="st83" d="M790.5,401.1v-0.6"/>
			<path class="st61" d="M788.4,401.1c6.2-1.9,14.7-3.1,24.1-3.1c9.4,0,17.9,1.2,24.1,3.1"/>
			<path class="st62" d="M785.7,397.1l1-1.4l2.7,0.4l-2.2,1.7L785.7,397.1"/>
			<path class="st69" d="M791.6,395.5c0-0.5,0.4-0.9,0.9-0.9s0.9,0.4,0.9,0.9s-0.4,0.9-0.9,0.9S791.6,396,791.6,395.5"/>
			<path class="st84" d="M799.3,395.3l-1.9,0.2c-0.5,0.1-0.9-0.3-1-0.8s0.3-1,0.8-1l1.9-0.2l1.9-0.2c0.5-0.1,0.9,0.3,1,0.8
				s-0.3,1-0.8,1L799.3,395.3"/>
			<path class="st69" d="M804.8,393.8c0-0.5,0.4-0.9,0.9-0.9s0.9,0.4,0.9,0.9s-0.4,0.9-0.9,0.9C805.2,394.7,804.8,394.3,804.8,393.8
				"/>
			<path class="st62" d="M812.5,394.5h-2.6c-0.5,0-0.9-0.4-0.9-0.9s0.4-0.9,0.9-0.9h5.3c0.5,0,0.9,0.4,0.9,0.9s-0.4,0.9-0.9,0.9
				H812.5"/>
			<path class="st69" d="M818.5,393.8c0-0.5,0.4-0.9,0.9-0.9s0.9,0.4,0.9,0.9s-0.4,0.9-0.9,0.9C818.9,394.7,818.5,394.3,818.5,393.8
				"/>
			<path class="st84" d="M825.8,395.3l1.9,0.2c0.5,0.1,0.9-0.3,1-0.8s-0.3-1-0.8-1l-1.9-0.2l-1.9-0.2c-0.5-0.1-0.9,0.3-1,0.8
				s0.3,1,0.8,1L825.8,395.3"/>
			<path class="st69" d="M831.7,395.5c0-0.5,0.4-0.9,0.9-0.9s0.9,0.4,0.9,0.9s-0.4,0.9-0.9,0.9S831.7,396,831.7,395.5"/>
			<path class="st62" d="M839.3,397.1l-1-1.4l-2.7,0.4l2.2,1.7L839.3,397.1"/>
		</g>
	</g>
	<g id="shield">
		<g id="Granada">
			<path class="st85" d="M812.8,508.1c-10.5,0-20.9-2.8-29.6-7.5c-6.4-3.5-10.7-10.5-10.7-18.5V453H853v29.1c0,8-4.3,15-10.7,18.5
				C833.5,505.3,823.3,508.1,812.8,508.1L812.8,508.1z"/>
			<path class="st86" d="M814.7,495.2c1.7,0.5,2.5,1.9,2.5,3.5c0,2.1-1.8,3.6-4.2,3.6s-4.3-1.6-4.3-3.6c0-1.6,0.8-3.3,2.5-3.4
				c0,0,0-0.2-0.2-0.4c-0.2-0.2-0.5-0.6-0.5-0.6s0.6-0.1,1,0c0.4,0.2,0.6,0.4,0.6,0.4s0.2-0.4,0.4-0.7c0.2-0.3,0.6-0.5,0.6-0.5
				s0.4,0.3,0.5,0.6c0.1,0.2,0.2,0.5,0.2,0.5s0.3-0.3,0.6-0.4s0.7-0.2,0.7-0.2s-0.1,0.4-0.2,0.6
				C814.8,494.8,814.7,495.2,814.7,495.2"/>
			<path class="st87" d="M812.7,504.6c0,0-3.2-2.3-4.6-2.7c-1.8-0.4-3.8-0.1-4.6-0.1c0,0,1,0.8,1.5,1.3c0.4,0.5,1.9,1.4,2.8,1.7
				C810.3,505.5,812.7,504.6,812.7,504.6"/>
			<path class="st87" d="M813.6,504.8c0,0,2-2.3,4.2-2.6c2.5-0.4,4.2,0.2,5.2,0.5c0,0-0.8,0.4-1.3,0.8c-0.4,0.3-1.6,1.4-3.3,1.4
				s-3.7-0.2-4-0.1C814,504.8,813.6,504.8,813.6,504.8"/>
			<path class="st88" d="M813,502c-0.8-0.8-1.3-2-1.3-3.2c0-1.3,0.5-2.4,1.3-3.2c0.8,0.8,1.3,2,1.3,3.2
				C814.2,500,813.8,501.2,813,502"/>
			<path class="st87" d="M812.1,506.7c0,0,0.5-1.3,0.5-2.5c0-1-0.1-1.9-0.1-1.9h0.4h0.2c0,0,0.3,1,0.3,1.9s-0.1,2.1-0.1,2.1
				s-0.4,0.1-0.6,0.1C812.6,506.5,812.1,506.7,812.1,506.7"/>
		</g>
		<g id="Aragon">
			<path class="st88" d="M812.7,482.2c0,11.5-8.9,20.8-20.1,20.8c-11.1,0-20.2-9.3-20.2-20.8V453h40.2L812.7,482.2"/>
			<path class="st89" d="M772.3,481.8c0.1,6.1,2.4,10.7,4.6,13.7v-43.2h-4.5L772.3,481.8L772.3,481.8z"/>
			<path class="st89" d="M781.2,499.3c1.3,0.7,3,1.9,4.8,2.4l-0.1-49.7h-4.7V499.3z"/>
			<path class="st89" d="M790.2,502.8c1.8,0.2,3.2,0.2,4.7,0V452h-4.7V502.8z"/>
			<path class="st89" d="M799,501.7c1.8-0.4,3.9-1.6,4.8-2.3V452h-4.7L799,501.7L799,501.7z"/>
			<path class="st89" d="M808.2,495c2-1.9,3.8-6.2,4.5-11.1l0.1-31.8h-4.7L808.2,495z"/>
		</g>
		<g id="Navarre">
			<path class="st88" d="M853,453v29.1c0,11.5-9,20.8-20.2,20.8c-11.1,0-20.2-9.3-20.2-20.8V453H853"/>
			<path id="chains_half" class="st90" d="M830.6,474.8c0-0.1,0.1-0.2,0.2-0.3l-3.4-4.1l-1.3,0.6l-2.5-3l0.8-1.3l-4.3-5.2
				c-0.1,0-0.2,0-0.2,0v3.5l1.4,0.4v3.9l-1.4,0.4v3.6c0.7,0.2,1.2,0.8,1.4,1.5h2.6l0.4-1.5h3.8l0.4,1.5H830.6z M825,458.7v1.4h2.2
				v-1.4H825z M819.2,476.4c0.5,0,0.9-0.4,0.9-1c0-0.5-0.4-1-0.9-1s-0.9,0.4-0.9,1C818.2,476,818.6,476.4,819.2,476.4z M832,467.9
				l-1.4-0.4v-3.9l1.4-0.4v-1.7c-0.7-0.2-1.2-0.8-1.4-1.5h-2.1l-0.4,1.5h-3.8l-0.4-1.5h-2.5c-0.1,0.2-0.1,0.4-0.2,0.5l4.3,5.2
				l1.3-0.6l2.5,3l-0.8,1.3l3.4,4c0.1,0,0.1-0.1,0.2-0.1L832,467.9z M826.2,466.7l-1,0.9l1.4,1.7l1-0.9L826.2,466.7z M832.6,498.3
				c-1-0.1-1.8-0.8-2-1.8c-1.3-0.2-2.6-0.6-3.8-1.1l0.7-1.2c1,0.5,2.1,0.8,3.3,1c0.2-0.6,0.7-1,1.3-1.2v-4.9l-1.4-0.4v-3.9l1.4-0.4
				v-6.7c-0.1,0-0.1,0-0.2-0.1l-3.2,3.9l0.8,1.3l-2.5,3l-1.3-0.6l-2.6,3.2c0.5,0.8,0.4,1.7-0.1,2.5c0.8,0.9,1.6,1.7,2.6,2.4
				l-0.7,1.3c-1.1-0.8-2.2-1.7-3-2.8c-0.7,0.2-1.5,0.1-2.1-0.4c-0.9-0.8-1-2.2-0.2-3.2l0.1-0.1c-0.6-1.4-0.9-2.8-1.1-4.4h1.4
				c0.1,1.3,0.4,2.6,0.9,3.7c0.4-0.1,0.8,0,1.2,0.1l2.7-3.2L824,483l2.5-3l1.3,0.6l3.2-3.9c-0.1-0.1-0.1-0.3-0.2-0.4h-2.2l-0.4,1.5
				h-3.8l-0.4-1.5h-2.6c-0.2,0.7-0.7,1.2-1.4,1.4v3.5h-1.4v-3.5c-0.9-0.3-1.5-1.1-1.5-2.2c0-1,0.7-1.9,1.5-2.2v-3.5l-1.4-0.4v-3.9
				l1.4-0.4v-3.5c-0.9-0.3-1.5-1.2-1.5-2.1c0-1.2,1-2.3,2.2-2.3c1,0,1.8,0.6,2.1,1.6h2.5l0.4-1.5h3.8l0.4,1.5h2.1
				c0.3-0.9,1.1-1.5,2.1-1.6l0.1,7.3H832v2.3h0.7v18.8H832v2.3h0.6V498.3z M827.8,482.3l-1-0.9l-1.4,1.7l1,0.9L827.8,482.3z
				 M819.9,466.2h-1.4v2.3h1.4V466.2z M827.2,476.2v-1.4h-2.3v1.4H827.2z M818.7,484.7l-1.4-0.3l-0.2-3.9l1.4-0.5v2.2
				C818.5,483,818.6,483.8,818.7,484.7L818.7,484.7z M819.9,479.8l1.4,0.4c0,0,0.1,2.5,0,1.9c0-0.6,0.2,2,0.2,2l-1.4,0.5
				c-0.1-0.8-0.2-1.6-0.2-2.4V479.8z M828.5,494.6l0.3-1.5c-1.2-0.4-2.3-1-3.3-1.8l-1,1C825.7,493.3,827.1,494.1,828.5,494.6
				L828.5,494.6z M827.9,495.9l-1,1.1c-1.2-0.5-2.3-1.1-3.3-1.8l0.3-1.5C825,494.5,826.4,495.3,827.9,495.9L827.9,495.9z"/>
			<path class="st91" d="M830.5,475.5c0-1.3,1-2.3,2.2-2.3s2.2,1,2.2,2.3c0,1.2-1,2.3-2.2,2.3C831.5,477.7,830.5,476.7,830.5,475.5"
				/>
		</g>
		<g id="Castile">
			<path class="st88" d="M772.4,453.1h40.2v-48.6h-40.2V453.1z"/>
			<path class="st92" d="M786.2,415.7h-0.7v-0.8h-1.3v3.2h1.3v2.2h-2.8v6.5h1.5v12.9h-3v6.7H804v-6.7h-3v-12.9h1.5v-6.5h-2.8v-2.2
				h1.3v-3.2h-1.3v0.8H799v-0.8h-1.3v0.8h-0.9v-0.8h-1.3v3.2h1.3v2.2H794v-7.1h1.5V410H794v0.8h-0.7V410H792v0.8h-0.7V410h-1.5v3.2
				h1.5v7.1h-2.8v-2.2h1.3v-3.2h-1.3v0.8h-0.7v-0.8h-1.5L786.2,415.7L786.2,415.7z M781.2,446.3H804 M781.2,444.7H804 M781.2,443.1
				H804 M781.2,441.5H804 M781.2,439.7H804 M784.2,438.3H801 M784.2,436.7H801 M784.2,434.8H801 M784.2,433.2H801 M784.2,431.6H801
				 M784.2,430H801 M784.2,428.4H801 M782.7,426.8h19.8 M782.7,425.2h19.8 M782.7,423.5h19.8 M782.7,421.9h19.8 M785.5,420.3h14.3
				 M791.2,418.7h2.8 M791.2,417.1h2.8 M791.2,415.5h2.8 M791.2,413.9h2.8 M789.7,411.9h5.7 M785.5,418.7h3 M784.2,416.7h5.6
				 M784.2,446.3v-1.6 M784.2,443.1v-1.6 M782.7,443.1v1.6 M785.5,444.7v-1.6 M787,446.3v-1.6 M787,443.1v-1.6 M787,439.7v-1.4
				 M787,436.7v-1.8 M785.5,441.5v-1.8 M782.7,441.5v-1.8 M788.4,439.7v1.8 M789.7,439.7v-1.4 M785.5,436.7v1.6 M788.4,436.7v1.6
				 M791.2,436.7v1.6 M789.7,436.7v-1.8 M791.2,433.2v1.6 M791.2,430v1.6 M789.7,428.4v1.6 M791.2,426.8v1.6 M788.4,426.8v1.6
				 M785.5,426.8v1.6 M784.2,425.2v1.6 M787,425.2v1.6 M789.7,425.2v1.6 M791.2,423.5v1.6 M788.4,423.5v1.6 M785.5,423.5v1.6
				 M784.2,421.9v1.6 M789.7,421.9v1.6 M787,418.7v1.6 M799.7,418.7h-3 M801,416.7h-5.6 M801,446.3v-1.6 M801,443.1v-1.6
				 M802.5,443.1v1.6 M799.7,444.7v-1.6 M798.3,446.3v-1.6 M798.3,443.1v-1.6 M798.3,439.7v-1.4 M798.3,436.7v-1.8 M799.7,441.5
				v-1.8 M802.5,441.5v-1.8 M796.8,439.7v1.8 M795.5,439.7v-1.4 M799.7,436.7v1.6 M796.8,436.7v1.6 M794,436.7v1.6 M795.5,436.7
				v-1.8 M794,433.2v1.6 M794,430v1.6 M795.5,428.4v1.6 M794,426.8v1.6 M796.8,426.8v1.6 M799.7,426.8v1.6 M801,425.2v1.6
				 M798.3,425.2v1.6 M795.5,425.2v1.6 M794,423.5v1.6 M796.8,423.5v1.6 M799.7,423.5v1.6 M801,421.9v1.6 M795.5,421.9v1.6
				 M798.3,418.7v1.6 M792.5,436.7v-1.8 M792.5,430v-1.6 M792.5,433.2v-1.6 M792.5,426.8v-1.6 M792.5,423.5v-1.6 M792.5,418.7v-1.6
				 M792.5,415.5v-1.6 M785.5,418.1h3 M791.2,413.3h2.8 M796.8,418.1h3"/>
			<path class="st92" d="M796.4,446.3v-4.2c0-0.8-0.4-3.2-3.9-3.2c-3.3,0-3.7,2.4-3.7,3.2v4.2H796.4z"/>
			<path class="st92" d="M790.1,442.3l-1.9-0.2c0-0.8,0.2-2,0.7-2.4l1.7,1.4C790.5,441.3,790.1,441.9,790.1,442.3z"/>
			<path class="st92" d="M793.3,440.3l0.9-1.8c-0.4-0.2-1.1-0.4-1.7-0.4c-0.4,0-1.1,0.2-1.5,0.4l0.9,1.8H793.3L793.3,440.3z"/>
			<path class="st92" d="M795.1,442.3l1.9-0.2c0-0.8-0.2-2-0.7-2.4l-1.7,1.4C794.7,441.3,795.1,441.9,795.1,442.3z"/>
			<path class="st92" d="M789.7,435.3v-4.4c0-1.2-0.7-2.2-2-2.2s-2,1-2,2.2v4.4H789.7L789.7,435.3z"/>
			<path class="st92" d="M795.5,435.3v-4.4c0-1.2,0.7-2.2,2-2.2s2,1,2,2.2v4.4H795.5z"/>
			<path class="st92" d="M788.4,424.4l0.2-4h-3.5l0.4,4H788.4z"/>
			<path class="st92" d="M794,424.4l0.4-4h-3.5l0.2,4H794z"/>
			<path class="st92" d="M796.8,424.4l-0.4-4h3.7l-0.4,4H796.8L796.8,424.4z"/>
			<g>
				<path class="st93" d="M795.1,446.3v-3.6c0-0.6-0.4-2.4-2.6-2.4c-2,0-2.4,1.8-2.4,2.4v3.6H795.1L795.1,446.3z"/>
				<path class="st93" d="M789.4,434.8V431c0-1-0.6-2-1.7-2s-1.7,1-1.7,2v3.8H789.4z"/>
				<path class="st93" d="M795.8,434.8V431c0-1,0.6-2,1.7-2c1.1,0,1.7,1,1.7,2v3.8H795.8z"/>
			</g>
		</g>
		<g id="Leon">
			<path class="st85" d="M812.6,453.1H853v-48.6h-40.3v48.6H812.6z"/>
			<path class="st94" d="M833.2,416.4v-0.5l0.1-0.3c0,0-1.3,0.1-2-0.1s-1.3-0.5-1.9-1.1c-0.6-0.6-0.9-1-1.3-1
				c-1.1-0.2-1.9,0.3-1.9,0.3s0.8,0.3,1.4,1.1c0.6,0.8,1.3,1.2,1.6,1.3c0.5,0.2,2.1,0,2.6,0.1C832.2,416.3,833.2,416.4,833.2,416.4
				L833.2,416.4z"/>
			<g>
				<path class="st95" d="M839.2,414.5c0,0,0,0.6,0.1,1.2c0,0.6-0.2,1.1-0.1,1.4c0.1,0.3,0.1,0.6,0.2,0.8c0.1,0.2,0.2,0.8,0.2,0.8
					s-0.3-0.2-0.6-0.5c-0.3-0.2-0.5-0.4-0.5-0.4s0.1,0.6,0.1,0.9s0.2,0.8,0.4,1.1c0.2,0.3,0.7,0.8,0.8,1.2c0.1,0.4,0.1,1.3,0.1,1.3
					s-0.4-0.7-0.7-0.8c-0.3-0.1-1-0.5-1-0.5s0.6,0.7,0.6,1.4c0,0.7-0.3,1.4-0.3,1.4s-0.3-0.6-0.7-1s-0.9-0.8-0.9-0.8s0.4,1,0.4,1.7
					s-0.1,2.2-0.1,2.2s-0.3-0.6-0.6-0.8c-0.3-0.3-0.7-0.5-0.8-0.7s0.4,0.6,0.4,1c0.1,0.4,0.3,2.1,1.5,4.1c0.8,1.2,1.9,3.3,4.4,2.6
					c2.5-0.7,1.6-4.3,1-6c-0.5-1.7-0.8-3.6-0.8-4.3c0-0.7,0.5-2.6,0.4-3s-0.2-1.7,0.1-2.9c0.3-1.2,0.6-1.6,0.8-2.1s0.3-0.8,0.4-1.2
					c0.1-0.4,0.1-1.2,0.1-1.2s0.5,0.9,0.6,1.3c0.1,0.3,0.1,1.3,0.1,1.3s0.1-1,0.8-1.5s1.5-1,1.7-1.3s0.3-0.4,0.3-0.4
					s-0.1,1.7-0.5,2.3c-0.3,0.4-1.4,1.8-1.4,1.8s0.6-0.2,1-0.3c0.4,0,0.7,0,0.7,0s-0.5,0.4-1.1,1.4s-0.4,1.1-0.8,1.9
					c-0.5,0.8-0.8,0.9-1.4,1.4c-0.9,0.8-0.4,3.8-0.3,4.2c0.1,0.4,1.6,4.2,1.7,5.1c0,0.9,0.2,2.9-1.3,4.2c-0.9,0.8-2.5,0.8-2.8,1.1
					c-0.3,0.2-1,1-1,2.5c0,1.6,0.5,1.8,0.9,2.2c0.4,0.4,0.9,0.2,1,0.5s0.2,0.5,0.4,0.7s0.3,0.4,0.2,0.7c-0.1,0.3-0.7,1.1-1,1.6
					c-0.2,0.5-0.7,1.9-0.7,2.2c0,0.2-0.1,0.9,0.1,1.2c0,0,0.7,0.9,0.2,1.1c-0.3,0.1-0.6-0.2-0.8-0.2c-0.4,0.1-0.7,0.4-0.8,0.4
					c-0.3-0.1-0.3-0.2-0.3-0.7c0-0.4,0-0.6-0.1-0.6c-0.2,0-0.3,0.2-0.3,0.4c0,0.2,0,0.8-0.2,0.8s-0.5-0.4-0.7-0.5s-0.7-0.2-0.7-0.4
					c0-0.2,0.3-0.7,0.6-0.8c0.3-0.1,0.6-0.3,0.4-0.4c-0.2-0.2-0.4-0.2-0.6,0c-0.2,0.2-0.6,0-0.6-0.2c0-0.3,0.1-0.6,0.1-0.8
					c0-0.1-0.4-0.4,0.1-0.7c0.5-0.3,0.7,0.2,1.1,0.1s0.7-0.3,0.9-0.6s0.1-0.9-0.2-1.3s-0.6-0.5-0.8-0.7c-0.1-0.2-0.3-0.8-0.3-0.8
					s0.1,1,0,1.2c-0.1,0.1,0,0.8,0,0.8s-0.3-0.4-0.6-0.7c-0.3-0.3-0.5-1.2-0.5-1.2s0,0.8,0,1.2c0,0.3,0.3,0.6,0.2,0.8
					c-0.1,0.1-0.7-0.6-0.8-0.8c-0.1-0.1-0.6-0.5-0.8-0.9s-0.4-1-0.4-1.2c-0.1-0.2-0.2-1.1-0.1-1.4c0.1-0.3,0.4-1,0.4-1h-1.1
					c-0.6,0-1-0.2-1.3,0.2s-0.1,1.3,0.2,2.5s0.5,1.7,0.4,1.9c-0.1,0.2-0.5,0.7-0.6,0.8c-0.2,0.1-0.6,0.1-0.7,0
					c-0.2-0.1-0.5-0.2-1-0.2c-0.6,0-0.9,0-1.1,0c-0.2-0.1-0.7-0.3-0.9-0.3c-0.2,0.1-0.6,0.3-0.5,0.6c0.2,0.5-0.2,0.7-0.4,0.6
					c-0.2,0-0.4-0.1-0.7-0.2s-0.7,0-0.7-0.4c0.1-0.4,0.2-0.4,0.3-0.6c0.1-0.3,0.2-0.5,0-0.5s-0.4,0-0.6,0.1
					c-0.2,0.1-0.4,0.4-0.6,0.3c-0.2-0.1-0.4-0.4-0.4-0.9c0-0.6-0.5-1,0-1s1.1,0.4,1.2,0.1c0.1-0.3,0-0.4-0.2-0.7
					c-0.3-0.2-0.6-0.4-0.2-0.7c0.4-0.3,0.4-0.3,0.6-0.5c0.1-0.2,0.3-0.7,0.6-0.6c0.5,0.3,0,0.6,0.5,1.2s0.8,0.8,1.7,0.7
					c0.8-0.1,1.1-0.2,1.1-0.5s-0.1-0.7-0.1-0.9c0-0.2,0.1-0.9,0.1-0.9s-0.4,0.3-0.5,0.5c-0.1,0.3-0.3,0.7-0.3,0.7s-0.1-0.5-0.1-1
					c0-0.3,0.1-0.7,0.1-0.8c0-0.2-0.2-0.8-0.2-0.8s-0.1,0.6-0.2,0.8c-0.1,0.2-0.1,0.9-0.1,0.9s-0.5-0.5-0.4-1.4
					c0.1-0.7-0.1-1.5,0.1-1.8c0.2-0.3,0.6-1.4,1.7-1.5c1,0,1.9,0,2.2,0c0.4,0,1.7-0.3,1.7-0.3s-2.4-1.3-2.9-1.7
					c-0.5-0.4-1.4-1.4-1.7-1.9s-0.5-1.4-0.5-1.4s-0.4,0-0.8,0.3c-0.4,0.2-0.8,0.6-1,0.9s-0.6,0.9-0.6,0.9s0.1-0.8,0.1-1.1
					c0-0.3,0-0.8,0-0.8s-0.3,1.1-0.8,1.5s-1.2,1-1.2,1s0.1-0.6,0.1-0.8c0-0.1,0.1-0.9,0.1-0.9s-0.4,0.6-1,0.8
					c-0.6,0.1-1.5,0.1-1.5,0.5c-0.1,0.4,0.2,0.9,0,1.2c-0.1,0.3-0.4,0.5-0.4,0.5s-0.3-0.3-0.6-0.3s-0.6,0.1-0.6,0.1
					s-0.2-0.3-0.2-0.6c0.1-0.2,0.5-0.6,0.4-0.7s-0.5,0.1-0.7,0.2s-0.7,0.2-0.7-0.2c0-0.4,0.2-0.6,0-0.9c-0.1-0.3,0-0.5,0.1-0.5
					c0.2-0.1,0.9,0,1-0.2s-0.2-0.4-0.7-0.5s-0.7-0.4-0.5-0.7c0.3-0.3,0.3-0.3,0.4-0.6c0.1-0.2,0.2-0.7,0.6-0.4
					c0.4,0.2,0.3,0.7,0.8,0.9c0.4,0.2,1.5-0.1,1.7-0.2s1-0.7,1.2-0.9c0.2-0.1,1.3-1,1.3-1s-0.6-0.5-0.8-0.7s-0.6-0.8-0.8-0.9
					s-1.2-0.5-1.5-0.6c-0.3,0-1.4-0.4-1.4-0.4s0.5-0.2,0.6-0.3c0.2-0.1,0.5-0.5,0.7-0.5s0.2,0,0.2,0s-1,0-1.2-0.1s-0.8-0.5-1-0.5
					s-0.7,0.1-0.7,0.1s0.6-0.4,1.1-0.5s0.9-0.1,0.9-0.1s-0.8-0.2-1-0.5s-0.4-0.7-0.5-0.9c-0.1-0.2-0.2-0.5-0.5-0.5s-0.7,0.3-0.9,0.3
					s-0.4-0.2-0.5-0.6c0-0.4,0-0.3-0.1-0.5s-0.5-0.7-0.1-0.8c0.3-0.1,1.1,0.1,1.1-0.1c0.1-0.1-0.4-0.6-0.7-0.7
					c-0.3-0.2-0.8-0.4-0.5-0.7c0.2-0.2,0.5-0.3,0.6-0.5s0.3-0.8,0.6-0.6c0.3,0.2,0.7,1.1,0.9,1s0.2-0.7,0.2-1s0-0.8,0.2-0.7
					s0.4,0.4,0.8,0.4c0.4,0,0.9-0.1,0.9,0.2c0,0.3-0.2,0.6-0.5,0.9c-0.2,0.3-0.4,0.9-0.2,1.3s0.6,1,0.9,1.3c0.4,0.3,1,0.4,1.5,0.7
					c0.4,0.3,1.4,1.2,1.8,1.3c0.3,0.1,0.7,0.3,0.7,0.3s0.4-0.2,0.9-0.2s1.7,0.1,2.2-0.1s1-0.6,0.9-1c-0.2-0.4-1.2-0.8-1.1-1.2
					s0.5-0.4,1.1-0.4s1.4,0.1,1.6-0.8c0.2-0.9,0.2-1.5-0.6-1.7c-0.9-0.2-1.5-0.2-1.7-0.9c-0.2-0.7-0.3-0.8-0.1-1s0.5-0.3,1.1-0.3
					c0.6-0.1,1.4-0.1,1.6-0.2c0.2-0.2,0.2-0.6,0.5-0.8c0.2-0.2,1.2-0.3,1.2-0.3s1.2,0.6,2.2,1.5
					C838.4,413.3,839.2,414.5,839.2,414.5"/>
				<path class="st61" d="M827.6,420c0,0-0.6,0.2-0.9,0.6c-0.3,0.5-0.3,0.9-0.3,0.9s0.5-0.5,1.3-0.3c0.7,0.2,0.8,0.3,1.1,0.3
					s1-0.3,1-0.3s-0.6,0.8-0.5,1.3s0.2,0.7,0.1,1c0,0.6-0.5,1.4-0.5,1.4s0.2-0.2,0.8-0.3c0.6-0.1,1.1-0.4,1.4-0.7
					c0.3-0.3,0.7-0.9,0.7-0.9s-0.1,0.9,0,1.2c0.1,0.4,0.2,1.5,0.2,1.5s0.4-0.4,0.7-0.5c0.2-0.1,0.6-0.3,0.7-0.6
					c0.1-0.2,0.3-0.9,0.3-0.9s0.1,0.8,0.3,1.2c0.2,0.4,0.6,1.5,0.6,1.5s0.2-0.8,0.5-1.1s0.5-0.7,0.6-0.9c0-0.2-0.1-0.7-0.1-0.7
					l0.3,0.7 M826.8,424.8c0,0,0.4-0.7,0.7-1c0.4-0.2,0.9-0.6,1-0.7c0.1,0,0.7-0.4,0.7-0.4 M830,427.3c0,0,0.9-0.5,1.1-0.7
					c0.5-0.3,0.9-1,0.9-1"/>
				<path class="st36" d="M838.5,417.9c0,0-0.3-0.4-0.3-0.6c-0.1-0.1-0.2-0.4-0.2-0.4"/>
				<path class="st61" d="M835.1,432.3c0,0,1.6,1.1,1.6,2s-0.9,2.1-0.9,2.1"/>
			</g>
			<path class="st96" d="M830.9,413.8c0,0-0.1-0.4-0.2-0.5c0-0.1-0.1-0.3-0.1-0.3s0.7,0,0.7,0.2s-0.2,0.2-0.3,0.3
				C831,413.7,830.9,413.8,830.9,413.8L830.9,413.8z"/>
			<path class="st97" d="M834.1,412.6v-0.4c0,0,0.6,0,0.9,0.2c0.5,0.3,0.7,0.9,0.7,0.9c-0.1,0.1-0.4-0.2-0.7-0.3c0,0-0.2,0-0.4,0
				s-0.3-0.1-0.3-0.2s0-0.3,0-0.3L834.1,412.6z"/>
			<g>
				<path class="st96" d="M830.9,417.2l0.3-0.5l0.3,0.4L830.9,417.2"/>
				<path class="st96" d="M831.6,417.2l0.3-0.5l0.3,0.4L831.6,417.2"/>
				<path class="st96" d="M831.3,414.3l0.7,0.3l-0.6,0.3L831.3,414.3"/>
				<path class="st96" d="M832.1,414.5l0.6,0.2l-0.5,0.4L832.1,414.5"/>
			</g>
			<g>
				<path class="st94" d="M821.9,413.7c0,0,0.4,0.3,0.7,0.3s0.6,0,0.7,0c0,0,0.1-0.5,0.1-0.8c-0.2-1-1-1.3-1-1.3s0.3,0.6,0.1,0.9
					C822.3,413.3,821.9,413.7,821.9,413.7L821.9,413.7z"/>
				<path class="st94" d="M820.1,414.6c0,0-0.3-0.7-1.1-0.6c-0.7,0.1-1.2,0.7-1.2,0.7s0.8,0,1,0.1c0.3,0.2,0.4,0.8,0.4,0.8
					s0.4-0.3,0.6-0.5C819.9,414.9,820.1,414.6,820.1,414.6L820.1,414.6z"/>
				<path class="st94" d="M819.2,417.3c0,0-0.6,0.1-1,0.5c-0.3,0.4-0.3,1.2-0.3,1.2s0.4-0.5,0.8-0.5c0.4,0,0.9,0.1,0.9,0.1
					s-0.2-0.5-0.2-0.7S819.2,417.3,819.2,417.3L819.2,417.3z"/>
				<path class="st94" d="M821.3,426.1c0,0-0.3-0.4-0.9-0.3c-0.6,0.1-1,0.8-1,0.8s0.5-0.1,0.8-0.1c0.3,0.1,0.5,0.4,0.5,0.4
					s0.3-0.3,0.4-0.4S821.3,426.1,821.3,426.1L821.3,426.1z"/>
				<path class="st94" d="M820.6,428.7c0,0-0.5-0.1-0.9,0.3s-0.4,1.1-0.4,1.1s0.4-0.4,0.7-0.3c0.3,0,0.7,0.2,0.7,0.2
					s0.1-0.4,0.1-0.6C820.8,429.1,820.6,428.7,820.6,428.7L820.6,428.7z"/>
				<path class="st94" d="M821.7,431.1c0,0,0,0.7,0.3,1.1s0.9,0.5,0.9,0.5s-0.2-0.5-0.2-0.7c0-0.3,0.3-0.7,0.3-0.7s-0.3-0.3-0.6-0.3
					C822.1,431.1,821.7,431.1,821.7,431.1L821.7,431.1z"/>
				<path class="st94" d="M827.6,437.3c0,0-0.4-0.6-1-0.5c-0.6,0-1.2,0.6-1.2,0.6s0.7-0.1,0.9,0.2c0.2,0.3,0.4,0.6,0.4,0.6
					s0.3-0.2,0.5-0.3C827.3,437.7,827.6,437.3,827.6,437.3L827.6,437.3z"/>
				<path class="st94" d="M825.9,439.7c0,0-0.7-0.1-1.1,0.3c-0.4,0.4-0.3,1.2-0.3,1.2s0.4-0.5,0.9-0.5c0.4,0,0.9,0.3,0.9,0.3
					s-0.1-0.5-0.1-0.7C826,440.1,825.9,439.7,825.9,439.7L825.9,439.7z"/>
				<path class="st94" d="M827.5,442.3c0,0-0.4,0.6-0.1,1s0.8,0.7,0.8,0.7s-0.2-0.3-0.1-0.7c0.1-0.3,0.5-0.7,0.5-0.7L827.5,442.3
					L827.5,442.3z"/>
				<path class="st94" d="M837.4,443.4c0,0-0.6-0.2-1,0.1c-0.4,0.2-0.7,1.2-0.7,1.2s0.6-0.5,1-0.5c0.4,0.1,0.7,0.3,0.7,0.3
					s0.1-0.4,0-0.7C837.5,443.6,837.4,443.4,837.4,443.4L837.4,443.4z"/>
				<path class="st94" d="M837.8,446c0,0-0.5,0.6-0.3,1c0.2,0.5,0.5,1,0.5,1s0-0.7,0.2-0.9c0.3-0.3,0.8-0.3,0.8-0.3
					s-0.4-0.4-0.6-0.5C838.3,446.2,837.8,446,837.8,446z"/>
				<path class="st94" d="M840.3,446.8c0,0-0.2,0.7,0.2,1.1c0.5,0.5,0.9,0.5,0.9,0.5s-0.4-0.7-0.3-1.1c0.1-0.4,0.4-0.6,0.4-0.6
					s-0.6-0.2-0.7-0.2C840.8,446.5,840.3,446.8,840.3,446.8L840.3,446.8z"/>
			</g>
			<g>
				<path class="st33" d="M838.8,410.7h-0.2c0,0-0.1,0.2-0.2,0.3c-0.2,0.2-0.5,0.2-0.7,0.1c-0.1-0.1-0.1-0.2-0.1-0.4
					c-0.1,0.1-0.3,0.1-0.4,0c-0.2-0.1-0.3-0.4-0.1-0.7c0-0.1,0-0.1,0.1-0.2v-0.3l-0.3,0.1l-0.1,0.2c-0.2,0.2-0.4,0.3-0.6,0.1
					c-0.1-0.1-0.1-0.2-0.1-0.2l-0.1,0.1c-0.4,0.1-0.6-0.9-0.6-1.2l-0.1,0.2c0,0,0.1,0.6,0.1,1.1c-0.1,0.5-0.2,1-0.2,1
					c0.6,0.2,1.5,0.7,2.4,1.4c0.9,0.7,1.6,1.6,1.9,2.1c0,0,0.5-0.3,0.9-0.4c0.5-0.2,1.1-0.2,1.1-0.2l0.2-0.2c-0.3,0-1.3,0.1-1.3-0.4
					c0-0.1,0.1-0.2,0.1-0.2s-0.2,0-0.2-0.1c-0.1-0.1-0.1-0.4,0-0.6l0.1-0.1v-0.3h-0.3L840,412c-0.2,0.2-0.5,0.2-0.7,0
					c-0.1-0.1-0.1-0.3-0.1-0.4c-0.1,0-0.3,0-0.4,0c-0.2-0.1-0.2-0.5-0.1-0.7c0.1-0.1,0.2-0.3,0.2-0.3L838.8,410.7L838.8,410.7
					L838.8,410.7z"/>
				<g>
					<path class="st97" d="M837,411.3c0-0.1,0.1-0.1,0.2,0s0.1,0.1,0,0.2c0,0.1-0.1,0.1-0.2,0C836.9,411.4,836.9,411.4,837,411.3
						L837,411.3z"/>
					<path class="st97" d="M837.7,412l-0.3-0.2c0,0-0.1-0.1,0-0.1h0.1l0.3,0.2l0.3,0.2c0,0,0.1,0.1,0,0.1H838L837.7,412"/>
					<path class="st97" d="M836.3,411l-0.2-0.1c-0.1,0-0.1-0.1-0.1-0.1s0.1-0.1,0.1,0l0.2,0.1l0.2,0.1l0.1,0.1c0,0-0.1,0.1-0.1,0
						L836.3,411"/>
					<path class="st97" d="M835.5,410.3c0-0.1,0.1-0.1,0.2,0c0.1,0.1,0.1,0.1,0,0.2c0,0-0.1,0-0.2,0
						C835.5,410.5,835.5,410.4,835.5,410.3L835.5,410.3z"/>
					<path class="st97" d="M838.6,412.6c0,0,0-0.1,0-0.2c-0.1-0.1-0.2-0.1-0.2,0c0,0,0,0.1,0,0.2
						C838.4,412.7,838.5,412.7,838.6,412.6L838.6,412.6z"/>
					<path class="st97" d="M839,413.2l0.2,0.2c0,0,0.1,0.1,0.1,0v-0.1l-0.2-0.2l-0.2-0.2c0,0-0.1-0.1-0.1,0v0.1L839,413.2"/>
					<path class="st97" d="M839.8,413.9c0-0.1,0-0.1,0-0.2c-0.1-0.1-0.1-0.1-0.2,0s0,0.1,0,0.2C839.7,414,839.7,414,839.8,413.9z"/>
				</g>
				<path class="st33" d="M837.6,408.7h-0.5l-0.1,0.8v0.1h0.1l0.6-0.4L837.6,408.7"/>
				<path class="st33" d="M837.6,408.7h-0.5l-0.1,0.8v0.1h0.1l0.6-0.4L837.6,408.7"/>
				<path class="st33" d="M836.3,409.1v0.5l0.7,0.1l0.1-0.1v-0.1l-0.4-0.6L836.3,409.1"/>
				<path class="st33" d="M837.8,410l-0.4,0.2l-0.4-0.6v-0.1l0.1-0.1l0.7,0.1L837.8,410"/>
				<path class="st33" d="M836.9,409.4c0.1-0.1,0.2-0.1,0.3-0.1c0.1,0.1,0.1,0.2,0.1,0.3c-0.1,0.1-0.2,0.1-0.3,0.1
					C836.8,409.7,836.8,409.5,836.9,409.4z"/>
				<path class="st33" d="M835.1,408.6c0,0-0.1-0.4-0.2-0.6c-0.1-0.2-0.3-0.4-0.3-0.4s0.3-0.2,0.7,0.1c0.3,0.3,0,0.8,0,0.8
					S835.2,408.6,835.1,408.6L835.1,408.6z"/>
				<path class="st33" d="M836,408.9l-0.3,0.3l-0.5-0.5v-0.1v-0.1l0.7-0.1L836,408.9"/>
				<path class="st33" d="M835,408.6c0-0.1,0.1-0.2,0.2-0.2c0.1,0,0.1,0.2,0.1,0.3c0,0.1-0.1,0.2-0.2,0.2
					C835,408.9,835,408.7,835,408.6z"/>
				<path class="st33" d="M839.4,409.9l-0.5-0.1l-0.2,0.7v0.1h0.1l0.7-0.4L839.4,409.9"/>
				<path class="st33" d="M838.1,410.1l-0.1,0.5l0.7,0.2h0.1v-0.1l-0.3-0.7L838.1,410.1"/>
				<path class="st33" d="M839.4,411.3l-0.4,0.2l-0.3-0.7v-0.1h0.1l0.7,0.2L839.4,411.3"/>
				<path class="st33" d="M838.6,410.6c0.1-0.1,0.2-0.1,0.3,0s0.1,0.2,0,0.3c-0.1,0.1-0.2,0.1-0.3,0S838.5,410.7,838.6,410.6
					L838.6,410.6z"/>
				<path class="st33" d="M841,411.5l0.1,0.5l-0.7,0.3h-0.1v-0.1l0.3-0.7L841,411.5"/>
				<path class="st33" d="M840.9,412.9l-0.4,0.1l-0.2-0.7v-0.1h0.1l0.7,0.3L840.9,412.9"/>
				<path class="st33" d="M839.6,411.5l-0.1,0.5l0.7,0.3h0.1v-0.1l-0.2-0.7L839.6,411.5"/>
				<path class="st33" d="M840.4,412.4c0.1-0.1,0.1-0.2,0-0.3c-0.1-0.1-0.2-0.1-0.3,0s-0.1,0.2,0,0.3
					C840.1,412.5,840.3,412.5,840.4,412.4L840.4,412.4z"/>
				<path class="st33" d="M841.5,414c0,0,0.4,0,0.6,0.1c0.2,0,0.4,0.2,0.4,0.2s0.1-0.4-0.2-0.7c-0.3-0.2-0.7,0.2-0.7,0.2
					S841.5,413.9,841.5,414L841.5,414z"/>
				<path class="st33" d="M841.1,413.2l-0.2,0.4l0.6,0.4l0.1-0.1h0.1l-0.1-0.8L841.1,413.2"/>
				<path class="st33" d="M841.6,414c0.1-0.1,0.2-0.2,0.1-0.3s-0.2-0.1-0.3,0s-0.2,0.2-0.1,0.3C841.3,414.1,841.4,414.1,841.6,414z"
					/>
			</g>
		</g>
		<g id="inescutcheon">
			<ellipse class="st98" cx="812.7" cy="452.9" rx="13" ry="16"/>
			<ellipse class="st99" cx="812.8" cy="452.8" rx="9.2" ry="11.7"/>
			<g id="fdl">
				<path class="st100" d="M808.4,444.8c0,0-1.1,1.3-1.1,2.5s0.5,2.2,0.5,2.2c-0.2-0.5-0.6-0.8-1.1-0.8c-0.7,0-1.2,0.5-1.2,1.2
					c0,0.2,0.1,0.5,0.2,0.7l0.4,0.9c0.1-0.3,0.4-0.5,0.8-0.5c0.5,0,0.9,0.4,0.9,0.9c0,0.1,0,0.1,0,0.2h-1v0.9h0.9l-0.6,1.4l0.9-0.4
					l0.6,0.8l0.7-0.8l0.9,0.4l-0.6-1.4h0.9v-0.9h-1c0-0.1,0-0.1,0-0.2c0-0.5,0.4-0.9,0.8-0.9c0.4,0,0.7,0.2,0.8,0.5l0.4-0.9
					c0.1-0.2,0.2-0.5,0.2-0.7c0-0.7-0.5-1.2-1.2-1.2c-0.5,0-1,0.3-1.1,0.8c0,0,0.5-1,0.5-2.2C809.5,446.1,808.4,444.8,808.4,444.8
					L808.4,444.8z"/>
				<path class="st101" d="M806.7,453h3.5v-0.9h-3.5V453z"/>
			</g>
			<g>
				<g id="fdl_1_">
					<path class="st100" d="M816.9,444.8c0,0-1.1,1.3-1.1,2.5s0.5,2.2,0.5,2.2c-0.2-0.5-0.6-0.8-1.1-0.8c-0.7,0-1.2,0.5-1.2,1.2
						c0,0.2,0.1,0.5,0.2,0.7l0.4,0.9c0.1-0.3,0.4-0.5,0.8-0.5c0.5,0,0.9,0.4,0.9,0.9c0,0.1,0,0.1,0,0.2h-1v0.9h0.9l-0.6,1.4l0.9-0.4
						l0.6,0.8l0.7-0.8l0.9,0.4l-0.6-1.4h0.9v-0.9h-1c0-0.1,0-0.1,0-0.2c0-0.5,0.4-0.9,0.8-0.9c0.4,0,0.7,0.2,0.8,0.5l0.4-0.9
						c0.1-0.2,0.2-0.5,0.2-0.7c0-0.7-0.5-1.2-1.2-1.2c-0.5,0-1,0.3-1.1,0.8c0,0,0.5-1,0.5-2.2C818,446.1,816.9,444.8,816.9,444.8
						L816.9,444.8z"/>
					<path class="st101" d="M815.2,453h3.5v-0.9h-3.5V453z"/>
				</g>
			</g>
			<g>
				<g id="fdl_2_">
					<path class="st100" d="M812.7,452.8c0,0-1.1,1.3-1.1,2.5s0.5,2.2,0.5,2.2c-0.2-0.5-0.6-0.8-1.1-0.8c-0.7,0-1.2,0.5-1.2,1.2
						c0,0.2,0.1,0.5,0.2,0.7l0.4,0.9c0.1-0.3,0.4-0.5,0.8-0.5c0.5,0,0.9,0.4,0.9,0.9c0,0.1,0,0.1,0,0.2h-1v0.9h0.9l-0.6,1.4l0.9-0.4
						l0.6,0.8l0.7-0.8l0.9,0.4l-0.6-1.4h0.9v-1h-1c0-0.1,0-0.1,0-0.2c0-0.5,0.4-0.9,0.8-0.9c0.4,0,0.7,0.2,0.8,0.5l0.4-0.9
						c0.1-0.2,0.2-0.5,0.2-0.7c0-0.7-0.5-1.2-1.2-1.2c-0.5,0-1,0.3-1.1,0.8c0,0,0.5-1,0.5-2.2C813.8,454,812.7,452.8,812.7,452.8
						L812.7,452.8z"/>
					<path class="st101" d="M810.9,460.9h3.5V460h-3.5V460.9z"/>
				</g>
			</g>
		</g>
	</g>
</g>
<path class="st102" d="M536,974.5c5.3,3.5,17.8,10.8,35.3,11.5c20.7,0.8,35.5-8.1,40.7-11.5c0-259.5,0-519,0-778.5
	c-9.3,2.5-22,4.9-37,5c-16,0.1-29.3-2.4-39-5C536,455.5,536,715,536,974.5z"/>
</svg>
