<?xml version="1.0" encoding="utf-8"?>
<!-- Generator: Adobe Illustrator 21.0.2, SVG Export Plug-In . SVG Version: 6.00 Build 0)  -->
<svg version="1.1" id="Ebene_1" xmlns="http://www.w3.org/2000/svg" xmlns:xlink="http://www.w3.org/1999/xlink" x="0px" y="0px"
	 viewBox="0 0 2929.4 2331.8" style="enable-background:new 0 0 2929.4 2331.8;" xml:space="preserve">
<style type="text/css">
	.st0{fill:#87D4A2;}
	.st1{fill:#52956E;}
	.st2{fill:#9D7766;}
	.st3{fill:#AE8775;}
	.st4{fill:#A47A69;}
	.st5{fill:#A67C6B;}
	.st6{fill:#AE8673;}
	.st7{fill:#6FBF88;}
	.st8{fill:#A07A69;}
	.st9{fill:#A67D6C;}
	.st10{fill:#A37968;}
	.st11{fill:#B78D78;}
	.st12{fill:#A9806F;}
	.st13{fill:#AB8270;}
	.st14{fill:#9F7665;}
	.st15{fill:#B58C77;}
	.st16{fill:#BC927D;}
	.st17{fill:#BD947E;}
	.st18{fill:#B18773;}
	.st19{fill:#C09781;}
	.st20{fill:#C29982;}
	.st21{fill:#A27867;}
	.st22{fill:#AC8472;}
	.st23{fill:#B98F7A;}
	.st24{fill:#C49C84;}
	.st25{fill:#C19881;}
	.st26{fill:#BB917C;}
	.st27{fill:#91A6B5;stroke:#91A6B5;stroke-width:4;stroke-miterlimit:10;}
	.st28{fill:#525252;}
	.st29{fill:#DDAF7B;}
	.st30{opacity:0.64;fill:#272828;stroke:#272828;stroke-miterlimit:10;enable-background:new    ;}
	.st31{fill:#272828;stroke:#272828;stroke-miterlimit:10;}
	.st32{fill:#80BEE5;}
	.st33{opacity:0.64;fill:#272828;enable-background:new    ;}
	.st34{fill:#4B8146;}
	.st35{fill:#76522A;}
	.st36{fill:#9F7242;}
	.st37{fill:#B38258;}
	.st38{fill:#916F46;}
	.st39{fill:#375C3E;}
	.st40{fill:#599F5C;}
	.st41{fill:#385D2E;}
	.st42{fill:#4F8E4F;}
	.st43{fill:#5CA561;}
	.st44{fill:#5FAC67;}
	.st45{fill:#4C854A;}
	.st46{fill:#3E6636;}
	.st47{fill:#345A2D;}
	.st48{fill:#272828;}
	.st49{fill:#B7AC92;}
	.st50{fill:#D1C3A1;}
	.st51{fill:#C14216;stroke:#C14216;stroke-width:3;stroke-miterlimit:10;}
	.st52{fill:#C14216;}
	.st53{fill:#CC85DD;}
	.st54{fill:#282727;}
	.st55{fill:#BA9E2B;}
	.st56{fill:#2731AF;}
	.st57{fill:#CF7FE2;}
	.st58{fill:#AA61BC;}
	.st59{fill:#A2C9DD;}
	.st60{opacity:0.68;fill:#272828;stroke:#272828;stroke-miterlimit:10;enable-background:new    ;}
	.st61{fill:#2C2D2D;}
	.st62{fill:#767777;}
	.st63{fill:#141616;}
	.st64{opacity:0.24;fill:#80BEE5;enable-background:new    ;}
	.st65{fill:none;stroke:#9F7242;stroke-width:7;stroke-miterlimit:10;}
	.st66{fill:#2C2D2D;stroke:#B38258;stroke-width:2;stroke-miterlimit:10;}
	.st67{fill:none;stroke:#847E7E;stroke-width:4;stroke-miterlimit:10;}
	.st68{fill:#5E5E5E;}
	.st69{fill:url(#SVGID_1_);}
	.st70{display:none;opacity:0.5;fill:#DEDEDE;enable-background:new    ;}
	.st71{opacity:0.88;fill:#EAEAEA;enable-background:new    ;}
	.st72{fill:#80BEE5;stroke:#91A6B5;stroke-width:4;stroke-miterlimit:10;}
	.st73{fill:none;stroke:#FFFFFF;stroke-width:7;stroke-miterlimit:10;}
</style>
<path class="st0" d="M2147,432.7l299,117l-199,67l104,48l-292,77c-63.7,44-127.4,88-191,132c-66.3-20.7-132.6-41.3-199-62l-91,31
	h-124l-60,31l-240,35l-270,7l-386-100l-112,19l-243-122L0,597.7l63-104l312-8l67-39l297-32l130-61l312-11l98,45l88-15l92,6l88,13
	L2147,432.7z"/>
<title>insel_neu_gedreht</title>
<polygon class="st1" points="2446,549.7 2414,576.7 2268.9,626.8 2247,616.7 "/>
<polygon class="st1" points="2347,664.7 2332,682.7 2063,754.7 2039.1,754.7 2059,741.7 "/>
<polygon class="st2" points="2400.1,581.5 2367,620.7 2298,640.2 2269,626.7 "/>
<polygon class="st3" points="2318,701.7 2048,773.7 1985,807.7 1860,892.7 1868,873.7 2039,754.7 2335,682.7 "/>
<polygon class="st4" points="2032,780.3 2003,898.7 1893,938.7 1940,890.7 1962.5,821 "/>
<polygon class="st5" points="1962,822.7 1860,892.7 1802,882.7 1722,1031.7 1940,892.7 "/>
<polygon class="st6" points="1940,890.7 1722,1029.7 1697,1089.7 2003,898.7 1893,938.7 "/>
<polygon class="st3" points="1860,892.7 1669,859.7 1669,830.7 1868,873.7 "/>
<polygon class="st1" points="1868,873.7 1713.4,840.3 1669,830.7 "/>
<polygon class="st6" points="1697,1089.7 1605,1169.7 1494,1246.7 1318,1300.7 1213,1369.7 1113,1289.7 1095,1328.7 952,1207.7 
	856,1151.7 789,1122.7 639,1031.7 507,940.7 463,861.7 525,851.7 878,932.7 1057,926.7 1167,938.7 1387,892.7 1459,880.7 
	1579,878.7 1655,851.7 1669,859.7 1802,882.7 "/>
<polygon class="st7" points="1669,830.7 1585,859.7 1459,859.7 1387,892.7 1185,915.7 1110,915.7 1390,873.7 1454,842.7 1578,842.7 
	1669,811.7 1868,873.7 1669,811.7 "/>
<polygon class="st4" points="1697,836.8 1868,873.7 1669,811.7 1669,830.7 1585,859.7 1459,859.7 1387,892.7 1579,881.7 1669,859.7 
	"/>
<polygon class="st8" points="1126.3,913.3 1094,910.3 884,915.7 512,830.7 401,851.7 417,863.7 507.5,853.5 878,932.7 1057,926.7 
	"/>
<polygon class="st7" points="386,834.7 401,851.7 512,830.7 884,915.7 498,811.7 "/>
<polygon class="st4" points="1387,892.7 1167,938.7 1057,926.7 1126,915.7 "/>
<polygon class="st4" points="1132.5,932.7 1017,928 1094,910.7 1126,915.7 "/>
<polyline class="st0" points="1094,910.7 1126,915.7 1154,908.7 1110,881.7 "/>
<polygon class="st5" points="1703.4,1057.4 1632.9,1145 1505.7,1200.8 1628,1055.8 1706.3,1031.6 "/>
<polygon class="st5" points="507,852.7 559,910.7 507,892.7 463,861.7 "/>
<polygon class="st5" points="463,861.7 445,852.7 511,852.7 "/>
<polygon class="st5" points="1539,921.7 1437,932.7 1376,1065.7 1268,1224.7 1384,1170.7 1510,1082.7 1503,1005.7 "/>
<polygon class="st7" points="1669,830.7 1697,834.7 1868,873.7 1669,811.7 "/>
<polygon class="st9" points="1802,881.7 1712.9,867 1676,966.7 1722,1029.7 "/>
<polygon class="st10" points="1722,1029.7 1697,1089.7 1676,966.7 "/>
<polygon class="st11" points="1713,866.7 1669,859.7 1662,948.7 1676,966.7 "/>
<polygon class="st10" points="1802,881.7 1848.4,890.7 1722,1029.7 "/>
<polygon class="st12" points="1318,1300.7 1489,1246.7 1697,1089.7 1676,966.7 1613,1100.7 "/>
<polygon class="st13" points="1571,999.7 1613,1100.7 1676,966.7 1662,948.7 "/>
<polygon class="st9" points="1662,948.7 1571,999.7 1553,973.7 1560.2,881.7 1655,851.7 1669,859.7 "/>
<polygon class="st14" points="1552.3,1011.3 1482.2,1038.7 1446,1001.4 1543.9,881.7 1560,881.7 "/>
<polygon class="st15" points="1611,1100.7 1560,1073.7 1526,1100.7 1560,1136.6 "/>
<polygon class="st16" points="1611,1100.7 1571,999.7 1560,1073.7 "/>
<polygon class="st17" points="1318,1024.7 1229.2,925.7 1167,938.7 1074.7,927.2 1110,966.7 1302,1126.7 "/>
<polygon class="st18" points="1368.3,898.7 1318,1024.7 1229,925.7 "/>
<polygon class="st16" points="1066,938.7 991,1024.7 1274,1200.7 "/>
<polygon class="st19" points="991,1024.7 1174,1210.7 1274,1200.7 "/>
<polygon class="st20" points="1174,1210.7 1126,1200.7 976,1089.7 991,1024.7 "/>
<polygon class="st21" points="1383,1169.7 1274,1200.7 1299,1126.7 "/>
<polygon class="st22" points="1383,1245.7 1383,1169.7 1274,1200.7 1274,1281.7 1213,1369.7 1318,1300.7 "/>
<polygon class="st23" points="949.4,932.7 991,1024.7 976,1089.7 970,1049.7 844,1016.7 803.9,915.7 878,932.7 "/>
<polygon class="st5" points="976,1089.7 897,1073.7 812,1055.7 783,1027.7 783,1002.7 812,1002.7 844,1016.7 887.9,1028.2 
	970,1049.7 "/>
<polygon class="st24" points="635,1031.7 783,1028.7 783,1002.7 812,1002.7 833.5,1012.1 804,915.7 763.6,910.7 525,851.7 
	463,861.7 511,940.7 "/>
<polygon class="st17" points="812,1054.6 789,1122.7 635,1031.6 783,1028.7 "/>
<polygon class="st6" points="1274,1269.7 1232.8,1341.1 1190,1330.7 1168,1305.7 1101,1249.7 951,1153.7 862,1100.7 976,1089.7 
	1160,1231.7 "/>
<polygon class="st25" points="1229,1340.7 1213,1369.7 1110,1289.7 949,1187.7 949,1153.7 1168,1300.7 "/>
<polygon class="st26" points="1110,1289.7 1094,1328.7 906,1169.7 789,1122.7 949,1187.7 "/>
<path class="st27" d="M835.4,422.3"/>
<path class="st28" d="M2852,1443.2"/>
<path class="st29" d="M923.2,428.5"/>
<path class="st30" d="M2171.7,556.3c-2.3-2.7-16.1,6.2-30.5,13.3c-28.6,14.1-53.8,16.6-79,19c-71.8,6.9-126.9-16-131.8-18.2
	c0,0-13.6-6.1-24.2-10.1l0,0c0,0,12.6,6.6,32,14.8c16.1,6.8,41.9,17.7,73,24.4l0,0c94.2,20.9,129.4-5,141-16
	C2159.5,576.7,2174.3,559.6,2171.7,556.3z"/>
<path class="st31" d="M316.5,541.7"/>
<g id="Meer">
	<polygon class="st32" points="306.1,489.7 360.3,596.9 421.6,638.5 457.7,694.1 469.5,738 368.4,752.7 149,659.3 19.9,566 
		76.8,493.5 	"/>
</g>
<path class="st33" d="M499.4,520.5l7,1.6v11.1c-2,2.7-4.6,5-7.4,6.9c-4,2.5-8.5,4-13.1,4.5c-6.3,0.4-12.7,0.2-18.9-0.6
	c-7-0.9-13.9-2.6-20.5-5.1c-1.4-5.5-1.4-11.3,0.1-16.8l7.2-1.8c1.2,2.4,3,4.3,5.3,5.7c0.5,0.3,11.1,1.7,12.4,1.4
	c5.5,0.4,11-0.2,16.4-1.7C491.8,524.4,495.7,522.7,499.4,520.5z"/>
<path class="st33" d="M561.9,442.6l6.2,1.6v11.1c-1.8,2.7-4.1,5-6.7,6.9c-3.5,2.5-7.5,4-11.8,4.5c-12.1,0.9-24.2-1.1-35.3-5.7
	c-1.3-5.5-1.2-11.3,0.1-16.8l6.4-1.8c1,2.3,2.7,4.3,4.8,5.7c0.5,0.3,10,1.7,11.1,1.4c4.9,0.4,9.9-0.2,14.7-1.7
	C555.2,446.5,558.7,444.8,561.9,442.6z"/>
<polygon class="st34" points="541.5,276.3 574.3,312.8 520.6,276.3 "/>
<path class="st35" d="M534.8,338c-4.9-0.8-9.6-2.8-13.5-5.9c-2.2-1.6-4-3.6-5.4-5.9h-8.1c2.1,3.8,4.8,7.2,8.1,9.9
	c4.4,3.9,9.6,6.9,15.1,8.8C532.1,342.9,533.5,340.4,534.8,338z"/>
<path class="st29" d="M525.2,352.8c-0.8,4.8-1.9,11.7-2.6,20c-0.5,5.5-1.2,14-1.6,33.4c-0.1,9.8-0.3,22.5,0,37.4
	c0.7,1.9,2.1,3.5,3.8,4.4c1.4,0.8,2.9,1.2,4.5,1.2c4.5-13.3,7.3-27.1,8.4-41.2c0.6-8.2,0.6-16.5,0-24.7c-3-4.4-5.6-9-7.7-14
	C527.7,364.2,526.1,358.6,525.2,352.8z"/>
<path class="st36" d="M540.6,309.3l-7,3.7c-0.2,7.4-1.2,14.8-3.1,22c-1.7,6.3-4,12.3-7,18.1c0.3,6.1,1.4,12.2,3.1,18.1
	c1.8,5.9,4.4,11.6,7.7,16.9c3.5-12,5.9-24.4,7-36.9C542.6,337.2,542.4,323.2,540.6,309.3z"/>
<path class="st37" d="M540.6,314c1.5,22,1.2,44-1.1,65.9c-2.5,23.5-7.1,46.8-13.8,69.5c6.7,1.6,13.7,1.8,20.4,0.5
	c5.6-1,10.9-3,15.8-5.9c-4.1-8.7-7.3-17.8-9.8-27.1c-5.4-20.3-4.6-33.6-6.6-59.5C544.7,347,543.3,332.1,540.6,314z"/>
<path class="st35" d="M568.2,319.8c-2.8,5.5-6.4,10.5-10.6,15.1c-4.8,5.2-10.4,9.7-16.6,13.1v-5.3l21.2-22.9L568.2,319.8z"/>
<path class="st38" d="M567.6,319.8h4.5c-3,5.8-6.7,11.2-10.9,16.2c-5.7,6.8-12.3,12.6-19.7,17.4v-6.9c4.9-5,9.7-9.9,14.6-14.9
	C560,327.7,563.8,323.8,567.6,319.8z"/>
<polygon class="st39" points="491.9,292.2 491.9,299.8 514.5,305.7 501.4,295.1 "/>
<polygon class="st40" points="529.7,310.1 492.8,299.8 481.1,315.2 492.8,321.6 517.4,321.6 "/>
<polygon class="st41" points="529,308.5 516.6,320.1 507.9,320.1 491.9,320.1 502.3,327.1 516.6,327.1 537,313.6 "/>
<polygon class="st42" points="537,312.8 514.5,305.7 537,282.8 "/>
<polygon class="st43" points="537,282.8 501.4,276.8 491.9,282.8 491.9,292.2 501.4,295.1 514.5,305.7 "/>
<polygon class="st44" points="568.2,276.8 568.2,268.6 537,258.6 515.6,263.3 501.4,276.8 533.1,282.8 "/>
<polygon class="st34" points="557.4,299.8 557.4,305.7 536.9,312.5 537,282.8 "/>
<polygon class="st45" points="568.2,276.8 545,281 557.4,299.8 568.2,288 "/>
<polygon class="st46" points="577.6,305.5 587.7,305.5 595,312.8 595,318.4 586.3,326.3 577.6,332 560.5,334.1 577.6,319.5 "/>
<polygon class="st47" points="574.5,305.5 579.7,305.5 579.7,313.4 579.7,324.4 570.9,328.1 560.5,334.1 549.3,334.1 549.3,328.1 
	558.8,323.2 570.2,313.1 "/>
<polygon class="st46" points="568.2,276.8 581.7,276.8 581.7,292.2 572,309.3 549,314 533.1,314 557.4,304.5 567.5,287.5 "/>
<polygon class="st36" points="540.4,314 534.8,383.5 534.8,418.2 545,351.6 "/>
<polygon class="st46" points="2929.4,23.3 2929.4,15.5 2915.3,0 "/>
<polygon class="st34" points="477.9,318.4 517.3,362.2 453,318.4 "/>
<path class="st35" d="M469.8,392.6c-5.9-1-11.5-3.4-16.3-7.1c-2.5-2-4.7-4.4-6.5-7.1h-9.7c2.6,4.5,5.9,8.5,9.7,12
	c5.3,4.7,11.5,8.3,18.2,10.6C466.8,398.1,468.4,395.4,469.8,392.6z"/>
<path class="st29" d="M458.5,410.2c-0.9,5.8-2.1,14.1-3.1,24c-0.7,6.6-1.5,16.7-1.9,40.1c-0.3,11.7-0.3,26.9,0,44.9
	c0.9,2.3,2.5,4.2,4.6,5.4c1.7,0.9,3.5,1.5,5.4,1.5c8.5-25.5,11.9-52.4,9.9-79.2c-3.6-5.3-6.7-10.9-9.3-16.7
	C461.4,423.8,459.5,417,458.5,410.2z"/>
<path class="st36" d="M476.9,357.9l-8.4,4.6c-0.2,8.9-1.5,17.7-3.8,26.2c-2.1,7.5-4.9,14.8-8.4,21.8c0.4,7.4,1.6,14.7,3.8,21.8
	c2.2,7.1,5.3,14,9.2,20.3c4.2-14.5,7-29.3,8.4-44.3C479.3,391.6,479,374.7,476.9,357.9z"/>
<path class="st37" d="M476.9,363.6c1.8,26.3,1.4,52.8-1.3,79c-3,28.2-8.5,56.1-16.6,83.3c8,1.9,16.3,2.1,24.4,0.7
	c6.7-1.2,13.1-3.6,18.9-7.1c-4.9-10.4-8.8-21.3-11.8-32.5c-6.5-24.3-5.6-40.2-7.9-71.3C481.8,403.2,480.1,385.4,476.9,363.6z"/>
<path class="st35" d="M509.9,370.6c-3.5,6.5-7.7,12.6-12.7,18.1c-5.8,6.2-12.5,11.5-19.9,15.7V398l25.3-27.5L509.9,370.6z"/>
<path class="st38" d="M509.2,370.6h5.3c-3.6,6.9-7.9,13.4-13,19.3c-6.8,8-14.8,15.1-23.6,20.9v-8.2l17.5-17.8
	C500.1,380,504.7,375.3,509.2,370.6z"/>
<polygon class="st39" points="418.4,337.5 418.4,346.6 445.5,353.8 430,341.1 "/>
<polygon class="st40" points="463.8,358.9 419.6,346.6 405.6,365.1 419.6,372.9 449.1,372.9 "/>
<polygon class="st41" points="463,357 448.1,370.9 437.8,370.9 418.4,370.9 431,379.3 448.1,379.3 472.6,363.2 "/>
<polygon class="st42" points="472.6,362.2 445.5,353.8 472.6,326.2 "/>
<polygon class="st43" points="472.6,326.2 430,319.1 418.4,326.2 418.4,337.5 430,341.1 445.5,353.8 "/>
<polygon class="st44" points="509.9,319.1 509.9,309.3 472.6,297.3 446.9,303 430,319.1 467.9,326.2 "/>
<polygon class="st34" points="874.5,231.4 908.8,265.2 852.7,231.4 "/>
<polygon class="st34" points="497,346.6 497,353.8 472.4,361.8 472.6,326.2 "/>
<path class="st35" d="M867.4,288.6c-5.1-0.7-9.9-2.6-14.2-5.5c-2.2-1.5-4.1-3.4-5.7-5.5H839c2.3,3.5,5.2,6.7,8.5,9.2
	c4.7,3.7,10.1,6.4,15.8,8.2C864.7,293,866.1,290.8,867.4,288.6z"/>
<path class="st29" d="M857.4,302.3c-0.8,4.5-1.9,10.8-2.8,18.5c-0.6,5.1-1.3,13-1.7,30.9c-0.2,9-0.3,20.8,0,34.7
	c0.9,1.8,2.3,3.2,4.1,4.1c1.5,0.8,3.1,1.2,4.7,1.2c4.7-12.3,7.6-25.1,8.8-38.2c0.6-7.6,0.6-15.3,0-22.9c-3.1-4-5.9-8.3-8.1-12.9
	C860.1,312.8,858.4,307.6,857.4,302.3z"/>
<path class="st36" d="M873.6,261.9l-7.3,3.5c-0.2,6.9-1.3,13.7-3.3,20.3c-1.8,5.8-4.3,11.5-7.3,16.8c0.3,5.7,1.4,11.4,3.3,16.8
	c1.9,5.6,4.6,10.8,8,15.7c3.6-11.1,6.1-22.6,7.3-34.2C875.7,287.8,875.4,274.8,873.6,261.9z"/>
<path class="st37" d="M873.6,266.3c1.6,20.4,1.2,40.8-1.2,61.1c-2.6,21.9-7.4,43.5-14.5,64.4c7,1.5,14.3,1.7,21.3,0.5
	c5.8-0.9,11.3-2.7,16.5-5.5c-4.3-8-7.7-16.4-10.3-25.1c-5.6-18.7-4.9-31.1-6.9-55.1C877.8,297,876.4,283.1,873.6,266.3z"/>
<path class="st35" d="M902.4,271.7c-3,5.2-6.7,9.9-11.1,14c-5.1,4.9-11,9-17.3,12.2V293l22.1-21.3H902.4z"/>
<path class="st38" d="M901.8,271.7h4.7c-3.2,5.4-7,10.4-11.3,15c-6.1,6.3-13,11.7-20.6,16.1v-6.4c5.1-4.6,10.1-9.2,15.3-13.8
	C893.9,279,897.8,275.4,901.8,271.7z"/>
<polygon class="st39" points="822.5,246.1 822.5,253.2 846.2,258.7 832.6,248.8 "/>
<polygon class="st40" points="862.2,262.7 823.6,253.2 811.4,267.4 823.6,273.4 849.3,273.4 "/>
<polygon class="st41" points="861.4,261.2 848.5,271.9 839.4,271.9 822.5,271.9 833.6,278.5 848.5,278.5 869.8,265.9 "/>
<polygon class="st42" points="869.8,265.2 846.2,258.7 869.8,237.3 "/>
<polygon class="st43" points="869.8,237.3 832.6,231.9 822.5,237.3 822.5,246.1 832.6,248.8 846.2,258.7 "/>
<polygon class="st45" points="509.9,319.1 482,324.1 497,346.6 509.9,332.5 "/>
<polygon class="st34" points="891.1,253.2 891.1,258.7 869.6,264.9 869.8,237.3 "/>
<polygon class="st45" points="902.4,231.9 878.1,235.7 891.1,253.2 902.4,242.3 "/>
<polygon class="st46" points="919.7,246.1 929.8,246.1 937.2,252.6 937.2,257.6 928.5,264.7 919.7,269.7 902.4,271.7 919.7,258.7 
	"/>
<polygon class="st47" points="916.5,246.1 921.8,246.1 921.8,253.2 921.8,263 913,266.3 902.4,271.7 891.1,271.7 891.1,266.3 
	900.8,262 912.2,252.9 "/>
<polygon class="st46" points="902.4,231.9 916.5,231.9 916.5,246.1 906.5,261.9 882.3,266.3 865.7,266.3 891.1,257.6 901.7,241.7 
	"/>
<polygon class="st36" points="873.4,266.3 867.5,330.7 867.5,362.8 878.1,301.2 "/>
<polygon class="st46" points="891.1,258.7 891.1,253.2 902.4,242.3 "/>
<polygon class="st34" points="802.2,257.1 840.8,295 777.8,257.1 "/>
<polygon class="st46" points="529.7,337.5 541.3,337.5 549.8,345.9 549.8,352.4 539.8,361.5 529.7,368 509.9,370.6 529.7,353.8 "/>
<polygon class="st47" points="526,337.5 532.1,337.5 532.1,346.6 532.1,359.3 522.1,363.6 509.9,370.6 497,370.6 497,363.6 
	508,358.1 521.1,346.3 "/>
<path class="st36" d="M801.3,291.4l-8.2,3.9c-0.2,7.7-1.5,15.4-3.8,22.8c-2,6.6-4.8,12.9-8.2,18.9c0.4,6.4,1.6,12.8,3.8,18.9
	c2.2,6.2,5.2,12.2,9,17.6C802.5,347,805.1,319,801.3,291.4L801.3,291.4z"/>
<path class="st35" d="M833.5,302.4c-3.4,5.8-7.6,11.1-12.4,15.7c-5.8,5.5-12.3,10.1-19.4,13.7v-5.5l24.8-23.9L833.5,302.4z"/>
<path class="st38" d="M832.8,302.4h5.2c-3.6,6.1-7.8,11.7-12.7,16.7c-6.8,7.1-14.6,13.2-23.1,18.1v-7.1l17.2-15.5
	C823.9,310.5,828.4,306.5,832.8,302.4z"/>
<polygon class="st46" points="509.9,319.1 526,319.1 526,337.5 514.5,357.9 486.8,363.6 467.9,363.6 497,352.3 509.2,331.8 "/>
<polygon class="st36" points="476.6,363.6 469.9,446.9 469.9,488.6 482,408.8 "/>
<polygon class="st46" points="497,353.8 497,346.6 509.9,332.5 "/>
<path class="st29" d="M1587,466.7"/>
<polygon class="st44" points="800.1,277.3 800.1,267.7 762.2,256 736,261.5 718.8,277.3 757.4,284.2 "/>
<polygon class="st44" points="844,287.9 844,279.4 807.6,269 782.3,273.9 765.8,287.9 802.9,294.1 "/>
<polygon class="st34" points="820.9,281.6 820.9,287.7 796.8,294.7 797,263.9 "/>
<polygon class="st45" points="833.5,257.7 806.3,262 820.9,281.6 833.5,269.4 "/>
<polygon class="st46" points="853,273.6 864.3,273.6 872.5,280.9 872.5,286.6 862.7,294.5 853,300.1 833.5,302.4 853,287.7 "/>
<polygon class="st47" points="849.3,273.6 855.3,273.6 855.3,281.6 855.3,292.6 845.4,296.3 833.5,302.4 820.9,302.4 820.9,296.3 
	831.7,291.4 844.5,281.2 "/>
<polygon class="st46" points="833.5,257.7 849.3,257.7 849.3,273.6 838,291.4 810.9,296.3 792.4,296.3 820.9,286.4 832.8,268.7 "/>
<polygon class="st36" points="800.9,296.3 794.3,368.4 794.3,404.5 806.3,335.4 "/>
<polygon class="st46" points="820.9,287.7 820.9,281.6 833.5,269.4 "/>
<path class="st37" d="M801.2,296.3c1.8,22.8,1.4,45.8-1.3,68.5c-2.9,24.6-8.4,48.7-16.2,72.2c7.9,1.7,16,1.9,23.9,0.6
	c6.5-1,12.7-3.1,18.5-6.1c-4.8-9-8.6-18.4-11.5-28.1c-6.3-21.1-5.5-34.9-7.7-61.8C806,330.7,804.3,315.1,801.2,296.3z"/>
<path class="st35" d="M796.1,299.8c-7-1-13.7-3.6-19.6-7.5c-3-2.1-5.7-4.6-7.9-7.5h-11.8c3.2,4.9,7.1,9.3,11.8,12.9
	c6.6,5,14,8.9,21.9,11.3C792.4,305.9,794.3,302.9,796.1,299.8z"/>
<path class="st29" d="M782.3,318.7c-1.1,6.2-2.7,15-3.8,25.7c-0.8,7.1-1.8,18-2.3,42.8c-0.3,12.5-0.3,28.8,0,47.9
	c1.2,2.5,3.1,4.5,5.6,5.7c2,1,4.3,1.6,6.5,1.7c10.3-26.9,14.5-55.8,12.1-84.5c-4.4-5.5-8.1-11.5-11.2-17.9
	C786,333.2,783.7,326.1,782.3,318.7z"/>
<polygon class="st39" points="744.9,274.8 744.9,282.8 771.4,288.8 756.2,277.9 "/>
<polygon class="st40" points="789.3,293.4 746,282.8 732.3,298.7 746,305.4 774.9,305.4 "/>
<polygon class="st41" points="788.5,291.7 774,303.7 763.8,303.7 744.9,303.7 757.3,311.1 774,311.1 798,297.1 "/>
<path class="st48" d="M834,434"/>
<polygon class="st42" points="798,296.2 771.4,288.8 798,265 "/>
<polygon class="st43" points="798,265 756.2,258.9 744.9,265 744.9,274.8 756.2,277.9 771.4,288.8 "/>
<rect x="1393.3" y="478" class="st49" width="91.3" height="99.6"/>
<polygon class="st49" points="1442.9,394.8 1492.1,480.1 1393.6,480.1 "/>
<polygon class="st50" points="1393.3,480.1 1342.9,456.5 1342.9,543.8 1393.3,577.7 "/>
<polygon class="st51" points="1443,394.3 1492.4,479.7 1505.7,482.7 1492.4,467.4 "/>
<polygon class="st52" points="1443.5,394.8 1393.3,480.1 1383.9,489.4 1331.6,461.7 1380.8,387.7 "/>
<polygon class="st53" points="1229.9,551.9 1229.9,535.8 1242.9,554.5 "/>
<rect x="1180.8" y="450.4" transform="matrix(0.3171 -0.9484 0.9484 0.3171 231.6667 1563.9731)" class="st32" width="42.1" height="341.5"/>
<path class="st54" d="M609.2,1188.7"/>
<rect x="405.6" y="600.9" transform="matrix(0.9755 -0.22 0.22 0.9755 -120.5029 158.9382)" class="st32" width="495.5" height="39.2"/>
<polygon class="st55" points="1265.1,603.3 1258.3,610.1 1259,603.5 1254.2,605.2 1255.9,599.8 "/>
<path class="st56" d="M1260.3,554.7h-7.9c-5.2,0-9.5-4.2-9.5-9.5v-35.9c0-5.2,4.2-9.5,9.5-9.5h7.9c5.2,0,9.5,4.2,9.5,9.5v35.9
	C1269.7,550.4,1265.5,554.7,1260.3,554.7z"/>
<ellipse class="st57" cx="1278.1" cy="575.9" rx="44.5" ry="28.4"/>
<polygon class="st53" points="1244.5,551.2 1258,542.3 1249.6,563.4 "/>
<circle class="st58" cx="1239.4" cy="564.8" r="17.2"/>
<ellipse class="st53" cx="1236.6" cy="568.9" rx="6.7" ry="4.1"/>
<circle class="st36" cx="1256.7" cy="488.9" r="13.3"/>
<g id="Meer-2">
	<polygon class="st32" points="1881.6,865.3 1791.9,817.8 1728.9,819 1676.9,798.3 1647.4,773.8 1710.5,714.2 1908.4,671.3 
		2043.5,672.6 2039.1,750.5 	"/>
</g>
<rect x="889.7" y="548.7" class="st32" width="166.3" height="38.5"/>
<rect x="1342.9" y="656.1" class="st32" width="333.1" height="36.5"/>
<rect x="1688.2" y="647" transform="matrix(0.5746 -0.8185 0.8185 0.5746 152.8306 1694.582)" class="st32" width="36.5" height="106.5"/>
<path class="st32" d="M2070.3,956.7c-6.6-121.2-34.4-216-64.3-214.9l-14.5,0.5l-5.9,0.2l-110.2,4c30-1.1,58,94.6,64.4,216.7h0.1
	l13.9,385.5c15.4-1.5,14-45.6,29.8-46.2c16-0.6,17.6,44.5,33.5,43.9s14.3-45.6,30.3-46.2s17.6,44.5,33.5,43.9
	c1.2-0.1,2.4-0.4,3.4-0.9l-13.9-386.5L2070.3,956.7z"/>
<path class="st59" d="M2063.7,894.3c-1.1,0.5-2.2,0.8-3.4,0.8c-16,0.8-17.8-35-33.8-34.2s-14.1,36.7-30.1,37.5s-17.8-35-33.8-34.2
	c-15.8,0.8-14.1,35.9-29.6,37.4l14.9,284.7l130.7-6.8L2063.7,894.3z"/>
<path class="st32" d="M1952.8,1162.8c15.7-0.4,15.1-24.7,30.8-25.1c15.7-0.4,16.4,23.8,32.2,23.3s15.1-24.7,30.8-25.1
	c15.6-0.4,16.4,23.3,31.7,23.3l3.9,137.4l0.4,14.3l3.7,130.9c0.4,15.7-4.9,28.7-11.9,28.9l-2.5,0.1c-7,0.2-13-12.5-13.5-28.2
	l-3.3-118.2c-0.2-7.1-2.9-12.7-6-12.6h-0.3c-3.1,0.1-5.5,5.9-5.3,12.9l5.1,178.9c0.7,25.5-7.9,46.6-19.2,47l-4.1,0.1
	c-11.3,0.3-21.1-20.3-21.9-45.8l-5.1-178.9c-0.2-7.1-2.9-12.7-6-12.6s-5.5,5.9-5.3,12.9l2.9,102.1c0.5,18.6-5.8,33.9-14,34.2l-3,0.1
	c-8.2,0.2-15.4-14.8-15.9-33.3l-3.2-114.9l-1.6-56.7l-2.7-95.4C1950.6,1162.7,1951.7,1162.8,1952.8,1162.8z"/>
<rect x="1952.1" y="1300.7" class="st32" width="134.2" height="1031.2"/>
<path class="st60" d="M951.8,848.3c33.4-3.2,61.9,7.4,63.7,23.5c1.7,16.2-24,31.8-57.4,35s-61.9-7.4-63.7-23.5
	S918.4,851.5,951.8,848.3z"/>
<polygon class="st61" points="675,403.2 795.6,384.9 954.3,462.7 810.8,481 "/>
<polygon class="st62" points="829.2,491.9 675,403.2 675,735.9 809.3,829 829.2,829 "/>
<polygon points="954.3,816.8 810.8,829 810.8,481 954.3,462.7 "/>
<path class="st28" d="M1000.7,870c-16.4,7.5-34.2,11.5-52.2,11.6c-18.7,0.1-37.2-3.9-54.2-11.6c4-91.7,5.9-187.2,5.8-286.3
	c-0.2-90.1-2.3-177.2-5.8-261.2c15.1,4,30.7,5.9,46.4,5.8c15-0.1,30-2.1,44.6-5.8c-1.1,84.9-0.4,172.6,2,263.2
	C989.8,683.8,994.5,778.8,1000.7,870z"/>
<path class="st48" d="M984.9,327.4c-3.5,0-11.1,42.3-30.7,247.3c-6.3,74.8-12.6,149.6-18.9,224.4v83.8c12,2.5,24.4,2.5,36.5,0.2
	c10.2-2,20.1-5.6,29.2-10.7c-4.7-62.9-10.8-158.1-13.1-274.8C984.6,437,988.4,327.4,984.9,327.4z"/>
<ellipse class="st63" cx="941" cy="326.7" rx="45.5" ry="11.6"/>
<path class="st64" d="M621.4,1056c2.7-45.8,15.8-81.4,30.2-80.9l7,0.2l2.9,0.1l53.2,1.9c-14.5-0.5-27.6,35.5-30.2,81.6h-0.1
	l-5.2,145.5c-7.5-0.6-6.9-17.3-14.6-17.5s-8.3,16.7-16,16.5s-7.1-17.3-14.8-17.6s-8.3,16.7-16,16.5c-0.6,0-1.1-0.1-1.7-0.4
	L621.4,1056L621.4,1056z"/>
<path class="st60" d="M1321.2,827.7c31.4-2.1,58.2,4.9,59.8,15.7s-22.5,21.2-53.9,23.3s-58.2-4.9-59.8-15.7
	S1289.8,829.8,1321.2,827.7z"/>
<ellipse transform="matrix(0.995 -9.999751e-02 9.999751e-02 0.995 -40.8839 112.3641)" class="st60" cx="1100.4" cy="464" rx="28.6" ry="17.4"/>
<polygon class="st34" points="1096.6,278.8 1133.6,318.3 1073,278.8 "/>
<path class="st35" d="M1089,345.8c-5.5-0.9-10.8-3.1-15.3-6.4c-2.4-1.8-4.5-3.9-6.1-6.4h-9.2c2.4,4.1,5.5,7.7,9.2,10.8
	c5,4.2,10.8,7.5,17,9.6C1086,350.9,1087.5,348.3,1089,345.8z"/>
<path class="st29" d="M1078.2,361.8c-0.9,5.3-2,12.7-3,21.7c-0.6,6-1.4,15.2-1.8,36.2c-0.2,10.6-0.3,24.3,0,40.5
	c0.9,2,2.4,3.7,4.3,4.8c1.6,0.8,3.3,1.3,5.1,1.4c5-14.4,8.2-29.4,9.4-44.6c0.7-8.9,0.7-17.9,0-26.8c-3.4-4.7-6.3-9.8-8.7-15.1
	C1081,374.1,1079.2,368,1078.2,361.8z"/>
<path class="st36" d="M1095.6,314.5l-7.9,4.1c-0.2,8-1.4,16-3.6,23.7c-1.9,6.8-4.6,13.4-7.9,19.7c0.3,6.7,1.6,13.3,3.6,19.7
	c2.1,6.4,5,12.6,8.6,18.3c3.9-13,6.6-26.4,7.9-40C1097.8,344.9,1097.5,329.6,1095.6,314.5z"/>
<path class="st37" d="M1095.6,319.6c3.7,49.5-2,99.2-16.8,146.6c7.6,1.7,15.4,1.9,23,0.6c6.3-1,12.3-3.2,17.8-6.4
	c-4.6-9.4-8.3-19.2-11.1-29.3c-6.1-21.9-5.3-36.3-7.4-64.4C1100.2,355.5,1098.6,339.3,1095.6,319.6z"/>
<path class="st35" d="M1126.6,326c-3.2,6-7.2,11.5-11.9,16.4c-5.4,5.7-11.8,10.5-18.7,14.2v-5.7l23.9-24.9H1126.6z"/>
<path class="st38" d="M1126,326h5c-3.4,6.3-7.5,12.1-12.2,17.5c-6.5,7.3-13.9,13.6-22.2,18.8v-7.4c5.5-5.3,11-10.7,16.5-16.2
	C1117.5,334.5,1121.8,330.3,1126,326z"/>
<polygon class="st39" points="1040.5,296 1040.5,304.3 1066,310.7 1051.4,299.2 "/>
<polygon class="st40" points="1083.2,315.4 1041.6,304.3 1028.4,321 1041.6,327.9 1069.4,327.9 "/>
<polygon class="st41" points="1082.4,313.6 1068.5,326.2 1058.7,326.2 1040.5,326.2 1052.4,333.9 1068.5,333.9 1091.5,319.2 "/>
<polygon class="st42" points="1091.5,318.3 1066,310.7 1091.5,285.8 "/>
<polygon class="st43" points="1091.5,285.8 1051.4,279.5 1040.5,285.8 1040.5,296 1051.4,299.2 1066,310.7 "/>
<polygon class="st44" points="1126.6,279.5 1126.6,270.5 1091.5,259.7 1067.3,264.8 1051.4,279.5 1087.1,285.8 "/>
<polygon class="st34" points="1114.5,304.3 1114.5,310.7 1091.3,318 1091.5,285.8 "/>
<polygon class="st45" points="1126.6,279.5 1100.4,283.9 1114.5,304.3 1126.6,291.6 "/>
<polygon class="st46" points="1145.4,296 1156.2,296 1164.2,303.7 1164.2,309.5 1154.8,317.8 1145.4,323.6 1126.6,326 1145.4,310.7 
	"/>
<polygon class="st47" points="1141.9,296 1147.6,296 1147.6,304.3 1147.6,315.8 1138.1,319.6 1126.6,326 1114.5,326 1114.5,319.6 
	1124.9,314.6 1137.2,304 "/>
<polygon class="st46" points="1126.6,279.5 1141.9,279.5 1141.9,296 1131.1,314.5 1104.9,319.6 1087.1,319.6 1114.5,309.4 
	1126,290.9 "/>
<polygon class="st36" points="1095.3,319.6 1089,394.9 1089,432.5 1100.4,360.4 "/>
<polygon class="st46" points="1114.5,310.7 1114.5,304.3 1126.6,291.6 "/>
<path class="st27" d="M1057.3,461.6"/>
<path class="st37" d="M1272.4,733v57.2c26.9,14.5,59.2,14.5,86.1,0V733C1332,748.8,1298.9,748.8,1272.4,733z"/>
<line class="st65" x1="1358.6" y1="662.9" x2="1272.4" y2="662.9"/>
<ellipse class="st66" cx="1315.5" cy="729.7" rx="43.1" ry="18.4"/>
<line class="st65" x1="1315.2" y1="736.1" x2="1315.5" y2="664.6"/>
<path class="st54" d="M1272.4,790.4v57.2c26.9,14.5,59.2,14.5,86.1,0v-57.2C1332,806.2,1298.9,806.2,1272.4,790.4L1272.4,790.4z"/>
<path class="st54" d="M1272.4,994.4v57.2c26.9,14.5,59.2,14.5,86.1,0v-57.2C1332,1010.2,1298.9,1010.2,1272.4,994.4z"/>
<path class="st54" d="M1272.4,1050.4v57.2c26.9,14.5,59.2,14.5,86.1,0v-57.2C1332,1066.2,1298.9,1066.2,1272.4,1050.4z"/>
<path class="st32" d="M1277.4,1050.4v50.6c23.8,12.8,52.4,12.8,76.2,0v-50.6C1330.1,1064.4,1300.8,1064.4,1277.4,1050.4z"/>
<ellipse class="st32" cx="1315.5" cy="1052.2" rx="38.1" ry="17.2"/>
<polyline class="st67" points="1315.2,802.3 1306.2,838.9 1314.8,858.4 "/>
<path class="st54" d="M1272.4,938.4v57.2c26.9,14.5,59.2,14.5,86.1,0v-57.2C1332,954.2,1298.9,954.2,1272.4,938.4z"/>
<polyline class="st67" points="1328,949.3 1340.8,994.4 1334.4,1006.4 1315.5,1052.2 "/>
<ellipse transform="matrix(0.995 -9.999751e-02 9.999751e-02 0.995 -36.1968 203.2764)" class="st60" cx="2009.6" cy="462.7" rx="28.6" ry="17.4"/>
<polygon class="st34" points="2003.3,277.7 2040.3,317.2 1979.7,277.7 "/>
<path class="st35" d="M1995.7,344.7c-5.5-0.9-10.8-3.1-15.3-6.4c-2.4-1.8-4.5-3.9-6.1-6.4h-9.2c2.4,4.1,5.5,7.7,9.2,10.8
	c5,4.2,10.8,7.5,17,9.6C1992.7,349.8,1994.2,347.2,1995.7,344.7z"/>
<path class="st29" d="M1984.9,360.6c-0.9,5.3-2,12.7-3,21.7c-0.6,6-1.4,15.2-1.8,36.2c-0.2,10.6-0.3,24.3,0,40.5
	c0.9,2,2.4,3.7,4.3,4.8c1.6,0.8,3.3,1.3,5.1,1.4c5-14.4,8.2-29.4,9.4-44.6c0.7-8.9,0.7-17.9,0-26.8c-3.4-4.7-6.3-9.8-8.7-15.1
	C1987.7,372.9,1985.9,366.8,1984.9,360.6z"/>
<path class="st36" d="M2002.3,313.4l-7.9,4.1c-0.2,8-1.4,16-3.6,23.7c-1.9,6.8-4.6,13.4-7.9,19.7c0.3,6.7,1.6,13.3,3.6,19.7
	c2.1,6.4,5,12.6,8.6,18.3c3.9-13,6.6-26.4,7.9-40C2004.5,343.8,2004.2,328.5,2002.3,313.4z"/>
<path class="st37" d="M2002.3,318.5c3.7,49.5-2,99.2-16.8,146.6c7.6,1.7,15.4,1.9,23,0.6c6.3-1,12.3-3.2,17.8-6.4
	c-4.6-9.4-8.3-19.2-11.1-29.3c-6.1-21.9-5.3-36.3-7.4-64.4C2006.9,354.4,2005.3,338.2,2002.3,318.5z"/>
<path class="st35" d="M2033.3,324.9c-3.2,6-7.2,11.5-11.9,16.4c-5.4,5.7-11.8,10.5-18.7,14.2v-5.7l23.9-24.9H2033.3z"/>
<path class="st38" d="M2032.7,324.9h5c-3.4,6.3-7.5,12.1-12.2,17.5c-6.5,7.3-13.9,13.6-22.2,18.8v-7.4c5.5-5.3,11-10.7,16.5-16.2
	C2024.2,333.4,2028.5,329.2,2032.7,324.9z"/>
<polygon class="st39" points="1947.2,294.9 1947.2,303.2 1972.7,309.6 1958.1,298.1 "/>
<polygon class="st40" points="1989.9,314.3 1948.3,303.2 1935.1,319.9 1948.3,326.8 1976.1,326.8 "/>
<polygon class="st41" points="1989.1,312.5 1975.2,325.1 1965.4,325.1 1947.2,325.1 1959.1,332.8 1975.2,332.8 1998.2,318.1 "/>
<polygon class="st42" points="1998.2,317.2 1972.7,309.6 1998.2,284.7 "/>
<polygon class="st43" points="1998.2,284.7 1958.1,278.4 1947.2,284.7 1947.2,294.9 1958.1,298.1 1972.7,309.6 "/>
<polygon class="st44" points="2033.3,278.4 2033.3,269.4 1998.2,258.6 1974,263.7 1958.1,278.4 1993.8,284.7 "/>
<polygon class="st34" points="2021.2,303.2 2021.2,309.6 1998,316.9 1998.2,284.7 "/>
<polygon class="st45" points="2033.3,278.4 2007.1,282.8 2021.2,303.2 2033.3,290.5 "/>
<polygon class="st46" points="2052.1,294.9 2062.9,294.9 2070.9,302.6 2070.9,308.4 2061.5,316.7 2052.1,322.5 2033.3,324.9 
	2052.1,309.6 "/>
<polygon class="st47" points="2048.6,294.9 2054.3,294.9 2054.3,303.2 2054.3,314.7 2044.8,318.5 2033.3,324.9 2021.2,324.9 
	2021.2,318.5 2031.6,313.5 2043.9,302.9 "/>
<polygon class="st46" points="2033.3,278.4 2048.6,278.4 2048.6,294.9 2037.8,313.4 2011.6,318.5 1993.8,318.5 2021.2,308.3 
	2032.7,289.8 "/>
<polygon class="st36" points="2002,318.5 1995.7,393.8 1995.7,431.4 2007.1,359.3 "/>
<polygon class="st46" points="2021.2,309.6 2021.2,303.2 2033.3,290.5 "/>
<path class="st27" d="M1964,460.4"/>
<ellipse transform="matrix(0.995 -9.999751e-02 9.999751e-02 0.995 -50.3037 162.4399)" class="st60" cx="1595.2" cy="583" rx="28.6" ry="17.4"/>
<polygon class="st34" points="1588.4,397.9 1625.4,437.4 1564.8,397.9 "/>
<path class="st35" d="M1580.8,464.9c-5.5-0.9-10.8-3.1-15.3-6.4c-2.4-1.8-4.5-3.9-6.1-6.4h-9.2c2.4,4.1,5.5,7.7,9.2,10.8
	c5,4.2,10.8,7.5,17,9.6C1577.8,469.9,1579.3,467.4,1580.8,464.9z"/>
<path class="st29" d="M1570,480.8c-0.9,5.3-2,12.7-3,21.7c-0.6,6-1.4,15.2-1.8,36.2c-0.2,10.6-0.3,24.3,0,40.5
	c0.9,2,2.4,3.7,4.3,4.8c1.6,0.8,3.3,1.3,5.1,1.4c5-14.4,8.2-29.4,9.4-44.6c0.7-8.9,0.7-17.9,0-26.8c-3.4-4.7-6.3-9.8-8.7-15.1
	C1572.8,493,1571.1,487,1570,480.8z"/>
<path class="st36" d="M1587.4,433.6l-7.9,4.1c-0.2,8-1.4,16-3.6,23.7c-1.9,6.8-4.6,13.4-7.9,19.7c0.3,6.7,1.6,13.3,3.6,19.7
	c2.1,6.4,5,12.6,8.6,18.3c3.9-13,6.6-26.4,7.9-40C1589.6,463.9,1589.4,448.6,1587.4,433.6z"/>
<path class="st37" d="M1587.4,438.7c3.7,49.5-2,99.2-16.8,146.6c7.6,1.7,15.4,1.9,23,0.6c6.3-1,12.3-3.2,17.8-6.4
	c-4.6-9.4-8.3-19.2-11.1-29.3c-6.1-21.9-5.3-36.3-7.4-64.4C1592,474.6,1590.4,458.4,1587.4,438.7z"/>
<path class="st35" d="M1618.4,445.1c-3.2,6-7.2,11.5-11.9,16.4c-5.4,5.7-11.8,10.5-18.7,14.2V470l23.9-24.9H1618.4z"/>
<path class="st38" d="M1617.8,445.1h5c-3.4,6.3-7.5,12.1-12.2,17.5c-6.5,7.3-13.9,13.6-22.2,18.8V474c5.5-5.3,11-10.7,16.5-16.2
	C1609.3,453.6,1613.7,449.4,1617.8,445.1z"/>
<polygon class="st39" points="1532.3,415 1532.3,423.4 1557.8,429.8 1543.2,418.2 "/>
<polygon class="st40" points="1575.1,434.5 1533.4,423.4 1520.2,440 1533.4,447 1561.2,447 "/>
<polygon class="st41" points="1574.2,432.6 1560.3,445.2 1550.6,445.2 1532.3,445.2 1544.2,453 1560.3,453 1583.3,438.2 "/>
<polygon class="st42" points="1583.3,437.4 1557.8,429.8 1583.3,404.9 "/>
<polygon class="st43" points="1583.3,404.9 1543.2,398.5 1532.3,404.9 1532.3,415 1543.2,418.2 1557.8,429.8 "/>
<polygon class="st44" points="1618.4,398.5 1618.4,389.5 1583.3,378.8 1559.2,383.9 1543.2,398.5 1578.9,404.9 "/>
<polygon class="st34" points="1606.3,423.4 1606.3,429.8 1583.2,437 1583.3,404.9 "/>
<polygon class="st45" points="1618.4,398.5 1592.2,403 1606.3,423.4 1618.4,410.6 "/>
<polygon class="st46" points="1637.2,415 1648.1,415 1656.1,422.8 1656.1,428.5 1646.7,436.9 1637.2,442.6 1618.4,445 1637.2,429.8 
	"/>
<polygon class="st47" points="1633.8,415 1639.4,415 1639.4,423.4 1639.4,434.9 1629.9,438.6 1618.4,445 1606.3,445 1606.3,438.6 
	1616.8,433.6 1629.1,423 "/>
<polygon class="st46" points="1618.4,398.5 1633.8,398.5 1633.8,415 1622.9,433.5 1596.8,438.6 1578.9,438.6 1606.3,428.5 
	1617.8,410 "/>
<polygon class="st36" points="1587.2,438.6 1580.8,514 1580.8,551.5 1592.2,479.5 "/>
<polygon class="st46" points="1606.3,429.8 1606.3,423.4 1618.4,410.6 "/>
<path class="st27" d="M1549.2,580.6"/>
<path class="st33" d="M888.7,385.6l4.6,1v7.4c-1.4,1.8-3,3.3-4.9,4.5c-2.6,1.6-5.6,2.7-8.7,3c-4.2,0.3-8.4,0.1-12.5-0.4
	c-4.6-0.6-9.2-1.7-13.5-3.4c-0.9-3.6-0.9-7.5,0.1-11.1l4.7-1.2c0.8,1.6,2,2.9,3.5,3.7c0.3,0.2,7.4,1.2,8.2,0.9
	c3.6,0.3,7.3-0.1,10.8-1.1C883.7,388.2,886.3,387.1,888.7,385.6z"/>
<polygon class="st55" points="1310.2,595.8 1310.2,605.4 1306,600.2 1303.9,604.9 1301.2,599.8 "/>
<polygon class="st60" points="1342.9,543.8 1379.5,577.7 1397.5,591 1426,591 1492.1,593.5 1484.7,577.7 1398,575.9 "/>
<path class="st60" d="M1100.9,787.1c23.4-1.7,43.6,5.2,45,15.5s-16.4,19.9-39.8,21.6s-43.6-5.2-45-15.5S1077.5,788.8,1100.9,787.1z"
	/>
<polygon class="st34" points="1095.2,517.9 1153.6,578.3 1058.1,517.9 "/>
<path class="st35" d="M1083.2,620.2c-8.6-1.3-16.9-4.6-24.1-9.7c-3.7-2.7-6.9-6-9.6-9.7H1035c3.9,6.4,8.8,12,14.5,16.6
	c8,6.5,17.1,11.5,26.8,14.6L1083.2,620.2z"/>
<path class="st29" d="M1066.2,644.5c-1.4,8-3.2,19.4-4.7,33.1c-1,9.2-2.2,23.2-2.8,55.4c-0.3,16.2-0.5,37.2,0,61.9
	c1.4,3.2,3.8,5.7,6.8,7.3c2.5,1.3,5.2,2,8,2.1c8-21.9,13-44.9,14.9-68.3c1.1-13.6,1.1-27.3,0-40.9c-5.4-7.1-9.9-14.9-13.7-23.1
	C1070.7,663.4,1067.8,654.1,1066.2,644.5z"/>
<path class="st36" d="M1093.7,572.4l-12.5,6.2c-0.4,12.3-2.3,24.5-5.6,36.3c-3.1,10.5-7.2,20.5-12.5,30c0.5,10.2,2.4,20.3,5.6,30
	c3.3,9.9,7.9,19.3,13.6,28c6.2-19.8,10.4-40.3,12.5-61.1C1097.1,618.8,1096.7,595.4,1093.7,572.4z"/>
<path class="st37" d="M1093.7,580.2c2.8,36.4,2.1,72.9-1.9,109.2c-4.4,39.1-12.6,77.6-24.5,115c11.9,2.7,24.3,3,36.3,1
	c9.8-1.6,19.3-4.9,28-9.7c-7.1-14.3-13-29.4-17.6-44.8c-9.6-33.5-8.3-55.5-11.7-98.5C1100.8,635,1098.4,610.2,1093.7,580.2z"/>
<path class="st35" d="M1142.5,590c-5.1,9.2-11.5,17.6-18.8,25c-8.7,8.8-18.7,16.1-29.5,21.7v-8.6l37.7-38L1142.5,590z"/>
<path class="st38" d="M1141.6,590h7.9c-5.4,9.6-11.8,18.6-19.2,26.7c-10.3,11.3-22.1,21.1-35.1,28.9v-11.3l26-24.6
	C1128.1,603,1134.9,596.5,1141.6,590z"/>
<polygon class="st39" points="1006.8,544.2 1006.8,556.8 1047,566.6 1023.9,549 "/>
<polygon class="st40" points="1074.2,573.8 1008.5,556.8 987.7,582.3 1008.5,592.9 1052.3,592.9 "/>
<polygon class="st41" points="1073,571.1 1050.9,590.3 1035.5,590.3 1006.8,590.3 1025.5,602 1050.9,602 1087.2,579.6 "/>
<polygon class="st42" points="1087.2,578.3 1047,566.6 1087.2,528.6 "/>
<polygon class="st43" points="1087.2,528.6 1023.9,518.8 1006.8,528.6 1006.8,544.2 1023.9,549 1047,566.6 "/>
<polygon class="st44" points="1142.5,518.8 1142.5,505.2 1087.2,488.6 1049.1,496.4 1023.9,518.8 1080.2,528.6 "/>
<polygon class="st34" points="1123.4,556.8 1123.4,566.6 1086.9,577.8 1087.2,528.6 "/>
<polygon class="st45" points="1142.5,518.8 1101.3,525.6 1123.4,556.8 1142.5,537.3 "/>
<polygon class="st46" points="1172.2,544.2 1189.3,544.2 1201.8,555.9 1201.8,564.8 1187,577.4 1172.2,586.4 1142.5,590 
	1172.2,566.6 "/>
<polygon class="st47" points="1166.6,544.2 1175.7,544.2 1175.7,556.8 1175.7,574.4 1160.6,580.2 1142.5,590 1123.4,590 
	1123.4,580.2 1139.9,572.5 1159.3,556.3 "/>
<polygon class="st46" points="1142.5,518.8 1166.6,518.8 1166.6,544.2 1149.6,572.4 1108.4,580.2 1080.2,580.2 1123.4,564.6 
	1141.5,536.4 "/>
<polygon class="st36" points="1093.3,580.2 1083.2,695.2 1083.2,752.8 1101.3,642.6 "/>
<polygon class="st46" points="1123.4,566.6 1123.4,556.8 1142.5,537.3 "/>
<polygon class="st60" points="1670.6,506.9 1745.3,565.7 1759.2,570.3 1833.5,563.4 1827.4,546.6 1757.1,552.6 "/>
<ellipse class="st28" cx="765.7" cy="967.5" rx="35.5" ry="48"/>
<ellipse class="st28" cx="758.7" cy="967.5" rx="35.5" ry="48"/>
<ellipse class="st28" cx="751.7" cy="967.5" rx="35.5" ry="48"/>
<ellipse class="st28" cx="736.7" cy="967.5" rx="35.5" ry="48"/>
<ellipse class="st28" cx="729.7" cy="967.5" rx="35.5" ry="48"/>
<ellipse class="st28" cx="722.7" cy="967.5" rx="35.5" ry="48"/>
<ellipse class="st28" cx="707.7" cy="967.5" rx="35.5" ry="48"/>
<ellipse class="st28" cx="700.7" cy="967.5" rx="35.5" ry="48"/>
<ellipse class="st28" cx="693.7" cy="967.5" rx="35.5" ry="48"/>
<ellipse class="st28" cx="693.7" cy="967.5" rx="35.5" ry="48"/>
<ellipse class="st28" cx="686.7" cy="967.5" rx="35.5" ry="48"/>
<ellipse class="st28" cx="679.7" cy="967.5" rx="35.5" ry="48"/>
<ellipse class="st68" cx="671.2" cy="968" rx="35.5" ry="48"/>
<linearGradient id="SVGID_1_" gradientUnits="userSpaceOnUse" x1="722.49" y1="-747.9402" x2="722.49" y2="-528.0347" gradientTransform="matrix(1 0 0 -1 -56.99 446.6599)">
	<stop  offset="0" style="stop-color:#FFFFFF"/>
	<stop  offset="1" style="stop-color:#000000"/>
</linearGradient>
<path class="st69" d="M625.7,1052.3c2.5-43.9,14.5-78.1,27.6-77.6l6.3,0.2l2.6,0.1l48.3,1.7c-13.2-0.5-25.2,34.1-27.6,78.3h-0.1
	l-5,139.6c-6.8-0.6-6.3-16.5-13.2-16.8s-7.6,16.1-14.6,15.8s-6.4-16.6-13.4-16.8s-7.6,16.1-14.6,15.8c-0.5,0-1-0.1-1.5-0.3l5-139.9
	L625.7,1052.3z"/>
<rect class="st70" width="2929.4" height="2331.9"/>
<path class="st71" d="M1.3,596.5l118,97.8l299,176.4C446,904.2,485.2,945,538,984.4c54,40.3,105.5,66.5,146.1,83.6
	c35.4,23.3,70.8,46.5,106.2,69.8c0,0,99.8,40.7,117,48.4c17.2,7.8,211.7,179.2,188,163.9l16-40.2l103,82.5l105-71.1l171-55.7
	l208-161.8l233.8-152.6l21.3,1433.1h134.2c20.1-290.6,27.6-608.1,14.4-948.4c-7.2-186-20-364-37-533.5
	c-5.2-41.5-10.5-82.9-15.7-124.4l270-74.2l29-38.1l-49-25.3l69-20.1l79-73.2l-299-120.6l-131.8-2.8l-181.7-15.5l-6.1-43.4
	l-89.1-39.3l-67.7,9.2v50.3l-36.8,6.2l-50.5-20.3l-63.1,0.5l-153.2-6.8l-88,15.5l-98-46.4l-104.8,19.9l-29.2-9.5l-56-4.9l-4.5-22
	c-6.8-4.1-24-13.2-47.5-12.7c-21.2,0.5-36.6,8.6-43.5,12.7c-0.7,23.1-1.5,46.2-2.2,69.4l-117.1-7L676.3,396l-113.1,42.1l-186.9,43
	l-298.2,8c-8.3,1.7-34.8,8.3-55.3,32.9C-3.3,553.4,0.5,590.1,1.3,596.5z"/>
<polygon class="st71" points="376.3,485.1 461.4,431.7 406.9,364.5 431.3,297.2 478.6,282.2 522.6,248.5 541.2,241.9 596.3,268.4 
	596.3,317.8 558.7,372.3 569.4,443.6 "/>
<polygon class="st71" points="777.5,387.6 767.1,328.3 720.1,306.1 702,271.1 760,237.7 799.3,237.7 854,217.1 917.8,217.1 
	955.6,246.5 910.1,301.2 896.8,327.1 894.6,387 "/>
<polygon class="st71" points="993.3,344.4 1017.9,330.3 1042.8,258.3 1105.8,242.5 1148.3,258.3 1166.5,305.9 1183.3,339.1 
	1078.5,358.4 "/>
<polygon class="st71" points="1834.8,417.4 1981.4,420.9 1966.4,360.3 1936.4,322.3 1932.1,291.2 1981,248.5 2044.8,258.4 
	2085.6,294.1 2055.6,345.1 2027.6,363 2022.5,412.6 2148.3,435.1 "/>
<polygon class="st71" points="619.6,1028.6 621.5,1213.9 696.9,1238.8 692.1,1072.5 "/>
<path class="st72" d="M1897.6,530.8c-0.5,15.7,70,34.7,133.7,34.8c64.6,0.1,135.7-19.1,135.2-34.8c-0.5-16.1-76.1-28.5-134.5-28.5
	S1898,514.7,1897.6,530.8z"/>
<line class="st73" x1="2031.7" y1="531.2" x2="1930.8" y2="511.9"/>
<path class="st27" d="M1897.6,559c-0.9,3.2,58.1,34.6,133.7,34.8c76.4,0.2,136.1-31.6,135.2-34.8s-55,20.3-136,20
	C1951.2,578.7,1898.3,556,1897.6,559z"/>
<path class="st27" d="M2166.9,530.8V559l-125.2,28.9L1897.2,559l0.4-25c13.2,8.1,27.3,14.7,41.9,19.8c37.2,13,68.1,12.6,97.1,11.9
	c27.8-0.7,57.3-1.7,92.6-15.6C2142.3,544.9,2154.9,538.4,2166.9,530.8z"/>
<polygon class="st61" points="1670.6,343.7 1738.3,334.8 1827.4,372.9 1746.9,381.9 "/>
<polygon points="1827.4,546.6 1746.9,552.6 1746.9,381.9 1827.4,372.9 "/>
<polygon class="st62" points="1757.1,387.2 1670.6,343.7 1670.6,506.9 1746,552.6 1757.1,552.6 "/>
</svg>
