<svg id="Ebene_1" data-name="Ebene 1" xmlns="http://www.w3.org/2000/svg" viewBox="0 0 2446 3663"><defs><style>.cls-1{fill:#87d4a2;}.cls-2{fill:#52956e;}.cls-3{fill:#9d7766;}.cls-4{fill:#ae8775;}.cls-5{fill:#a47a69;}.cls-6{fill:#a67c6b;}.cls-7{fill:#ae8673;}.cls-8{fill:#6fbf88;}.cls-9{fill:#a07a69;}.cls-10{fill:#a67d6c;}.cls-11{fill:#a37968;}.cls-12{fill:#b78d78;}.cls-13{fill:#a9806f;}.cls-14{fill:#ab8270;}.cls-15{fill:#9f7665;}.cls-16{fill:#b58c77;}.cls-17{fill:#bc927d;}.cls-18{fill:#bd947e;}.cls-19{fill:#b18773;}.cls-20{fill:#c09781;}.cls-21{fill:#c29982;}.cls-22{fill:#a27867;}.cls-23{fill:#ac8472;}.cls-24{fill:#b98f7a;}.cls-25{fill:#c49c84;}.cls-26{fill:#c19881;}.cls-27{fill:#bb917c;}.cls-28{fill:#2b2a29;opacity:0.64;}</style></defs><title>EmptyIslandShadow</title><path class="cls-1" d="M350,277,51,394l199,67L146,509l292,77L629,718l199-62,91,31h124l60,31,240,35,270,7,386-100,112,19,243-122,143-115-63-104-312-8-67-39-297-32-130-61-312-11-98,45-88-15-92,6-88,13Z" transform="translate(-51 -187)"/><polygon class="cls-2" points="0 207 32 234 177.06 284.13 199 274 0 207"/><polygon class="cls-2" points="99 322 114 340 383 412 406.95 412 387 399 99 322"/><polygon class="cls-3" points="45.86 238.79 79 278 148 297.54 177 284 45.86 238.79"/><polygon class="cls-4" points="128 359 398 431 461 465 586 550 578 531 407 412 111 340 128 359"/><polygon class="cls-5" points="414.02 437.65 443 556 553 596 506 548 483.51 478.31 414.02 437.65"/><polygon class="cls-6" points="484 480 586 550 644 540 724 689 506 550 484 480"/><polygon class="cls-7" points="506 548 724 687 749 747 443 556 553 596 506 548"/><polygon class="cls-4" points="586 550 777 517 777 488 578 531 586 550"/><polygon class="cls-2" points="578 531 732.56 497.6 777 488 578 531"/><polygon class="cls-7" points="749 747 841 827 952 904 1128 958 1233 1027 1333 947 1351 986 1494 865 1590 809 1657 780 1807 689 1939 598 1983 519 1921 509 1568 590 1389 584 1279 596 1059 550 987 538 867 536 791 509 777 517 644 540 749 747"/><polygon class="cls-8" points="777 488 861 517 987 517 1059 550 1261 573 1336 573 1056 531 992 500 868 500 777 469 578 531 777 469 777 488"/><polygon class="cls-5" points="749 494.05 578 531 777 469 777 488 861 517 987 517 1059 550 867 539 777 517 749 494.05"/><polygon class="cls-9" points="1319.74 570.56 1352.03 567.56 1562 573 1934 488 2045 509 2029 521 1938.51 510.76 1568 590 1389 584 1319.74 570.56"/><polygon class="cls-8" points="2060 492 2045 509 1934 488 1562 573 1948 469 2060 492"/><polygon class="cls-5" points="1059 550 1279 596 1389 584 1320 573 1059 550"/><polygon class="cls-5" points="1313.5 590 1429.05 585.34 1352 568 1320 573 1313.5 590"/><polyline class="cls-1" points="1352 568 1320 573 1292 566 1336 539"/><polygon class="cls-6" points="742.64 714.75 813.11 802.26 940.33 858.08 817.95 713.13 739.67 688.92 742.64 714.75"/><polygon class="cls-6" points="1939 510 1887 568 1939 550 1983 519 1939 510"/><polygon class="cls-6" points="1983 519 2001 510 1935 510 1983 519"/><polygon class="cls-6" points="907 579 1009 590 1070 723 1178 882 1062 828 936 740 943 663 907 579"/><polygon class="cls-8" points="777 488 749 492 578 531 777 469 777 488"/><polygon class="cls-10" points="644 539 733.11 524.27 770 624 724 687 644 539"/><polygon class="cls-11" points="724 687 749 747 770 624 724 687"/><polygon class="cls-12" points="733 524 777 517 784 606 770 624 733 524"/><polygon class="cls-11" points="644 539 597.6 548 724 687 644 539"/><polygon class="cls-13" points="1128 958 957 904 749 747 770 624 833 758 1128 958"/><polygon class="cls-14" points="875 657 833 758 770 624 784 606 875 657"/><polygon class="cls-10" points="784 606 875 657 893 631 885.81 539 791 509 777 517 784 606"/><polygon class="cls-15" points="893.67 668.55 963.83 696 1000 658.67 902.09 539 886 539 893.67 668.55"/><polygon class="cls-16" points="835 758 886 731 920 758 886 793.93 835 758"/><polygon class="cls-17" points="835 758 875 657 886 731 835 758"/><polygon class="cls-18" points="1128 682 1216.83 583 1279 596 1371.27 584.5 1336 624 1144 784 1128 682"/><polygon class="cls-19" points="1077.7 556 1128 682 1217 583 1077.7 556"/><polygon class="cls-17" points="1380 596 1455 682 1172 858 1380 596"/><polygon class="cls-20" points="1455 682 1272 868 1172 858 1455 682"/><polygon class="cls-21" points="1272 868 1320 858 1470 747 1455 682 1272 868"/><polygon class="cls-22" points="1063 827 1172 858 1147 784 1063 827"/><polygon class="cls-23" points="1063 903 1063 827 1172 858 1172 939 1233 1027 1128 958 1063 903"/><polygon class="cls-24" points="1496.62 590 1455 682 1470 747 1476 707 1602 674 1642.09 573 1568 590 1496.62 590"/><polygon class="cls-6" points="1470 747 1549 731 1634 713 1663 685 1663 660 1634 660 1602 674 1558.09 685.5 1476 707 1470 747"/><polygon class="cls-25" points="1811 689 1663 686 1663 660 1634 660 1612.49 669.41 1642 573 1682.37 568 1921 509 1983 519 1935 598 1811 689"/><polygon class="cls-18" points="1634 711.9 1657 780 1811 688.88 1663 686 1634 711.9"/><polygon class="cls-7" points="1172 927 1213.16 998.37 1256 988 1278 963 1345 907 1495 811 1584 758 1470 747 1286 889 1172 927"/><polygon class="cls-26" points="1217 998 1233 1027 1336 947 1497 845 1497 811 1278 958 1217 998"/><polygon class="cls-27" points="1336 947 1352 986 1540 827 1657 780 1497 845 1336 947"/><ellipse class="cls-28" cx="1222.5" cy="3613" rx="644.5" ry="50"/></svg>