<svg id="Ebene_1" data-name="Ebene 1" xmlns="http://www.w3.org/2000/svg" viewBox="0 0 341.01 590.41"><defs><style>.cls-1{fill:#91a6b5;stroke:#91a6b5;stroke-width:4px;}.cls-1,.cls-4{stroke-miterlimit:10;}.cls-2{fill:#ddaf7b;}.cls-3,.cls-4{fill:#272828;}.cls-4{stroke:#272828;opacity:0.68;}.cls-5{fill:#2c2d2d;}.cls-6{fill:#767777;}.cls-7{fill:#525252;}.cls-8{fill:#141616;}</style></defs><title>fabrik</title><path class="cls-1" d="M-240.61-243.4" transform="translate(401.01 343.14)"/><path class="cls-2" d="M-152.83-237.19" transform="translate(401.01 343.14)"/><path class="cls-3" d="M-242-231.65" transform="translate(401.01 343.14)"/><ellipse class="cls-4" cx="-117.46" cy="216.97" rx="57.17" ry="29.39" transform="translate(378.74 332.48) rotate(-5.74)"/><polygon class="cls-5" points="0 80.67 120.58 62.35 279.32 140.2 135.85 158.51 0 80.67"/><polygon class="cls-6" points="154.16 169.35 0 80.67 0 413.42 134.32 506.53 154.16 506.53 154.16 169.35"/><polygon points="279.32 494.31 135.85 506.53 135.85 158.51 279.32 140.2 279.32 494.31"/><path class="cls-7" d="M-75.27,204.37a128,128,0,0,1-52.2,11.6,130.23,130.23,0,0,1-54.19-11.6q6-137.6,5.8-286.35c-.15-90.06-2.29-177.21-5.8-261.16a176.86,176.86,0,0,0,46.4,5.8,186.12,186.12,0,0,0,44.57-5.8q-1.6,127.3,2,263.15C-86.26,18.15-81.52,113.09-75.27,204.37Z" transform="translate(401.01 343.14)"/><path class="cls-3" d="M-91.15-338.24c-3.51,0-11.14,42.28-30.68,247.27q-9.39,112.19-18.93,224.38v83.8a92,92,0,0,0,36.48.15,98,98,0,0,0,29.15-10.68C-79.86,143.79-86,48.55-88.25-68.07-91.46-228.64-87.64-338.24-91.15-338.24Z" transform="translate(401.01 343.14)"/><ellipse class="cls-8" cx="263.03" cy="10.83" rx="45.49" ry="10.68"/></svg>