<svg id="Ebene_1" data-name="Ebene 1" xmlns="http://www.w3.org/2000/svg" xmlns:xlink="http://www.w3.org/1999/xlink" viewBox="0 0 4771.62 3939.2"><defs><style>.cls-1{fill:#87d4a2;}.cls-2{fill:#52956e;}.cls-3{fill:#9d7766;}.cls-4{fill:#ae8775;}.cls-5{fill:#a47a69;}.cls-6{fill:#a67c6b;}.cls-7{fill:#ae8673;}.cls-8{fill:#6fbf88;}.cls-9{fill:#a07a69;}.cls-10{fill:#a67d6c;}.cls-11{fill:#a37968;}.cls-12{fill:#b78d78;}.cls-13{fill:#a9806f;}.cls-14{fill:#ab8270;}.cls-15{fill:#9f7665;}.cls-16{fill:#b58c77;}.cls-17{fill:#bc927d;}.cls-18{fill:#bd947e;}.cls-19{fill:#b18773;}.cls-20{fill:#c09781;}.cls-21{fill:#c29982;}.cls-22{fill:#a27867;}.cls-23{fill:#ac8472;}.cls-24{fill:#b98f7a;}.cls-25{fill:#c49c84;}.cls-26{fill:#c19881;}.cls-27{fill:#bb917c;}.cls-28{fill:#525252;}.cls-29{fill:#5e5e5e;}.cls-30,.cls-50,.cls-69{fill:#80bee5;}.cls-30,.cls-32{stroke:#91a6b5;}.cls-30,.cls-31,.cls-32,.cls-48,.cls-49,.cls-55,.cls-66,.cls-70,.cls-71,.cls-72{stroke-miterlimit:10;}.cls-30,.cls-32,.cls-72{stroke-width:4px;}.cls-31,.cls-70,.cls-72{fill:none;}.cls-31{stroke:#fff;}.cls-31,.cls-70{stroke-width:7px;}.cls-32{fill:#91a6b5;}.cls-33{fill:#4b8146;}.cls-34{fill:#ddaf7b;}.cls-35{fill:#76522a;}.cls-36{fill:#9f7242;}.cls-37{fill:#b38258;}.cls-38{fill:#916f46;}.cls-39{fill:#375c3e;}.cls-40{fill:#599f5c;}.cls-41{fill:#385d2e;}.cls-42{fill:#4f8e4f;}.cls-43{fill:#5ca561;}.cls-44{fill:#5fac67;}.cls-45{fill:#4c854a;}.cls-46{fill:#3e6636;}.cls-47{fill:#345a2d;}.cls-48,.cls-49,.cls-51,.cls-52,.cls-66{fill:#272828;}.cls-48,.cls-49,.cls-66{stroke:#272828;}.cls-48,.cls-51{opacity:0.64;isolation:isolate;}.cls-53{fill:#b7ac92;}.cls-54{fill:#d1c3a1;}.cls-55,.cls-56{fill:#c14216;}.cls-55{stroke:#c14216;stroke-width:3px;}.cls-57{fill:#cc85dd;}.cls-58{fill:#282727;}.cls-59,.cls-71{fill:#2c2d2d;}.cls-60{fill:#767777;}.cls-61{fill:#ba9e2b;}.cls-62{fill:#2731af;}.cls-63{fill:#cf7fe2;}.cls-64{fill:#aa61bc;}.cls-65{fill:#a2c9dd;}.cls-66{opacity:0.68;}.cls-67{fill:url(#Unbenannter_Verlauf_10);}.cls-68{fill:#141616;}.cls-69{opacity:0.24;}.cls-70{stroke:#9f7242;}.cls-71{stroke:#b38258;stroke-width:2px;}.cls-72{stroke:#847e7e;}.cls-73{fill:url(#Unbenannter_Verlauf_10-2);}</style><linearGradient id="Unbenannter_Verlauf_10" x1="722.59" y1="1412.87" x2="722.59" y2="1192.98" gradientUnits="userSpaceOnUse"><stop offset="0" stop-color="#fff"/><stop offset="1"/></linearGradient><linearGradient id="Unbenannter_Verlauf_10-2" x1="-1119.59" y1="-381.9" x2="-1119.59" y2="-601.79" xlink:href="#Unbenannter_Verlauf_10"/></defs><title>zwei_inseln_intro</title><path class="cls-1" d="M2204,651l299,117-199,67,104,48-292,77q-95.55,66-191,132-99.45-31-199-62l-91,31H1511l-60,31-240,35-270,7L555,1034l-112,19L200,931,57,816l63-104,312-8,67-39,297-32,130-61,312-11,98,45,88-15,92,6,88,13Z" transform="translate(1785.2 1389.06)"/><polygon class="cls-2" points="4288.18 2157.06 4256.18 2184.06 4111.08 2234.16 4089.18 2224.06 4288.18 2157.06"/><polygon class="cls-2" points="4189.18 2272.06 4174.18 2290.06 3905.18 2362.06 3881.28 2362.06 3901.18 2349.06 4189.18 2272.06"/><polygon class="cls-3" points="4242.28 2188.86 4209.18 2228.06 4140.18 2247.56 4111.18 2234.06 4242.28 2188.86"/><polygon class="cls-4" points="4160.18 2309.06 3890.18 2381.06 3827.18 2415.06 3702.18 2500.06 3710.18 2481.06 3881.18 2362.06 4177.18 2290.06 4160.18 2309.06"/><polygon class="cls-5" points="3874.18 2387.66 3845.18 2506.06 3735.18 2546.06 3782.18 2498.06 3804.68 2428.36 3874.18 2387.66"/><polygon class="cls-6" points="3804.18 2430.06 3702.18 2500.06 3644.18 2490.06 3564.18 2639.06 3782.18 2500.06 3804.18 2430.06"/><polygon class="cls-7" points="3782.18 2498.06 3564.18 2637.06 3539.18 2697.06 3845.18 2506.06 3735.18 2546.06 3782.18 2498.06"/><polygon class="cls-4" points="3702.18 2500.06 3511.18 2467.06 3511.18 2438.06 3710.18 2481.06 3702.18 2500.06"/><polygon class="cls-2" points="3710.18 2481.06 3555.58 2447.66 3511.18 2438.06 3710.18 2481.06"/><polygon class="cls-7" points="3539.18 2697.06 3447.18 2777.06 3336.18 2854.06 3160.18 2908.06 3055.18 2977.06 2955.18 2897.06 2937.18 2936.06 2794.18 2815.06 2698.18 2759.06 2631.18 2730.06 2481.18 2639.06 2349.18 2548.06 2305.18 2469.06 2367.18 2459.06 2720.18 2540.06 2899.18 2534.06 3009.18 2546.06 3229.18 2500.06 3301.18 2488.06 3421.18 2486.06 3497.18 2459.06 3511.18 2467.06 3644.18 2490.06 3539.18 2697.06"/><polygon class="cls-8" points="3511.18 2438.06 3427.18 2467.06 3301.18 2467.06 3229.18 2500.06 3027.18 2523.06 2952.18 2523.06 3232.18 2481.06 3296.18 2450.06 3420.18 2450.06 3511.18 2419.06 3710.18 2481.06 3511.18 2419.06 3511.18 2438.06"/><polygon class="cls-5" points="3539.18 2444.16 3710.18 2481.06 3511.18 2419.06 3511.18 2438.06 3427.18 2467.06 3301.18 2467.06 3229.18 2500.06 3421.18 2489.06 3511.18 2467.06 3539.18 2444.16"/><polygon class="cls-9" points="2968.48 2520.66 2936.18 2517.66 2726.18 2523.06 2354.18 2438.06 2243.18 2459.06 2259.18 2471.06 2349.68 2460.86 2720.18 2540.06 2899.18 2534.06 2968.48 2520.66"/><polygon class="cls-8" points="2228.18 2442.06 2243.18 2459.06 2354.18 2438.06 2726.18 2523.06 2340.18 2419.06 2228.18 2442.06"/><polygon class="cls-5" points="3229.18 2500.06 3009.18 2546.06 2899.18 2534.06 2968.18 2523.06 3229.18 2500.06"/><polygon class="cls-5" points="2974.68 2540.06 2859.18 2535.36 2936.18 2518.06 2968.18 2523.06 2974.68 2540.06"/><polyline class="cls-1" points="2936.18 2518.06 2968.18 2523.06 2996.18 2516.06 2952.18 2489.06"/><polygon class="cls-6" points="3545.58 2664.76 3475.08 2752.36 3347.88 2808.16 3470.18 2663.16 3548.48 2638.96 3545.58 2664.76"/><polygon class="cls-6" points="2349.18 2460.06 2401.18 2518.06 2349.18 2500.06 2305.18 2469.06 2349.18 2460.06"/><polygon class="cls-6" points="2305.18 2469.06 2287.18 2460.06 2353.18 2460.06 2305.18 2469.06"/><polygon class="cls-6" points="3381.18 2529.06 3279.18 2540.06 3218.18 2673.06 3110.18 2832.06 3226.18 2778.06 3352.18 2690.06 3345.18 2613.06 3381.18 2529.06"/><polygon class="cls-8" points="3511.18 2438.06 3539.18 2442.06 3710.18 2481.06 3511.18 2419.06 3511.18 2438.06"/><polygon class="cls-10" points="3644.18 2489.06 3555.08 2474.36 3518.18 2574.06 3564.18 2637.06 3644.18 2489.06"/><polygon class="cls-11" points="3564.18 2637.06 3539.18 2697.06 3518.18 2574.06 3564.18 2637.06"/><polygon class="cls-12" points="3555.18 2474.06 3511.18 2467.06 3504.18 2556.06 3518.18 2574.06 3555.18 2474.06"/><polygon class="cls-11" points="3644.18 2489.06 3690.58 2498.06 3564.18 2637.06 3644.18 2489.06"/><polygon class="cls-13" points="3160.18 2908.06 3331.18 2854.06 3539.18 2697.06 3518.18 2574.06 3455.18 2708.06 3160.18 2908.06"/><polygon class="cls-14" points="3413.18 2607.06 3455.18 2708.06 3518.18 2574.06 3504.18 2556.06 3413.18 2607.06"/><polygon class="cls-10" points="3504.18 2556.06 3413.18 2607.06 3395.18 2581.06 3402.38 2489.06 3497.18 2459.06 3511.18 2467.06 3504.18 2556.06"/><polygon class="cls-15" points="3394.48 2618.66 3324.38 2646.06 3288.18 2608.76 3386.08 2489.06 3402.18 2489.06 3394.48 2618.66"/><polygon class="cls-16" points="3453.18 2708.06 3402.18 2681.06 3368.18 2708.06 3402.18 2743.96 3453.18 2708.06"/><polygon class="cls-17" points="3453.18 2708.06 3413.18 2607.06 3402.18 2681.06 3453.18 2708.06"/><polygon class="cls-18" points="3160.18 2632.06 3071.38 2533.06 3009.18 2546.06 2916.88 2534.56 2952.18 2574.06 3144.18 2734.06 3160.18 2632.06"/><polygon class="cls-19" points="3210.48 2506.06 3160.18 2632.06 3071.18 2533.06 3210.48 2506.06"/><polygon class="cls-17" points="2908.18 2546.06 2833.18 2632.06 3116.18 2808.06 2908.18 2546.06"/><polygon class="cls-20" points="2833.18 2632.06 3016.18 2818.06 3116.18 2808.06 2833.18 2632.06"/><polygon class="cls-21" points="3016.18 2818.06 2968.18 2808.06 2818.18 2697.06 2833.18 2632.06 3016.18 2818.06"/><polygon class="cls-22" points="3225.18 2777.06 3116.18 2808.06 3141.18 2734.06 3225.18 2777.06"/><polygon class="cls-23" points="3225.18 2853.06 3225.18 2777.06 3116.18 2808.06 3116.18 2889.06 3055.18 2977.06 3160.18 2908.06 3225.18 2853.06"/><polygon class="cls-24" points="2791.58 2540.06 2833.18 2632.06 2818.18 2697.06 2812.18 2657.06 2686.18 2624.06 2646.08 2523.06 2720.18 2540.06 2791.58 2540.06"/><polygon class="cls-6" points="2818.18 2697.06 2739.18 2681.06 2654.18 2663.06 2625.18 2635.06 2625.18 2610.06 2654.18 2610.06 2686.18 2624.06 2730.08 2635.56 2812.18 2657.06 2818.18 2697.06"/><polygon class="cls-25" points="2477.18 2639.06 2625.18 2636.06 2625.18 2610.06 2654.18 2610.06 2675.68 2619.46 2646.18 2523.06 2605.78 2518.06 2367.18 2459.06 2305.18 2469.06 2353.18 2548.06 2477.18 2639.06"/><polygon class="cls-18" points="2654.18 2661.96 2631.18 2730.06 2477.18 2638.96 2625.18 2636.06 2654.18 2661.96"/><polygon class="cls-7" points="3116.18 2877.06 3074.98 2948.46 3032.18 2938.06 3010.18 2913.06 2943.18 2857.06 2793.18 2761.06 2704.18 2708.06 2818.18 2697.06 3002.18 2839.06 3116.18 2877.06"/><polygon class="cls-26" points="3071.18 2948.06 3055.18 2977.06 2952.18 2897.06 2791.18 2795.06 2791.18 2761.06 3010.18 2908.06 3071.18 2948.06"/><polygon class="cls-27" points="2952.18 2897.06 2936.18 2936.06 2748.18 2777.06 2631.18 2730.06 2791.18 2795.06 2952.18 2897.06"/><ellipse class="cls-28" cx="2607.91" cy="2574.93" rx="35.5" ry="48"/><ellipse class="cls-28" cx="2600.91" cy="2574.93" rx="35.5" ry="48"/><ellipse class="cls-28" cx="2593.91" cy="2574.93" rx="35.5" ry="48"/><ellipse class="cls-28" cx="2578.91" cy="2574.93" rx="35.5" ry="48"/><ellipse class="cls-28" cx="2571.91" cy="2574.93" rx="35.5" ry="48"/><ellipse class="cls-28" cx="2564.91" cy="2574.93" rx="35.5" ry="48"/><ellipse class="cls-28" cx="2549.91" cy="2574.93" rx="35.5" ry="48"/><ellipse class="cls-28" cx="2542.91" cy="2574.93" rx="35.5" ry="48"/><ellipse class="cls-28" cx="2535.91" cy="2574.93" rx="35.5" ry="48"/><ellipse class="cls-28" cx="2535.91" cy="2574.93" rx="35.5" ry="48"/><ellipse class="cls-28" cx="2528.91" cy="2574.93" rx="35.5" ry="48"/><ellipse class="cls-28" cx="2521.91" cy="2574.93" rx="35.5" ry="48"/><ellipse class="cls-29" cx="2513.41" cy="2575.43" rx="35.5" ry="48"/><path class="cls-30" d="M1954.54,749.16c-.5,15.7,70,34.7,133.7,34.8,64.6.1,135.7-19.1,135.2-34.8-.5-16.1-76.1-28.5-134.5-28.5S1955,733.06,1954.54,749.16Z" transform="translate(1785.2 1389.06)"/><line class="cls-31" x1="3873.83" y1="2138.62" x2="3773.03" y2="2119.32"/><path class="cls-32" d="M1954.54,777.36c-.9,3.2,58.1,34.6,133.7,34.8,76.4.2,136.1-31.6,135.2-34.8s-55,20.3-136,20C2008.24,797.06,1955.34,774.36,1954.54,777.36Z" transform="translate(1785.2 1389.06)"/><path class="cls-32" d="M2223.84,749.16v28.2l-125.2,28.9-144.5-28.9.4-25a218.81,218.81,0,0,0,41.9,19.8c37.2,13,68.1,12.6,97.1,11.9,27.8-.7,57.3-1.7,92.6-15.6A222.28,222.28,0,0,0,2223.84,749.16Z" transform="translate(1785.2 1389.06)"/><path class="cls-32" d="M892.39,640.6" transform="translate(1785.2 1389.06)"/><path class="cls-28" d="M2909,1661.5" transform="translate(1785.2 1389.06)"/><polygon class="cls-33" points="2923.94 1859.3 2973.77 1908.39 2892.3 1859.3 2923.94 1859.3"/><path class="cls-34" d="M980.17,646.81" transform="translate(1785.2 1389.06)"/><path class="cls-35" d="M1128.54,553.38a48.34,48.34,0,0,1-20.58-7.92,35.8,35.8,0,0,1-8.23-7.92h-12.35A53.46,53.46,0,0,0,1099.73,551a71.81,71.81,0,0,0,22.9,11.88Z" transform="translate(1785.2 1389.06)"/><path class="cls-34" d="M1114,573.17c-1.2,6.49-2.74,15.76-4,26.92-.86,7.44-1.89,18.84-2.4,45-.26,13.14-.43,30.25,0,50.28a12.91,12.91,0,0,0,5.83,5.94,17.25,17.25,0,0,0,6.86,1.74A203.82,203.82,0,0,0,1133,647.6a195.19,195.19,0,0,0,0-33.25,99,99,0,0,1-11.66-18.76A85.88,85.88,0,0,1,1114,573.17Z" transform="translate(1785.2 1389.06)"/><path class="cls-36" d="M1137.46,514.58l-10.63,5.07a114.81,114.81,0,0,1-4.8,29.45,118.18,118.18,0,0,1-10.63,24.39,90.3,90.3,0,0,0,4.8,24.39,97.31,97.31,0,0,0,11.58,22.72A241.86,241.86,0,0,0,1138.41,571,231,231,0,0,0,1137.46,514.58Z" transform="translate(1785.2 1389.06)"/><path class="cls-37" d="M1137.46,520.92a453.19,453.19,0,0,1-1.63,88.68A464.66,464.66,0,0,1,1114.91,703a84.55,84.55,0,0,0,31,.79,77,77,0,0,0,23.93-7.92,215.66,215.66,0,0,1-15-36.42c-8.15-27.24-7.12-45.05-9.95-80C1143.55,565.41,1141.49,545.3,1137.46,520.92Z" transform="translate(1785.2 1389.06)"/><path class="cls-35" d="M1179.14,528.83a96,96,0,0,1-16,20.35A102.51,102.51,0,0,1,1138,566.84v-7l32.16-30.88Z" transform="translate(1785.2 1389.06)"/><path class="cls-38" d="M1178.37,528.83h6.78a117.56,117.56,0,0,1-16.38,21.69A133.62,133.62,0,0,1,1138.83,574v-9.18l22.21-20C1166.88,539.44,1172.63,534.14,1178.37,528.83Z" transform="translate(1785.2 1389.06)"/><polygon class="cls-39" points="2848.56 1880.68 2848.56 1890.97 2882.86 1898.89 2863.14 1884.64 2848.56 1880.68"/><polygon class="cls-40" points="2906.02 1904.75 2850.01 1890.97 2832.26 1911.64 2850.01 1920.27 2887.32 1920.27 2906.02 1904.75"/><polygon class="cls-41" points="2904.99 1902.53 2886.12 1918.13 2873 1918.13 2848.56 1918.13 2864.51 1927.71 2886.12 1927.71 2917.17 1909.5 2904.99 1902.53"/><polygon class="cls-42" points="2917.17 1908.39 2882.86 1898.89 2917.17 1868.01 2917.17 1908.39"/><polygon class="cls-43" points="2917.17 1868.01 2863.14 1860.09 2848.56 1868.01 2848.56 1880.68 2863.14 1884.64 2882.86 1898.89 2917.17 1868.01"/><polygon class="cls-44" points="2964.34 1860.09 2964.34 1849.01 2917.17 1835.55 2884.58 1841.88 2863.14 1860.09 2911.16 1868.01 2964.34 1860.09"/><polygon class="cls-33" points="2948.04 1890.97 2948.04 1898.89 2916.91 1907.99 2917.17 1868.01 2948.04 1890.97"/><polygon class="cls-45" points="2964.34 1860.09 2929.18 1865.64 2948.04 1890.97 2964.34 1875.14 2964.34 1860.09"/><polygon class="cls-46" points="2989.64 1880.68 3004.22 1880.68 3014.94 1890.18 3014.94 1897.46 3002.25 1907.68 2989.64 1914.96 2964.34 1917.89 2989.64 1898.89 2989.64 1880.68"/><polygon class="cls-47" points="2984.92 1880.68 2992.64 1880.68 2992.64 1890.97 2992.64 1905.22 2979.78 1909.97 2964.34 1917.89 2948.04 1917.89 2948.04 1909.97 2962.11 1903.72 2978.66 1890.58 2984.92 1880.68"/><polygon class="cls-46" points="2964.34 1860.09 2984.92 1860.09 2984.92 1880.68 2970.34 1903.64 2935.18 1909.97 2911.16 1909.97 2948.04 1897.31 2963.48 1874.35 2964.34 1860.09"/><polygon class="cls-36" points="2922.32 1909.97 2913.74 2003.4 2913.74 2050.2 2929.18 1960.65 2922.32 1909.97"/><polygon class="cls-46" points="2948.04 1898.89 2948.04 1890.97 2964.34 1875.14 2948.04 1898.89"/><path class="cls-48" d="M2228.68,774.69c-2.3-2.7-16.1,6.2-30.5,13.3-28.6,14.1-53.8,16.6-79,19-71.8,6.9-126.9-16-131.8-18.2,0,0-13.6-6.1-24.2-10.1h0s12.6,6.6,32,14.8c16.1,6.8,41.9,17.7,73,24.4h0c94.2,20.9,129.4-5,141-16C2216.48,795,2231.28,777.89,2228.68,774.69Z" transform="translate(1785.2 1389.06)"/><path class="cls-49" d="M373.49,760" transform="translate(1785.2 1389.06)"/><g id="Meer"><polygon class="cls-50" points="2148.27 2097.06 2202.45 2204.26 2263.83 2245.94 2299.91 2301.46 2311.68 2345.37 2210.62 2360.06 1991.19 2266.7 1862.11 2173.42 1919.01 2100.9 2148.27 2097.06"/></g><path class="cls-51" d="M581.93,810.33l8.85,2v14.19a36,36,0,0,1-9.47,8.72A39.17,39.17,0,0,1,564.61,841a121.31,121.31,0,0,1-24.09-.79,119.79,119.79,0,0,1-26.07-6.51,41.27,41.27,0,0,1,.19-21.39l9.13-2.35a17.42,17.42,0,0,0,6.78,7.21c.65.38,14.17,2.22,15.81,1.73a61.16,61.16,0,0,0,20.83-2.14A59,59,0,0,0,581.93,810.33Z" transform="translate(1785.2 1389.06)"/><path class="cls-51" d="M661.59,711.16l7.93,2v14.19a34,34,0,0,1-8.49,8.72,32.68,32.68,0,0,1-15,5.77,97.79,97.79,0,0,1-44.95-7.3,45.89,45.89,0,0,1,.17-21.39l8.18-2.35a16.9,16.9,0,0,0,6.07,7.21c.59.38,12.69,2.22,14.17,1.73a49.36,49.36,0,0,0,18.66-2.14A50.27,50.27,0,0,0,661.59,711.16Z" transform="translate(1785.2 1389.06)"/><polygon class="cls-33" points="2420.82 1888.51 2462.47 1934.93 2394.17 1888.51 2420.82 1888.51"/><path class="cls-35" d="M627,578.05a37.47,37.47,0,0,1-17.2-7.56,27.7,27.7,0,0,1-6.91-7.56H592.61a45,45,0,0,0,10.29,12.66,59.35,59.35,0,0,0,19.23,11.25C623.64,584.21,625.33,581,627,578.05Z" transform="translate(1785.2 1389.06)"/><path class="cls-34" d="M614.87,596.87c-1,6.15-2.36,14.95-3.37,25.5-.67,7-1.52,17.76-2,42.55-.17,12.48-.34,28.66,0,47.65a10.6,10.6,0,0,0,4.89,5.63,11.12,11.12,0,0,0,5.73,1.58,209.2,209.2,0,0,0,10.63-52.4,217.18,217.18,0,0,0,0-31.47,96.1,96.1,0,0,1-9.78-17.76A89.85,89.85,0,0,1,614.87,596.87Z" transform="translate(1785.2 1389.06)"/><path class="cls-36" d="M634.44,541.48l-8.94,4.75a120.6,120.6,0,0,1-4,28,110.25,110.25,0,0,1-8.94,23,98.48,98.48,0,0,0,4,23,92.55,92.55,0,0,0,9.78,21.45,252.16,252.16,0,0,0,8.94-46.95A236.78,236.78,0,0,0,634.44,541.48Z" transform="translate(1785.2 1389.06)"/><path class="cls-37" d="M634.44,547.46a490.27,490.27,0,0,1-1.35,83.87,498.84,498.84,0,0,1-17.54,88.45,62.63,62.63,0,0,0,26,.7,60.18,60.18,0,0,0,20.07-7.56,205.77,205.77,0,0,1-12.48-34.46c-6.91-25.85-5.9-42.73-8.43-75.79C639.67,589.48,637.81,570.49,634.44,547.46Z" transform="translate(1785.2 1389.06)"/><path class="cls-35" d="M669.52,554.84A85.62,85.62,0,0,1,656,574a83.92,83.92,0,0,1-21.08,16.7V584l27-29.19Z" transform="translate(1785.2 1389.06)"/><path class="cls-38" d="M668.84,554.84h5.73a117.53,117.53,0,0,1-13.83,20.57,111,111,0,0,1-25.13,22.16v-8.79c6.24-6.33,12.31-12.66,18.55-19C659.06,564.86,664,559.94,668.84,554.84Z" transform="translate(1785.2 1389.06)"/><polygon class="cls-39" points="2357.57 1908.73 2357.57 1918.4 2386.41 1925.97 2369.71 1912.43 2357.57 1908.73"/><polygon class="cls-40" points="2405.8 1931.59 2358.75 1918.4 2343.91 1938.1 2358.75 1946.19 2390.12 1946.19 2405.8 1931.59"/><polygon class="cls-41" points="2404.79 1929.48 2389.11 1944.25 2377.97 1944.25 2357.57 1944.25 2370.89 1953.22 2389.11 1953.22 2415.08 1935.99 2404.79 1929.48"/><polygon class="cls-42" points="2415.08 1934.93 2386.41 1925.97 2415.08 1896.78 2415.08 1934.93"/><polygon class="cls-43" points="2415.08 1896.78 2369.71 1889.22 2357.57 1896.78 2357.57 1908.73 2369.71 1912.43 2386.41 1925.97 2415.08 1896.78"/><polygon class="cls-44" points="2454.72 1889.22 2454.72 1878.67 2415.08 1866.01 2387.76 1871.98 2369.71 1889.22 2410.02 1896.78 2454.72 1889.22"/><polygon class="cls-33" points="2441.05 1918.4 2441.05 1925.97 2414.91 1934.58 2415.08 1896.78 2441.05 1918.4"/><polygon class="cls-45" points="2454.72 1889.22 2425.2 1894.49 2441.05 1918.4 2454.72 1903.46 2454.72 1889.22"/><polygon class="cls-46" points="2466.77 1925.66 2479.54 1925.66 2488.81 1934.96 2488.81 1942.08 2477.79 1952.11 2466.77 1959.4 2444.91 1962.14 2466.77 1943.54 2466.77 1925.66"/><polygon class="cls-47" points="2462.75 1925.66 2469.4 1925.66 2469.4 1935.69 2469.4 1949.74 2458.2 1954.48 2444.91 1962.14 2430.74 1962.14 2430.74 1954.48 2442.81 1948.28 2457.33 1935.33 2462.75 1925.66"/><polygon class="cls-46" points="2454.72 1889.22 2471.92 1889.22 2471.92 1908.73 2459.61 1930.54 2430.26 1936.52 2410.02 1936.52 2441.05 1924.38 2453.87 1902.76 2454.72 1889.22"/><polygon class="cls-36" points="2419.3 1936.52 2412.21 2024.96 2412.21 2069.1 2425.2 1984.34 2419.3 1936.52"/><polygon class="cls-46" points="4771.61 1630.74 4771.61 1622.9 4757.45 1607.39 4771.61 1630.74"/><polygon class="cls-33" points="2339.86 1942.14 2389.95 1997.88 2308.15 1942.14 2339.86 1942.14"/><path class="cls-35" d="M544.37,647.51a46.51,46.51,0,0,1-20.75-9,39.22,39.22,0,0,1-8.26-9H503.05a66.83,66.83,0,0,0,12.31,15.3,70.81,70.81,0,0,0,23.11,13.54C540.5,654.54,542.52,651,544.37,647.51Z" transform="translate(1785.2 1389.06)"/><path class="cls-34" d="M529.87,669.84c-1.18,7.39-2.7,17.94-4,30.6-.84,8.44-1.86,21.28-2.36,51-.34,14.95-.34,34.29,0,57.15a14.1,14.1,0,0,0,5.9,6.86,15,15,0,0,0,6.91,1.93,257.72,257.72,0,0,0,12.65-100.75,123.05,123.05,0,0,1-11.81-21.28A106,106,0,0,1,529.87,669.84Z" transform="translate(1785.2 1389.06)"/><path class="cls-36" d="M553.31,603.37l-10.63,5.8a136.11,136.11,0,0,1-4.89,33.41,150.68,150.68,0,0,1-10.63,27.78,112,112,0,0,0,4.89,27.78A113.74,113.74,0,0,0,543.7,724a296.94,296.94,0,0,0,10.63-56.44A292.58,292.58,0,0,0,553.31,603.37Z" transform="translate(1785.2 1389.06)"/><path class="cls-37" d="M553.31,610.58a584.43,584.43,0,0,1-1.69,100.58,589.44,589.44,0,0,1-21.08,106,76.76,76.76,0,0,0,31,.88,72.27,72.27,0,0,0,24.12-9,247,247,0,0,1-15-41.32c-8.26-30.95-7.08-51.17-10-90.73C559.55,661,557.36,638.36,553.31,610.58Z" transform="translate(1785.2 1389.06)"/><path class="cls-35" d="M595.31,619.55a110.34,110.34,0,0,1-16.19,23,103.45,103.45,0,0,1-25.3,20v-8.09l32.21-35Z" transform="translate(1785.2 1389.06)"/><path class="cls-38" d="M594.47,619.55h6.75a132.75,132.75,0,0,1-16.53,24.62,140,140,0,0,1-30,26.55V660.34l22.26-22.68C582.83,631.51,588.73,625.53,594.47,619.55Z" transform="translate(1785.2 1389.06)"/><polygon class="cls-39" points="2264.13 1966.41 2264.13 1978.01 2298.54 1987.16 2278.8 1970.98 2264.13 1966.41"/><polygon class="cls-40" points="2321.81 1993.66 2265.65 1978.01 2247.77 2001.58 2265.65 2011.42 2303.09 2011.42 2321.81 1993.66"/><polygon class="cls-41" points="2320.8 1991.2 2301.91 2008.96 2288.76 2008.96 2264.13 2008.96 2280.15 2019.69 2301.91 2019.69 2333.11 1999.11 2320.8 1991.2"/><polygon class="cls-42" points="2333.11 1997.88 2298.54 1987.16 2333.11 1951.99 2333.11 1997.88"/><polygon class="cls-43" points="2333.11 1951.99 2278.8 1943.02 2264.13 1951.99 2264.13 1966.41 2278.8 1970.98 2298.54 1987.16 2333.11 1951.99"/><polygon class="cls-44" points="2380.51 1943.02 2380.51 1930.54 2333.11 1915.24 2300.39 1922.45 2278.8 1943.02 2327.04 1951.99 2380.51 1943.02"/><polygon class="cls-33" points="2736.12 1794.77 2778.4 1836.5 2709.19 1794.77 2736.12 1794.77"/><polygon class="cls-33" points="2364.15 1978.01 2364.15 1987.16 2332.78 1997.36 2333.11 1951.99 2364.15 1978.01"/><path class="cls-35" d="M942.17,476.34a42.38,42.38,0,0,1-17.5-6.73,32.48,32.48,0,0,1-7-6.73H907.18a46.18,46.18,0,0,0,10.46,11.4,60.27,60.27,0,0,0,19.47,10.06C938.83,481.72,940.54,479,942.17,476.34Z" transform="translate(1785.2 1389.06)"/><path class="cls-34" d="M929.82,493.2c-1,5.54-2.32,13.38-3.43,22.88-.69,6.33-1.63,16-2.06,38.16-.26,11.16-.34,25.65,0,42.76a11,11,0,0,0,5,5.07,12.47,12.47,0,0,0,5.83,1.43,174.79,174.79,0,0,0,10.81-47.11,172.33,172.33,0,0,0,0-28.27A88.71,88.71,0,0,1,936,512.21,79.13,79.13,0,0,1,929.82,493.2Z" transform="translate(1785.2 1389.06)"/><path class="cls-36" d="M949.81,443.4l-9,4.28a92,92,0,0,1-4.12,25,105.71,105.71,0,0,1-9,20.74,73.5,73.5,0,0,0,4.12,20.74,79.34,79.34,0,0,0,9.86,19.32,203.73,203.73,0,0,0,9-42.2A201.17,201.17,0,0,0,949.81,443.4Z" transform="translate(1785.2 1389.06)"/><path class="cls-37" d="M949.81,448.79a383.36,383.36,0,0,1-1.46,75.38,395.74,395.74,0,0,1-17.84,79.41,71.13,71.13,0,0,0,26.33.63,65.75,65.75,0,0,0,20.33-6.73,167.33,167.33,0,0,1-12.69-31c-6.95-23.12-6-38.32-8.49-67.93C955,486.63,953.24,469.53,949.81,448.79Z" transform="translate(1785.2 1389.06)"/><path class="cls-35" d="M985.23,455.52a79.54,79.54,0,0,1-13.64,17.26,87.23,87.23,0,0,1-21.36,15v-6l27.27-26.29Z" transform="translate(1785.2 1389.06)"/><path class="cls-38" d="M984.54,455.52h5.75a100.67,100.67,0,0,1-14,18.45,115,115,0,0,1-25.39,19.87V486c6.26-5.62,12.52-11.32,18.87-17C974.77,464.46,979.65,460,984.54,455.52Z" transform="translate(1785.2 1389.06)"/><polygon class="cls-39" points="2671.97 1812.9 2671.97 1821.69 2701.13 1828.42 2684.4 1816.31 2671.97 1812.9"/><polygon class="cls-40" points="2720.85 1833.41 2673.25 1821.69 2658.16 1839.27 2673.25 1846.56 2704.99 1846.56 2720.85 1833.41"/><polygon class="cls-41" points="2719.91 1831.51 2703.96 1844.81 2692.81 1844.81 2671.97 1844.81 2685.6 1852.89 2703.96 1852.89 2730.29 1837.37 2719.91 1831.51"/><polygon class="cls-42" points="2730.29 1836.5 2701.13 1828.42 2730.29 1802.14 2730.29 1836.5"/><polygon class="cls-43" points="2730.29 1802.14 2684.4 1795.41 2671.97 1802.14 2671.97 1812.9 2684.4 1816.31 2701.13 1828.42 2730.29 1802.14"/><polygon class="cls-45" points="2380.51 1943.02 2345.09 1949.35 2364.15 1978.01 2380.51 1960.08 2380.51 1943.02"/><polygon class="cls-33" points="2756.53 1821.69 2756.53 1828.42 2730.03 1836.18 2730.29 1802.14 2756.53 1821.69"/><polygon class="cls-45" points="2770.42 1795.41 2740.49 1800.16 2756.53 1821.69 2770.42 1808.23 2770.42 1795.41"/><polygon class="cls-46" points="2791.87 1812.9 2804.3 1812.9 2813.39 1820.98 2813.39 1827.16 2802.67 1835.87 2791.87 1842.04 2770.42 1844.58 2791.87 1828.42 2791.87 1812.9"/><polygon class="cls-47" points="2787.92 1812.9 2794.44 1812.9 2794.44 1821.69 2794.44 1833.81 2783.55 1837.85 2770.42 1844.58 2756.53 1844.58 2756.53 1837.85 2768.45 1832.54 2782.52 1821.38 2787.92 1812.9"/><polygon class="cls-46" points="2770.42 1795.41 2787.92 1795.41 2787.92 1812.9 2775.48 1832.46 2745.64 1837.85 2725.23 1837.85 2756.53 1827.08 2769.65 1807.52 2770.42 1795.41"/><polygon class="cls-36" points="2734.66 1837.85 2727.37 1917.26 2727.37 1956.93 2740.49 1880.92 2734.66 1837.85"/><polygon class="cls-46" points="2756.53 1828.42 2756.53 1821.69 2770.42 1808.23 2756.53 1828.42"/><polygon class="cls-33" points="2646.92 1826.52 2694.44 1873.32 2616.73 1826.52 2646.92 1826.52"/><polygon class="cls-46" points="2405.8 1966.41 2420.48 1966.41 2431.27 1977.13 2431.27 1985.4 2418.62 1997 2405.8 2005.27 2380.51 2008.61 2405.8 1987.16 2405.8 1966.41"/><polygon class="cls-47" points="2401.08 1966.41 2408.84 1966.41 2408.84 1978.01 2408.84 1994.19 2396.02 1999.64 2380.51 2008.61 2364.15 2008.61 2364.15 1999.64 2378.14 1992.61 2394.84 1977.66 2401.08 1966.41"/><path class="cls-36" d="M860.53,479.74l-10.12,4.83a104.34,104.34,0,0,1-4.63,28.11A111.3,111.3,0,0,1,835.65,536a85.16,85.16,0,0,0,4.63,23.28,90,90,0,0,0,11.06,21.69,224.66,224.66,0,0,0,9.18-101.19Z" transform="translate(1785.2 1389.06)"/><path class="cls-35" d="M900.24,493.28a89.29,89.29,0,0,1-15.35,19.4A100.25,100.25,0,0,1,861,529.55v-6.73l30.62-29.45Z" transform="translate(1785.2 1389.06)"/><path class="cls-38" d="M899.46,493.28h6.43a111.5,111.5,0,0,1-15.61,20.66,128.2,128.2,0,0,1-28.47,22.33v-8.79L883,508.41C888.49,503.34,894,498.35,899.46,493.28Z" transform="translate(1785.2 1389.06)"/><polygon class="cls-46" points="2380.51 1943.02 2401.08 1943.02 2401.08 1966.41 2386.41 1992.43 2351.16 1999.64 2327.04 1999.64 2364.15 1985.22 2379.66 1959.2 2380.51 1943.02"/><polygon class="cls-36" points="2338.17 1999.64 2329.57 2105.67 2329.57 2158.77 2345.09 2057.14 2338.17 1999.64"/><polygon class="cls-46" points="2364.15 1987.16 2364.15 1978.01 2380.51 1960.08 2364.15 1987.16"/><path class="cls-34" d="M1644,685" transform="translate(1785.2 1389.06)"/><polygon class="cls-44" points="2644.33 1851.45 2644.33 1839.56 2597.53 1825.15 2565.23 1831.95 2544.03 1851.45 2591.63 1859.95 2644.33 1851.45"/><polygon class="cls-44" points="2698.42 1864.57 2698.42 1854.04 2653.48 1841.21 2622.35 1847.23 2601.94 1864.57 2647.74 1872.17 2698.42 1864.57"/><polygon class="cls-33" points="2669.91 1856.69 2669.91 1864.21 2640.15 1872.92 2640.49 1834.84 2669.91 1856.69"/><polygon class="cls-45" points="2685.43 1827.24 2651.9 1832.54 2669.91 1856.69 2685.43 1841.65 2685.43 1827.24"/><polygon class="cls-46" points="2709.53 1846.87 2723.43 1846.87 2733.63 1855.9 2733.63 1862.87 2721.54 1872.6 2709.53 1879.57 2685.43 1882.34 2709.53 1864.29 2709.53 1846.87"/><polygon class="cls-47" points="2704.99 1846.87 2712.36 1846.87 2712.36 1856.69 2712.36 1870.31 2700.1 1874.82 2685.43 1882.34 2669.91 1882.34 2669.91 1874.82 2683.29 1868.88 2699.07 1856.29 2704.99 1846.87"/><polygon class="cls-46" points="2685.43 1827.24 2704.99 1827.24 2704.99 1846.87 2691.09 1868.8 2657.64 1874.82 2634.74 1874.82 2669.91 1862.71 2684.57 1840.85 2685.43 1827.24"/><polygon class="cls-36" points="2645.29 1874.82 2637.14 1963.81 2637.14 2008.39 2651.9 1923.12 2645.29 1874.82"/><polygon class="cls-46" points="2669.91 1864.21 2669.91 1856.69 2685.43 1841.65 2669.91 1864.21"/><path class="cls-37" d="M860.44,485.76a423.93,423.93,0,0,1-1.63,84.48,447.63,447.63,0,0,1-20,89.07,82.13,82.13,0,0,0,29.5.79,74.38,74.38,0,0,0,22.81-7.52,193,193,0,0,1-14.24-34.68c-7.8-26-6.78-43-9.52-76.25C866.36,528.2,864.3,509,860.44,485.76Z" transform="translate(1785.2 1389.06)"/><path class="cls-51" d="M891,652.35a78.36,78.36,0,0,1-24.87,7.92,82,82,0,0,1-27.44-.79c10.29,18.76,20.58,37.45,30.88,56.22l72.9,36.42,76.33,20.59L1070.22,722l-42.88-37.21Q959.16,668.54,891,652.35" transform="translate(1785.2 1389.06)"/><path class="cls-35" d="M853.08,518.18a47.63,47.63,0,0,1-19.64-7.52,34.52,34.52,0,0,1-7.89-7.52H813.8A51.87,51.87,0,0,0,825.55,516a69.23,69.23,0,0,0,21.87,11.32C849.4,524.2,851.28,521.19,853.08,518.18Z" transform="translate(1785.2 1389.06)"/><path class="cls-34" d="M839.28,537c-1.11,6.25-2.66,15-3.77,25.65-.77,7.13-1.8,18-2.32,42.83-.26,12.51-.34,28.82,0,47.9a12.57,12.57,0,0,0,5.57,5.7,15.29,15.29,0,0,0,6.52,1.66,191.17,191.17,0,0,0,12.09-84.48,94.89,94.89,0,0,1-11.15-17.89A88.08,88.08,0,0,1,839.28,537Z" transform="translate(1785.2 1389.06)"/><polygon class="cls-39" points="2576.19 1848.34 2576.19 1858.15 2608.86 1865.68 2590.08 1852.14 2576.19 1848.34"/><polygon class="cls-40" points="2630.99 1871.3 2577.56 1858.15 2560.66 1877.87 2577.56 1886.1 2613.15 1886.1 2630.99 1871.3"/><polygon class="cls-41" points="2629.96 1869.16 2612.04 1884.04 2599.51 1884.04 2576.19 1884.04 2591.45 1893.15 2612.04 1893.15 2641.63 1875.81 2629.96 1869.16"/><path class="cls-51" d="M977.17,597.32l69.47,15.84,60.89-4-.43,51.86.43,34.44L930.85,603.65a72.44,72.44,0,0,0,26.16.4A70.47,70.47,0,0,0,977.17,597.32Z" transform="translate(1785.2 1389.06)"/><path class="cls-52" d="M891,652.35" transform="translate(1785.2 1389.06)"/><polygon class="cls-42" points="2641.63 1874.78 2608.86 1865.68 2641.63 1836.3 2641.63 1874.78"/><polygon class="cls-43" points="2641.63 1836.3 2590.08 1828.7 2576.19 1836.3 2576.19 1848.34 2590.08 1852.14 2608.86 1865.68 2641.63 1836.3"/><rect class="cls-53" x="3235.48" y="2085.44" width="91.35" height="99.61"/><polygon class="cls-53" points="3285.04 2002.19 3334.28 2087.54 3235.8 2087.54 3285.04 2002.19"/><polygon class="cls-54" points="3235.48 2087.54 3185.11 2063.89 3185.11 2151.19 3235.48 2185.05 3235.48 2087.54"/><polygon class="cls-55" points="3285.2 2001.7 3334.6 2087.06 3347.88 2090.13 3334.6 2074.75 3285.2 2001.7"/><polygon class="cls-56" points="3285.69 2002.19 3235.48 2087.54 3226.08 2096.77 3173.77 2069.08 3223.01 1995.06 3285.69 2002.19"/><polyline class="cls-51" points="3157.57 2139.21 3180.25 2171.6 3223.98 2202.38 3296.86 2210.47 3326.02 2202.38 3326.02 2184.56 3235.32 2184.56 3185.11 2150.55 3185.11 2141.15 3164.86 2139.05 3157.57 2139.21"/><polygon class="cls-57" points="3072.11 2159.33 3072.09 2143.18 3085.04 2161.85 3072.11 2159.33"/><rect class="cls-50" x="1088.14" y="818.45" width="341.51" height="42.09" transform="translate(2116.34 1033.22) rotate(18.49)"/><path class="cls-58" d="M666.22,1407" transform="translate(1785.2 1389.06)"/><polygon class="cls-59" points="3512.79 1951.13 3580.47 1942.14 3669.57 1980.32 3589.04 1989.31 3512.79 1951.13"/><polygon points="3669.57 2154.01 3589.04 2160 3589.04 1989.31 3669.57 1980.32 3669.57 2154.01"/><path class="cls-51" d="M1782.25,688.42l256,182.2-58.73,19.58L1714.49,699a94.6,94.6,0,0,0,67.76-10.54Z" transform="translate(1785.2 1389.06)"/><polygon class="cls-60" points="3599.32 1994.62 3512.79 1951.13 3512.79 2114.33 3588.18 2160 3599.32 2160 3599.32 1994.62"/><rect class="cls-50" x="462.58" y="819.25" width="495.51" height="39.25" transform="translate(1618.08 1565.84) rotate(-12.71)"/><path class="cls-51" d="M1157.83,700.45a78.36,78.36,0,0,1-24.87,7.92,82,82,0,0,1-27.44-.79c10.29,18.76,20.58,37.45,30.88,56.22l72.9,36.42,76.33,20.59,51.46-50.67-42.88-37.21q-68.18-16.27-136.37-32.46" transform="translate(1785.2 1389.06)"/><polygon class="cls-61" points="3107.26 2210.67 3100.51 2217.49 3101.16 2210.86 3096.39 2212.62 3098.07 2207.2 3107.26 2210.67"/><rect class="cls-62" x="1299.84" y="718.12" width="26.85" height="54.88" rx="9.47" ry="9.47" transform="translate(4411.74 2880.19) rotate(180)"/><ellipse class="cls-63" cx="3120.26" cy="2183.34" rx="44.53" ry="28.36"/><polygon class="cls-57" points="3086.72 2158.61 3100.17 2149.68 3091.76 2170.78 3086.72 2158.61"/><circle class="cls-64" cx="3081.62" cy="2172.2" r="17.23"/><ellipse class="cls-57" cx="3078.8" cy="2176.32" rx="6.71" ry="4.11"/><circle class="cls-36" cx="3098.85" cy="2096.28" r="13.33"/><g id="Meer-2" data-name="Meer"><polygon class="cls-50" points="3723.79 2472.68 3634.05 2425.16 3571.13 2426.41 3519.06 2405.73 3489.55 2381.17 3552.68 2321.59 3750.59 2278.7 3885.65 2279.97 3881.32 2357.87 3723.79 2472.68"/></g><rect class="cls-50" x="2731.9" y="2156.06" width="166.29" height="38.55"/><rect class="cls-50" x="3185.11" y="2263.51" width="333.08" height="36.55"/><rect class="cls-50" x="1710.04" y="900.4" width="106.5" height="36.55" transform="translate(2633.16 542.71) rotate(35.07)"/><path class="cls-50" d="M2127.33,1175.08c-6.56-121.24-34.43-216-64.27-214.93l-14.46.52-5.95.21-110.22,4c30-1.08,58,94.6,64.37,216.7h.14l13.88,385.55c15.43-1.48,14-45.59,29.8-46.16,16-.57,17.58,44.5,33.53,43.92s14.33-45.64,30.29-46.22,17.58,44.5,33.54,43.92a8,8,0,0,0,3.43-.94l-13.91-386.55Z" transform="translate(1785.2 1389.06)"/><path class="cls-65" d="M2120.65,1112.6a9.67,9.67,0,0,1-3.43.83c-16,.83-17.84-35-33.8-34.16s-14.09,36.67-30.05,37.5-17.84-35-33.8-34.16c-15.8.83-14.14,35.9-29.57,37.44l14.88,284.66,130.68-6.83Z" transform="translate(1785.2 1389.06)"/><path class="cls-50" d="M2009.82,1381.09c15.74-.45,15.06-24.67,30.8-25.11s16.43,23.78,32.17,23.33,15.05-24.67,30.8-25.11c15.58-.44,16.42,23.26,31.69,23.32l3.89,137.41.4,14.29,3.71,130.93c.44,15.71-4.89,28.73-11.85,28.93l-2.52.07c-7,.2-13-12.5-13.46-28.21l-3.34-118.15c-.2-7.06-2.9-12.7-6-12.61h-.33c-3.13.09-5.5,5.88-5.3,12.93l5.06,178.9c.72,25.51-7.93,46.64-19.23,47l-4.09.12c-11.3.32-21.14-20.29-21.86-45.8l-5.06-178.9c-.2-7.06-2.9-12.7-6-12.61s-5.5,5.88-5.3,12.94l2.89,102.1c.53,18.56-5.77,33.94-14,34.18l-3,.08c-8.22.23-15.38-14.77-15.91-33.33l-3.25-114.87-1.6-56.7-2.7-95.4A13.47,13.47,0,0,0,2009.82,1381.09Z" transform="translate(1785.2 1389.06)"/><rect class="cls-50" x="3794.3" y="2908.06" width="134.19" height="1031.15"/><ellipse class="cls-66" cx="1015.54" cy="1100.97" rx="57.17" ry="29.39" transform="translate(1680.22 1496.1) rotate(-5.74)"/><path class="cls-67" d="M682.71,1270.62c2.54-43.88,14.5-78.11,27.59-77.64l6.34.23,2.61.09,48.35,1.74c-13.15-.47-25.17,34.09-27.63,78.28h-.06l-5,139.55c-6.77-.58-6.27-16.54-13.2-16.79s-7.59,16.06-14.59,15.81-6.41-16.56-13.41-16.82-7.59,16.06-14.59,15.81a4.1,4.1,0,0,1-1.51-.35l5-139.91Z" transform="translate(1785.2 1389.06)"/><polygon class="cls-59" points="2517.18 2010.59 2637.76 1992.27 2796.51 2070.12 2653.03 2088.43 2517.18 2010.59"/><polygon class="cls-60" points="2671.34 2099.27 2517.18 2010.59 2517.18 2343.34 2651.5 2436.45 2671.34 2436.45 2671.34 2099.27"/><polygon points="2796.51 2424.24 2653.03 2436.45 2653.03 2088.43 2796.51 2070.12 2796.51 2424.24"/><path class="cls-28" d="M1057.73,1088.37a128,128,0,0,1-52.2,11.6,130.23,130.23,0,0,1-54.19-11.6q6-137.6,5.8-286.35c-.15-90.06-2.29-177.21-5.8-261.16a176.86,176.86,0,0,0,46.4,5.8,186.12,186.12,0,0,0,44.57-5.8q-1.6,127.3,2,263.15C1046.74,902.15,1051.48,997.09,1057.73,1088.37Z" transform="translate(1785.2 1389.06)"/><path class="cls-52" d="M1041.85,545.76c-3.51,0-11.14,42.28-30.68,247.27q-9.39,112.19-18.93,224.38v83.8a92,92,0,0,0,36.48.15,98,98,0,0,0,29.15-10.68c-4.73-62.89-10.84-158.13-13.13-274.75C1041.54,655.36,1045.36,545.76,1041.85,545.76Z" transform="translate(1785.2 1389.06)"/><ellipse class="cls-68" cx="2780.21" cy="1940.75" rx="45.49" ry="10.68"/><path class="cls-69" d="M678.39,1274.32c2.71-45.76,15.8-81.43,30.2-80.91l7,.25,2.87.1,53.2,1.91c-14.48-.52-27.63,35.5-30.24,81.58h-.07l-5.24,145.53c-7.45-.62-6.94-17.27-14.56-17.54s-8.31,16.74-16,16.46-7.09-17.29-14.79-17.57-8.32,16.73-16,16.46a4.73,4.73,0,0,1-1.66-.37l5.25-145.91Z" transform="translate(1785.2 1389.06)"/><ellipse class="cls-66" cx="1381.12" cy="1075.5" rx="57.17" ry="29.39" transform="translate(1684.59 1532.52) rotate(-5.74)"/><ellipse class="cls-66" cx="1144.2" cy="1008.25" rx="28.58" ry="17.41" transform="translate(1690.13 1508.5) rotate(-5.74)"/><polygon class="cls-33" points="2925.58 2212.11 2962.58 2251.61 2901.98 2212.11 2925.58 2212.11"/><path class="cls-35" d="M1132.79,890.05a34.75,34.75,0,0,1-15.3-6.4,25.31,25.31,0,0,1-6.1-6.4h-9.2a42.5,42.5,0,0,0,9.2,10.8,54.16,54.16,0,0,0,17,9.6C1129.79,895.15,1131.29,892.55,1132.79,890.05Z" transform="translate(1785.2 1389.06)"/><path class="cls-34" d="M1122,906c-.9,5.3-2,12.7-3,21.7-.6,6-1.4,15.2-1.8,36.2-.2,10.6-.3,24.3,0,40.5a10.59,10.59,0,0,0,4.3,4.8,11.83,11.83,0,0,0,5.1,1.4A176.89,176.89,0,0,0,1136,966a170.82,170.82,0,0,0,0-26.8,82.65,82.65,0,0,1-8.7-15.1A79.58,79.58,0,0,1,1122,906Z" transform="translate(1785.2 1389.06)"/><path class="cls-36" d="M1139.39,858.75l-7.9,4.1a97.54,97.54,0,0,1-3.6,23.7,101.81,101.81,0,0,1-7.9,19.7,77.4,77.4,0,0,0,3.6,19.7,80.76,80.76,0,0,0,8.6,18.3,206.27,206.27,0,0,0,7.9-40A203.11,203.11,0,0,0,1139.39,858.75Z" transform="translate(1785.2 1389.06)"/><path class="cls-37" d="M1139.39,863.85a395.3,395.3,0,0,1-16.8,146.6,58.32,58.32,0,0,0,23,.6,52.86,52.86,0,0,0,17.8-6.4,174.4,174.4,0,0,1-11.1-29.3c-6.1-21.9-5.3-36.3-7.4-64.4C1144,899.75,1142.39,883.55,1139.39,863.85Z" transform="translate(1785.2 1389.06)"/><path class="cls-35" d="M1170.39,870.25a75.76,75.76,0,0,1-11.9,16.4,74.13,74.13,0,0,1-18.7,14.2v-5.7l23.9-24.9Z" transform="translate(1785.2 1389.06)"/><path class="cls-38" d="M1169.79,870.25h5a98.75,98.75,0,0,1-12.2,17.5,101.11,101.11,0,0,1-22.2,18.8v-7.4q8.25-7.95,16.5-16.2C1161.29,878.75,1165.59,874.55,1169.79,870.25Z" transform="translate(1785.2 1389.06)"/><polygon class="cls-39" points="2869.48 2229.31 2869.48 2237.61 2894.98 2244.01 2880.38 2232.51 2869.48 2229.31"/><polygon class="cls-40" points="2912.18 2248.71 2870.58 2237.61 2857.38 2254.31 2870.58 2261.21 2898.38 2261.21 2912.18 2248.71"/><polygon class="cls-41" points="2911.38 2246.91 2897.48 2259.51 2887.68 2259.51 2869.48 2259.51 2881.38 2267.21 2897.48 2267.21 2920.48 2252.51 2911.38 2246.91"/><polygon class="cls-42" points="2920.48 2251.61 2894.98 2244.01 2920.48 2219.11 2920.48 2251.61"/><polygon class="cls-43" points="2920.48 2219.11 2880.38 2212.81 2869.48 2219.11 2869.48 2229.31 2880.38 2232.51 2894.98 2244.01 2920.48 2219.11"/><polygon class="cls-44" points="2955.58 2212.81 2955.58 2203.81 2920.48 2193.01 2896.28 2198.11 2880.38 2212.81 2916.08 2219.11 2955.58 2212.81"/><polygon class="cls-33" points="2943.48 2237.61 2943.48 2244.01 2920.28 2251.31 2920.48 2219.11 2943.48 2237.61"/><polygon class="cls-45" points="2955.58 2212.81 2929.38 2217.21 2943.48 2237.61 2955.58 2224.91 2955.58 2212.81"/><polygon class="cls-46" points="2974.38 2229.31 2985.18 2229.31 2993.18 2237.01 2993.18 2242.81 2983.78 2251.11 2974.38 2256.91 2955.58 2259.31 2974.38 2244.01 2974.38 2229.31"/><polygon class="cls-47" points="2970.88 2229.31 2976.58 2229.31 2976.58 2237.61 2976.58 2249.11 2967.08 2252.91 2955.58 2259.31 2943.48 2259.31 2943.48 2252.91 2953.88 2247.91 2966.18 2237.31 2970.88 2229.31"/><polygon class="cls-46" points="2955.58 2212.81 2970.88 2212.81 2970.88 2229.31 2960.08 2247.81 2933.88 2252.91 2916.08 2252.91 2943.48 2242.71 2954.98 2224.21 2955.58 2212.81"/><polygon class="cls-36" points="2924.28 2252.91 2917.98 2328.21 2917.98 2365.81 2929.38 2293.71 2924.28 2252.91"/><polygon class="cls-46" points="2943.48 2244.01 2943.48 2237.61 2955.58 2224.91 2943.48 2244.01"/><path class="cls-32" d="M1101.14,1005.79" transform="translate(1785.2 1389.06)"/><path class="cls-37" d="M1329.39,951.3v57.16a90.93,90.93,0,0,0,86.14,0V951.3a84.2,84.2,0,0,1-86.14,0Z" transform="translate(1785.2 1389.06)"/><line class="cls-70" x1="3200.73" y1="2270.34" x2="3114.59" y2="2270.34"/><ellipse class="cls-71" cx="3157.66" cy="2337.05" rx="43.07" ry="18.36"/><line class="cls-70" x1="3157.36" y1="2343.47" x2="3157.66" y2="2271.99"/><path class="cls-58" d="M1329.39,1008.75v57.16a90.93,90.93,0,0,0,86.14,0v-57.16a84.2,84.2,0,0,1-86.14,0Z" transform="translate(1785.2 1389.06)"/><path class="cls-58" d="M1329.39,1212.72v57.15a90.94,90.94,0,0,0,86.14,0v-57.15a84.2,84.2,0,0,1-86.14,0Z" transform="translate(1785.2 1389.06)"/><path class="cls-58" d="M1329.39,1268.72v57.15a90.94,90.94,0,0,0,86.14,0v-57.15a84.2,84.2,0,0,1-86.14,0Z" transform="translate(1785.2 1389.06)"/><path class="cls-50" d="M1334.35,1268.72v50.57a80.46,80.46,0,0,0,76.21,0v-50.57a74.49,74.49,0,0,1-76.21,0Z" transform="translate(1785.2 1389.06)"/><ellipse class="cls-50" cx="3157.67" cy="2659.61" rx="38.09" ry="17.17"/><polyline class="cls-72" points="3157.36 2409.66 3148.43 2446.28 3156.99 2465.81"/><path class="cls-58" d="M1329.39,1156.72v57.15a90.94,90.94,0,0,0,86.14,0v-57.15a84.2,84.2,0,0,1-86.14,0Z" transform="translate(1785.2 1389.06)"/><polyline class="cls-72" points="3170.18 2556.69 3182.93 2601.78 3176.55 2613.78 3157.68 2659.61"/><ellipse class="cls-66" cx="2066.59" cy="681.1" rx="28.58" ry="17.41" transform="translate(1727.46 1599.07) rotate(-5.74)"/><polygon class="cls-33" points="3845.48 1885.11 3882.48 1924.61 3821.88 1885.11 3845.48 1885.11"/><path class="cls-35" d="M2052.69,563a34.75,34.75,0,0,1-15.3-6.4,25.31,25.31,0,0,1-6.1-6.4h-9.2a42.5,42.5,0,0,0,9.2,10.8,54.16,54.16,0,0,0,17,9.6C2049.69,568.15,2051.19,565.55,2052.69,563Z" transform="translate(1785.2 1389.06)"/><path class="cls-34" d="M2041.89,578.95c-.9,5.3-2,12.7-3,21.7-.6,6-1.4,15.2-1.8,36.2-.2,10.6-.3,24.3,0,40.5a10.59,10.59,0,0,0,4.3,4.8,11.83,11.83,0,0,0,5.1,1.4,176.89,176.89,0,0,0,9.4-44.6,170.82,170.82,0,0,0,0-26.8,82.65,82.65,0,0,1-8.7-15.1A79.58,79.58,0,0,1,2041.89,578.95Z" transform="translate(1785.2 1389.06)"/><path class="cls-36" d="M2059.29,531.75l-7.9,4.1a97.54,97.54,0,0,1-3.6,23.7,101.81,101.81,0,0,1-7.9,19.7,77.4,77.4,0,0,0,3.6,19.7,80.76,80.76,0,0,0,8.6,18.3,206.27,206.27,0,0,0,7.9-40A203.11,203.11,0,0,0,2059.29,531.75Z" transform="translate(1785.2 1389.06)"/><path class="cls-37" d="M2059.29,536.85a395.3,395.3,0,0,1-16.8,146.6,58.32,58.32,0,0,0,23,.6,52.86,52.86,0,0,0,17.8-6.4,174.4,174.4,0,0,1-11.1-29.3c-6.1-21.9-5.3-36.3-7.4-64.4C2063.89,572.75,2062.29,556.55,2059.29,536.85Z" transform="translate(1785.2 1389.06)"/><path class="cls-35" d="M2090.29,543.25a75.76,75.76,0,0,1-11.9,16.4,74.13,74.13,0,0,1-18.7,14.2v-5.7l23.9-24.9Z" transform="translate(1785.2 1389.06)"/><path class="cls-38" d="M2089.69,543.25h5a98.75,98.75,0,0,1-12.2,17.5,101.11,101.11,0,0,1-22.2,18.8v-7.4q8.25-7.95,16.5-16.2C2081.19,551.75,2085.49,547.55,2089.69,543.25Z" transform="translate(1785.2 1389.06)"/><polygon class="cls-39" points="3789.38 1902.31 3789.38 1910.61 3814.88 1917.01 3800.28 1905.51 3789.38 1902.31"/><polygon class="cls-40" points="3832.08 1921.71 3790.48 1910.61 3777.28 1927.31 3790.48 1934.21 3818.28 1934.21 3832.08 1921.71"/><polygon class="cls-41" points="3831.28 1919.91 3817.38 1932.51 3807.58 1932.51 3789.38 1932.51 3801.28 1940.21 3817.38 1940.21 3840.38 1925.51 3831.28 1919.91"/><polygon class="cls-42" points="3840.38 1924.61 3814.88 1917.01 3840.38 1892.11 3840.38 1924.61"/><polygon class="cls-43" points="3840.38 1892.11 3800.28 1885.81 3789.38 1892.11 3789.38 1902.31 3800.28 1905.51 3814.88 1917.01 3840.38 1892.11"/><polygon class="cls-44" points="3875.48 1885.81 3875.48 1876.81 3840.38 1866.01 3816.18 1871.11 3800.28 1885.81 3835.98 1892.11 3875.48 1885.81"/><polygon class="cls-33" points="3863.38 1910.61 3863.38 1917.01 3840.18 1924.31 3840.38 1892.11 3863.38 1910.61"/><polygon class="cls-45" points="3875.48 1885.81 3849.28 1890.21 3863.38 1910.61 3875.48 1897.91 3875.48 1885.81"/><polygon class="cls-46" points="3894.28 1902.31 3905.08 1902.31 3913.08 1910.01 3913.08 1915.81 3903.68 1924.11 3894.28 1929.91 3875.48 1932.31 3894.28 1917.01 3894.28 1902.31"/><polygon class="cls-47" points="3890.78 1902.31 3896.48 1902.31 3896.48 1910.61 3896.48 1922.11 3886.98 1925.91 3875.48 1932.31 3863.38 1932.31 3863.38 1925.91 3873.78 1920.91 3886.08 1910.31 3890.78 1902.31"/><polygon class="cls-46" points="3875.48 1885.81 3890.78 1885.81 3890.78 1902.31 3879.98 1920.81 3853.78 1925.91 3835.98 1925.91 3863.38 1915.71 3874.88 1897.21 3875.48 1885.81"/><polygon class="cls-36" points="3844.18 1925.91 3837.88 2001.21 3837.88 2038.81 3849.28 1966.71 3844.18 1925.91"/><polygon class="cls-46" points="3863.38 1917.01 3863.38 1910.61 3875.48 1897.91 3863.38 1917.01"/><path class="cls-32" d="M2021,678.78" transform="translate(1785.2 1389.06)"/><ellipse class="cls-66" cx="1652.14" cy="801.44" rx="28.58" ry="17.41" transform="translate(1713.35 1558.24) rotate(-5.74)"/><polygon class="cls-33" points="3430.63 2005.25 3467.63 2044.75 3407.03 2005.25 3430.63 2005.25"/><path class="cls-35" d="M1637.84,683.19a34.75,34.75,0,0,1-15.3-6.4,25.31,25.31,0,0,1-6.1-6.4h-9.2a42.5,42.5,0,0,0,9.2,10.8,54.16,54.16,0,0,0,17,9.6C1634.84,688.29,1636.34,685.69,1637.84,683.19Z" transform="translate(1785.2 1389.06)"/><path class="cls-34" d="M1627,699.09c-.9,5.3-2,12.7-3,21.7-.6,6-1.4,15.2-1.8,36.2-.2,10.6-.3,24.3,0,40.5a10.59,10.59,0,0,0,4.3,4.8,11.83,11.83,0,0,0,5.1,1.4,176.89,176.89,0,0,0,9.4-44.6,170.82,170.82,0,0,0,0-26.8,82.65,82.65,0,0,1-8.7-15.1A79.58,79.58,0,0,1,1627,699.09Z" transform="translate(1785.2 1389.06)"/><path class="cls-36" d="M1644.44,651.89l-7.9,4.1a97.54,97.54,0,0,1-3.6,23.7,101.81,101.81,0,0,1-7.9,19.7,77.4,77.4,0,0,0,3.6,19.7,80.76,80.76,0,0,0,8.6,18.3,206.27,206.27,0,0,0,7.9-40A203.11,203.11,0,0,0,1644.44,651.89Z" transform="translate(1785.2 1389.06)"/><path class="cls-37" d="M1644.44,657a395.3,395.3,0,0,1-16.8,146.6,58.32,58.32,0,0,0,23,.6,52.86,52.86,0,0,0,17.8-6.4,174.4,174.4,0,0,1-11.1-29.3c-6.1-21.9-5.3-36.3-7.4-64.4C1649,692.89,1647.44,676.69,1644.44,657Z" transform="translate(1785.2 1389.06)"/><path class="cls-35" d="M1675.44,663.39a75.76,75.76,0,0,1-11.9,16.4,74.13,74.13,0,0,1-18.7,14.2v-5.7l23.9-24.9Z" transform="translate(1785.2 1389.06)"/><path class="cls-38" d="M1674.84,663.39h5a98.75,98.75,0,0,1-12.2,17.5,101.11,101.11,0,0,1-22.2,18.8v-7.4q8.25-7.95,16.5-16.2C1666.34,671.89,1670.64,667.69,1674.84,663.39Z" transform="translate(1785.2 1389.06)"/><polygon class="cls-39" points="3374.53 2022.45 3374.53 2030.75 3400.03 2037.15 3385.43 2025.65 3374.53 2022.45"/><polygon class="cls-40" points="3417.23 2041.85 3375.63 2030.75 3362.43 2047.45 3375.63 2054.35 3403.43 2054.35 3417.23 2041.85"/><polygon class="cls-41" points="3416.43 2040.05 3402.53 2052.65 3392.73 2052.65 3374.53 2052.65 3386.43 2060.35 3402.53 2060.35 3425.53 2045.65 3416.43 2040.05"/><polygon class="cls-42" points="3425.53 2044.75 3400.03 2037.15 3425.53 2012.25 3425.53 2044.75"/><polygon class="cls-43" points="3425.53 2012.25 3385.43 2005.95 3374.53 2012.25 3374.53 2022.45 3385.43 2025.65 3400.03 2037.15 3425.53 2012.25"/><polygon class="cls-44" points="3460.63 2005.95 3460.63 1996.95 3425.53 1986.15 3401.33 1991.25 3385.43 2005.95 3421.13 2012.25 3460.63 2005.95"/><polygon class="cls-33" points="3448.53 2030.75 3448.53 2037.15 3425.33 2044.45 3425.53 2012.25 3448.53 2030.75"/><polygon class="cls-45" points="3460.63 2005.95 3434.43 2010.35 3448.53 2030.75 3460.63 2018.05 3460.63 2005.95"/><polygon class="cls-46" points="3479.43 2022.45 3490.23 2022.45 3498.23 2030.15 3498.23 2035.95 3488.83 2044.25 3479.43 2050.05 3460.63 2052.45 3479.43 2037.15 3479.43 2022.45"/><polygon class="cls-47" points="3475.93 2022.45 3481.63 2022.45 3481.63 2030.75 3481.63 2042.25 3472.13 2046.05 3460.63 2052.45 3448.53 2052.45 3448.53 2046.05 3458.93 2041.05 3471.23 2030.45 3475.93 2022.45"/><polygon class="cls-46" points="3460.63 2005.95 3475.93 2005.95 3475.93 2022.45 3465.13 2040.95 3438.93 2046.05 3421.13 2046.05 3448.53 2035.85 3460.03 2017.35 3460.63 2005.95"/><polygon class="cls-36" points="3429.33 2046.05 3423.03 2121.35 3423.03 2158.95 3434.43 2086.85 3429.33 2046.05"/><polygon class="cls-46" points="3448.53 2037.15 3448.53 2030.75 3460.63 2018.05 3448.53 2037.15"/><path class="cls-32" d="M1606.19,798.93" transform="translate(1785.2 1389.06)"/><path class="cls-1" d="M361.8-1143.77l299,117-199,67,104,48-292,77q-95.55,66-191,132-99.45-31-199-62l-91,31h-124l-60,31-240,35-270,7-386-100-112,19-243-122-143-115,63-104,312-8,67-39,297-32,130-61,312-11,98,45,88-15,92,6,88,13Z" transform="translate(1785.2 1389.06)"/><polygon class="cls-2" points="2446 362.29 2414 389.29 2268.9 439.39 2247 429.29 2446 362.29"/><polygon class="cls-2" points="2347 477.29 2332 495.29 2063 567.29 2039.1 567.29 2059 554.29 2347 477.29"/><polygon class="cls-3" points="2400.1 394.09 2367 433.29 2298 452.79 2269 439.29 2400.1 394.09"/><polygon class="cls-4" points="2318 514.29 2048 586.29 1985 620.29 1860 705.29 1868 686.29 2039 567.29 2335 495.29 2318 514.29"/><polygon class="cls-5" points="2032 592.89 2003 711.29 1893 751.29 1940 703.29 1962.5 633.59 2032 592.89"/><polygon class="cls-6" points="1962 635.29 1860 705.29 1802 695.29 1722 844.29 1940 705.29 1962 635.29"/><polygon class="cls-7" points="1940 703.29 1722 842.29 1697 902.29 2003 711.29 1893 751.29 1940 703.29"/><polygon class="cls-4" points="1860 705.29 1669 672.29 1669 643.29 1868 686.29 1860 705.29"/><polygon class="cls-2" points="1868 686.29 1713.4 652.89 1669 643.29 1868 686.29"/><polygon class="cls-7" points="1697 902.29 1605 982.29 1494 1059.29 1318 1113.29 1213 1182.29 1113 1102.29 1095 1141.29 952 1020.29 856 964.29 789 935.29 639 844.29 507 753.29 463 674.29 525 664.29 878 745.29 1057 739.29 1167 751.29 1387 705.29 1459 693.29 1579 691.29 1655 664.29 1669 672.29 1802 695.29 1697 902.29"/><polygon class="cls-8" points="1669 643.29 1585 672.29 1459 672.29 1387 705.29 1185 728.29 1110 728.29 1390 686.29 1454 655.29 1578 655.29 1669 624.29 1868 686.29 1669 624.29 1669 643.29"/><polygon class="cls-5" points="1697 649.39 1868 686.29 1669 624.29 1669 643.29 1585 672.29 1459 672.29 1387 705.29 1579 694.29 1669 672.29 1697 649.39"/><polygon class="cls-9" points="1126.3 725.89 1094 722.89 884 728.29 512 643.29 401 664.29 417 676.29 507.5 666.09 878 745.29 1057 739.29 1126.3 725.89"/><polygon class="cls-8" points="386 647.29 401 664.29 512 643.29 884 728.29 498 624.29 386 647.29"/><polygon class="cls-5" points="1387 705.29 1167 751.29 1057 739.29 1126 728.29 1387 705.29"/><polygon class="cls-5" points="1132.5 745.29 1017 740.59 1094 723.29 1126 728.29 1132.5 745.29"/><polyline class="cls-1" points="1094 723.29 1126 728.29 1154 721.29 1110 694.29"/><polygon class="cls-6" points="1703.4 869.99 1632.9 957.59 1505.7 1013.39 1628 868.39 1706.3 844.19 1703.4 869.99"/><polygon class="cls-6" points="507 665.29 559 723.29 507 705.29 463 674.29 507 665.29"/><polygon class="cls-6" points="463 674.29 445 665.29 511 665.29 463 674.29"/><polygon class="cls-6" points="1539 734.29 1437 745.29 1376 878.29 1268 1037.29 1384 983.29 1510 895.29 1503 818.29 1539 734.29"/><polygon class="cls-8" points="1669 643.29 1697 647.29 1868 686.29 1669 624.29 1669 643.29"/><polygon class="cls-10" points="1802 694.29 1712.9 679.59 1676 779.29 1722 842.29 1802 694.29"/><polygon class="cls-11" points="1722 842.29 1697 902.29 1676 779.29 1722 842.29"/><polygon class="cls-12" points="1713 679.29 1669 672.29 1662 761.29 1676 779.29 1713 679.29"/><polygon class="cls-11" points="1802 694.29 1848.4 703.29 1722 842.29 1802 694.29"/><polygon class="cls-13" points="1318 1113.29 1489 1059.29 1697 902.29 1676 779.29 1613 913.29 1318 1113.29"/><polygon class="cls-14" points="1571 812.29 1613 913.29 1676 779.29 1662 761.29 1571 812.29"/><polygon class="cls-10" points="1662 761.29 1571 812.29 1553 786.29 1560.2 694.29 1655 664.29 1669 672.29 1662 761.29"/><polygon class="cls-15" points="1552.3 823.89 1482.2 851.29 1446 813.99 1543.9 694.29 1560 694.29 1552.3 823.89"/><polygon class="cls-16" points="1611 913.29 1560 886.29 1526 913.29 1560 949.19 1611 913.29"/><polygon class="cls-17" points="1611 913.29 1571 812.29 1560 886.29 1611 913.29"/><polygon class="cls-18" points="1318 837.29 1229.2 738.29 1167 751.29 1074.7 739.79 1110 779.29 1302 939.29 1318 837.29"/><polygon class="cls-19" points="1368.3 711.29 1318 837.29 1229 738.29 1368.3 711.29"/><polygon class="cls-17" points="1066 751.29 991 837.29 1274 1013.29 1066 751.29"/><polygon class="cls-20" points="991 837.29 1174 1023.29 1274 1013.29 991 837.29"/><polygon class="cls-21" points="1174 1023.29 1126 1013.29 976 902.29 991 837.29 1174 1023.29"/><polygon class="cls-22" points="1383 982.29 1274 1013.29 1299 939.29 1383 982.29"/><polygon class="cls-23" points="1383 1058.29 1383 982.29 1274 1013.29 1274 1094.29 1213 1182.29 1318 1113.29 1383 1058.29"/><polygon class="cls-24" points="949.4 745.29 991 837.29 976 902.29 970 862.29 844 829.29 803.9 728.29 878 745.29 949.4 745.29"/><polygon class="cls-6" points="976 902.29 897 886.29 812 868.29 783 840.29 783 815.29 812 815.29 844 829.29 887.9 840.79 970 862.29 976 902.29"/><polygon class="cls-25" points="635 844.29 783 841.29 783 815.29 812 815.29 833.5 824.69 804 728.29 763.6 723.29 525 664.29 463 674.29 511 753.29 635 844.29"/><polygon class="cls-18" points="812 867.19 789 935.29 635 844.19 783 841.29 812 867.19"/><polygon class="cls-7" points="1274 1082.29 1232.8 1153.69 1190 1143.29 1168 1118.29 1101 1062.29 951 966.29 862 913.29 976 902.29 1160 1044.29 1274 1082.29"/><polygon class="cls-26" points="1229 1153.29 1213 1182.29 1110 1102.29 949 1000.29 949 966.29 1168 1113.29 1229 1153.29"/><polygon class="cls-27" points="1110 1102.29 1094 1141.29 906 982.29 789 935.29 949 1000.29 1110 1102.29"/><ellipse class="cls-28" cx="765.73" cy="780.16" rx="35.5" ry="48"/><ellipse class="cls-28" cx="758.73" cy="780.16" rx="35.5" ry="48"/><ellipse class="cls-28" cx="751.73" cy="780.16" rx="35.5" ry="48"/><ellipse class="cls-28" cx="736.73" cy="780.16" rx="35.5" ry="48"/><ellipse class="cls-28" cx="729.73" cy="780.16" rx="35.5" ry="48"/><ellipse class="cls-28" cx="722.73" cy="780.16" rx="35.5" ry="48"/><ellipse class="cls-28" cx="707.73" cy="780.16" rx="35.5" ry="48"/><ellipse class="cls-28" cx="700.73" cy="780.16" rx="35.5" ry="48"/><ellipse class="cls-28" cx="693.73" cy="780.16" rx="35.5" ry="48"/><ellipse class="cls-28" cx="693.73" cy="780.16" rx="35.5" ry="48"/><ellipse class="cls-28" cx="686.73" cy="780.16" rx="35.5" ry="48"/><ellipse class="cls-28" cx="679.73" cy="780.16" rx="35.5" ry="48"/><ellipse class="cls-29" cx="671.23" cy="780.66" rx="35.5" ry="48"/><path class="cls-30" d="M112.35-1045.61c-.5,15.7,70,34.7,133.7,34.8,64.6.1,135.7-19.1,135.2-34.8-.5-16.1-76.1-28.5-134.5-28.5S112.85-1061.71,112.35-1045.61Z" transform="translate(1785.2 1389.06)"/><line class="cls-31" x1="2031.65" y1="343.85" x2="1930.85" y2="324.55"/><path class="cls-32" d="M112.35-1017.41c-.9,3.2,58.1,34.6,133.7,34.8,76.4.2,136.1-31.6,135.2-34.8s-55,20.3-136,20C166.05-997.71,113.15-1020.41,112.35-1017.41Z" transform="translate(1785.2 1389.06)"/><path class="cls-32" d="M381.65-1045.61v28.2l-125.2,28.9L112-1017.41l.4-25a218.81,218.81,0,0,0,41.9,19.8c37.2,13,68.1,12.6,97.1,11.9,27.8-.7,57.3-1.7,92.6-15.6A222.28,222.28,0,0,0,381.65-1045.61Z" transform="translate(1785.2 1389.06)"/><path class="cls-32" d="M-949.8-1154.17" transform="translate(1785.2 1389.06)"/><polygon class="cls-33" points="1081.76 64.53 1131.59 113.62 1050.12 64.53 1081.76 64.53"/><path class="cls-34" d="M-862-1148" transform="translate(1785.2 1389.06)"/><path class="cls-35" d="M-713.64-1241.4a48.34,48.34,0,0,1-20.58-7.92,35.8,35.8,0,0,1-8.23-7.92h-12.35a53.46,53.46,0,0,0,12.35,13.46,71.81,71.81,0,0,0,22.9,11.88Z" transform="translate(1785.2 1389.06)"/><path class="cls-34" d="M-728.13-1221.6c-1.2,6.49-2.74,15.76-4,26.92-.86,7.44-1.89,18.84-2.4,45-.26,13.14-.43,30.25,0,50.28a12.91,12.91,0,0,0,5.83,5.94,17.25,17.25,0,0,0,6.86,1.74,203.82,203.82,0,0,0,12.69-55.42,195.19,195.19,0,0,0,0-33.25,99,99,0,0,1-11.66-18.76A85.88,85.88,0,0,1-728.13-1221.6Z" transform="translate(1785.2 1389.06)"/><path class="cls-36" d="M-704.72-1280.19l-10.63,5.07a114.81,114.81,0,0,1-4.8,29.45,118.18,118.18,0,0,1-10.63,24.39,90.3,90.3,0,0,0,4.8,24.39,97.31,97.31,0,0,0,11.58,22.72,241.86,241.86,0,0,0,10.63-49.64A231,231,0,0,0-704.72-1280.19Z" transform="translate(1785.2 1389.06)"/><path class="cls-37" d="M-704.72-1273.86a453.19,453.19,0,0,1-1.63,88.68,464.66,464.66,0,0,1-20.93,93.43,84.55,84.55,0,0,0,31,.79,77,77,0,0,0,23.93-7.92,215.66,215.66,0,0,1-15-36.42c-8.15-27.24-7.12-45.05-9.95-80C-698.63-1229.36-700.69-1249.47-704.72-1273.86Z" transform="translate(1785.2 1389.06)"/><path class="cls-35" d="M-663-1265.94a96,96,0,0,1-16,20.35,102.51,102.51,0,0,1-25.13,17.66v-7l32.16-30.88Z" transform="translate(1785.2 1389.06)"/><path class="cls-38" d="M-663.81-1265.94H-657a117.56,117.56,0,0,1-16.38,21.69,133.62,133.62,0,0,1-29.93,23.44V-1230l22.21-20C-675.3-1255.33-669.56-1260.64-663.81-1265.94Z" transform="translate(1785.2 1389.06)"/><polygon class="cls-39" points="1006.38 85.91 1006.38 96.2 1040.68 104.12 1020.96 89.86 1006.38 85.91"/><polygon class="cls-40" points="1063.84 109.98 1007.83 96.2 990.08 116.86 1007.83 125.49 1045.14 125.49 1063.84 109.98"/><polygon class="cls-41" points="1062.81 107.76 1043.94 123.36 1030.82 123.36 1006.38 123.36 1022.33 132.94 1043.94 132.94 1074.99 114.73 1062.81 107.76"/><polygon class="cls-42" points="1074.99 113.62 1040.68 104.12 1074.99 73.24 1074.99 113.62"/><polygon class="cls-43" points="1074.99 73.24 1020.96 65.32 1006.38 73.24 1006.38 85.91 1020.96 89.86 1040.68 104.12 1074.99 73.24"/><polygon class="cls-44" points="1122.16 65.32 1122.16 54.24 1074.99 40.78 1042.4 47.11 1020.96 65.32 1068.98 73.24 1122.16 65.32"/><polygon class="cls-33" points="1105.86 96.2 1105.86 104.12 1074.73 113.22 1074.99 73.24 1105.86 96.2"/><polygon class="cls-45" points="1122.16 65.32 1086.99 70.86 1105.86 96.2 1122.16 80.36 1122.16 65.32"/><polygon class="cls-46" points="1147.46 85.91 1162.04 85.91 1172.76 95.41 1172.76 102.69 1160.07 112.91 1147.46 120.19 1122.16 123.12 1147.46 104.12 1147.46 85.91"/><polygon class="cls-47" points="1142.74 85.91 1150.46 85.91 1150.46 96.2 1150.46 110.45 1137.6 115.2 1122.16 123.12 1105.86 123.12 1105.86 115.2 1119.93 108.95 1136.48 95.8 1142.74 85.91"/><polygon class="cls-46" points="1122.16 65.32 1142.74 65.32 1142.74 85.91 1128.16 108.87 1093 115.2 1068.98 115.2 1105.86 102.53 1121.3 79.57 1122.16 65.32"/><polygon class="cls-36" points="1080.13 115.2 1071.56 208.63 1071.56 255.42 1086.99 165.87 1080.13 115.2"/><polygon class="cls-46" points="1105.86 104.12 1105.86 96.2 1122.16 80.36 1105.86 104.12"/><path class="cls-48" d="M386.5-1020.08c-2.3-2.7-16.1,6.2-30.5,13.3-28.6,14.1-53.8,16.6-79,19-71.8,6.9-126.9-16-131.8-18.2,0,0-13.6-6.1-24.2-10.1h0s12.6,6.6,32,14.8c16.1,6.8,41.9,17.7,73,24.4h0c94.2,20.9,129.4-5,141-16C374.3-999.78,389.1-1016.88,386.5-1020.08Z" transform="translate(1785.2 1389.06)"/><path class="cls-49" d="M-1468.7-1034.77" transform="translate(1785.2 1389.06)"/><g id="Meer-3" data-name="Meer"><polygon class="cls-50" points="306.09 302.29 360.27 409.49 421.65 451.17 457.73 506.69 469.5 550.6 368.44 565.29 149.01 471.93 19.93 378.65 76.83 306.13 306.09 302.29"/></g><path class="cls-51" d="M-1260.25-984.44l8.85,2v14.19a36,36,0,0,1-9.47,8.72,39.17,39.17,0,0,1-16.69,5.77,121.31,121.31,0,0,1-24.09-.79,119.79,119.79,0,0,1-26.07-6.51,41.52,41.52,0,0,1-1.22-13.13,41.42,41.42,0,0,1,1.41-8.26l9.13-2.35a17.42,17.42,0,0,0,6.78,7.21c.65.38,14.17,2.22,15.81,1.73A61.16,61.16,0,0,0-1275-978,59,59,0,0,0-1260.25-984.44Z" transform="translate(1785.2 1389.06)"/><path class="cls-51" d="M-1180.59-1083.61l7.93,2v14.19a34,34,0,0,1-8.49,8.72,32.68,32.68,0,0,1-15,5.77,97.5,97.5,0,0,1-21.59-.79,98.4,98.4,0,0,1-23.36-6.51,46.14,46.14,0,0,1-1.1-13.13,45.8,45.8,0,0,1,1.26-8.26l8.18-2.35a16.9,16.9,0,0,0,6.07,7.21c.59.38,12.69,2.22,14.17,1.73a49.36,49.36,0,0,0,18.66-2.14A50.27,50.27,0,0,0-1180.59-1083.61Z" transform="translate(1785.2 1389.06)"/><polygon class="cls-33" points="578.63 93.74 620.29 140.16 551.99 93.74 578.63 93.74"/><path class="cls-35" d="M-1215.16-1216.72a37.47,37.47,0,0,1-17.2-7.56,27.7,27.7,0,0,1-6.91-7.56h-10.29a45,45,0,0,0,10.29,12.66,59.35,59.35,0,0,0,19.23,11.25C-1218.54-1210.57-1216.85-1213.73-1215.16-1216.72Z" transform="translate(1785.2 1389.06)"/><path class="cls-34" d="M-1227.31-1197.91c-1,6.15-2.36,14.95-3.37,25.5-.67,7-1.52,17.76-2,42.55-.17,12.48-.34,28.66,0,47.65a10.6,10.6,0,0,0,4.89,5.63,11.12,11.12,0,0,0,5.73,1.58,209.2,209.2,0,0,0,10.63-52.4,217.18,217.18,0,0,0,0-31.47,96.1,96.1,0,0,1-9.78-17.76A89.85,89.85,0,0,1-1227.31-1197.91Z" transform="translate(1785.2 1389.06)"/><path class="cls-36" d="M-1207.74-1253.29l-8.94,4.75a120.6,120.6,0,0,1-4,28,110.25,110.25,0,0,1-8.94,23,98.48,98.48,0,0,0,4,23,92.55,92.55,0,0,0,9.78,21.45,252.16,252.16,0,0,0,8.94-46.95A236.78,236.78,0,0,0-1207.74-1253.29Z" transform="translate(1785.2 1389.06)"/><path class="cls-37" d="M-1207.74-1247.32a490.27,490.27,0,0,1-1.35,83.87,498.84,498.84,0,0,1-17.54,88.45,62.63,62.63,0,0,0,26,.7,60.18,60.18,0,0,0,20.07-7.56,205.77,205.77,0,0,1-12.48-34.46c-6.91-25.85-5.9-42.73-8.43-75.79C-1202.51-1205.29-1204.37-1224.28-1207.74-1247.32Z" transform="translate(1785.2 1389.06)"/><path class="cls-35" d="M-1172.66-1239.93a85.62,85.62,0,0,1-13.49,19.17,83.92,83.92,0,0,1-21.08,16.7v-6.68l27-29.19Z" transform="translate(1785.2 1389.06)"/><path class="cls-38" d="M-1173.34-1239.93h5.73a117.53,117.53,0,0,1-13.83,20.57,111,111,0,0,1-25.13,22.16V-1206c6.24-6.33,12.31-12.66,18.55-19C-1183.12-1229.91-1178.23-1234.83-1173.34-1239.93Z" transform="translate(1785.2 1389.06)"/><polygon class="cls-39" points="515.39 113.96 515.39 123.63 544.23 131.19 527.53 117.65 515.39 113.96"/><polygon class="cls-40" points="563.62 136.82 516.57 123.63 501.73 143.32 516.57 151.41 547.94 151.41 563.62 136.82"/><polygon class="cls-41" points="562.61 134.71 546.93 149.48 535.79 149.48 515.39 149.48 528.71 158.45 546.93 158.45 572.9 141.22 562.61 134.71"/><polygon class="cls-42" points="572.9 140.16 544.23 131.19 572.9 102 572.9 140.16"/><polygon class="cls-43" points="572.9 102 527.53 94.44 515.39 102 515.39 113.96 527.53 117.65 544.23 131.19 572.9 102"/><polygon class="cls-44" points="612.53 94.44 612.53 83.89 572.9 71.23 545.58 77.21 527.53 94.44 567.84 102 612.53 94.44"/><polygon class="cls-33" points="598.87 123.63 598.87 131.19 572.73 139.81 572.9 102 598.87 123.63"/><polygon class="cls-45" points="612.53 94.44 583.02 99.72 598.87 123.63 612.53 108.69 612.53 94.44"/><polygon class="cls-46" points="624.59 130.89 637.36 130.89 646.63 140.19 646.63 147.3 635.61 157.34 624.59 164.63 602.73 167.37 624.59 148.76 624.59 130.89"/><polygon class="cls-47" points="620.57 130.89 627.22 130.89 627.22 140.92 627.22 154.96 616.02 159.71 602.73 167.37 588.56 167.37 588.56 159.71 600.63 153.5 615.14 140.56 620.57 130.89"/><polygon class="cls-46" points="612.53 94.44 629.74 94.44 629.74 113.96 617.42 135.76 588.08 141.74 567.84 141.74 598.87 129.61 611.69 107.98 612.53 94.44"/><polygon class="cls-36" points="577.12 141.74 570.03 230.19 570.03 274.32 583.02 189.57 577.12 141.74"/><polygon class="cls-33" points="497.68 147.37 547.77 203.11 465.97 147.37 497.68 147.37"/><path class="cls-35" d="M-1297.81-1147.27a46.51,46.51,0,0,1-20.75-9,39.22,39.22,0,0,1-8.26-9h-12.31a66.83,66.83,0,0,0,12.31,15.3,70.81,70.81,0,0,0,23.11,13.54C-1301.69-1140.23-1299.66-1143.75-1297.81-1147.27Z" transform="translate(1785.2 1389.06)"/><path class="cls-34" d="M-1312.31-1124.93c-1.18,7.39-2.7,17.94-4,30.6-.84,8.44-1.86,21.28-2.36,51-.34,14.95-.34,34.29,0,57.15a14.1,14.1,0,0,0,5.9,6.86,15,15,0,0,0,6.91,1.93,256.49,256.49,0,0,0,12.65-62.95,256.44,256.44,0,0,0,0-37.8,123.05,123.05,0,0,1-11.81-21.28A106,106,0,0,1-1312.31-1124.93Z" transform="translate(1785.2 1389.06)"/><path class="cls-36" d="M-1288.87-1191.4l-10.63,5.8a136.11,136.11,0,0,1-4.89,33.41,150.68,150.68,0,0,1-10.63,27.78,112,112,0,0,0,4.89,27.78,113.74,113.74,0,0,0,11.64,25.85,296.94,296.94,0,0,0,10.63-56.44A292.58,292.58,0,0,0-1288.87-1191.4Z" transform="translate(1785.2 1389.06)"/><path class="cls-37" d="M-1288.87-1184.19a584.43,584.43,0,0,1-1.69,100.58,589.44,589.44,0,0,1-21.08,106,76.76,76.76,0,0,0,31,.88,72.27,72.27,0,0,0,24.12-9,247,247,0,0,1-15-41.32c-8.26-30.95-7.08-51.17-10-90.73C-1282.63-1133.73-1284.82-1156.41-1288.87-1184.19Z" transform="translate(1785.2 1389.06)"/><path class="cls-35" d="M-1246.87-1175.22a110.34,110.34,0,0,1-16.19,23,103.45,103.45,0,0,1-25.3,20v-8.09l32.21-35Z" transform="translate(1785.2 1389.06)"/><path class="cls-38" d="M-1247.71-1175.22h6.75a132.75,132.75,0,0,1-16.53,24.62,140,140,0,0,1-30,26.55v-10.37l22.26-22.68C-1259.35-1163.27-1253.45-1169.24-1247.71-1175.22Z" transform="translate(1785.2 1389.06)"/><polygon class="cls-39" points="421.95 171.63 421.95 183.24 456.36 192.38 436.62 176.21 421.95 171.63"/><polygon class="cls-40" points="479.63 198.89 423.47 183.24 405.59 206.8 423.47 216.65 460.91 216.65 479.63 198.89"/><polygon class="cls-41" points="478.62 196.43 459.73 214.19 446.57 214.19 421.95 214.19 437.97 224.91 459.73 224.91 490.93 204.34 478.62 196.43"/><polygon class="cls-42" points="490.93 203.11 456.36 192.38 490.93 157.22 490.93 203.11"/><polygon class="cls-43" points="490.93 157.22 436.62 148.25 421.95 157.22 421.95 171.63 436.62 176.21 456.36 192.38 490.93 157.22"/><polygon class="cls-44" points="538.32 148.25 538.32 135.76 490.93 120.47 458.21 127.68 436.62 148.25 484.86 157.22 538.32 148.25"/><polygon class="cls-33" points="893.94 0 936.22 41.73 867.01 0 893.94 0"/><polygon class="cls-33" points="521.97 183.24 521.97 192.38 490.59 202.58 490.93 157.22 521.97 183.24"/><path class="cls-35" d="M-900-1318.43a42.38,42.38,0,0,1-17.5-6.73,32.48,32.48,0,0,1-7-6.73H-935a46.18,46.18,0,0,0,10.46,11.4,60.27,60.27,0,0,0,19.47,10.06C-903.35-1313-901.64-1315.74-900-1318.43Z" transform="translate(1785.2 1389.06)"/><path class="cls-34" d="M-912.36-1301.57c-1,5.54-2.32,13.38-3.43,22.88-.69,6.33-1.63,16-2.06,38.16-.26,11.16-.34,25.65,0,42.76a11,11,0,0,0,5,5.07,12.47,12.47,0,0,0,5.83,1.43,174.79,174.79,0,0,0,10.81-47.11,172.33,172.33,0,0,0,0-28.27,88.71,88.71,0,0,1-9.95-15.91A79.13,79.13,0,0,1-912.36-1301.57Z" transform="translate(1785.2 1389.06)"/><path class="cls-36" d="M-892.37-1351.37l-9,4.28a92,92,0,0,1-4.12,25,105.71,105.71,0,0,1-9,20.74,73.5,73.5,0,0,0,4.12,20.74,79.34,79.34,0,0,0,9.86,19.32,203.73,203.73,0,0,0,9-42.2A201.17,201.17,0,0,0-892.37-1351.37Z" transform="translate(1785.2 1389.06)"/><path class="cls-37" d="M-892.37-1346a383.36,383.36,0,0,1-1.46,75.38,395.74,395.74,0,0,1-17.84,79.41,71.13,71.13,0,0,0,26.33.63,65.75,65.75,0,0,0,20.33-6.73,167.33,167.33,0,0,1-12.69-31c-6.95-23.12-6-38.32-8.49-67.93C-887.23-1308.14-888.94-1325.24-892.37-1346Z" transform="translate(1785.2 1389.06)"/><path class="cls-35" d="M-857-1339.26A79.54,79.54,0,0,1-870.59-1322a87.23,87.23,0,0,1-21.36,15v-6l27.27-26.29Z" transform="translate(1785.2 1389.06)"/><path class="cls-38" d="M-857.64-1339.26h5.75a100.67,100.67,0,0,1-14,18.45,115,115,0,0,1-25.39,19.87v-7.84c6.26-5.62,12.52-11.32,18.87-17C-867.42-1330.31-862.53-1334.82-857.64-1339.26Z" transform="translate(1785.2 1389.06)"/><polygon class="cls-39" points="829.78 18.13 829.78 26.92 858.95 33.65 842.22 21.54 829.78 18.13"/><polygon class="cls-40" points="878.67 38.64 831.07 26.92 815.98 44.5 831.07 51.78 862.8 51.78 878.67 38.64"/><polygon class="cls-41" points="877.73 36.74 861.77 50.04 850.63 50.04 829.78 50.04 843.42 58.12 861.77 58.12 888.11 42.6 877.73 36.74"/><polygon class="cls-42" points="888.11 41.73 858.95 33.65 888.11 7.36 888.11 41.73"/><polygon class="cls-43" points="888.11 7.36 842.22 0.63 829.78 7.36 829.78 18.13 842.22 21.54 858.95 33.65 888.11 7.36"/><polygon class="cls-45" points="538.32 148.25 502.91 154.58 521.97 183.24 538.32 165.31 538.32 148.25"/><polygon class="cls-33" points="914.35 26.92 914.35 33.65 887.85 41.41 888.11 7.36 914.35 26.92"/><polygon class="cls-45" points="928.24 0.63 898.31 5.38 914.35 26.92 928.24 13.46 928.24 0.63"/><polygon class="cls-46" points="949.68 18.13 962.12 18.13 971.21 26.21 971.21 32.38 960.49 41.09 949.68 47.27 928.24 49.8 949.68 33.65 949.68 18.13"/><polygon class="cls-47" points="945.74 18.13 952.26 18.13 952.26 26.92 952.26 39.03 941.37 43.07 928.24 49.8 914.35 49.8 914.35 43.07 926.27 37.77 940.34 26.6 945.74 18.13"/><polygon class="cls-46" points="928.24 0.63 945.74 0.63 945.74 18.13 933.3 37.69 903.46 43.07 883.04 43.07 914.35 32.3 927.47 12.75 928.24 0.63"/><polygon class="cls-36" points="892.48 43.07 885.19 122.48 885.19 162.15 898.31 86.14 892.48 43.07"/><polygon class="cls-46" points="914.35 33.65 914.35 26.92 928.24 13.46 914.35 33.65"/><polygon class="cls-33" points="804.74 31.75 852.25 78.54 774.55 31.75 804.74 31.75"/><polygon class="cls-46" points="563.62 171.63 578.3 171.63 589.09 182.36 589.09 190.63 576.44 202.23 563.62 210.5 538.32 213.84 563.62 192.38 563.62 171.63"/><polygon class="cls-47" points="558.9 171.63 566.66 171.63 566.66 183.24 566.66 199.42 553.84 204.87 538.32 213.84 521.97 213.84 521.97 204.87 535.96 197.84 552.66 182.89 558.9 171.63"/><path class="cls-36" d="M-981.66-1315l-10.12,4.83a104.34,104.34,0,0,1-4.63,28.11,111.3,111.3,0,0,1-10.12,23.28,85.16,85.16,0,0,0,4.63,23.28,90,90,0,0,0,11.06,21.69,227.59,227.59,0,0,0,10.12-47.35A227.61,227.61,0,0,0-981.66-1315Z" transform="translate(1785.2 1389.06)"/><path class="cls-35" d="M-941.95-1301.49a89.29,89.29,0,0,1-15.35,19.4,100.25,100.25,0,0,1-23.93,16.86V-1272l30.62-29.45Z" transform="translate(1785.2 1389.06)"/><path class="cls-38" d="M-942.72-1301.49h6.43a111.5,111.5,0,0,1-15.61,20.66,128.2,128.2,0,0,1-28.47,22.33v-8.79l21.18-19.08C-953.7-1291.43-948.21-1296.42-942.72-1301.49Z" transform="translate(1785.2 1389.06)"/><polygon class="cls-46" points="538.32 148.25 558.9 148.25 558.9 171.63 544.23 197.66 508.98 204.87 484.86 204.87 521.97 190.45 537.48 164.43 538.32 148.25"/><polygon class="cls-36" points="495.99 204.87 487.39 310.9 487.39 364 502.91 262.37 495.99 204.87"/><polygon class="cls-46" points="521.97 192.38 521.97 183.24 538.32 165.31 521.97 192.38"/><path class="cls-34" d="M-198.2-1109.77" transform="translate(1785.2 1389.06)"/><polygon class="cls-44" points="802.15 56.68 802.15 44.78 755.35 30.38 723.05 37.18 701.85 56.68 749.45 65.18 802.15 56.68"/><polygon class="cls-44" points="856.24 69.79 856.24 59.26 811.3 46.44 780.17 52.45 759.76 69.79 805.56 77.39 856.24 69.79"/><polygon class="cls-33" points="827.73 61.92 827.73 69.44 797.97 78.15 798.31 40.06 827.73 61.92"/><polygon class="cls-45" points="843.25 32.46 809.72 37.77 827.73 61.92 843.25 46.87 843.25 32.46"/><polygon class="cls-46" points="867.35 52.1 881.24 52.1 891.45 61.12 891.45 68.09 879.36 77.83 867.35 84.8 843.25 87.57 867.35 69.52 867.35 52.1"/><polygon class="cls-47" points="862.8 52.1 870.18 52.1 870.18 61.92 870.18 75.53 857.92 80.05 843.25 87.57 827.73 87.57 827.73 80.05 841.11 74.11 856.89 61.52 862.8 52.1"/><polygon class="cls-46" points="843.25 32.46 862.8 32.46 862.8 52.1 848.91 74.03 815.46 80.05 792.56 80.05 827.73 67.93 842.39 46.08 843.25 32.46"/><polygon class="cls-36" points="803.11 80.05 794.96 169.04 794.96 213.62 809.72 128.34 803.11 80.05"/><polygon class="cls-46" points="827.73 69.44 827.73 61.92 843.25 46.87 827.73 69.44"/><path class="cls-37" d="M-981.74-1309a423.93,423.93,0,0,1-1.63,84.48,447.63,447.63,0,0,1-20,89.07,82.13,82.13,0,0,0,29.5.79,74.38,74.38,0,0,0,22.81-7.52,193,193,0,0,1-14.24-34.68c-7.8-26-6.78-43-9.52-76.25C-975.82-1266.57-977.88-1285.73-981.74-1309Z" transform="translate(1785.2 1389.06)"/><path class="cls-51" d="M-951.21-1142.43a78.36,78.36,0,0,1-24.87,7.92,82,82,0,0,1-27.44-.79c10.29,18.76,20.58,37.45,30.88,56.22l72.9,36.42,76.33,20.59,51.46-50.67L-814.84-1110q-68.18-16.27-136.37-32.46" transform="translate(1785.2 1389.06)"/><path class="cls-35" d="M-989.1-1276.59a47.63,47.63,0,0,1-19.64-7.52,34.52,34.52,0,0,1-7.89-7.52h-11.75a51.87,51.87,0,0,0,11.75,12.83,69.23,69.23,0,0,0,21.87,11.32C-992.78-1270.57-990.9-1273.58-989.1-1276.59Z" transform="translate(1785.2 1389.06)"/><path class="cls-34" d="M-1002.9-1257.75c-1.11,6.25-2.66,15-3.77,25.65-.77,7.13-1.8,18-2.32,42.83-.26,12.51-.34,28.82,0,47.9a12.57,12.57,0,0,0,5.57,5.7,15.29,15.29,0,0,0,6.52,1.66,193.79,193.79,0,0,0,12.09-52.81,194.7,194.7,0,0,0,0-31.67A94.89,94.89,0,0,1-996-1236.37,88.08,88.08,0,0,1-1002.9-1257.75Z" transform="translate(1785.2 1389.06)"/><polygon class="cls-39" points="734.01 53.56 734.01 63.38 766.68 70.9 747.9 57.36 734.01 53.56"/><polygon class="cls-40" points="788.81 76.52 735.38 63.38 718.48 83.09 735.38 91.33 770.97 91.33 788.81 76.52"/><polygon class="cls-41" points="787.78 74.39 769.86 89.27 757.33 89.27 734.01 89.27 749.27 98.38 769.86 98.38 799.44 81.04 787.78 74.39"/><path class="cls-51" d="M-865-1197.45l69.47,15.84,60.89-4-.43,51.86.43,34.44-176.68-91.84a72.44,72.44,0,0,0,26.16.4A70.47,70.47,0,0,0-865-1197.45Z" transform="translate(1785.2 1389.06)"/><path class="cls-52" d="M-951.21-1142.43" transform="translate(1785.2 1389.06)"/><polygon class="cls-42" points="799.44 80.01 766.68 70.9 799.44 41.53 799.44 80.01"/><polygon class="cls-43" points="799.44 41.53 747.9 33.93 734.01 41.53 734.01 53.56 747.9 57.36 766.68 70.9 799.44 41.53"/><rect class="cls-53" x="1393.3" y="290.66" width="91.35" height="99.61"/><polygon class="cls-53" points="1442.86 207.41 1492.1 292.77 1393.62 292.77 1442.86 207.41"/><polygon class="cls-54" points="1393.3 292.77 1342.92 269.12 1342.92 356.42 1393.3 390.27 1393.3 292.77"/><polygon class="cls-55" points="1443.02 206.93 1492.42 292.28 1505.7 295.36 1492.42 279.97 1443.02 206.93"/><polygon class="cls-56" points="1443.51 207.41 1393.3 292.77 1383.9 302 1331.59 274.3 1380.82 200.29 1443.51 207.41"/><polyline class="cls-51" points="1315.39 344.44 1338.07 376.83 1381.8 407.6 1454.68 415.7 1483.84 407.6 1483.84 389.79 1393.13 389.79 1342.92 355.77 1342.92 346.38 1322.68 344.27 1315.39 344.44"/><polygon class="cls-57" points="1229.93 364.56 1229.91 348.41 1242.86 367.08 1229.93 364.56"/><rect class="cls-50" x="-754.04" y="-976.32" width="341.51" height="42.09" transform="translate(1452.21 1524.71) rotate(18.49)"/><path class="cls-58" d="M-1176-387.75" transform="translate(1785.2 1389.06)"/><polygon class="cls-59" points="1670.61 156.35 1738.29 147.37 1827.39 185.55 1746.86 194.53 1670.61 156.35"/><polygon points="1827.39 359.24 1746.86 365.23 1746.86 194.53 1827.39 185.55 1827.39 359.24"/><path class="cls-51" d="M-59.93-1106.35l256,182.2-58.73,19.58-265-191.24a97.34,97.34,0,0,0,40.66,0A96.69,96.69,0,0,0-59.93-1106.35Z" transform="translate(1785.2 1389.06)"/><polygon class="cls-60" points="1757.14 199.85 1670.61 156.35 1670.61 319.56 1746 365.23 1757.14 365.23 1757.14 199.85"/><rect class="cls-50" x="-1379.61" y="-975.52" width="495.51" height="39.25" transform="translate(1967.73 1116.7) rotate(-12.71)"/><path class="cls-51" d="M-684.35-1094.33a78.36,78.36,0,0,1-24.87,7.92,82,82,0,0,1-27.44-.79c10.29,18.76,20.58,37.45,30.88,56.22l72.9,36.42L-556.56-974l51.46-50.67L-548-1061.86q-68.18-16.27-136.37-32.46" transform="translate(1785.2 1389.06)"/><polygon class="cls-61" points="1265.08 415.9 1258.33 422.72 1258.98 416.09 1254.21 417.85 1255.89 412.43 1265.08 415.9"/><rect class="cls-62" x="-542.34" y="-1076.65" width="26.85" height="54.88" rx="9.47" ry="9.47" transform="translate(727.37 -709.36) rotate(180)"/><ellipse class="cls-63" cx="1278.08" cy="388.56" rx="44.53" ry="28.36"/><polygon class="cls-57" points="1244.54 363.84 1257.99 354.91 1249.57 376.01 1244.54 363.84"/><circle class="cls-64" cx="1239.43" cy="377.43" r="17.23"/><ellipse class="cls-57" cx="1236.62" cy="381.54" rx="6.71" ry="4.11"/><circle class="cls-36" cx="1256.66" cy="301.51" r="13.33"/><g id="Meer-4" data-name="Meer"><polygon class="cls-50" points="1881.61 677.9 1791.87 630.39 1728.95 631.64 1676.88 610.96 1647.37 586.4 1710.5 526.82 1908.41 483.93 2043.47 485.19 2039.14 563.1 1881.61 677.9"/></g><rect class="cls-50" x="889.71" y="361.29" width="166.29" height="38.55"/><rect class="cls-50" x="1342.92" y="468.74" width="333.08" height="36.55"/><rect class="cls-50" x="-132.15" y="-894.37" width="106.5" height="36.55" transform="translate(1267.49 1275.34) rotate(35.07)"/><path class="cls-50" d="M285.15-619.7c-6.56-121.24-34.43-216-64.27-214.93l-14.46.52-5.95.21-110.22,4c30-1.08,58,94.6,64.37,216.7h.14l13.88,385.55c15.43-1.48,14-45.59,29.8-46.16,16-.57,17.58,44.5,33.53,43.92s14.33-45.64,30.29-46.22,17.58,44.5,33.54,43.92a8,8,0,0,0,3.43-.94L285.34-619.7Z" transform="translate(1785.2 1389.06)"/><path class="cls-65" d="M278.47-682.17a9.67,9.67,0,0,1-3.43.83c-16,.83-17.84-35-33.8-34.16s-14.09,36.67-30.05,37.5-17.84-35-33.8-34.16c-15.8.83-14.14,35.9-29.57,37.44L162.7-390.07l130.68-6.83Z" transform="translate(1785.2 1389.06)"/><path class="cls-50" d="M167.64-413.69c15.74-.45,15.06-24.67,30.8-25.11S214.86-415,230.6-415.47s15.05-24.67,30.8-25.11c15.58-.44,16.42,23.26,31.69,23.32L297-279.85l.4,14.29,3.71,130.93c.44,15.71-4.89,28.73-11.85,28.93l-2.52.07c-7,.2-13-12.5-13.46-28.21L269.91-252c-.2-7.06-2.9-12.7-6-12.61h-.33c-3.13.09-5.5,5.88-5.3,12.93l5.06,178.9c.72,25.51-7.93,46.64-19.23,47L240-25.7c-11.3.32-21.14-20.29-21.86-45.8l-5.06-178.9c-.2-7.06-2.9-12.7-6-12.61s-5.5,5.88-5.3,12.94L204.65-148c.53,18.56-5.77,33.94-14,34.18l-3,.08c-8.22.23-15.38-14.77-15.91-33.33l-3.25-114.87-1.6-56.7-2.7-95.4A13.47,13.47,0,0,0,167.64-413.69Z" transform="translate(1785.2 1389.06)"/><rect class="cls-50" x="1952.12" y="1113.29" width="134.19" height="1031.15"/><ellipse class="cls-66" cx="-826.64" cy="-693.8" rx="57.17" ry="29.39" transform="translate(1850.42 1302.94) rotate(-5.74)"/><path class="cls-73" d="M-1159.48-524.15c2.54-43.88,14.5-78.11,27.59-77.64l6.34.23,2.61.09,48.35,1.74c-13.15-.47-25.17,34.09-27.63,78.28h-.06l-5,139.55c-6.77-.58-6.27-16.54-13.2-16.79s-7.59,16.06-14.59,15.81-6.41-16.56-13.41-16.82-7.59,16.06-14.59,15.81a4.1,4.1,0,0,1-1.51-.35l5-139.91Z" transform="translate(1785.2 1389.06)"/><polygon class="cls-59" points="675 215.82 795.58 197.5 954.33 275.34 810.85 293.66 675 215.82"/><polygon class="cls-60" points="829.16 304.5 675 215.82 675 548.56 809.32 641.67 829.16 641.67 829.16 304.5"/><polygon points="954.33 629.46 810.85 641.67 810.85 293.66 954.33 275.34 954.33 629.46"/><path class="cls-28" d="M-784.45-706.4a128,128,0,0,1-52.2,11.6,130.23,130.23,0,0,1-54.19-11.6q6-137.6,5.8-286.35c-.15-90.06-2.29-177.21-5.8-261.16a176.86,176.86,0,0,0,46.4,5.8,186.12,186.12,0,0,0,44.57-5.8q-1.6,127.3,2,263.15C-795.44-892.62-790.71-797.68-784.45-706.4Z" transform="translate(1785.2 1389.06)"/><path class="cls-52" d="M-800.33-1249c-3.51,0-11.14,42.28-30.68,247.27q-9.39,112.19-18.93,224.38v83.8a92,92,0,0,0,36.48.15,98,98,0,0,0,29.15-10.68C-789-767-795.14-862.23-797.43-978.84-800.64-1139.42-796.82-1249-800.33-1249Z" transform="translate(1785.2 1389.06)"/><ellipse class="cls-68" cx="938.03" cy="145.98" rx="45.49" ry="10.68"/><path class="cls-69" d="M-1163.79-520.45c2.71-45.76,15.8-81.43,30.2-80.91l7,.25,2.87.1,53.2,1.91c-14.48-.52-27.63,35.5-30.24,81.58h-.07L-1106.09-372c-7.45-.62-6.94-17.27-14.56-17.54s-8.31,16.74-16,16.46-7.09-17.29-14.79-17.57-8.32,16.73-16,16.46a4.73,4.73,0,0,1-1.66-.37l5.25-145.91Z" transform="translate(1785.2 1389.06)"/><ellipse class="cls-66" cx="-461.07" cy="-719.27" rx="57.17" ry="29.39" transform="translate(1854.79 1339.36) rotate(-5.74)"/><ellipse class="cls-66" cx="-697.98" cy="-786.53" rx="28.58" ry="17.41" transform="translate(1860.33 1315.34) rotate(-5.74)"/><polygon class="cls-33" points="1083.4 417.34 1120.4 456.84 1059.8 417.34 1083.4 417.34"/><path class="cls-35" d="M-709.4-904.72a34.75,34.75,0,0,1-15.3-6.4,25.31,25.31,0,0,1-6.1-6.4H-740a42.5,42.5,0,0,0,9.2,10.8,54.16,54.16,0,0,0,17,9.6C-712.4-899.62-710.9-902.22-709.4-904.72Z" transform="translate(1785.2 1389.06)"/><path class="cls-34" d="M-720.2-888.82c-.9,5.3-2,12.7-3,21.7-.6,6-1.4,15.2-1.8,36.2-.2,10.6-.3,24.3,0,40.5a10.59,10.59,0,0,0,4.3,4.8,11.83,11.83,0,0,0,5.1,1.4,176.89,176.89,0,0,0,9.4-44.6,170.82,170.82,0,0,0,0-26.8,82.65,82.65,0,0,1-8.7-15.1A79.58,79.58,0,0,1-720.2-888.82Z" transform="translate(1785.2 1389.06)"/><path class="cls-36" d="M-702.8-936l-7.9,4.1a97.54,97.54,0,0,1-3.6,23.7,101.81,101.81,0,0,1-7.9,19.7,77.4,77.4,0,0,0,3.6,19.7,80.76,80.76,0,0,0,8.6,18.3,206.27,206.27,0,0,0,7.9-40A203.11,203.11,0,0,0-702.8-936Z" transform="translate(1785.2 1389.06)"/><path class="cls-37" d="M-702.8-930.92a394.85,394.85,0,0,1-1.2,71.4,397.56,397.56,0,0,1-15.6,75.2,58.32,58.32,0,0,0,23,.6,52.86,52.86,0,0,0,17.8-6.4,174.4,174.4,0,0,1-11.1-29.3c-6.1-21.9-5.3-36.3-7.4-64.4C-698.2-895-699.8-911.22-702.8-930.92Z" transform="translate(1785.2 1389.06)"/><path class="cls-35" d="M-671.8-924.52a75.76,75.76,0,0,1-11.9,16.4,74.13,74.13,0,0,1-18.7,14.2v-5.7l23.9-24.9Z" transform="translate(1785.2 1389.06)"/><path class="cls-38" d="M-672.4-924.52h5A98.75,98.75,0,0,1-679.6-907a101.11,101.11,0,0,1-22.2,18.8v-7.4q8.25-7.95,16.5-16.2C-680.9-916-676.6-920.22-672.4-924.52Z" transform="translate(1785.2 1389.06)"/><polygon class="cls-39" points="1027.3 434.54 1027.3 442.84 1052.8 449.24 1038.2 437.74 1027.3 434.54"/><polygon class="cls-40" points="1070 453.94 1028.4 442.84 1015.2 459.54 1028.4 466.44 1056.2 466.44 1070 453.94"/><polygon class="cls-41" points="1069.2 452.14 1055.3 464.74 1045.5 464.74 1027.3 464.74 1039.2 472.44 1055.3 472.44 1078.3 457.74 1069.2 452.14"/><polygon class="cls-42" points="1078.3 456.84 1052.8 449.24 1078.3 424.34 1078.3 456.84"/><polygon class="cls-43" points="1078.3 424.34 1038.2 418.04 1027.3 424.34 1027.3 434.54 1038.2 437.74 1052.8 449.24 1078.3 424.34"/><polygon class="cls-44" points="1113.4 418.04 1113.4 409.04 1078.3 398.24 1054.1 403.34 1038.2 418.04 1073.9 424.34 1113.4 418.04"/><polygon class="cls-33" points="1101.3 442.84 1101.3 449.24 1078.1 456.54 1078.3 424.34 1101.3 442.84"/><polygon class="cls-45" points="1113.4 418.04 1087.2 422.44 1101.3 442.84 1113.4 430.14 1113.4 418.04"/><polygon class="cls-46" points="1132.2 434.54 1143 434.54 1151 442.24 1151 448.04 1141.6 456.34 1132.2 462.14 1113.4 464.54 1132.2 449.24 1132.2 434.54"/><polygon class="cls-47" points="1128.7 434.54 1134.4 434.54 1134.4 442.84 1134.4 454.34 1124.9 458.14 1113.4 464.54 1101.3 464.54 1101.3 458.14 1111.7 453.14 1124 442.54 1128.7 434.54"/><polygon class="cls-46" points="1113.4 418.04 1128.7 418.04 1128.7 434.54 1117.9 453.04 1091.7 458.14 1073.9 458.14 1101.3 447.94 1112.8 429.44 1113.4 418.04"/><polygon class="cls-36" points="1082.1 458.14 1075.8 533.44 1075.8 571.04 1087.2 498.94 1082.1 458.14"/><polygon class="cls-46" points="1101.3 449.24 1101.3 442.84 1113.4 430.14 1101.3 449.24"/><path class="cls-32" d="M-741-789" transform="translate(1785.2 1389.06)"/><path class="cls-37" d="M-512.79-843.48v57.16a90.85,90.85,0,0,0,42.41,10.84,90.94,90.94,0,0,0,43.73-10.84v-57.16A84.19,84.19,0,0,1-470-831.63,84.15,84.15,0,0,1-512.79-843.48Z" transform="translate(1785.2 1389.06)"/><line class="cls-70" x1="1358.55" y1="475.57" x2="1272.41" y2="475.57"/><ellipse class="cls-71" cx="1315.48" cy="542.27" rx="43.07" ry="18.36"/><line class="cls-70" x1="1315.18" y1="548.7" x2="1315.48" y2="477.22"/><path class="cls-58" d="M-512.79-786v57.16A90.85,90.85,0,0,0-470.38-718a90.94,90.94,0,0,0,43.73-10.84V-786A84.19,84.19,0,0,1-470-774.18,84.15,84.15,0,0,1-512.79-786Z" transform="translate(1785.2 1389.06)"/><path class="cls-58" d="M-512.79-582.05v57.15a90.85,90.85,0,0,0,42.41,10.84,90.94,90.94,0,0,0,43.73-10.84v-57.15A84.2,84.2,0,0,1-470-570.2,84.15,84.15,0,0,1-512.79-582.05Z" transform="translate(1785.2 1389.06)"/><path class="cls-58" d="M-512.79-526.05v57.15a90.85,90.85,0,0,0,42.41,10.84,90.94,90.94,0,0,0,43.73-10.84v-57.15A84.2,84.2,0,0,1-470-514.2,84.15,84.15,0,0,1-512.79-526.05Z" transform="translate(1785.2 1389.06)"/><path class="cls-50" d="M-507.83-526.05v50.57a80.38,80.38,0,0,0,37.52,9.59,80.46,80.46,0,0,0,38.69-9.59v-50.57A74.49,74.49,0,0,1-470-515.57,74.46,74.46,0,0,1-507.83-526.05Z" transform="translate(1785.2 1389.06)"/><ellipse class="cls-50" cx="1315.49" cy="864.83" rx="38.09" ry="17.17"/><polyline class="cls-72" points="1315.18 614.88 1306.25 651.5 1314.81 671.03"/><path class="cls-58" d="M-512.79-638.05v57.15a90.85,90.85,0,0,0,42.41,10.84,90.94,90.94,0,0,0,43.73-10.84v-57.15A84.2,84.2,0,0,1-470-626.2,84.15,84.15,0,0,1-512.79-638.05Z" transform="translate(1785.2 1389.06)"/><polyline class="cls-72" points="1328 761.91 1340.75 807 1334.37 819 1315.49 864.83"/><ellipse class="cls-66" cx="224.4" cy="-1113.67" rx="28.58" ry="17.41" transform="translate(1897.66 1405.91) rotate(-5.74)"/><polygon class="cls-33" points="2003.3 90.33 2040.3 129.83 1979.7 90.33 2003.3 90.33"/><path class="cls-35" d="M210.5-1231.73a34.75,34.75,0,0,1-15.3-6.4,25.31,25.31,0,0,1-6.1-6.4h-9.2a42.5,42.5,0,0,0,9.2,10.8,54.16,54.16,0,0,0,17,9.6C207.5-1226.63,209-1229.23,210.5-1231.73Z" transform="translate(1785.2 1389.06)"/><path class="cls-34" d="M199.7-1215.83c-.9,5.3-2,12.7-3,21.7-.6,6-1.4,15.2-1.8,36.2-.2,10.6-.3,24.3,0,40.5a10.59,10.59,0,0,0,4.3,4.8,11.83,11.83,0,0,0,5.1,1.4,176.89,176.89,0,0,0,9.4-44.6,170.82,170.82,0,0,0,0-26.8,82.65,82.65,0,0,1-8.7-15.1A79.58,79.58,0,0,1,199.7-1215.83Z" transform="translate(1785.2 1389.06)"/><path class="cls-36" d="M217.1-1263l-7.9,4.1a97.54,97.54,0,0,1-3.6,23.7,101.81,101.81,0,0,1-7.9,19.7,77.4,77.4,0,0,0,3.6,19.7,80.76,80.76,0,0,0,8.6,18.3,206.27,206.27,0,0,0,7.9-40A203.11,203.11,0,0,0,217.1-1263Z" transform="translate(1785.2 1389.06)"/><path class="cls-37" d="M217.1-1257.93a394.85,394.85,0,0,1-1.2,71.4,397.56,397.56,0,0,1-15.6,75.2,58.32,58.32,0,0,0,23,.6,52.86,52.86,0,0,0,17.8-6.4,174.4,174.4,0,0,1-11.1-29.3c-6.1-21.9-5.3-36.3-7.4-64.4C221.7-1222,220.1-1238.23,217.1-1257.93Z" transform="translate(1785.2 1389.06)"/><path class="cls-35" d="M248.1-1251.53a75.76,75.76,0,0,1-11.9,16.4,74.13,74.13,0,0,1-18.7,14.2v-5.7l23.9-24.9Z" transform="translate(1785.2 1389.06)"/><path class="cls-38" d="M247.5-1251.53h5a98.75,98.75,0,0,1-12.2,17.5,101.11,101.11,0,0,1-22.2,18.8v-7.4q8.25-7.95,16.5-16.2C239-1243,243.3-1247.23,247.5-1251.53Z" transform="translate(1785.2 1389.06)"/><polygon class="cls-39" points="1947.2 107.53 1947.2 115.83 1972.7 122.23 1958.1 110.73 1947.2 107.53"/><polygon class="cls-40" points="1989.9 126.93 1948.3 115.83 1935.1 132.53 1948.3 139.43 1976.1 139.43 1989.9 126.93"/><polygon class="cls-41" points="1989.1 125.13 1975.2 137.73 1965.4 137.73 1947.2 137.73 1959.1 145.43 1975.2 145.43 1998.2 130.73 1989.1 125.13"/><polygon class="cls-42" points="1998.2 129.83 1972.7 122.23 1998.2 97.33 1998.2 129.83"/><polygon class="cls-43" points="1998.2 97.33 1958.1 91.03 1947.2 97.33 1947.2 107.53 1958.1 110.73 1972.7 122.23 1998.2 97.33"/><polygon class="cls-44" points="2033.3 91.03 2033.3 82.03 1998.2 71.23 1974 76.33 1958.1 91.03 1993.8 97.33 2033.3 91.03"/><polygon class="cls-33" points="2021.2 115.83 2021.2 122.23 1998 129.53 1998.2 97.33 2021.2 115.83"/><polygon class="cls-45" points="2033.3 91.03 2007.1 95.43 2021.2 115.83 2033.3 103.13 2033.3 91.03"/><polygon class="cls-46" points="2052.1 107.53 2062.9 107.53 2070.9 115.23 2070.9 121.03 2061.5 129.33 2052.1 135.13 2033.3 137.53 2052.1 122.23 2052.1 107.53"/><polygon class="cls-47" points="2048.6 107.53 2054.3 107.53 2054.3 115.83 2054.3 127.33 2044.8 131.13 2033.3 137.53 2021.2 137.53 2021.2 131.13 2031.6 126.13 2043.9 115.53 2048.6 107.53"/><polygon class="cls-46" points="2033.3 91.03 2048.6 91.03 2048.6 107.53 2037.8 126.03 2011.6 131.13 1993.8 131.13 2021.2 120.93 2032.7 102.43 2033.3 91.03"/><polygon class="cls-36" points="2002 131.13 1995.7 206.43 1995.7 244.03 2007.1 171.93 2002 131.13"/><polygon class="cls-46" points="2021.2 122.23 2021.2 115.83 2033.3 103.13 2021.2 122.23"/><path class="cls-32" d="M178.86-1116" transform="translate(1785.2 1389.06)"/><ellipse class="cls-66" cx="-190.04" cy="-993.34" rx="28.58" ry="17.41" transform="translate(1883.55 1365.08) rotate(-5.74)"/><polygon class="cls-33" points="1588.45 210.47 1625.45 249.97 1564.85 210.47 1588.45 210.47"/><path class="cls-35" d="M-204.34-1111.58a34.75,34.75,0,0,1-15.3-6.4,25.31,25.31,0,0,1-6.1-6.4h-9.2a42.5,42.5,0,0,0,9.2,10.8,54.16,54.16,0,0,0,17,9.6C-207.34-1106.48-205.84-1109.08-204.34-1111.58Z" transform="translate(1785.2 1389.06)"/><path class="cls-34" d="M-215.14-1095.68c-.9,5.3-2,12.7-3,21.7-.6,6-1.4,15.2-1.8,36.2-.2,10.6-.3,24.3,0,40.5a10.59,10.59,0,0,0,4.3,4.8,11.83,11.83,0,0,0,5.1,1.4,176.89,176.89,0,0,0,9.4-44.6,170.82,170.82,0,0,0,0-26.8,82.65,82.65,0,0,1-8.7-15.1A79.58,79.58,0,0,1-215.14-1095.68Z" transform="translate(1785.2 1389.06)"/><path class="cls-36" d="M-197.74-1142.88l-7.9,4.1a97.54,97.54,0,0,1-3.6,23.7,101.81,101.81,0,0,1-7.9,19.7,77.4,77.4,0,0,0,3.6,19.7,80.76,80.76,0,0,0,8.6,18.3,206.27,206.27,0,0,0,7.9-40A203.11,203.11,0,0,0-197.74-1142.88Z" transform="translate(1785.2 1389.06)"/><path class="cls-37" d="M-197.74-1137.78a394.85,394.85,0,0,1-1.2,71.4,397.56,397.56,0,0,1-15.6,75.2,58.32,58.32,0,0,0,23,.6,52.86,52.86,0,0,0,17.8-6.4,174.4,174.4,0,0,1-11.1-29.3c-6.1-21.9-5.3-36.3-7.4-64.4C-193.14-1101.88-194.74-1118.08-197.74-1137.78Z" transform="translate(1785.2 1389.06)"/><path class="cls-35" d="M-166.74-1131.38a75.76,75.76,0,0,1-11.9,16.4,74.13,74.13,0,0,1-18.7,14.2v-5.7l23.9-24.9Z" transform="translate(1785.2 1389.06)"/><path class="cls-38" d="M-167.34-1131.38h5a98.75,98.75,0,0,1-12.2,17.5,101.11,101.11,0,0,1-22.2,18.8v-7.4q8.25-7.95,16.5-16.2C-175.84-1122.88-171.54-1127.08-167.34-1131.38Z" transform="translate(1785.2 1389.06)"/><polygon class="cls-39" points="1532.35 227.68 1532.35 235.97 1557.85 242.38 1543.25 230.88 1532.35 227.68"/><polygon class="cls-40" points="1575.05 247.07 1533.45 235.97 1520.25 252.68 1533.45 259.57 1561.25 259.57 1575.05 247.07"/><polygon class="cls-41" points="1574.25 245.28 1560.35 257.88 1550.55 257.88 1532.35 257.88 1544.25 265.57 1560.35 265.57 1583.35 250.88 1574.25 245.28"/><polygon class="cls-42" points="1583.35 249.97 1557.85 242.38 1583.35 217.47 1583.35 249.97"/><polygon class="cls-43" points="1583.35 217.47 1543.25 211.18 1532.35 217.47 1532.35 227.68 1543.25 230.88 1557.85 242.38 1583.35 217.47"/><polygon class="cls-44" points="1618.45 211.18 1618.45 202.18 1583.35 191.38 1559.15 196.47 1543.25 211.18 1578.95 217.47 1618.45 211.18"/><polygon class="cls-33" points="1606.35 235.97 1606.35 242.38 1583.15 249.68 1583.35 217.47 1606.35 235.97"/><polygon class="cls-45" points="1618.45 211.18 1592.25 215.57 1606.35 235.97 1618.45 223.28 1618.45 211.18"/><polygon class="cls-46" points="1637.25 227.68 1648.05 227.68 1656.05 235.38 1656.05 241.18 1646.65 249.47 1637.25 255.28 1618.45 257.68 1637.25 242.38 1637.25 227.68"/><polygon class="cls-47" points="1633.75 227.68 1639.45 227.68 1639.45 235.97 1639.45 247.47 1629.95 251.28 1618.45 257.68 1606.35 257.68 1606.35 251.28 1616.75 246.28 1629.05 235.68 1633.75 227.68"/><polygon class="cls-46" points="1618.45 211.18 1633.75 211.18 1633.75 227.68 1622.95 246.18 1596.75 251.28 1578.95 251.28 1606.35 241.07 1617.85 222.57 1618.45 211.18"/><polygon class="cls-36" points="1587.15 251.28 1580.85 326.57 1580.85 364.18 1592.25 292.07 1587.15 251.28"/><polygon class="cls-46" points="1606.35 242.38 1606.35 235.97 1618.45 223.28 1606.35 242.38"/><path class="cls-32" d="M-236-995.85" transform="translate(1785.2 1389.06)"/></svg>