<svg id="Ebene_1" data-name="Ebene 1" xmlns="http://www.w3.org/2000/svg" viewBox="0 0 178.77 601.75"><defs><style>.cls-1{fill:#29abe2;}</style></defs><title>pfeil</title><path class="cls-1" d="M728.8,421.67,658.23,259.21a6.53,6.53,0,0,0-2.21-2.69c0-1.41,0-2.81,0-4.22,0-1.06.53-1.79-.13-2.21-.8-6.7-1.87-13.38-2.13-20.1l-.09-2.39-2,.08c-.08,0-.12.14-.22-.37-.91-4.35-5.21-4.6-8.39-2.69-2.81-2.5-8-2.3-9.62,1.77-.19.47-.32,2-.53,2h0s-.07-.46-.1-.39c-9.11,23-17.28,46.7-26.34,70.39-6.41,15.78-13.14,31.28-20.19,46.81a274.36,274.36,0,0,1-29.07,47.12,3.87,3.87,0,0,0,3.2,6.24c-3,5.91-6.07,11.81-9.2,17.68-3.7,6.93,7.15,12.43,11.11,5.65,3.75-6.42,7.36-12.91,10.91-19.42l-8.06,21.84c-2.77,7.51,9.63,10,12.49,2.78q29.46-74.52,58.9-149Q629.27,401.31,627,524.81c-1.2,71.8-2.74,144.47-.62,216.58-.77,20.11-1.57,40.3-2.44,60.39-.16,3.61,2.65,5.34,5.58,5.28.28,4.26.48,8.54.8,12.79.51,6.77,11,6.37,11-.41.29-39.83-.26-79.64-.9-119.45,5.27-109.78,11.17-219.74,13.95-329.59L655,357c.74-17.36,1.74-34.71,2.11-52q2.87,8.21,5.62,16.47l27.58,95.18c2.25,7.76,14.32,3.94,12.42-3.78q-6.12-24.91-13.32-49.49l14.06,32.34a4,4,0,0,0-.11,3.8c4.31,9.31,8.82,18.41,13.77,27.44C720.49,433,731.62,428.18,728.8,421.67Z" transform="translate(-550.48 -222.98)"/></svg>