<?xml version="1.0" encoding="utf-8"?>
<!-- Generator: Adobe Illustrator 21.0.1, SVG Export Plug-In . SVG Version: 6.00 Build 0)  -->
<svg version="1.1" id="Ebene_1" xmlns="http://www.w3.org/2000/svg" xmlns:xlink="http://www.w3.org/1999/xlink" x="0px" y="0px"
	 viewBox="0 0 2560 1600" style="enable-background:new 0 0 2560 1600;" xml:space="preserve">
<style type="text/css">
	.st0{fill:#87D4A2;}
	.st1{fill:#52956E;}
	.st2{fill:#9D7766;}
	.st3{fill:#AE8775;}
	.st4{fill:#A47A69;}
	.st5{fill:#A67C6B;}
	.st6{fill:#AE8673;}
	.st7{fill:#6FBF88;}
	.st8{fill:#A07A69;}
	.st9{display:none;}
	.st10{fill:#A67D6C;}
	.st11{fill:#A37968;}
	.st12{fill:#B78D78;}
	.st13{fill:#A9806F;}
	.st14{fill:#AB8270;}
	.st15{fill:#9F7665;}
	.st16{fill:#B58C77;}
	.st17{fill:#BC927D;}
	.st18{fill:#BD947E;}
	.st19{fill:#B18773;}
	.st20{fill:#C09781;}
	.st21{fill:#C29982;}
	.st22{fill:#A27867;}
	.st23{fill:#AC8472;}
	.st24{fill:#B98F7A;}
	.st25{fill:#C49C84;}
	.st26{fill:#C19881;}
	.st27{fill:#BB917C;}
	.st28{fill:#525252;}
	.st29{fill:#5E5E5E;}
	.st30{fill:#80BEE5;stroke:#91A6B5;stroke-width:4;stroke-miterlimit:10;}
	.st31{fill:none;stroke:#FFFFFF;stroke-width:7;stroke-miterlimit:10;}
	.st32{fill:#91A6B5;stroke:#91A6B5;stroke-width:4;stroke-miterlimit:10;}
	.st33{fill:#2C2D2D;}
	.st34{fill:#767777;}
	.st35{fill:#141616;}
	.st36{fill:#272828;}
	.st37{opacity:0.64;fill:#272828;enable-background:new    ;}
	.st38{opacity:0.64;fill:#272828;stroke:#272828;stroke-miterlimit:10;enable-background:new    ;}
	.st39{fill:#272828;stroke:#272828;stroke-miterlimit:10;}
	.st40{fill:#80BEE5;}
	.st41{fill:#4B8146;}
	.st42{fill:#DDAF7B;}
	.st43{fill:#76522A;}
	.st44{fill:#9F7242;}
	.st45{fill:#B38258;}
	.st46{fill:#916F46;}
	.st47{fill:#375C3E;}
	.st48{fill:#599F5C;}
	.st49{fill:#385D2E;}
	.st50{fill:#4F8E4F;}
	.st51{fill:#5CA561;}
	.st52{fill:#5FAC67;}
	.st53{fill:#4C854A;}
	.st54{fill:#3E6636;}
	.st55{fill:#345A2D;}
	.st56{fill:#B7AC92;}
	.st57{fill:#D1C3A1;}
	.st58{fill:#C14216;stroke:#C14216;stroke-width:3;stroke-miterlimit:10;}
	.st59{fill:#C14216;}
	.st60{fill:none;stroke:#9F7242;stroke-width:7;stroke-miterlimit:10;}
	.st61{fill:#2C2D2D;stroke:#B38258;stroke-width:2;stroke-miterlimit:10;}
	.st62{fill:#2731AF;}
	.st63{fill:#CF7FE2;}
	.st64{fill:#BA9E2B;}
	.st65{fill:#CC85DD;}
	.st66{fill:#AA61BC;}
	.st67{fill:#1A1A87;}
</style>
<g id="Insel">
	<path class="st0" d="M363,651L64,768l199,67l-104,48l292,77c63.7,44,127.3,88,191,132c66.3-20.7,132.7-41.3,199-62l91,31h124l60,31
		l240,35l270,7l386-100l112,19l243-122l143-115l-63-104l-312-8l-67-39l-297-32l-130-61l-312-11l-98,45l-88-15l-92,6l-88,13L363,651z
		"/>
	<polygon class="st1" points="64,768 96,795 241.1,845.1 263,835 	"/>
	<polygon class="st1" points="163,883 178,901 447,973 470.9,973 451,960 	"/>
	<polygon class="st2" points="109.9,799.8 143,839 212,858.5 241,845 	"/>
	<polygon class="st3" points="192,920 462,992 525,1026 650,1111 642,1092 471,973 175,901 	"/>
	<polygon class="st4" points="478,998.6 507,1117 617,1157 570,1109 547.5,1039.3 	"/>
	<polygon class="st5" points="548,1041 650,1111 708,1101 788,1250 570,1111 	"/>
	<polygon class="st6" points="570,1109 788,1248 813,1308 507,1117 617,1157 	"/>
	<polygon class="st3" points="650,1111 841,1078 841,1049 642,1092 	"/>
	<polygon class="st1" points="642,1092 796.6,1058.6 841,1049 	"/>
	<polygon class="st6" points="813,1308 905,1388 1016,1465 1192,1519 1297,1588 1397,1508 1415,1547 1558,1426 1654,1370 1721,1341 
		1871,1250 2003,1159 2047,1080 1985,1070 1632,1151 1453,1145 1343,1157 1123,1111 1051,1099 931,1097 855,1070 841,1078 708,1101 
			"/>
	<polygon class="st7" points="841,1049 925,1078 1051,1078 1123,1111 1325,1134 1400,1134 1120,1092 1056,1061 932,1061 841,1030 
		642,1092 841,1030 	"/>
	<polygon class="st4" points="813,1055.1 642,1092 841,1030 841,1049 925,1078 1051,1078 1123,1111 931,1100 841,1078 	"/>
	<polygon class="st8" points="1383.7,1131.6 1416,1128.6 1626,1134 1998,1049 2109,1070 2093,1082 2002.5,1071.8 1632,1151 
		1453,1145 	"/>
	<polygon class="st7" points="2124,1053 2109,1070 1998,1049 1626,1134 2012,1030 	"/>
	<polygon class="st4" points="1123,1111 1343,1157 1453,1145 1384,1134 	"/>
	<polygon class="st4" points="1377.5,1151 1493,1146.3 1416,1129 1384,1134 	"/>
	<polyline class="st0" points="1416,1129 1384,1134 1356,1127 1400,1100 	"/>
	<polygon class="st5" points="806.6,1275.7 877.1,1363.3 1004.3,1419.1 882,1274.1 803.7,1249.9 	"/>
	<polygon class="st5" points="2003,1071 1951,1129 2003,1111 2047,1080 	"/>
	<polygon class="st5" points="2047,1080 2065,1071 1999,1071 	"/>
	<polygon class="st5" points="971,1140 1073,1151 1134,1284 1242,1443 1126,1389 1000,1301 1007,1224 	"/>
	<polygon class="st7" points="841,1049 813,1053 642,1092 841,1030 	"/>
	<g id="_x37_MoaOE.tif" class="st9">
		
			<image style="display:inline;overflow:visible;enable-background:new    ;" width="1242" height="569" id="Layer_0" xlink:href="CCED0312D5A452DA.png"  transform="matrix(2.0555 0 0 2.0572 7 109)">
		</image>
	</g>
	<polygon class="st10" points="708,1100 797.1,1085.3 834,1185 788,1248 	"/>
	<polygon class="st11" points="788,1248 813,1308 834,1185 	"/>
	<polygon class="st12" points="797,1085 841,1078 848,1167 834,1185 	"/>
	<polygon class="st11" points="708,1100 661.6,1109 788,1248 	"/>
	<polygon class="st13" points="1192,1519 1021,1465 813,1308 834,1185 897,1319 	"/>
	<polygon class="st14" points="939,1218 897,1319 834,1185 848,1167 	"/>
	<polygon class="st10" points="848,1167 939,1218 957,1192 949.8,1100 855,1070 841,1078 	"/>
	<polygon class="st15" points="957.7,1229.6 1027.8,1257 1064,1219.7 966.1,1100 950,1100 	"/>
	<polygon class="st16" points="899,1319 950,1292 984,1319 950,1354.9 	"/>
	<polygon class="st17" points="899,1319 939,1218 950,1292 	"/>
	<polygon class="st18" points="1192,1243 1280.8,1144 1343,1157 1435.3,1145.5 1400,1185 1208,1345 	"/>
	<polygon class="st19" points="1141.7,1117 1192,1243 1281,1144 	"/>
	<polygon class="st17" points="1444,1157 1519,1243 1236,1419 	"/>
	<polygon class="st20" points="1519,1243 1336,1429 1236,1419 	"/>
	<polygon class="st21" points="1336,1429 1384,1419 1534,1308 1519,1243 	"/>
	<polygon class="st22" points="1127,1388 1236,1419 1211,1345 	"/>
	<polygon class="st23" points="1127,1464 1127,1388 1236,1419 1236,1500 1297,1588 1192,1519 	"/>
	<polygon class="st24" points="1560.6,1151 1519,1243 1534,1308 1540,1268 1666,1235 1706.1,1134 1632,1151 	"/>
	<polygon class="st5" points="1534,1308 1613,1292 1698,1274 1727,1246 1727,1221 1698,1221 1666,1235 1622.1,1246.5 1540,1268 	"/>
	<polygon class="st25" points="1875,1250 1727,1247 1727,1221 1698,1221 1676.5,1230.4 1706,1134 1746.4,1129 1985,1070 2047,1080 
		1999,1159 	"/>
	<polygon class="st18" points="1698,1272.9 1721,1341 1875,1249.9 1727,1247 	"/>
	<polygon class="st6" points="1236,1488 1277.2,1559.4 1320,1549 1342,1524 1409,1468 1559,1372 1648,1319 1534,1308 1350,1450 	"/>
	<polygon class="st26" points="1281,1559 1297,1588 1400,1508 1561,1406 1561,1372 1342,1519 	"/>
	<polygon class="st27" points="1400,1508 1416,1547 1604,1388 1721,1341 1561,1406 	"/>
</g>
<g id="Abfluss">
	<ellipse class="st28" cx="1910.5" cy="1160" rx="35.5" ry="48"/>
	<ellipse class="st28" cx="1917.5" cy="1160" rx="35.5" ry="48"/>
	<ellipse class="st28" cx="1924.5" cy="1160" rx="35.5" ry="48"/>
	<ellipse class="st28" cx="1939.5" cy="1160" rx="35.5" ry="48"/>
	<ellipse class="st28" cx="1946.5" cy="1160" rx="35.5" ry="48"/>
	<ellipse class="st28" cx="1953.5" cy="1160" rx="35.5" ry="48"/>
	<ellipse class="st28" cx="1968.5" cy="1160" rx="35.5" ry="48"/>
	<ellipse class="st28" cx="1975.5" cy="1160" rx="35.5" ry="48"/>
	<ellipse class="st28" cx="1982.5" cy="1160" rx="35.5" ry="48"/>
	<ellipse class="st28" cx="1982.5" cy="1160" rx="35.5" ry="48"/>
	<ellipse class="st28" cx="1989.5" cy="1160" rx="35.5" ry="48"/>
	<ellipse class="st28" cx="1996.5" cy="1160" rx="35.5" ry="48"/>
	<ellipse class="st29" cx="2005" cy="1160.5" rx="35.5" ry="48"/>
</g>
<g id="Kläranlage">
	<g id="YN64XF.tif" class="st9">
		
			<image style="display:inline;overflow:visible;enable-background:new    ;" width="1358" height="731" id="Layer_0_2_" xlink:href="CCED0312D5A452DE.png"  transform="matrix(2 0 0 1.9995 -44 57)">
		</image>
	</g>
	<path class="st30" d="M1605.3,582c0.5,15.7-70,34.7-133.7,34.8c-64.6,0.1-135.7-19.1-135.2-34.8c0.5-16.1,76.1-28.5,134.5-28.5
		C1529.3,553.5,1604.8,565.9,1605.3,582z"/>
	<line class="st31" x1="1471.2" y1="582.4" x2="1572" y2="563.1"/>
	<path class="st32" d="M1605.3,610.2c0.9,3.2-58.1,34.6-133.7,34.8c-76.4,0.2-136.1-31.6-135.2-34.8c0.9-3.1,55,20.3,136,20
		C1551.6,629.9,1604.5,607.2,1605.3,610.2z"/>
	<path class="st32" d="M1336,582v28.2l125.2,28.9l144.5-28.9l-0.4-25c-9.8,6-23.9,13.5-41.9,19.8c-37.2,13-68.1,12.6-97.1,11.9
		c-27.8-0.7-57.3-1.7-92.6-15.6C1357.6,594.9,1344.9,587.7,1336,582z"/>
	<path class="st32" d="M1674.6,640.6"/>
</g>
<g id="Industrie">
	<polygon class="st33" points="1210,608 1131,596 1027,647 1121,659 	"/>
	<polygon class="st34" points="1109,666.1 1210,608 1210,826 1122,887 1109,887 	"/>
	<polygon points="1027,879 1121,887 1121,659 1027,647 	"/>
	<path class="st28" d="M1011.4,908.8c6.6,3,18.6,7.5,34.2,7.6c16.3,0.1,28.8-4.6,35.5-7.6c-2.6-60.1-3.9-122.7-3.8-187.6
		c0.1-59,1.5-116.1,3.8-171.1c-7.6,2-18,3.9-30.4,3.8c-11.8-0.1-21.8-1.9-29.2-3.8c0.7,55.6,0.3,113.1-1.3,172.4
		C1018.6,786.8,1015.5,849,1011.4,908.8z"/>
	<path class="st28" d="M2257,1600"/>
	<ellipse class="st35" cx="1051.4" cy="552" rx="29.8" ry="7"/>
	<path class="st36" d="M1021.5,552c2.3,0,7.3,27.7,20.1,162c4.1,49,8.3,98,12.4,147v54.9c-5.3,1.1-13.8,2.1-23.9,0.1
		c-8.3-1.6-14.8-4.6-19.1-7c3.1-41.2,7.1-103.6,8.6-180C1021.7,623.8,1019.2,552,1021.5,552z"/>
	<path class="st37" d="M1011,909l-170,121l39,13l176-127c-5.7,1.2-15.4,2.5-27,0C1021.3,914.3,1015.2,911.4,1011,909z"/>
	<path class="st38" d="M1333,613.2c2.3-2.7,16.1,6.2,30.5,13.3c28.6,14.1,53.8,16.6,79,19c71.8,6.9,126.9-16,131.8-18.2
		c0,0,13.6-6.1,24.2-10.1l0,0c0,0-12.6,6.6-32,14.8c-16.1,6.8-41.9,17.7-73,24.4l0,0c-94.2,20.9-129.4-5-141-16
		C1345.2,633.5,1330.4,616.4,1333,613.2z"/>
	<path class="st39" d="M1541.5,698.5"/>
</g>
<g id="Meer">
	<polygon class="st40" points="2203.9,708 2149.7,815.2 2088.4,856.9 2052.3,912.4 2040.5,956.3 2141.6,971 2361,877.6 
		2490.1,784.4 2433.2,711.8 	"/>
</g>
<g id="Baum">
	<path class="st37" d="M1674.5,657.8l-5.2,1.1v8.1c1.1,1.4,2.9,3.3,5.6,5c3.9,2.4,7.8,3.1,9.9,3.3c3.9,0.2,8.8,0.3,14.3-0.5
		c6.3-0.8,11.5-2.3,15.5-3.7c0.5-1.9,0.9-4.4,0.7-7.5c-0.1-1.8-0.5-3.4-0.8-4.7c-1.8-0.4-3.6-0.9-5.4-1.3c-0.5,0.9-1.6,2.8-4,4.1
		c-0.4,0.2-8.4,1.3-9.4,1c-2.9,0.2-7.3,0.2-12.3-1.2C1679.5,660.5,1676.6,659,1674.5,657.8z"/>
	<path class="st37" d="M1630,602.5l-4.7,1.1v8.1c1,1.4,2.6,3.3,5,5c3.5,2.4,7,3.1,8.9,3.3c3.5,0.2,7.8,0.3,12.8-0.5
		c5.6-0.8,10.3-2.3,13.9-3.7c0.4-1.9,0.8-4.4,0.6-7.5c-0.1-1.8-0.4-3.4-0.8-4.7c-1.6-0.4-3.2-0.9-4.9-1.3c-0.4,0.9-1.4,2.8-3.6,4.1
		c-0.3,0.2-7.5,1.3-8.4,1c-2.6,0.2-6.5,0.2-11.1-1.2C1634.5,605.1,1631.8,603.7,1630,602.5z"/>
	<polygon class="st41" points="477.1,591 419,653 514,591 	"/>
	<path class="st42" d="M662,814"/>
	<path class="st43" d="M489,696c5.1-0.8,15-3.1,24-10c4.6-3.5,7.6-7.1,9.6-10c4.8,0,9.6,0,14.4,0c-2.7,4.6-7.1,10.8-14.4,17
		c-9.8,8.4-20.2,12.8-26.7,15C493.6,704,491.3,700,489,696z"/>
	<path class="st42" d="M505.9,721c1.4,8.2,3.2,19.9,4.7,34c1,9.4,2.2,23.8,2.8,56.8c0.3,16.6,0.5,38.2,0,63.5
		c-0.6,1.3-2.4,5.1-6.8,7.5c-3.3,1.8-6.4,2.1-8,2.2c-6.5-18.4-12.6-42.1-14.8-70c-1.2-15.4-1-29.5,0-42c4.5-6.2,9.4-14.1,13.6-23.7
		C502.2,738.6,504.6,728.8,505.9,721z"/>
	<path class="st44" d="M478.6,647l12.4,6.4c0.3,10,1.6,22.8,5.6,37.2c3.5,12.4,8.1,22.7,12.4,30.8c-0.4,8.1-1.8,18.8-5.6,30.8
		c-3.9,12.1-9.1,21.7-13.5,28.7c-5.2-17.2-10-38.3-12.4-62.7C474.8,690.6,476.1,666.3,478.6,647z"/>
	<path class="st45" d="M478.6,655c-2.4,32.2-2.6,70,1.9,112c4.9,45.3,14.2,85,24.4,118c-6.9,1.6-20.1,3.8-36.1,1
		c-12.8-2.2-22.3-6.8-27.9-10c5-10.4,11.9-26.2,17.5-46c9.5-34.4,8.3-56.9,11.6-101C471.5,711.2,473.9,685.8,478.6,655z"/>
	<path class="st43" d="M430,665c3.8,7.1,9.8,16.3,18.7,25.7c10.5,10.9,21.3,18,29.3,22.3c0-3,0-6,0-8.9l-37.5-39L430,665z"/>
	<path class="st46" d="M430.9,665H423c4.3,8,10.5,17.6,19.1,27.4c12.2,13.9,25,23.4,34.9,29.6c0-3.9,0-7.7,0-11.6
		c-8.6-8.4-17.2-16.8-25.9-25.3C444.3,678.4,437.6,671.7,430.9,665z"/>
	<polygon class="st47" points="565,618 565,631 525,641 548,623 	"/>
	<polygon class="st48" points="498,648.4 563.3,631 584,657.1 563.3,668 519.8,668 	"/>
	<polygon class="st49" points="499.2,645.6 521.2,665.3 536.5,665.3 565,665.3 546.4,677.4 521.2,677.4 485,654.4 	"/>
	<polygon class="st50" points="485,653 525,641 485,602 	"/>
	<polygon class="st51" points="485,602 548,592 565,602 565,618 548,623 525,641 	"/>
	<polygon class="st52" points="430,592 430,578 485,561 523,569 548,592 492,602 	"/>
	<polygon class="st41" points="449,631 449,641 485.3,652.5 485,602 	"/>
	<polygon class="st53" points="430,592 471,599 449,631 430,611 	"/>
	<polygon class="st54" points="400.5,618 383.5,618 371,630 371,639.2 385.8,652.1 400.5,661.3 430,665 400.5,641 	"/>
	<polygon class="st55" points="406,618 397,618 397,631 397,649 412,655 430,665 449,665 449,655 432.6,647.1 413.3,630.5 	"/>
	<polygon class="st54" points="430,592 406,592 406,618 423,647 464,655 492,655 449,639 431,610 	"/>
	<polygon class="st44" points="479,655 489,773 489,832.1 471,719 	"/>
	<polygon class="st54" points="449,641 449,631 430,611 	"/>
	<path class="st37" d="M440.7,876c-18,10.7-36.1,21.3-54.1,32c-22.2,0.3-44.3,0.7-66.5,1l-34.2,8l108.5,28l56.3,15.2l23.1,14.8
		l29.1,20c-4.7-9.4-13.1-29-12.8-55c0.3-27.1,9.7-47.1,14.8-56.4c-6.3,1.9-15.3,3.8-26.1,3.4C461,886.4,447.6,880,440.7,876z"/>
	<polygon class="st41" points="2102.8,561.4 2065.8,600.9 2126.4,561.4 	"/>
	<path class="st43" d="M2110.4,628.4c3.2-0.5,9.5-2,15.3-6.4c2.9-2.2,4.9-4.5,6.1-6.4c3.1,0,6.1,0,9.2,0c-1.7,2.9-4.6,6.9-9.2,10.8
		c-6.3,5.4-12.9,8.1-17,9.6C2113.4,633.5,2111.9,630.9,2110.4,628.4z"/>
	<path class="st42" d="M2121.2,644.3c0.9,5.3,2,12.7,3,21.7c0.6,6,1.4,15.2,1.8,36.2c0.2,10.6,0.3,24.3,0,40.5
		c-0.4,0.8-1.5,3.2-4.3,4.8c-2.1,1.2-4.1,1.3-5.1,1.4c-4.1-11.7-8-26.8-9.4-44.6c-0.8-9.8-0.6-18.8,0-26.8c2.9-4,6-9,8.7-15.1
		C2118.8,655.5,2120.4,649.3,2121.2,644.3z"/>
	<path class="st44" d="M2103.8,597.1l7.9,4.1c0.2,6.4,1,14.5,3.6,23.7c2.2,7.9,5.2,14.5,7.9,19.7c-0.3,5.2-1.1,12-3.6,19.7
		s-5.8,13.9-8.6,18.3c-3.3-10.9-6.4-24.4-7.9-40C2101.4,624.9,2102.2,609.4,2103.8,597.1z"/>
	<path class="st45" d="M2103.8,602.2c-1.5,20.6-1.7,44.6,1.2,71.4c3.1,28.9,9.1,54.2,15.6,75.2c-4.4,1-12.8,2.4-23,0.6
		c-8.2-1.4-14.2-4.3-17.8-6.4c3.2-6.6,7.6-16.7,11.1-29.3c6.1-21.9,5.3-36.3,7.4-64.4C2099.2,638.1,2100.8,621.9,2103.8,602.2z"/>
	<path class="st43" d="M2072.8,608.6c2.4,4.5,6.2,10.4,11.9,16.4c6.7,7,13.6,11.5,18.7,14.2c0-1.9,0-3.8,0-5.7l-23.9-24.9H2072.8z"
		/>
	<path class="st46" d="M2073.4,608.6h-5c2.8,5.1,6.7,11.2,12.2,17.5c7.8,8.8,15.9,14.9,22.2,18.8c0-2.5,0-4.9,0-7.4
		c-5.5-5.3-11-10.7-16.5-16.2C2081.9,617.1,2077.6,612.9,2073.4,608.6z"/>
	<polygon class="st47" points="2158.9,578.6 2158.9,586.9 2133.4,593.3 2148,581.8 	"/>
	<polygon class="st48" points="2116.2,598 2157.8,586.9 2171,603.6 2157.8,610.5 2130,610.5 	"/>
	<polygon class="st49" points="2117,596.2 2130.9,608.8 2140.7,608.8 2158.9,608.8 2147,616.5 2130.9,616.5 2107.9,601.8 	"/>
	<polygon class="st50" points="2107.9,600.9 2133.4,593.3 2107.9,568.4 	"/>
	<polygon class="st51" points="2107.9,568.4 2148,562.1 2158.9,568.4 2158.9,578.6 2148,581.8 2133.4,593.3 	"/>
	<polygon class="st52" points="2072.8,562.1 2072.8,553.1 2107.9,542.3 2132.1,547.4 2148,562.1 2112.3,568.4 	"/>
	<polygon class="st41" points="2084.9,586.9 2084.9,593.3 2108.1,600.6 2107.9,568.4 	"/>
	<polygon class="st53" points="2072.8,562.1 2099,566.5 2084.9,586.9 2072.8,574.2 	"/>
	<polygon class="st54" points="2054,578.6 2043.2,578.6 2035.2,586.3 2035.2,592.1 2044.6,600.4 2054,606.2 2072.8,608.6 
		2054,593.3 	"/>
	<polygon class="st55" points="2057.5,578.6 2051.8,578.6 2051.8,586.9 2051.8,598.4 2061.3,602.2 2072.8,608.6 2084.9,608.6 
		2084.9,602.2 2074.5,597.2 2062.2,586.6 	"/>
	<polygon class="st54" points="2072.8,562.1 2057.5,562.1 2057.5,578.6 2068.3,597.1 2094.5,602.2 2112.3,602.2 2084.9,592 
		2073.4,573.5 	"/>
	<polygon class="st44" points="2104.1,602.2 2110.4,677.5 2110.4,715.1 2099,643 	"/>
	<polygon class="st54" points="2084.9,593.3 2084.9,586.9 2072.8,574.2 	"/>
	<polygon class="st41" points="1645.4,482.1 1620.7,508.5 1661.2,482.1 	"/>
	<path class="st43" d="M1650.5,526.8c2.2-0.4,6.4-1.3,10.2-4.3c2-1.5,3.3-3,4.1-4.3c2,0,4.1,0,6.1,0c-1.1,2-3,4.6-6.1,7.2
		c-4.2,3.6-8.6,5.4-11.4,6.4C1652.5,530.3,1651.5,528.5,1650.5,526.8z"/>
	<path class="st42" d="M1657.7,537.5c0.6,3.5,1.4,8.5,2,14.5c0.4,4,0.9,10.1,1.2,24.2c0.1,7.1,0.2,16.3,0,27.1
		c-0.2,0.6-1,2.2-2.9,3.2c-1.4,0.8-2.7,0.9-3.4,0.9c-2.8-7.9-5.4-17.9-6.3-29.8c-0.5-6.6-0.4-12.6,0-17.9c1.9-2.6,4-6,5.8-10.1
		C1656.1,545,1657.2,540.8,1657.7,537.5z"/>
	<path class="st44" d="M1646.1,506l5.3,2.7c0.1,4.3,0.7,9.7,2.4,15.9c1.5,5.3,3.4,9.7,5.3,13.1c-0.2,3.5-0.8,8-2.4,13.1
		c-1.7,5.2-3.9,9.3-5.8,12.2c-2.2-7.3-4.3-16.3-5.3-26.7C1644.4,524.5,1645,514.2,1646.1,506z"/>
	<path class="st45" d="M1646.1,509.4c-1,13.7-1.1,29.8,0.8,47.7c2.1,19.3,6.1,36.2,10.4,50.3c-3,0.7-8.6,1.6-15.4,0.4
		c-5.5-1-9.5-2.9-11.9-4.3c2.1-4.4,5.1-11.1,7.4-19.6c4.1-14.7,3.5-24.3,5-43.1C1643,533.3,1644.1,522.5,1646.1,509.4z"/>
	<path class="st43" d="M1625.3,513.6c1.6,3,4.2,7,8,10.9c4.5,4.7,9.1,7.7,12.5,9.5c0-1.3,0-2.5,0-3.8l-16-16.6L1625.3,513.6z"/>
	<path class="st46" d="M1625.7,513.6h-3.4c1.9,3.4,4.5,7.5,8.2,11.7c5.2,5.9,10.6,10,14.9,12.6c0-1.7,0-3.3,0-5
		c-3.7-3.6-7.3-7.2-11-10.8C1631.5,519.3,1628.6,516.5,1625.7,513.6z"/>
	<polygon class="st47" points="1682.9,493.6 1682.9,499.1 1665.8,503.4 1675.7,495.7 	"/>
	<polygon class="st48" points="1654.3,506.6 1682.2,499.1 1691,510.3 1682.2,514.9 1663.6,514.9 	"/>
	<polygon class="st49" points="1654.9,505.4 1664.2,513.8 1670.8,513.8 1682.9,513.8 1675,518.9 1664.2,518.9 1648.8,509.1 	"/>
	<polygon class="st50" points="1648.8,508.5 1665.8,503.4 1648.8,486.8 	"/>
	<polygon class="st51" points="1648.8,486.8 1675.7,482.5 1682.9,486.8 1682.9,493.6 1675.7,495.7 1665.8,503.4 	"/>
	<polygon class="st52" points="1625.3,482.5 1625.3,476.5 1648.8,469.3 1665,472.7 1675.7,482.5 1651.8,486.8 	"/>
	<polygon class="st41" points="1633.4,499.1 1633.4,503.4 1648.9,508.3 1648.8,486.8 	"/>
	<polygon class="st53" points="1625.3,482.5 1642.8,485.5 1633.4,499.1 1625.3,490.6 	"/>
	<polygon class="st54" points="1612.8,493.6 1605.5,493.6 1600.2,498.7 1600.2,502.6 1606.5,508.1 1612.8,512.1 1625.3,513.6 
		1612.8,503.4 	"/>
	<polygon class="st55" points="1615.1,493.6 1611.3,493.6 1611.3,499.1 1611.3,506.8 1617.7,509.4 1625.3,513.6 1633.4,513.6 
		1633.4,509.4 1626.5,506 1618.2,498.9 	"/>
	<polygon class="st54" points="1625.3,482.5 1615.1,482.5 1615.1,493.6 1622.4,506 1639.8,509.4 1651.8,509.4 1633.4,502.5 
		1625.8,490.2 	"/>
	<polygon class="st44" points="1646.3,509.4 1650.5,559.7 1650.5,584.8 1642.8,536.6 	"/>
	<polygon class="st54" points="1633.4,503.4 1633.4,499.1 1625.3,490.6 	"/>
	<polygon class="st41" points="1693.4,512.6 1663.7,544.3 1712.2,512.6 	"/>
	<path class="st43" d="M1699.5,566.3c2.6-0.4,7.6-1.6,12.3-5.1c2.3-1.8,3.9-3.6,4.9-5.1c2.4,0,4.9,0,7.3,0c-1.4,2.3-3.7,5.5-7.3,8.7
		c-5,4.3-10.3,6.5-13.7,7.7C1701.8,570.3,1700.6,568.3,1699.5,566.3z"/>
	<path class="st42" d="M1708.1,579c0.7,4.2,1.6,10.2,2.4,17.4c0.5,4.8,1.1,12.1,1.4,29c0.2,8.5,0.2,19.5,0,32.5
		c-0.3,0.7-1.2,2.6-3.5,3.9c-1.7,0.9-3.3,1.1-4.1,1.1c-3.3-9.4-6.4-21.5-7.5-35.8c-0.6-7.9-0.5-15.1,0-21.5c2.3-3.2,4.8-7.2,7-12.1
		C1706.2,588,1707.5,583,1708.1,579z"/>
	<path class="st44" d="M1694.2,541.2l6.3,3.3c0.1,5.1,0.8,11.7,2.9,19c1.8,6.3,4.1,11.6,6.3,15.8c-0.2,4.1-0.9,9.6-2.9,15.8
		s-4.6,11.1-6.9,14.7c-2.7-8.8-5.1-19.6-6.3-32.1C1692.2,563.5,1692.9,551.1,1694.2,541.2z"/>
	<path class="st45" d="M1694.2,545.3c-1.2,16.5-1.3,35.8,1,57.2c2.5,23.1,7.3,43.4,12.5,60.3c-3.5,0.8-10.3,1.9-18.4,0.5
		c-6.6-1.1-11.4-3.5-14.3-5.1c2.6-5.3,6.1-13.4,8.9-23.5c4.9-17.6,4.2-29.1,5.9-51.6C1690.5,574,1691.8,561.1,1694.2,545.3z"/>
	<path class="st43" d="M1669.3,550.4c2,3.6,5,8.3,9.6,13.1c5.4,5.6,10.9,9.2,15,11.4c0-1.5,0-3,0-4.6l-19.1-19.9H1669.3z"/>
	<path class="st46" d="M1669.8,550.4h-4c2.2,4.1,5.4,9,9.8,14c6.2,7.1,12.8,11.9,17.8,15.1c0-2,0-4,0-5.9
		c-4.4-4.3-8.8-8.6-13.2-12.9C1676.7,557.2,1673.2,553.8,1669.8,550.4z"/>
	<polygon class="st47" points="1738.3,526.4 1738.3,533 1717.9,538.2 1729.6,529 	"/>
	<polygon class="st48" points="1704.1,541.9 1737.4,533 1748,546.4 1737.4,552 1715.2,552 	"/>
	<polygon class="st49" points="1704.7,540.5 1715.9,550.6 1723.7,550.6 1738.3,550.6 1728.8,556.7 1715.9,556.7 1697.4,545 	"/>
	<polygon class="st50" points="1697.4,544.3 1717.9,538.2 1697.4,518.2 	"/>
	<polygon class="st51" points="1697.4,518.2 1729.6,513.1 1738.3,518.2 1738.3,526.4 1729.6,529 1717.9,538.2 	"/>
	<polygon class="st52" points="1669.3,513.1 1669.3,506 1697.4,497.3 1716.8,501.4 1729.6,513.1 1701,518.2 	"/>
	<polygon class="st41" points="1679,533 1679,538.2 1697.6,544 1697.4,518.2 	"/>
	<polygon class="st53" points="1669.3,513.1 1690.3,516.7 1679,533 1669.3,522.8 	"/>
	<polygon class="st54" points="1654.3,526.4 1645.6,526.4 1639.2,532.5 1639.2,537.2 1646.7,543.8 1654.3,548.5 1669.3,550.4 
		1654.3,538.2 	"/>
	<polygon class="st55" points="1657.1,526.4 1652.5,526.4 1652.5,533 1652.5,542.2 1660.1,545.3 1669.3,550.4 1679,550.4 
		1679,545.3 1670.7,541.3 1660.8,532.8 	"/>
	<polygon class="st54" points="1669.3,513.1 1657.1,513.1 1657.1,526.4 1665.8,541.2 1686.7,545.3 1701,545.3 1679,537.1 
		1669.8,522.3 	"/>
	<polygon class="st44" points="1694.4,545.3 1699.5,605.6 1699.5,635.8 1690.3,578 	"/>
	<polygon class="st54" points="1679,538.2 1679,533 1669.3,522.8 	"/>
	<polygon class="st41" points="696.1,509.5 646.8,562.2 727.5,509.5 	"/>
	<path class="st42" d="M923,685"/>
	<path class="st43" d="M706.3,598.7c4.3-0.7,12.7-2.7,20.4-8.5c3.9-3,6.5-6.1,8.2-8.5c4.1,0,8.1,0,12.2,0
		c-2.3,3.9-6.1,9.2-12.2,14.4c-8.3,7.1-17.2,10.9-22.7,12.7C710.2,605.5,708.2,602.1,706.3,598.7z"/>
	<path class="st42" d="M720.7,620c1.2,7,2.7,16.9,4,28.9c0.8,8,1.9,20.2,2.4,48.2c0.3,14.1,0.4,32.4,0,54c-0.5,1.1-2,4.3-5.8,6.4
		c-2.8,1.6-5.4,1.8-6.8,1.8c-5.5-15.6-10.7-35.8-12.6-59.5c-1-13.1-0.8-25.1,0-35.7c3.8-5.3,8-12,11.6-20.1
		C717.5,634.9,719.5,626.6,720.7,620z"/>
	<path class="st44" d="M697.4,557.1l10.5,5.4c0.2,8.5,1.3,19.4,4.8,31.6c3,10.5,6.9,19.3,10.5,26.2c-0.3,6.9-1.5,16-4.8,26.2
		c-3.3,10.3-7.7,18.5-11.5,24.4c-4.4-14.6-8.5-32.5-10.5-53.3C694.2,594.1,695.3,573.5,697.4,557.1z"/>
	<path class="st45" d="M697.4,563.9c-2,27.4-2.2,59.5,1.7,95.2c4.2,38.5,12.1,72.2,20.8,100.3c-5.9,1.4-17.1,3.2-30.7,0.8
		c-10.9-1.9-19-5.8-23.7-8.5c4.3-8.8,10.2-22.2,14.8-39.1c8.1-29.2,7-48.4,9.9-85.8C691.4,611.7,693.4,590.1,697.4,563.9z"/>
	<path class="st43" d="M656.1,572.4c3.3,6.1,8.3,13.9,15.9,21.8c8.9,9.3,18.1,15.3,24.9,19c0-2.5,0-5.1,0-7.6l-31.8-33.2H656.1z"/>
	<path class="st46" d="M656.9,572.4h-6.7c3.7,6.8,8.9,14.9,16.3,23.3c10.4,11.8,21.2,19.8,29.6,25.1c0-3.3,0-6.6,0-9.9
		c-7.3-7.1-14.6-14.3-22-21.5C668.3,583.7,662.6,578,656.9,572.4z"/>
	<polygon class="st47" points="770.9,532.4 770.9,543.5 736.9,552 756.4,536.7 	"/>
	<polygon class="st48" points="713.9,558.3 769.4,543.5 787,565.7 769.4,574.9 732.4,574.9 	"/>
	<polygon class="st49" points="715,555.9 733.6,572.7 746.6,572.7 770.9,572.7 755,582.9 733.6,582.9 702.9,563.3 	"/>
	<polygon class="st50" points="702.9,562.2 736.9,552 702.9,518.8 	"/>
	<polygon class="st51" points="702.9,518.8 756.4,510.3 770.9,518.8 770.9,532.4 756.4,536.7 736.9,552 	"/>
	<polygon class="st52" points="656.1,510.3 656.1,498.4 702.9,484 735.2,490.8 756.4,510.3 708.8,518.8 	"/>
	<polygon class="st41" points="672.3,543.5 672.3,552 703.2,561.8 702.9,518.8 	"/>
	<polygon class="st53" points="656.1,510.3 691,516.3 672.3,543.5 656.1,526.5 	"/>
	<polygon class="st54" points="631.1,532.4 616.6,532.4 606,542.6 606,550.4 618.5,561.4 631.1,569.2 656.1,572.4 631.1,552 	"/>
	<polygon class="st55" points="635.7,532.4 628.1,532.4 628.1,543.5 628.1,558.8 640.8,563.9 656.1,572.4 672.3,572.4 672.3,563.9 
		658.4,557.2 642,543.1 	"/>
	<polygon class="st54" points="656.1,510.3 635.7,510.3 635.7,532.4 650.2,557.1 685,563.9 708.8,563.9 672.3,550.3 657,525.6 	"/>
	<polygon class="st44" points="697.8,563.9 706.3,664.2 706.3,714.3 691,618.3 	"/>
	<polygon class="st54" points="672.3,552 672.3,543.5 656.1,526.5 	"/>
	<polygon class="st41" points="800.1,549.6 744.7,608.7 835.3,549.6 	"/>
	<path class="st43" d="M811.5,649.7c4.8-0.8,14.3-3,22.9-9.5c4.4-3.3,7.3-6.8,9.2-9.5c4.6,0,9.1,0,13.7,0
		c-2.6,4.4-6.8,10.3-13.7,16.2c-9.4,8-19.3,12.2-25.5,14.3C815.8,657.3,813.6,653.5,811.5,649.7z"/>
	<path class="st42" d="M827.6,673.5c1.3,7.9,3.1,19,4.4,32.4c0.9,9,2.1,22.7,2.7,54.1c0.3,15.8,0.4,36.4,0,60.5
		c-0.5,1.2-2.3,4.8-6.5,7.2c-3.1,1.8-6.1,2-7.6,2.1c-6.2-17.5-12-40.1-14.1-66.7c-1.1-14.7-0.9-28.1,0-40c4.3-5.9,9-13.5,13-22.6
		C824,690.2,826.3,680.9,827.6,673.5z"/>
	<path class="st44" d="M801.5,603l11.8,6.1c0.2,9.5,1.5,21.7,5.4,35.5c3.3,11.8,7.7,21.7,11.8,29.4c-0.4,7.7-1.7,17.9-5.4,29.4
		s-8.6,20.7-12.9,27.4c-4.9-16.3-9.6-36.5-11.8-59.8C797.9,644.5,799.2,621.4,801.5,603z"/>
	<path class="st43" d="M755.2,620.1c3.7,6.8,9.3,15.6,17.9,24.5c10,10.4,20.3,17.1,27.9,21.3c0-2.8,0-5.7,0-8.5l-35.7-37.2
		L755.2,620.1z"/>
	<path class="st46" d="M756.1,620.1h-7.5c4.1,7.6,10,16.8,18.2,26.1c11.6,13.2,23.8,22.3,33.2,28.2c0-3.7,0-7.4,0-11.1
		c-8.2-8-16.4-16-24.7-24.1C768.9,632.8,762.5,626.5,756.1,620.1z"/>
	<polygon class="st47" points="883.9,575.3 883.9,587.7 845.8,597.2 867.7,580.1 	"/>
	<polygon class="st48" points="820,604.3 882.3,587.7 902,612.6 882.3,623 840.8,623 	"/>
	<polygon class="st49" points="821.2,601.6 842.1,620.4 856.7,620.4 883.9,620.4 866.1,631.9 842.1,631.9 807.6,610 	"/>
	<polygon class="st50" points="807.6,608.7 845.8,597.2 807.6,560.1 	"/>
	<polygon class="st51" points="807.6,560.1 867.7,550.5 883.9,560.1 883.9,575.3 867.7,580.1 845.8,597.2 	"/>
	<polygon class="st52" points="755.2,550.5 755.2,537.2 807.6,521 843.9,528.6 867.7,550.5 814.3,560.1 	"/>
	<polygon class="st41" points="773.3,587.7 773.3,597.2 808,608.2 807.6,560.1 	"/>
	<polygon class="st53" points="755.2,550.5 794.3,557.2 773.3,587.7 755.2,568.7 	"/>
	<polygon class="st54" points="727.1,575.3 710.9,575.3 699,586.7 699,595.5 713.1,607.8 727.1,616.6 755.2,620.1 727.1,597.3 	"/>
	<polygon class="st55" points="732.4,575.3 723.8,575.3 723.8,587.7 723.8,604.9 738.1,610.6 755.2,620.1 773.3,620.1 773.3,610.6 
		757.7,603.1 739.3,587.2 	"/>
	<polygon class="st54" points="755.2,550.5 732.4,550.5 732.4,575.3 748.6,603 787.6,610.6 814.3,610.6 773.3,595.3 756.2,567.7 	
		"/>
	<polygon class="st44" points="802,610.6 811.5,723 811.5,779.3 794.3,671.6 	"/>
	<polygon class="st54" points="773.3,597.2 773.3,587.7 755.2,568.7 	"/>
	<path class="st45" d="M801.6,610.6c-2.3,30.7-2.5,66.7,1.9,106.7c4.7,43.1,13.6,81,23.3,112.5c-6.6,1.5-19.2,3.6-34.4,1
		c-12.2-2.1-21.3-6.5-26.6-9.5c4.8-9.9,11.4-24.9,16.6-43.8c9.1-32.8,7.9-54.3,11.1-96.3C794.7,664.2,797.1,640,801.6,610.6z"/>
	<path class="st37" d="M766,821c6.1,3.4,16,8,29,10c13.7,2.1,25,0.5,32-1c-12,23.7-24,47.3-36,71l-85,46l-89,26l-60-64l50-47
		C660,848.3,713,834.7,766,821"/>
	<g id="Haus">
		<rect x="2016.5" y="715.8" class="st56" width="56.4" height="61.5"/>
		<polygon class="st56" points="2042.3,664.4 2011.9,717.1 2072.7,717.1 		"/>
		<polygon class="st57" points="2072.9,717.1 2104,702.5 2104,756.4 2072.9,777.3 		"/>
		<polygon class="st58" points="2042.2,664.1 2011.7,716.8 2003.5,718.7 2011.7,709.2 		"/>
		<polygon class="st59" points="2041.9,664.4 2072.9,717.1 2078.7,722.8 2111,705.7 2080.6,660 		"/>
		<path class="st37" d="M665.5,751.5l-81,20l-71-5L514,832l-0.5,43.5l206-116c-6.5,1.4-17.4,2.9-30.5,0.5
			C678.7,758.1,670.8,754.4,665.5,751.5z"/>
		<path class="st36" d="M766,821"/>
		<polyline class="st37" points="2121,749 2107,769 2080,788 2035,793 2017,788 2017,777 2073,777 2104,756 2104,750.2 
			2116.5,748.9 2121,749 		"/>
	</g>
</g>
<path class="st45" d="M1607.7,821.7v57.2c-6.8,3.7-21.9,10.7-42.4,10.8c-21.3,0.2-36.9-7.2-43.7-10.8c0-19.1,0-38.1,0-57.2
	c6.1,3.7,21.7,11.9,43.4,11.8C1586.3,833.4,1601.6,825.3,1607.7,821.7z"/>
<line class="st60" x1="1521.6" y1="751.7" x2="1607.7" y2="751.7"/>
<ellipse class="st61" cx="1564.7" cy="818.4" rx="43.1" ry="18.4"/>
<line class="st60" x1="1565" y1="824.8" x2="1564.7" y2="753.3"/>
<path class="st62" d="M2142.6,711.9l-12.6,50.7c0.7,0.8,4.2,4.6,10,5c7,0.5,11.5-4.4,12-5C2148.9,745.7,2145.7,728.8,2142.6,711.9z"
	/>
<circle class="st44" cx="2142.6" cy="711.9" r="9.4"/>
<ellipse class="st63" cx="2127.5" cy="773" rx="31.4" ry="20"/>
<polygon class="st64" points="2104,786.3 2103.4,793 2106.7,789.6 2107.9,793 2110.1,789.6 "/>
<polygon class="st64" points="2136.7,792.3 2141.4,797.1 2141,792.4 2144.3,793.7 2143.1,789.8 "/>
<polygon class="st65" points="2151.1,755.6 2141.7,749.3 2147.6,764.2 "/>
<polygon class="st65" points="2161.5,756.1 2161.5,744.7 2152.3,757.9 "/>
<circle class="st66" cx="2154.8" cy="765.2" r="12.1"/>
<ellipse class="st65" cx="2156.7" cy="768" rx="4.7" ry="2.9"/>
<circle class="st67" cx="2150.1" cy="761.1" r="1.1"/>
<circle class="st67" cx="2158.1" cy="760.1" r="1.1"/>
</svg>
