<svg id="Ebene_1" data-name="Ebene 1" xmlns="http://www.w3.org/2000/svg" viewBox="0 0 438.93 1660.5"><defs><style>.cls-1{fill:#80bee5;}.cls-2{fill:#a2c9dd;}</style></defs><title>wasserfall</title><g id="Meer"><polygon class="cls-1" points="234.24 193.97 144.5 146.46 81.58 147.71 29.51 127.03 0 102.47 63.13 42.88 261.04 0 396.1 1.26 391.77 79.17 234.24 193.97"/></g><path class="cls-1" d="M886.33-160.92c-6.56-121.24-34.43-216-64.27-214.93l-14.46.52-5.95.21-110.22,4c30-1.08,58,94.6,64.37,216.7H756l13.88,385.55c15.43-1.48,14-45.59,29.8-46.16,16-.57,17.58,44.5,33.53,43.92s14.33-45.64,30.29-46.22S881,227.13,897,226.55a8,8,0,0,0,3.43-.94L886.52-160.93Z" transform="translate(-463.36 446.35)"/><path class="cls-2" d="M879.65-223.4a9.67,9.67,0,0,1-3.43.83c-16,.83-17.84-35-33.8-34.16s-14.09,36.67-30.05,37.5-17.84-35-33.8-34.16c-15.8.83-14.14,35.9-29.57,37.44L763.88,68.71l130.68-6.83Z" transform="translate(-463.36 446.35)"/><path class="cls-1" d="M768.82,45.09c15.74-.45,15.06-24.67,30.8-25.11S816,43.75,831.78,43.3s15.05-24.67,30.8-25.11c15.58-.44,16.42,23.26,31.69,23.32l3.89,137.41.4,14.29,3.71,130.93c.44,15.71-4.89,28.73-11.85,28.93l-2.52.07c-7,.2-13-12.5-13.46-28.21l-3.34-118.15c-.2-7.06-2.9-12.7-6-12.61h-.33c-3.13.09-5.5,5.88-5.3,12.93L864.5,386c.72,25.51-7.93,46.64-19.23,47l-4.09.12c-11.3.32-21.14-20.29-21.86-45.8l-5.06-178.9c-.2-7.06-2.9-12.7-6-12.61s-5.5,5.88-5.3,12.94l2.89,102.1c.53,18.56-5.77,33.94-14,34.18l-3,.08c-8.22.23-15.38-14.77-15.91-33.33L769.7,196.85l-1.6-56.7-2.7-95.4A13.47,13.47,0,0,0,768.82,45.09Z" transform="translate(-463.36 446.35)"/><rect class="cls-1" x="304.75" y="629.35" width="134.19" height="1031.15"/></svg>