<svg id="Ebene_1" data-name="Ebene 1" xmlns="http://www.w3.org/2000/svg" viewBox="0 0 220.03 723"><defs><style>.cls-1{fill:#80bee5;}.cls-2{fill:#a2c9dd;}</style></defs><title>wasserfall_mit_see</title><path class="cls-1" d="M599.15,261.13C601.19,147.47,624,57.88,652,57.88H774.14c-28,0-51,90.46-52.85,204.9h-.14V624c-14.46-.87-14.63-42.18-29.39-42.18-14.92,0-14.92,42.22-29.85,42.22S647,581.78,632.06,581.78,617.13,624,602.21,624a7.42,7.42,0,0,1-3.23-.76V261.13Z" transform="translate(-597.97 -36)"/><path class="cls-2" d="M599,331.34a8.51,8.51,0,0,0,3.23.65c14.93,0,14.93-35.88,29.85-35.88S647,332,661.91,332s14.92-35.88,29.85-35.88c14.77,0,14.93,35.11,29.39,35.85V617H599Z" transform="translate(-597.97 -36)"/><path class="cls-1" d="M601.21,606.48c14.93,0,14.93-9.48,29.85-9.48s14.92,9.48,29.85,9.48S675.84,597,690.76,597c14.77,0,14.93,9.28,29.39,9.47v110.6c0,6.15-5.4,11.18-12,11.18h-2.39c-6.6,0-12-5-12-11.18V670.84a5.19,5.19,0,0,0-5.37-5h-.31a5.19,5.19,0,0,0-5.37,5v70c0,10-8.77,18.15-19.48,18.15h-3.88c-10.71,0-19.48-8.17-19.48-18.15v-70a5.38,5.38,0,0,0-10.73,0v40c0,7.27-6.38,13.21-14.18,13.21h-2.82c-7.8,0-14.18-5.94-14.18-13.21V606.31A30.21,30.21,0,0,0,601.21,606.48Z" transform="translate(-597.97 -36)"/><ellipse class="cls-1" cx="114.53" cy="21.5" rx="105.5" ry="21.5"/></svg>